<svg width="301" height="131" viewBox="0 0 301 131" fill="none" xmlns="http://www.w3.org/2000/svg">
<g filter="url(#filter0_d)">
<path d="M13.166 116.207C11.398 116.207 9.85667 115.923 8.542 115.357C7.22733 114.79 6.20733 113.997 5.482 112.977C4.77933 111.957 4.428 110.755 4.428 109.373V108.523C4.428 108.409 4.462 108.319 4.53 108.251C4.62067 108.16 4.72267 108.115 4.836 108.115H7.862C7.97533 108.115 8.066 108.16 8.134 108.251C8.22467 108.319 8.27 108.409 8.27 108.523V109.169C8.27 110.211 8.73467 111.084 9.664 111.787C10.5933 112.467 11.8627 112.807 13.472 112.807C14.8547 112.807 15.8973 112.512 16.6 111.923C17.3027 111.333 17.654 110.574 17.654 109.645C17.654 109.01 17.4613 108.477 17.076 108.047C16.6907 107.593 16.1353 107.185 15.41 106.823C14.7073 106.46 13.642 106.007 12.214 105.463C10.6047 104.873 9.30133 104.318 8.304 103.797C7.30667 103.275 6.468 102.573 5.788 101.689C5.13067 100.782 4.802 99.6599 4.802 98.3226C4.802 96.3279 5.52733 94.7526 6.978 93.5966C8.42867 92.4406 10.3667 91.8626 12.792 91.8626C14.492 91.8626 15.988 92.1572 17.28 92.7466C18.5947 93.3359 19.6147 94.1632 20.34 95.2286C21.0653 96.2712 21.428 97.4839 21.428 98.8666V99.4446C21.428 99.5579 21.3827 99.6599 21.292 99.7506C21.224 99.8186 21.1333 99.8526 21.02 99.8526H17.96C17.8467 99.8526 17.7447 99.8186 17.654 99.7506C17.586 99.6599 17.552 99.5579 17.552 99.4446V99.0706C17.552 98.0052 17.11 97.1099 16.226 96.3846C15.3647 95.6366 14.1633 95.2626 12.622 95.2626C11.3753 95.2626 10.4007 95.5232 9.698 96.0446C9.018 96.5659 8.678 97.3026 8.678 98.2546C8.678 98.9346 8.85933 99.4899 9.222 99.9206C9.58467 100.351 10.1287 100.748 10.854 101.111C11.5793 101.451 12.7013 101.893 14.22 102.437C15.8293 103.049 17.11 103.604 18.062 104.103C19.0367 104.601 19.864 105.304 20.544 106.211C21.2467 107.095 21.598 108.205 21.598 109.543C21.598 111.583 20.8387 113.203 19.32 114.405C17.824 115.606 15.7727 116.207 13.166 116.207ZM44.6779 103.049C45.0859 104.205 45.2899 105.621 45.2899 107.299C45.2899 108.908 45.0972 110.291 44.7119 111.447C44.2132 112.943 43.4086 114.11 42.2979 114.949C41.2099 115.787 39.8272 116.207 38.1499 116.207C36.5406 116.207 35.2486 115.629 34.2739 114.473C34.2286 114.427 34.1832 114.416 34.1379 114.439C34.0926 114.461 34.0699 114.507 34.0699 114.575V121.953C34.0699 122.066 34.0246 122.157 33.9339 122.225C33.8659 122.315 33.7752 122.361 33.6619 122.361H30.5339C30.4206 122.361 30.3186 122.315 30.2279 122.225C30.1599 122.157 30.1259 122.066 30.1259 121.953V98.9686C30.1259 98.8552 30.1599 98.7646 30.2279 98.6966C30.3186 98.6059 30.4206 98.5606 30.5339 98.5606H33.6619C33.7752 98.5606 33.8659 98.6059 33.9339 98.6966C34.0246 98.7646 34.0699 98.8552 34.0699 98.9686V99.9886C34.0699 100.057 34.0926 100.102 34.1379 100.125C34.1832 100.147 34.2286 100.125 34.2739 100.057C35.2712 98.8779 36.5746 98.2886 38.1839 98.2886C39.7932 98.2886 41.1532 98.7079 42.2639 99.5466C43.3746 100.385 44.1792 101.553 44.6779 103.049ZM40.2579 111.379C40.9379 110.336 41.2779 108.953 41.2779 107.231C41.2779 105.576 41.0059 104.273 40.4619 103.321C39.8272 102.21 38.8639 101.655 37.5719 101.655C36.3932 101.655 35.5092 102.199 34.9199 103.287C34.3986 104.171 34.1379 105.485 34.1379 107.231C34.1379 109.021 34.4212 110.381 34.9879 111.311C35.5772 112.308 36.4272 112.807 37.5379 112.807C38.7392 112.807 39.6459 112.331 40.2579 111.379ZM68.3953 105.293C68.4859 105.859 68.5313 106.494 68.5313 107.197L68.4973 108.251C68.4973 108.523 68.3613 108.659 68.0893 108.659H57.4473C57.3339 108.659 57.2773 108.715 57.2773 108.829C57.3453 109.577 57.4473 110.087 57.5833 110.359C58.1273 111.991 59.4533 112.818 61.5613 112.841C63.1026 112.841 64.3266 112.206 65.2333 110.937C65.3239 110.801 65.4373 110.733 65.5733 110.733C65.6639 110.733 65.7433 110.767 65.8113 110.835L67.9193 112.569C68.1233 112.727 68.1573 112.909 68.0213 113.113C67.3186 114.11 66.3779 114.881 65.1993 115.425C64.0433 115.969 62.7513 116.241 61.3233 116.241C59.5553 116.241 58.0479 115.844 56.8013 115.051C55.5773 114.257 54.6819 113.147 54.1153 111.719C53.5939 110.495 53.3333 108.795 53.3333 106.619C53.3333 105.304 53.4693 104.239 53.7413 103.423C54.1946 101.836 55.0446 100.589 56.2913 99.6826C57.5606 98.7532 59.0793 98.2886 60.8473 98.2886C65.3126 98.2886 67.8286 100.623 68.3953 105.293ZM60.8473 101.689C60.0086 101.689 59.3059 101.904 58.7393 102.335C58.1953 102.743 57.8099 103.321 57.5833 104.069C57.4473 104.454 57.3566 104.953 57.3113 105.565C57.2659 105.678 57.3113 105.735 57.4473 105.735H64.3493C64.4626 105.735 64.5193 105.678 64.5193 105.565C64.4739 104.998 64.4059 104.567 64.3153 104.273C64.1113 103.457 63.7033 102.822 63.0913 102.369C62.5019 101.915 61.7539 101.689 60.8473 101.689ZM84.9878 98.3566C85.7131 98.3566 86.3478 98.5039 86.8918 98.7986C87.0731 98.8892 87.1411 99.0592 87.0958 99.3086L86.5178 102.369C86.4951 102.641 86.3365 102.72 86.0418 102.607C85.7018 102.493 85.3051 102.437 84.8518 102.437C84.5571 102.437 84.3305 102.448 84.1718 102.471C83.2198 102.516 82.4265 102.856 81.7918 103.491C81.1571 104.103 80.8398 104.907 80.8398 105.905V115.527C80.8398 115.64 80.7945 115.742 80.7038 115.833C80.6358 115.901 80.5451 115.935 80.4318 115.935H77.3038C77.1905 115.935 77.0885 115.901 76.9978 115.833C76.9298 115.742 76.8958 115.64 76.8958 115.527V98.9686C76.8958 98.8552 76.9298 98.7646 76.9978 98.6966C77.0885 98.6059 77.1905 98.5606 77.3038 98.5606H80.4318C80.5451 98.5606 80.6358 98.6059 80.7038 98.6966C80.7945 98.7646 80.8398 98.8552 80.8398 98.9686V100.499C80.8398 100.589 80.8511 100.646 80.8738 100.669C80.9191 100.669 80.9645 100.635 81.0098 100.567C81.9618 99.0932 83.2878 98.3566 84.9878 98.3566ZM96.683 96.1806C95.9804 96.1806 95.4024 95.9539 94.949 95.5006C94.4957 95.0472 94.269 94.4692 94.269 93.7666C94.269 93.0639 94.4957 92.4859 94.949 92.0326C95.4024 91.5792 95.9804 91.3526 96.683 91.3526C97.3857 91.3526 97.9637 91.5792 98.417 92.0326C98.8704 92.4859 99.097 93.0639 99.097 93.7666C99.097 94.4692 98.8704 95.0472 98.417 95.5006C97.9637 95.9539 97.3857 96.1806 96.683 96.1806ZM95.051 115.935C94.9377 115.935 94.8357 115.901 94.745 115.833C94.677 115.742 94.643 115.64 94.643 115.527V98.9346C94.643 98.8212 94.677 98.7306 94.745 98.6626C94.8357 98.5719 94.9377 98.5266 95.051 98.5266H98.179C98.2923 98.5266 98.383 98.5719 98.451 98.6626C98.5417 98.7306 98.587 98.8212 98.587 98.9346V115.527C98.587 115.64 98.5417 115.742 98.451 115.833C98.383 115.901 98.2923 115.935 98.179 115.935H95.051ZM114.495 98.2886C115.923 98.2886 117.181 98.5379 118.269 99.0366C119.357 99.5352 120.196 100.227 120.785 101.111C121.374 101.972 121.669 102.958 121.669 104.069V115.527C121.669 115.64 121.624 115.742 121.533 115.833C121.465 115.901 121.374 115.935 121.261 115.935H118.133C118.02 115.935 117.918 115.901 117.827 115.833C117.759 115.742 117.725 115.64 117.725 115.527V114.439C117.725 114.371 117.702 114.337 117.657 114.337C117.612 114.314 117.566 114.325 117.521 114.371C116.41 115.595 114.801 116.207 112.693 116.207C110.993 116.207 109.588 115.776 108.477 114.915C107.389 114.053 106.845 112.773 106.845 111.073C106.845 109.305 107.457 107.933 108.681 106.959C109.928 105.961 111.673 105.463 113.917 105.463H117.555C117.668 105.463 117.725 105.406 117.725 105.293V104.477C117.725 103.593 117.464 102.913 116.943 102.437C116.422 101.938 115.64 101.689 114.597 101.689C113.736 101.689 113.033 101.847 112.489 102.165C111.968 102.459 111.639 102.879 111.503 103.423C111.435 103.695 111.276 103.808 111.027 103.763L107.729 103.355C107.616 103.332 107.514 103.298 107.423 103.253C107.355 103.185 107.332 103.105 107.355 103.015C107.536 101.632 108.273 100.499 109.565 99.6146C110.88 98.7306 112.523 98.2886 114.495 98.2886ZM113.679 113.079C114.79 113.079 115.742 112.784 116.535 112.195C117.328 111.605 117.725 110.857 117.725 109.951V108.353C117.725 108.239 117.668 108.183 117.555 108.183H114.699C113.498 108.183 112.546 108.409 111.843 108.863C111.163 109.316 110.823 109.962 110.823 110.801C110.823 111.526 111.084 112.093 111.605 112.501C112.149 112.886 112.84 113.079 113.679 113.079ZM150.285 116.207C148.585 116.207 147.089 115.878 145.797 115.221C144.505 114.541 143.508 113.6 142.805 112.399C142.103 111.197 141.751 109.803 141.751 108.217V99.8186C141.751 98.2319 142.103 96.8379 142.805 95.6366C143.508 94.4352 144.505 93.5059 145.797 92.8486C147.089 92.1912 148.585 91.8626 150.285 91.8626C151.963 91.8626 153.447 92.1799 154.739 92.8146C156.031 93.4492 157.029 94.3446 157.731 95.5006C158.434 96.6566 158.785 97.9939 158.785 99.5126C158.785 99.6259 158.74 99.7279 158.649 99.8186C158.581 99.8866 158.491 99.9206 158.377 99.9206L155.249 100.091C154.977 100.091 154.841 99.9659 154.841 99.7166C154.841 98.3792 154.422 97.3026 153.583 96.4866C152.767 95.6706 151.668 95.2626 150.285 95.2626C148.903 95.2626 147.792 95.6706 146.953 96.4866C146.115 97.3026 145.695 98.3792 145.695 99.7166V108.387C145.695 109.701 146.115 110.767 146.953 111.583C147.792 112.399 148.903 112.807 150.285 112.807C151.668 112.807 152.767 112.41 153.583 111.617C154.422 110.801 154.841 109.724 154.841 108.387C154.841 108.137 154.977 108.013 155.249 108.013L158.377 108.149C158.491 108.149 158.581 108.183 158.649 108.251C158.74 108.319 158.785 108.398 158.785 108.489C158.785 110.03 158.434 111.39 157.731 112.569C157.029 113.725 156.031 114.62 154.739 115.255C153.447 115.889 151.963 116.207 150.285 116.207ZM175.493 98.3566C176.218 98.3566 176.853 98.5039 177.397 98.7986C177.578 98.8892 177.646 99.0592 177.601 99.3086L177.023 102.369C177 102.641 176.842 102.72 176.547 102.607C176.207 102.493 175.81 102.437 175.357 102.437C175.062 102.437 174.836 102.448 174.677 102.471C173.725 102.516 172.932 102.856 172.297 103.491C171.662 104.103 171.345 104.907 171.345 105.905V115.527C171.345 115.64 171.3 115.742 171.209 115.833C171.141 115.901 171.05 115.935 170.937 115.935H167.809C167.696 115.935 167.594 115.901 167.503 115.833C167.435 115.742 167.401 115.64 167.401 115.527V98.9686C167.401 98.8552 167.435 98.7646 167.503 98.6966C167.594 98.6059 167.696 98.5606 167.809 98.5606H170.937C171.05 98.5606 171.141 98.6059 171.209 98.6966C171.3 98.7646 171.345 98.8552 171.345 98.9686V100.499C171.345 100.589 171.356 100.646 171.379 100.669C171.424 100.669 171.47 100.635 171.515 100.567C172.467 99.0932 173.793 98.3566 175.493 98.3566ZM199.266 105.293C199.357 105.859 199.402 106.494 199.402 107.197L199.368 108.251C199.368 108.523 199.232 108.659 198.96 108.659H188.318C188.205 108.659 188.148 108.715 188.148 108.829C188.216 109.577 188.318 110.087 188.454 110.359C188.998 111.991 190.324 112.818 192.432 112.841C193.973 112.841 195.197 112.206 196.104 110.937C196.195 110.801 196.308 110.733 196.444 110.733C196.535 110.733 196.614 110.767 196.682 110.835L198.79 112.569C198.994 112.727 199.028 112.909 198.892 113.113C198.189 114.11 197.249 114.881 196.07 115.425C194.914 115.969 193.622 116.241 192.194 116.241C190.426 116.241 188.919 115.844 187.672 115.051C186.448 114.257 185.553 113.147 184.986 111.719C184.465 110.495 184.204 108.795 184.204 106.619C184.204 105.304 184.34 104.239 184.612 103.423C185.065 101.836 185.915 100.589 187.162 99.6826C188.431 98.7532 189.95 98.2886 191.718 98.2886C196.183 98.2886 198.699 100.623 199.266 105.293ZM191.718 101.689C190.879 101.689 190.177 101.904 189.61 102.335C189.066 102.743 188.681 103.321 188.454 104.069C188.318 104.454 188.227 104.953 188.182 105.565C188.137 105.678 188.182 105.735 188.318 105.735H195.22C195.333 105.735 195.39 105.678 195.39 105.565C195.345 104.998 195.277 104.567 195.186 104.273C194.982 103.457 194.574 102.822 193.962 102.369C193.373 101.915 192.625 101.689 191.718 101.689ZM214.231 98.2886C215.659 98.2886 216.917 98.5379 218.005 99.0366C219.093 99.5352 219.931 100.227 220.521 101.111C221.11 101.972 221.405 102.958 221.405 104.069V115.527C221.405 115.64 221.359 115.742 221.269 115.833C221.201 115.901 221.11 115.935 220.997 115.935H217.869C217.755 115.935 217.653 115.901 217.563 115.833C217.495 115.742 217.461 115.64 217.461 115.527V114.439C217.461 114.371 217.438 114.337 217.393 114.337C217.347 114.314 217.302 114.325 217.257 114.371C216.146 115.595 214.537 116.207 212.429 116.207C210.729 116.207 209.323 115.776 208.213 114.915C207.125 114.053 206.581 112.773 206.581 111.073C206.581 109.305 207.193 107.933 208.417 106.959C209.663 105.961 211.409 105.463 213.653 105.463H217.291C217.404 105.463 217.461 105.406 217.461 105.293V104.477C217.461 103.593 217.2 102.913 216.679 102.437C216.157 101.938 215.375 101.689 214.333 101.689C213.471 101.689 212.769 101.847 212.225 102.165C211.703 102.459 211.375 102.879 211.239 103.423C211.171 103.695 211.012 103.808 210.763 103.763L207.465 103.355C207.351 103.332 207.249 103.298 207.159 103.253C207.091 103.185 207.068 103.105 207.091 103.015C207.272 101.632 208.009 100.499 209.301 99.6146C210.615 98.7306 212.259 98.2886 214.231 98.2886ZM213.415 113.079C214.525 113.079 215.477 112.784 216.271 112.195C217.064 111.605 217.461 110.857 217.461 109.951V108.353C217.461 108.239 217.404 108.183 217.291 108.183H214.435C213.233 108.183 212.281 108.409 211.579 108.863C210.899 109.316 210.559 109.962 210.559 110.801C210.559 111.526 210.819 112.093 211.341 112.501C211.885 112.886 212.576 113.079 213.415 113.079ZM239.073 101.349C239.073 101.462 239.027 101.564 238.937 101.655C238.869 101.723 238.778 101.757 238.665 101.757H235.197C235.083 101.757 235.027 101.813 235.027 101.927V110.121C235.027 110.982 235.208 111.605 235.571 111.991C235.956 112.376 236.557 112.569 237.373 112.569H238.393C238.506 112.569 238.597 112.614 238.665 112.705C238.755 112.773 238.801 112.863 238.801 112.977V115.527C238.801 115.776 238.665 115.923 238.393 115.969L236.625 116.003C234.834 116.003 233.497 115.697 232.613 115.085C231.729 114.473 231.275 113.317 231.253 111.617V101.927C231.253 101.813 231.196 101.757 231.083 101.757H229.145C229.031 101.757 228.929 101.723 228.839 101.655C228.771 101.564 228.737 101.462 228.737 101.349V98.9686C228.737 98.8552 228.771 98.7646 228.839 98.6966C228.929 98.6059 229.031 98.5606 229.145 98.5606H231.083C231.196 98.5606 231.253 98.5039 231.253 98.3906V94.4126C231.253 94.2992 231.287 94.2086 231.355 94.1406C231.445 94.0499 231.547 94.0046 231.661 94.0046H234.619C234.732 94.0046 234.823 94.0499 234.891 94.1406C234.981 94.2086 235.027 94.2992 235.027 94.4126V98.3906C235.027 98.5039 235.083 98.5606 235.197 98.5606H238.665C238.778 98.5606 238.869 98.6059 238.937 98.6966C239.027 98.7646 239.073 98.8552 239.073 98.9686V101.349ZM249.579 96.1806C248.877 96.1806 248.299 95.9539 247.845 95.5006C247.392 95.0472 247.165 94.4692 247.165 93.7666C247.165 93.0639 247.392 92.4859 247.845 92.0326C248.299 91.5792 248.877 91.3526 249.579 91.3526C250.282 91.3526 250.86 91.5792 251.313 92.0326C251.767 92.4859 251.993 93.0639 251.993 93.7666C251.993 94.4692 251.767 95.0472 251.313 95.5006C250.86 95.9539 250.282 96.1806 249.579 96.1806ZM247.947 115.935C247.834 115.935 247.732 115.901 247.641 115.833C247.573 115.742 247.539 115.64 247.539 115.527V98.9346C247.539 98.8212 247.573 98.7306 247.641 98.6626C247.732 98.5719 247.834 98.5266 247.947 98.5266H251.075C251.189 98.5266 251.279 98.5719 251.347 98.6626C251.438 98.7306 251.483 98.8212 251.483 98.9346V115.527C251.483 115.64 251.438 115.742 251.347 115.833C251.279 115.901 251.189 115.935 251.075 115.935H247.947ZM265.453 115.935C265.227 115.935 265.079 115.821 265.011 115.595L259.537 99.0026C259.515 98.9572 259.503 98.9006 259.503 98.8326C259.503 98.6286 259.628 98.5266 259.877 98.5266H263.345C263.595 98.5266 263.753 98.6399 263.821 98.8666L267.119 110.223C267.142 110.291 267.176 110.325 267.221 110.325C267.267 110.325 267.301 110.291 267.323 110.223L270.621 98.8666C270.689 98.6399 270.848 98.5266 271.097 98.5266L274.565 98.5946C274.701 98.5946 274.803 98.6399 274.871 98.7306C274.939 98.7986 274.951 98.9119 274.905 99.0706L269.465 115.595C269.397 115.821 269.25 115.935 269.023 115.935H265.453ZM296.379 105.293C296.469 105.859 296.515 106.494 296.515 107.197L296.481 108.251C296.481 108.523 296.345 108.659 296.073 108.659H285.431C285.317 108.659 285.261 108.715 285.261 108.829C285.329 109.577 285.431 110.087 285.567 110.359C286.111 111.991 287.437 112.818 289.545 112.841C291.086 112.841 292.31 112.206 293.217 110.937C293.307 110.801 293.421 110.733 293.557 110.733C293.647 110.733 293.727 110.767 293.795 110.835L295.903 112.569C296.107 112.727 296.141 112.909 296.005 113.113C295.302 114.11 294.361 114.881 293.183 115.425C292.027 115.969 290.735 116.241 289.307 116.241C287.539 116.241 286.031 115.844 284.785 115.051C283.561 114.257 282.665 113.147 282.099 111.719C281.577 110.495 281.317 108.795 281.317 106.619C281.317 105.304 281.453 104.239 281.725 103.423C282.178 101.836 283.028 100.589 284.275 99.6826C285.544 98.7532 287.063 98.2886 288.831 98.2886C293.296 98.2886 295.812 100.623 296.379 105.293ZM288.831 101.689C287.992 101.689 287.289 101.904 286.723 102.335C286.179 102.743 285.793 103.321 285.567 104.069C285.431 104.454 285.34 104.953 285.295 105.565C285.249 105.678 285.295 105.735 285.431 105.735H292.333C292.446 105.735 292.503 105.678 292.503 105.565C292.457 104.998 292.389 104.567 292.299 104.273C292.095 103.457 291.687 102.822 291.075 102.369C290.485 101.915 289.737 101.689 288.831 101.689Z" fill="#4A5F70"/>
</g>
<g filter="url(#filter1_d)">
<mask id="path-2-inside-1" fill="white">
<path fill-rule="evenodd" clip-rule="evenodd" d="M159.869 40.0043C159.8 40.1217 159.73 40.2385 159.659 40.3548L153.738 50.465C153.532 50.8494 153.312 51.2264 153.079 51.5952L152.977 51.7649L136.302 80.2393L136.034 79.8135L135.86 80.1006L126.103 64.0609L111.653 41.1403C111.578 41.0265 111.504 40.9121 111.431 40.7972C109.094 44.77 107.793 49.3646 107.873 54.2426C108.114 68.9682 120.844 80.7005 136.306 80.4474C151.767 80.1943 164.106 68.0517 163.865 53.3261C163.786 48.4481 162.335 43.8985 159.869 40.0043ZM115.7 42.4084C115.504 41.3518 115.399 40.2649 115.393 39.1554C115.374 35.554 116.405 32.1792 118.213 29.2927L135.269 0.89165L140.111 8.59251L152.719 29.0889C154.464 31.8095 155.514 34.9789 155.631 38.3754C153.961 29.3865 145.71 22.5743 135.792 22.6001C124.678 22.6289 115.678 31.2336 115.69 41.8192C115.69 42.0163 115.694 42.2127 115.7 42.4084ZM134.996 0.4583L134.996 0.45824L134.996 0.458301C134.996 0.458301 134.996 0.458301 134.996 0.4583Z"/>
</mask>
<path fill-rule="evenodd" clip-rule="evenodd" d="M159.869 40.0043C159.8 40.1217 159.73 40.2385 159.659 40.3548L153.738 50.465C153.532 50.8494 153.312 51.2264 153.079 51.5952L152.977 51.7649L136.302 80.2393L136.034 79.8135L135.86 80.1006L126.103 64.0609L111.653 41.1403C111.578 41.0265 111.504 40.9121 111.431 40.7972C109.094 44.77 107.793 49.3646 107.873 54.2426C108.114 68.9682 120.844 80.7005 136.306 80.4474C151.767 80.1943 164.106 68.0517 163.865 53.3261C163.786 48.4481 162.335 43.8985 159.869 40.0043ZM115.7 42.4084C115.504 41.3518 115.399 40.2649 115.393 39.1554C115.374 35.554 116.405 32.1792 118.213 29.2927L135.269 0.89165L140.111 8.59251L152.719 29.0889C154.464 31.8095 155.514 34.9789 155.631 38.3754C153.961 29.3865 145.71 22.5743 135.792 22.6001C124.678 22.6289 115.678 31.2336 115.69 41.8192C115.69 42.0163 115.694 42.2127 115.7 42.4084ZM134.996 0.4583L134.996 0.45824L134.996 0.458301C134.996 0.458301 134.996 0.458301 134.996 0.4583Z" fill="white"/>
<path d="M159.869 40.0043L202.112 13.2539L158.356 -55.8422L116.803 14.601L159.869 40.0043ZM159.659 40.3548L116.993 14.2856L116.749 14.6846L116.513 15.0881L159.659 40.3548ZM153.738 50.465L110.592 25.1984L110.128 25.9902L109.694 26.7985L153.738 50.465ZM153.079 51.5952L110.775 24.9427L110.525 25.3402L110.282 25.7423L153.079 51.5952ZM152.977 51.7649L110.179 25.912L110.003 26.2039L109.831 26.4983L152.977 51.7649ZM136.302 80.2393L94.006 106.905L137.878 176.493L179.448 105.506L136.302 80.2393ZM136.034 79.8135L178.33 53.1482L135.124 -15.3838L93.2359 53.9609L136.034 79.8135ZM135.86 80.1006L93.1437 106.087L136.011 176.553L178.658 105.953L135.86 80.1006ZM126.103 64.0609L168.819 38.0745L168.612 37.7334L168.399 37.3956L126.103 64.0609ZM111.653 41.1403L153.949 14.4751L153.699 14.0797L153.443 13.689L111.653 41.1403ZM111.431 40.7972L153.642 13.9978L109.806 -55.0474L68.3357 15.4437L111.431 40.7972ZM115.7 42.4084L66.5424 51.5471L165.673 40.7645L115.7 42.4084ZM115.393 39.1554L65.3936 39.4122L65.3936 39.4122L115.393 39.1554ZM118.213 29.2927L160.588 55.833L160.837 55.4358L161.078 55.034L118.213 29.2927ZM135.269 0.89165L177.596 -25.7246L134.288 -94.5955L92.404 -24.8496L135.269 0.89165ZM140.111 8.59251L182.699 -17.6038L182.57 -17.8145L182.438 -18.0238L140.111 8.59251ZM152.719 29.0889L110.131 55.2852L110.379 55.6883L110.634 56.0867L152.719 29.0889ZM155.631 38.3754L106.472 47.5084L205.601 36.6454L155.631 38.3754ZM135.792 22.6001L135.662 -27.3998L135.662 -27.3998L135.792 22.6001ZM115.69 41.8192L65.6901 41.8784L65.6901 41.8785L115.69 41.8192ZM134.996 0.4583L135.815 50.4516L223.64 49.0141L177.565 -25.7689L134.996 0.4583ZM134.996 0.45824L177.565 -25.7689L101.016 -150.016L85.2875 -4.93066L134.996 0.45824ZM134.996 0.458301L85.2875 -4.9306L79.183 51.3786L135.815 50.4516L134.996 0.458301ZM116.803 14.601C116.866 14.4946 116.929 14.3895 116.993 14.2856L202.325 66.424C202.53 66.0875 202.734 65.7487 202.935 65.4076L116.803 14.601ZM116.513 15.0881L110.592 25.1984L196.884 75.7317L202.805 65.6214L116.513 15.0881ZM195.384 78.2478C196.226 76.9099 197.027 75.5373 197.782 74.1315L109.694 26.7985C110.036 26.1616 110.397 25.5428 110.775 24.9427L195.384 78.2478ZM195.774 77.6179L195.877 77.4482L110.282 25.7423L110.179 25.912L195.774 77.6179ZM109.831 26.4983L93.1559 54.9727L179.448 105.506L196.123 77.0316L109.831 26.4983ZM178.598 53.5741L178.33 53.1482L93.7375 106.479L94.006 106.905L178.598 53.5741ZM178.658 105.953L178.831 105.666L93.2359 53.9609L93.0625 54.248L178.658 105.953ZM83.386 90.0473L93.1437 106.087L178.577 54.1141L168.819 38.0745L83.386 90.0473ZM168.399 37.3956L153.949 14.4751L69.3564 67.8055L83.8064 90.7261L168.399 37.3956ZM153.443 13.689C153.51 13.7913 153.576 13.8943 153.642 13.9978L69.2196 67.5965C69.4313 67.93 69.6455 68.2617 69.8622 68.5916L153.443 13.689ZM68.3357 15.4437C61.5272 27.0165 57.6432 40.6221 57.8796 55.0609L157.866 53.4243C157.943 58.1071 156.66 62.5235 154.526 66.1507L68.3357 15.4437ZM57.8796 55.0609C58.6097 99.6676 96.378 131.108 137.124 130.441L135.487 30.4541C145.309 30.2934 157.618 38.2689 157.866 53.4243L57.8796 55.0609ZM137.124 130.441C177.87 129.774 214.589 97.1144 213.859 52.5077L113.872 54.1444C113.624 38.989 125.665 30.6149 135.487 30.4541L137.124 130.441ZM213.859 52.5077C213.622 38.0689 209.295 24.5977 202.112 13.2539L117.627 66.7547C115.375 63.1993 113.949 58.8272 113.872 54.1444L213.859 52.5077ZM164.858 33.2698C165.203 35.1261 165.383 37.0115 165.392 38.8985L65.3936 39.4122C65.4147 43.5183 65.8044 47.5774 66.5424 51.5471L164.858 33.2698ZM165.392 38.8985C165.425 45.1786 163.589 51.042 160.588 55.833L75.8386 2.75246C69.2222 13.3163 65.3243 25.9294 65.3936 39.4122L165.392 38.8985ZM161.078 55.034L178.134 26.6329L92.404 -24.8496L75.3485 3.55147L161.078 55.034ZM182.438 -18.0238L177.596 -25.7246L92.9418 27.5079L97.7843 35.2088L182.438 -18.0238ZM97.5231 34.7888L110.131 55.2852L195.307 2.89251L182.699 -17.6038L97.5231 34.7888ZM110.634 56.0867C107.734 51.5663 105.867 46.0597 105.661 40.1054L205.601 36.6454C205.16 23.8982 201.194 12.0528 194.803 2.091L110.634 56.0867ZM204.79 29.2425C198.475 -4.75004 168.408 -27.4848 135.662 -27.3998L135.922 72.5999C123.013 72.6334 109.448 63.5229 106.472 47.5084L204.79 29.2425ZM135.662 -27.3998C99.2821 -27.3053 65.6423 1.44108 65.6901 41.8784L165.69 41.76C165.713 61.0261 150.073 72.5632 135.922 72.5999L135.662 -27.3998ZM65.6901 41.8785C65.691 42.6038 65.7034 43.3285 65.7272 44.0524L165.673 40.7645C165.684 41.097 165.69 41.4288 165.69 41.7598L65.6901 41.8785ZM177.565 -25.7689L177.565 -25.7689L92.4271 26.6854L92.4271 26.6855L177.565 -25.7689ZM85.2875 -4.93066L85.2875 -4.9306L184.705 5.8472L184.705 5.84714L85.2875 -4.93066ZM135.815 50.4516L135.815 50.4516L134.178 -49.535C134.178 -49.535 134.178 -49.535 134.178 -49.535L135.815 50.4516Z" fill="#4A5F70" mask="url(#path-2-inside-1)"/>
</g>
<g filter="url(#filter2_d)">
<mask id="path-4-inside-2" fill="white">
<path fill-rule="evenodd" clip-rule="evenodd" d="M159.869 40.0043C159.8 40.1217 159.73 40.2385 159.659 40.3548L153.738 50.465C153.532 50.8494 153.312 51.2264 153.079 51.5952L152.977 51.7649L136.302 80.2393L136.034 79.8135L135.86 80.1006L126.103 64.0609L111.653 41.1403C111.578 41.0265 111.504 40.9121 111.431 40.7972C109.094 44.77 107.793 49.3646 107.873 54.2426C108.114 68.9682 120.844 80.7005 136.306 80.4474C151.767 80.1943 164.106 68.0517 163.865 53.3261C163.786 48.4481 162.335 43.8985 159.869 40.0043ZM115.7 42.4084C115.504 41.3518 115.399 40.2649 115.393 39.1554C115.374 35.554 116.405 32.1792 118.213 29.2927L135.269 0.89165L140.111 8.59251L152.719 29.0889C154.464 31.8095 155.514 34.9789 155.631 38.3754C153.961 29.3865 145.71 22.5743 135.792 22.6001C124.678 22.6289 115.678 31.2336 115.69 41.8192C115.69 42.0163 115.694 42.2127 115.7 42.4084ZM134.996 0.4583L134.996 0.45824L134.996 0.458301C134.996 0.458301 134.996 0.458301 134.996 0.4583Z"/>
</mask>
<path fill-rule="evenodd" clip-rule="evenodd" d="M159.869 40.0043C159.8 40.1217 159.73 40.2385 159.659 40.3548L153.738 50.465C153.532 50.8494 153.312 51.2264 153.079 51.5952L152.977 51.7649L136.302 80.2393L136.034 79.8135L135.86 80.1006L126.103 64.0609L111.653 41.1403C111.578 41.0265 111.504 40.9121 111.431 40.7972C109.094 44.77 107.793 49.3646 107.873 54.2426C108.114 68.9682 120.844 80.7005 136.306 80.4474C151.767 80.1943 164.106 68.0517 163.865 53.3261C163.786 48.4481 162.335 43.8985 159.869 40.0043ZM115.7 42.4084C115.504 41.3518 115.399 40.2649 115.393 39.1554C115.374 35.554 116.405 32.1792 118.213 29.2927L135.269 0.89165L140.111 8.59251L152.719 29.0889C154.464 31.8095 155.514 34.9789 155.631 38.3754C153.961 29.3865 145.71 22.5743 135.792 22.6001C124.678 22.6289 115.678 31.2336 115.69 41.8192C115.69 42.0163 115.694 42.2127 115.7 42.4084ZM134.996 0.4583L134.996 0.45824L134.996 0.458301C134.996 0.458301 134.996 0.458301 134.996 0.4583Z" fill="white"/>
<path d="M159.869 40.0043L202.112 13.2539L158.356 -55.8422L116.803 14.601L159.869 40.0043ZM159.659 40.3548L116.993 14.2856L116.749 14.6846L116.513 15.0881L159.659 40.3548ZM153.738 50.465L110.592 25.1984L110.128 25.9902L109.694 26.7985L153.738 50.465ZM153.079 51.5952L110.775 24.9427L110.525 25.3402L110.282 25.7423L153.079 51.5952ZM152.977 51.7649L110.179 25.912L110.003 26.2039L109.831 26.4983L152.977 51.7649ZM136.302 80.2393L94.006 106.905L137.878 176.493L179.448 105.506L136.302 80.2393ZM136.034 79.8135L178.33 53.1482L135.124 -15.3838L93.2359 53.9609L136.034 79.8135ZM135.86 80.1006L93.1437 106.087L136.011 176.553L178.658 105.953L135.86 80.1006ZM126.103 64.0609L168.819 38.0745L168.612 37.7334L168.399 37.3956L126.103 64.0609ZM111.653 41.1403L153.949 14.4751L153.699 14.0797L153.443 13.689L111.653 41.1403ZM111.431 40.7972L153.642 13.9978L109.806 -55.0474L68.3357 15.4437L111.431 40.7972ZM115.7 42.4084L66.5424 51.5471L165.673 40.7645L115.7 42.4084ZM115.393 39.1554L65.3936 39.4122L65.3936 39.4122L115.393 39.1554ZM118.213 29.2927L160.588 55.833L160.837 55.4358L161.078 55.034L118.213 29.2927ZM135.269 0.89165L177.596 -25.7246L134.288 -94.5955L92.404 -24.8496L135.269 0.89165ZM140.111 8.59251L182.699 -17.6038L182.57 -17.8145L182.438 -18.0238L140.111 8.59251ZM152.719 29.0889L110.131 55.2852L110.379 55.6883L110.634 56.0867L152.719 29.0889ZM155.631 38.3754L106.472 47.5084L205.601 36.6454L155.631 38.3754ZM135.792 22.6001L135.662 -27.3998L135.662 -27.3998L135.792 22.6001ZM115.69 41.8192L65.6901 41.8784L65.6901 41.8785L115.69 41.8192ZM134.996 0.4583L135.815 50.4516L223.64 49.0141L177.565 -25.7689L134.996 0.4583ZM134.996 0.45824L177.565 -25.7689L101.016 -150.016L85.2875 -4.93066L134.996 0.45824ZM134.996 0.458301L85.2875 -4.9306L79.183 51.3786L135.815 50.4516L134.996 0.458301ZM116.803 14.601C116.866 14.4946 116.929 14.3895 116.993 14.2856L202.325 66.424C202.53 66.0875 202.734 65.7487 202.935 65.4076L116.803 14.601ZM116.513 15.0881L110.592 25.1984L196.884 75.7317L202.805 65.6214L116.513 15.0881ZM195.384 78.2478C196.226 76.9099 197.027 75.5373 197.782 74.1315L109.694 26.7985C110.036 26.1616 110.397 25.5428 110.775 24.9427L195.384 78.2478ZM195.774 77.6179L195.877 77.4482L110.282 25.7423L110.179 25.912L195.774 77.6179ZM109.831 26.4983L93.1559 54.9727L179.448 105.506L196.123 77.0316L109.831 26.4983ZM178.598 53.5741L178.33 53.1482L93.7375 106.479L94.006 106.905L178.598 53.5741ZM178.658 105.953L178.831 105.666L93.2359 53.9609L93.0625 54.248L178.658 105.953ZM83.386 90.0473L93.1437 106.087L178.577 54.1141L168.819 38.0745L83.386 90.0473ZM168.399 37.3956L153.949 14.4751L69.3564 67.8055L83.8064 90.7261L168.399 37.3956ZM153.443 13.689C153.51 13.7913 153.576 13.8943 153.642 13.9978L69.2196 67.5965C69.4313 67.93 69.6455 68.2617 69.8622 68.5916L153.443 13.689ZM68.3357 15.4437C61.5272 27.0165 57.6432 40.6221 57.8796 55.0609L157.866 53.4243C157.943 58.1071 156.66 62.5235 154.526 66.1507L68.3357 15.4437ZM57.8796 55.0609C58.6097 99.6676 96.378 131.108 137.124 130.441L135.487 30.4541C145.309 30.2934 157.618 38.2689 157.866 53.4243L57.8796 55.0609ZM137.124 130.441C177.87 129.774 214.589 97.1144 213.859 52.5077L113.872 54.1444C113.624 38.989 125.665 30.6149 135.487 30.4541L137.124 130.441ZM213.859 52.5077C213.622 38.0689 209.295 24.5977 202.112 13.2539L117.627 66.7547C115.375 63.1993 113.949 58.8272 113.872 54.1444L213.859 52.5077ZM164.858 33.2698C165.203 35.1261 165.383 37.0115 165.392 38.8985L65.3936 39.4122C65.4147 43.5183 65.8044 47.5774 66.5424 51.5471L164.858 33.2698ZM165.392 38.8985C165.425 45.1786 163.589 51.042 160.588 55.833L75.8386 2.75246C69.2222 13.3163 65.3243 25.9294 65.3936 39.4122L165.392 38.8985ZM161.078 55.034L178.134 26.6329L92.404 -24.8496L75.3485 3.55147L161.078 55.034ZM182.438 -18.0238L177.596 -25.7246L92.9418 27.5079L97.7843 35.2088L182.438 -18.0238ZM97.5231 34.7888L110.131 55.2852L195.307 2.89251L182.699 -17.6038L97.5231 34.7888ZM110.634 56.0867C107.734 51.5663 105.867 46.0597 105.661 40.1054L205.601 36.6454C205.16 23.8982 201.194 12.0528 194.803 2.091L110.634 56.0867ZM204.79 29.2425C198.475 -4.75004 168.408 -27.4848 135.662 -27.3998L135.922 72.5999C123.013 72.6334 109.448 63.5229 106.472 47.5084L204.79 29.2425ZM135.662 -27.3998C99.2821 -27.3053 65.6423 1.44108 65.6901 41.8784L165.69 41.76C165.713 61.0261 150.073 72.5632 135.922 72.5999L135.662 -27.3998ZM65.6901 41.8785C65.691 42.6038 65.7034 43.3285 65.7272 44.0524L165.673 40.7645C165.684 41.097 165.69 41.4288 165.69 41.7598L65.6901 41.8785ZM177.565 -25.7689L177.565 -25.7689L92.4271 26.6854L92.4271 26.6855L177.565 -25.7689ZM85.2875 -4.93066L85.2875 -4.9306L184.705 5.8472L184.705 5.84714L85.2875 -4.93066ZM135.815 50.4516L135.815 50.4516L134.178 -49.535C134.178 -49.535 134.178 -49.535 134.178 -49.535L135.815 50.4516Z" fill="#AF3F4F" mask="url(#path-4-inside-2)"/>
</g>
<defs>
<filter id="filter0_d" x="0.428009" y="91.3525" width="300.087" height="39.008" filterUnits="userSpaceOnUse" color-interpolation-filters="sRGB">
<feFlood flood-opacity="0" result="BackgroundImageFix"/>
<feColorMatrix in="SourceAlpha" type="matrix" values="0 0 0 0 0 0 0 0 0 0 0 0 0 0 0 0 0 0 127 0"/>
<feOffset dy="4"/>
<feGaussianBlur stdDeviation="2"/>
<feColorMatrix type="matrix" values="0 0 0 0 0 0 0 0 0 0 0 0 0 0 0 0 0 0 0.25 0"/>
<feBlend mode="normal" in2="BackgroundImageFix" result="effect1_dropShadow"/>
<feBlend mode="normal" in="SourceGraphic" in2="effect1_dropShadow" result="shape"/>
</filter>
<filter id="filter1_d" x="103" y="0" width="65.3018" height="88.9057" filterUnits="userSpaceOnUse" color-interpolation-filters="sRGB">
<feFlood flood-opacity="0" result="BackgroundImageFix"/>
<feColorMatrix in="SourceAlpha" type="matrix" values="0 0 0 0 0 0 0 0 0 0 0 0 0 0 0 0 0 0 127 0"/>
<feOffset dy="4"/>
<feGaussianBlur stdDeviation="2"/>
<feColorMatrix type="matrix" values="0 0 0 0 0 0 0 0 0 0 0 0 0 0 0 0 0 0 0.25 0"/>
<feBlend mode="normal" in2="BackgroundImageFix" result="effect1_dropShadow"/>
<feBlend mode="normal" in="SourceGraphic" in2="effect1_dropShadow" result="shape"/>
</filter>
<filter id="filter2_d" x="103.869" y="0.458252" width="63.9994" height="87.9932" filterUnits="userSpaceOnUse" color-interpolation-filters="sRGB">
<feFlood flood-opacity="0" result="BackgroundImageFix"/>
<feColorMatrix in="SourceAlpha" type="matrix" values="0 0 0 0 0 0 0 0 0 0 0 0 0 0 0 0 0 0 127 0"/>
<feOffset dy="4"/>
<feGaussianBlur stdDeviation="2"/>
<feColorMatrix type="matrix" values="0 0 0 0 0 0 0 0 0 0 0 0 0 0 0 0 0 0 0.25 0"/>
<feBlend mode="normal" in2="BackgroundImageFix" result="effect1_dropShadow"/>
<feBlend mode="normal" in="SourceGraphic" in2="effect1_dropShadow" result="shape"/>
</filter>
</defs>
</svg>
