<svg width="1047" height="97" viewBox="0 0 1047 97" fill="none" xmlns="http://www.w3.org/2000/svg">
<g filter="url(#filter0_d)">
<path d="M40.207 35.7812H34.2988C31.7923 35.7812 29.9857 35.1465 28.8789 33.877C27.7721 32.5749 27.2188 30.8659 27.2188 28.75C27.2188 24.0625 30.7181 21.7188 37.7168 21.7188C44.2923 21.7188 49.2402 22.6953 52.5605 24.6484L49.7285 26.7969C47.4499 25.7552 43.446 25.2344 37.7168 25.2344C34.9173 25.2344 33.0293 25.5436 32.0527 26.1621C31.1087 26.7806 30.6367 27.6432 30.6367 28.75C30.6367 29.8568 30.8971 30.7194 31.418 31.3379C31.9388 31.9564 32.8991 32.2656 34.2988 32.2656H40.3535C44.748 32.2656 48.7031 33.0143 52.2188 34.5117C55.7669 36.0091 58.6803 38.0599 60.959 40.6641C63.2376 43.2357 64.9792 46.2142 66.1836 49.5996C67.388 52.9525 67.9902 56.5495 67.9902 60.3906C67.9902 63.5156 67.5508 66.4779 66.6719 69.2773C65.793 72.0768 64.4583 74.6484 62.668 76.9922C60.9102 79.3359 58.778 81.3704 56.2715 83.0957C53.7975 84.7884 50.8353 86.1068 47.3848 87.0508C43.9668 88.0273 40.2559 88.5156 36.252 88.5156C29.9694 88.5156 24.0775 87.5553 18.5762 85.6348C13.1074 83.7467 8.55013 81.0938 4.9043 77.6758L7.73633 75.5762C11.0566 78.571 15.207 80.8984 20.1875 82.5586C25.2005 84.1862 30.5553 85 36.252 85C40.7116 85 44.7318 84.3652 48.3125 83.0957C51.9258 81.7936 54.888 80.0195 57.1992 77.7734C59.543 75.5273 61.3333 72.9232 62.5703 69.9609C63.8398 66.9987 64.4746 63.8086 64.4746 60.3906C64.4746 55.8659 63.5632 51.7806 61.7402 48.1348C59.9173 44.4564 57.1341 41.4779 53.3906 39.1992C49.6797 36.9206 45.2852 35.7812 40.207 35.7812ZM34.2988 39.2969H39.8652C46.4733 39.2969 51.6328 41.3151 55.3438 45.3516C59.0872 49.388 60.959 54.401 60.959 60.3906C60.959 66.4779 58.7943 71.5234 54.4648 75.5273C50.1354 79.4987 44.0645 81.4844 36.252 81.4844C31.0436 81.4844 26.1771 80.7682 21.6523 79.3359C17.1276 77.9036 13.3678 75.8854 10.373 73.2812L13.1074 71.084C15.7767 73.265 19.1296 74.9577 23.166 76.1621C27.235 77.3665 31.597 77.9688 36.252 77.9688C43.1204 77.9688 48.3613 76.3249 51.9746 73.0371C55.6204 69.7493 57.4434 65.5339 57.4434 60.3906C57.4434 55.3125 55.9134 51.1133 52.8535 47.793C49.8262 44.4727 45.4805 42.8125 39.8164 42.8125H34.2988C29.5462 42.8125 25.9818 41.5104 23.6055 38.9062C21.2292 36.3021 20.041 32.9167 20.041 28.75C20.041 24.5833 21.5059 21.1979 24.4355 18.5938C27.3978 15.9896 31.8249 14.6875 37.7168 14.6875C41.8509 14.6875 45.6921 15.1758 49.2402 16.1523C52.7884 17.0964 55.7181 18.4635 58.0293 20.2539L55.2461 22.4023C51.1771 19.6029 45.334 18.2031 37.7168 18.2031C32.8014 18.2031 29.2044 19.1797 26.9258 21.1328C24.6797 23.0534 23.5566 25.5924 23.5566 28.75C23.5566 31.9401 24.3867 34.4954 26.0469 36.416C27.7396 38.3366 30.4902 39.2969 34.2988 39.2969ZM34.2988 46.3281H39.6699C44.4225 46.3281 47.987 47.6465 50.3633 50.2832C52.7396 52.9199 53.9277 56.2891 53.9277 60.3906C53.9277 64.5573 52.4466 67.9427 49.4844 70.5469C46.5547 73.151 42.1439 74.4531 36.252 74.4531C32.1178 74.4531 28.2604 73.9811 24.6797 73.0371C21.1315 72.0605 18.2018 70.6771 15.8906 68.8867L18.6738 66.7383C22.7428 69.5378 28.6022 70.9375 36.252 70.9375C41.1673 70.9375 44.748 69.9772 46.9941 68.0566C49.2728 66.1035 50.4121 63.5482 50.4121 60.3906C50.4121 57.2331 49.5658 54.694 47.873 52.7734C46.1803 50.8203 43.4297 49.8438 39.6211 49.8438H34.2988C27.6257 49.8438 22.401 47.8581 18.625 43.8867C14.8815 39.8828 13.0098 34.8372 13.0098 28.75C13.0098 22.6628 15.1745 17.6335 19.5039 13.6621C23.8333 9.6582 29.9043 7.65625 37.7168 7.65625C42.9251 7.65625 47.7754 8.3724 52.2676 9.80469C56.7923 11.237 60.5521 13.2552 63.5469 15.8594L60.8125 18.0566C58.1432 15.8757 54.7904 14.1829 50.7539 12.9785C46.7174 11.7741 42.3717 11.1719 37.7168 11.1719C30.8483 11.1719 25.5911 12.8158 21.9453 16.1035C18.332 19.3913 16.5254 23.6068 16.5254 28.75C16.5254 33.8607 18.0553 38.0762 21.1152 41.3965C24.1751 44.6842 28.5697 46.3281 34.2988 46.3281ZM34.2988 53.3594H39.6699C42.1764 53.3594 43.9831 54.0104 45.0898 55.3125C46.1966 56.6146 46.75 58.3073 46.75 60.3906C46.75 65.0781 43.2507 67.4219 36.252 67.4219C29.6439 67.4219 24.6797 66.4453 21.3594 64.4922L24.1914 62.3438C26.4701 63.3854 30.4902 63.9062 36.252 63.9062C39.0514 63.9062 40.9232 63.597 41.8672 62.9785C42.8438 62.36 43.332 61.4974 43.332 60.3906C43.332 59.3164 43.0553 58.4701 42.502 57.8516C41.9811 57.2005 41.0046 56.875 39.5723 56.875H34.2988C29.8066 56.875 25.7376 56.1426 22.0918 54.6777C18.4785 53.2129 15.5 51.1947 13.1562 48.623C10.8451 46.0514 9.07096 43.0729 7.83398 39.6875C6.59701 36.3021 5.97852 32.6562 5.97852 28.75C5.97852 25.625 6.41797 22.6628 7.29688 19.8633C8.17578 17.0638 9.49414 14.4922 11.252 12.1484C13.0423 9.80469 15.1745 7.78646 17.6484 6.09375C20.1549 4.36849 23.1172 3.03385 26.5352 2.08984C29.9857 1.11328 33.7129 0.625 37.7168 0.625C43.9993 0.625 49.875 1.58529 55.3438 3.50586C60.8125 5.39388 65.3698 8.04688 69.0156 11.4648L66.1836 13.5645C62.8633 10.5697 58.7129 8.25846 53.7324 6.63086C48.752 4.9707 43.4134 4.14062 37.7168 4.14062C33.2572 4.14062 29.2207 4.79167 25.6074 6.09375C22.0267 7.36328 19.0645 9.12109 16.7207 11.3672C14.4095 13.6133 12.6191 16.2174 11.3496 19.1797C10.1126 22.1419 9.49414 25.332 9.49414 28.75C9.49414 33.3398 10.4219 37.474 12.2773 41.1523C14.1328 44.8307 16.9648 47.793 20.7734 50.0391C24.582 52.2526 29.0905 53.3594 34.2988 53.3594ZM107.098 51.8945H121.99C124.92 51.8945 127.41 51.0156 129.461 49.2578C131.512 47.5 132.537 45.026 132.537 41.8359C132.537 39.362 131.463 37.1484 129.314 35.1953C127.166 33.2422 124.725 32.2656 121.99 32.2656H97.3809V85H93.8652V28.75H121.99C125.734 28.75 129.005 30.0684 131.805 32.7051C134.637 35.3418 136.053 38.3854 136.053 41.8359C136.053 45.9701 134.686 49.2741 131.951 51.748C129.217 54.1895 125.896 55.4102 121.99 55.4102H107.098V51.8945ZM107.098 58.9258H121.99C126.808 58.9258 130.942 57.3307 134.393 54.1406C137.843 50.9505 139.568 46.849 139.568 41.8359C139.568 37.4414 137.811 33.584 134.295 30.2637C130.779 26.9108 126.678 25.2344 121.99 25.2344H90.3496V85H86.834V21.7188H121.99C127.654 21.7188 132.586 23.737 136.785 27.7734C140.984 31.7773 143.084 36.4648 143.084 41.8359C143.084 47.6953 141.001 52.5944 136.834 56.5332C132.7 60.472 127.752 62.4414 121.99 62.4414H107.098V58.9258ZM107.098 65.957H121.99C126.385 65.957 130.454 64.9154 134.197 62.832C137.973 60.7487 140.984 57.8516 143.23 54.1406C145.477 50.4297 146.6 46.3281 146.6 41.8359C146.6 37.7018 145.477 33.8118 143.23 30.166C141.017 26.5202 138.006 23.623 134.197 21.4746C130.421 19.2936 126.352 18.2031 121.99 18.2031H83.3184V85H79.8027V14.6875H121.99C125.701 14.6875 129.282 15.4199 132.732 16.8848C136.215 18.3496 139.227 20.319 141.766 22.793C144.305 25.2344 146.323 28.1315 147.82 31.4844C149.35 34.8047 150.115 38.2552 150.115 41.8359C150.115 46.0352 149.367 49.8926 147.869 53.4082C146.372 56.9238 144.337 59.8535 141.766 62.1973C139.194 64.5085 136.199 66.2988 132.781 67.5684C129.396 68.8379 125.799 69.4727 121.99 69.4727H107.098V65.957ZM104.412 85H100.896V35.7812H121.99C123.911 35.7812 125.555 36.3835 126.922 37.5879C128.322 38.7598 129.021 40.1758 129.021 41.8359C129.021 46.1979 126.678 48.3789 121.99 48.3789H107.098V44.8633H121.99C124.334 44.8633 125.506 43.8542 125.506 41.8359C125.506 41.1198 125.164 40.5176 124.48 40.0293C123.797 39.541 122.967 39.2969 121.99 39.2969H104.412V85ZM179.604 85H176.088V14.6875H179.604V85ZM172.572 85H169.057V14.6875H172.572V85ZM165.541 85H162.025V14.6875H165.541V85ZM186.635 67.4219H220.277V70.9375H186.635V74.4531H220.277V77.9688H186.635V81.4844H220.277V85H183.119V14.6875H220.277V18.2031H186.635V21.7188H220.277V25.2344H186.635V28.75H220.277V32.2656H186.635V41.0059H218.324V44.5215H186.635V48.0371H218.324V51.5527H186.635V55.0684H218.324V58.584H186.635V67.4219ZM259.287 51.4062H280.479C283.278 51.4062 285.654 50.5273 287.607 48.7695C289.561 47.0117 290.537 44.5378 290.537 41.3477C290.537 39.0039 289.512 36.9043 287.461 35.0488C285.443 33.1934 283.115 32.2656 280.479 32.2656H250.303V85H246.787V28.75H280.479C284.092 28.75 287.249 30.0195 289.951 32.5586C292.686 35.0977 294.053 38.0273 294.053 41.3477C294.053 45.4818 292.734 48.7858 290.098 51.2598C287.461 53.7012 284.255 54.9219 280.479 54.9219H259.287V51.4062ZM259.287 58.4375H280.479C285.166 58.4375 289.186 56.8424 292.539 53.6523C295.892 50.4622 297.568 46.3607 297.568 41.3477C297.568 37.0833 295.859 33.3398 292.441 30.1172C289.023 26.862 285.036 25.2344 280.479 25.2344H243.271V85H239.756V21.7188H280.479C286.012 21.7188 290.83 23.6882 294.932 27.627C299.033 31.5332 301.084 36.1068 301.084 41.3477C301.084 47.207 299.049 52.1061 294.98 56.0449C290.944 59.9837 286.11 61.9531 280.479 61.9531H259.287V58.4375ZM259.287 65.4688H280.479C284.808 65.4688 288.812 64.4271 292.49 62.3438C296.169 60.2604 299.098 57.3633 301.279 53.6523C303.493 49.9414 304.6 45.8398 304.6 41.3477C304.6 37.2786 303.509 33.4701 301.328 29.9219C299.147 26.3411 296.185 23.4928 292.441 21.377C288.73 19.2611 284.743 18.2031 280.479 18.2031H236.24V85H232.725V14.6875H280.479C284.157 14.6875 287.689 15.4199 291.074 16.8848C294.492 18.3171 297.438 20.2376 299.912 22.6465C302.386 25.0228 304.372 27.8548 305.869 31.1426C307.367 34.4303 308.115 37.832 308.115 41.3477C308.115 47.0443 306.813 52.0247 304.209 56.2891C301.605 60.5208 298.105 63.7435 293.711 65.957L301.084 85H297.324L290.342 67.373C289.463 67.666 288.438 67.959 287.266 68.252L293.857 85H290.098L283.652 68.8379C282.643 68.9355 281.585 68.9844 280.479 68.9844L286.68 85H282.969L276.816 68.9844H273.643L279.551 85H275.84L269.883 68.9844H259.287V65.4688ZM257.334 85H253.818V35.7812H280.479C282.301 35.7812 283.848 36.3346 285.117 37.4414C286.387 38.5156 287.021 39.8177 287.021 41.3477C287.021 45.7096 284.84 47.8906 280.479 47.8906H259.287V44.375H280.479C282.497 44.375 283.506 43.3659 283.506 41.3477C283.506 40.7943 283.197 40.3223 282.578 39.9316C281.992 39.5085 281.292 39.2969 280.479 39.2969H257.334V85ZM341.021 14.6875H344.537V85H341.021V14.6875ZM333.99 14.6875H337.506V85H333.99V14.6875ZM326.959 14.6875H330.475V85H326.959V14.6875ZM319.928 14.6875H323.443V85H319.928V14.6875ZM407.619 50.332C407.619 46.1654 406.333 42.9427 403.762 40.6641C401.19 38.3854 397.788 37.2461 393.557 37.2461C389.976 37.2461 386.9 38.4831 384.328 40.957C381.757 43.431 380.471 46.3932 380.471 49.8438C380.471 51.7969 380.731 53.5547 381.252 55.1172C381.773 56.6471 382.473 57.9329 383.352 58.9746C384.263 59.9837 385.337 60.8301 386.574 61.5137C387.811 62.1647 389.097 62.6367 390.432 62.9297C391.799 63.2227 393.247 63.3691 394.777 63.3691C398.488 63.3691 401.874 62.4577 404.934 60.6348V64.1504C401.776 65.8105 398.374 66.6406 394.729 66.6406C392.385 66.6406 390.171 66.3314 388.088 65.7129C386.037 65.0618 384.165 64.1016 382.473 62.832C380.78 61.5299 379.429 59.7721 378.42 57.5586C377.443 55.3125 376.955 52.7409 376.955 49.8438C376.955 45.3516 378.534 41.543 381.691 38.418C384.849 35.293 388.804 33.7305 393.557 33.7305C398.798 33.7305 403.029 35.2116 406.252 38.1738C409.507 41.1035 411.135 45.1562 411.135 50.332V85H407.619V50.332ZM418.166 50.332V85H414.65V50.332C414.65 44.1797 412.681 39.2969 408.742 35.6836C404.803 32.0378 399.742 30.2148 393.557 30.2148C387.827 30.2148 383.042 32.1191 379.201 35.9277C375.36 39.7363 373.439 44.375 373.439 49.8438C373.439 53.1641 374.009 56.1426 375.148 58.7793C376.32 61.416 377.899 63.5319 379.885 65.127C381.87 66.722 384.084 67.9427 386.525 68.7891C388.999 69.6029 391.604 70.0098 394.338 70.0098C398.049 70.0098 401.581 69.1471 404.934 67.4219V71.1328C401.418 72.5977 397.87 73.3301 394.289 73.3301C391.066 73.3301 388.007 72.8418 385.109 71.8652C382.212 70.8561 379.624 69.4076 377.346 67.5195C375.067 65.599 373.26 63.125 371.926 60.0977C370.591 57.0378 369.924 53.6198 369.924 49.8438C369.924 43.431 372.186 37.9785 376.711 33.4863C381.268 28.9616 386.883 26.6992 393.557 26.6992C398.244 26.6992 402.443 27.6595 406.154 29.5801C409.865 31.4681 412.795 34.2188 414.943 37.832C417.092 41.4453 418.166 45.612 418.166 50.332ZM425.197 50.332V85H421.682V50.332C421.682 44.9609 420.445 40.2083 417.971 36.0742C415.529 31.9076 412.176 28.7174 407.912 26.5039C403.648 24.2904 398.863 23.1836 393.557 23.1836C388.511 23.1836 383.905 24.388 379.738 26.7969C375.572 29.1732 372.3 32.3958 369.924 36.4648C367.58 40.5339 366.408 44.9935 366.408 49.8438C366.408 54.0104 367.173 57.819 368.703 61.2695C370.233 64.6875 372.284 67.5033 374.855 69.7168C377.46 71.9303 380.406 73.6556 383.693 74.8926C387.014 76.097 390.48 76.6992 394.094 76.6992C397.772 76.6992 401.385 75.9342 404.934 74.4043V77.9688C401.223 79.3685 397.577 80.0684 393.996 80.0684C388.365 80.0684 383.189 78.7988 378.469 76.2598C373.749 73.7207 369.973 70.1237 367.141 65.4688C364.309 60.8138 362.893 55.6055 362.893 49.8438C362.893 45.7422 363.674 41.8359 365.236 38.125C366.831 34.4141 368.98 31.2077 371.682 28.5059C374.383 25.804 377.639 23.6556 381.447 22.0605C385.256 20.4655 389.292 19.668 393.557 19.668C399.514 19.668 404.885 20.9375 409.67 23.4766C414.488 26.0156 418.28 29.6289 421.047 34.3164C423.814 39.0039 425.197 44.3424 425.197 50.332ZM432.229 50.332V85H428.713V50.332C428.713 43.6914 427.167 37.7669 424.074 32.5586C420.982 27.3177 416.766 23.2812 411.428 20.4492C406.089 17.5846 400.132 16.1523 393.557 16.1523C387.242 16.1523 381.464 17.666 376.223 20.6934C370.982 23.7207 366.864 27.8223 363.869 32.998C360.874 38.1413 359.377 43.7565 359.377 49.8438C359.377 53.8477 360.012 57.6562 361.281 61.2695C362.583 64.8503 364.341 67.9915 366.555 70.6934C368.801 73.3626 371.372 75.6738 374.27 77.627C377.199 79.5801 380.34 81.0612 383.693 82.0703C387.079 83.0794 390.513 83.584 393.996 83.584C397.837 83.584 401.483 82.8516 404.934 81.3867V85C401.32 86.2695 397.609 86.9043 393.801 86.9043C389.862 86.9043 386.021 86.3509 382.277 85.2441C378.566 84.1374 375.116 82.5098 371.926 80.3613C368.768 78.1803 365.985 75.625 363.576 72.6953C361.167 69.7331 359.279 66.2826 357.912 62.3438C356.545 58.4049 355.861 54.2383 355.861 49.8438C355.861 44.7982 356.805 39.9967 358.693 35.4395C360.614 30.8496 363.218 26.8945 366.506 23.5742C369.826 20.2214 373.83 17.5684 378.518 15.6152C383.238 13.6296 388.251 12.6367 393.557 12.6367C398.96 12.6367 404.038 13.5482 408.791 15.3711C413.544 17.194 417.645 19.7331 421.096 22.9883C424.546 26.2109 427.264 30.1823 429.25 34.9023C431.236 39.6224 432.229 44.7656 432.229 50.332ZM520.795 31.7773L517.914 33.6816C516.156 31.0775 513.861 29.0267 511.029 27.5293C508.23 25.9993 505.186 25.2344 501.898 25.2344C496.56 25.2344 492.003 27.1224 488.227 30.8984C484.451 34.6745 482.562 39.2318 482.562 44.5703C482.562 49.9089 484.451 54.4661 488.227 58.2422C492.003 62.0182 496.56 63.9062 501.898 63.9062C505.186 63.9062 508.23 63.1413 511.029 61.6113C513.861 60.0814 516.156 58.0143 517.914 55.4102L520.746 57.4609C518.663 60.5208 515.961 62.946 512.641 64.7363C509.32 66.5267 505.74 67.4219 501.898 67.4219C498.806 67.4219 495.844 66.8197 493.012 65.6152C490.212 64.4108 487.787 62.7832 485.736 60.7324C483.686 58.6816 482.058 56.2565 480.854 53.457C479.649 50.625 479.047 47.6628 479.047 44.5703C479.047 41.4779 479.649 38.5319 480.854 35.7324C482.058 32.9004 483.686 30.459 485.736 28.4082C487.787 26.3574 490.212 24.7298 493.012 23.5254C495.844 22.321 498.806 21.7188 501.898 21.7188C505.772 21.7188 509.369 22.6302 512.689 24.4531C516.01 26.2435 518.712 28.6849 520.795 31.7773ZM526.605 27.7734L523.676 29.6777C521.267 26.1621 518.142 23.3789 514.301 21.3281C510.492 19.2448 506.358 18.2031 501.898 18.2031C497.113 18.2031 492.702 19.3913 488.666 21.7676C484.63 24.1113 481.423 27.3014 479.047 31.3379C476.703 35.3743 475.531 39.7852 475.531 44.5703C475.531 49.3555 476.703 53.7663 479.047 57.8027C481.423 61.8392 484.63 65.0456 488.666 67.4219C492.702 69.7656 497.113 70.9375 501.898 70.9375C506.358 70.9375 510.508 69.8958 514.35 67.8125C518.191 65.7292 521.316 62.9134 523.725 59.3652L526.605 61.3672C523.871 65.4036 520.323 68.5938 515.961 70.9375C511.632 73.2812 506.944 74.4531 501.898 74.4531C496.495 74.4531 491.498 73.1185 486.908 70.4492C482.318 67.7799 478.689 64.1504 476.02 59.5605C473.35 54.9707 472.016 49.974 472.016 44.5703C472.016 39.1667 473.35 34.1699 476.02 29.5801C478.689 24.9902 482.318 21.3607 486.908 18.6914C491.498 16.0221 496.495 14.6875 501.898 14.6875C506.944 14.6875 511.632 15.8594 515.961 18.2031C520.323 20.5469 523.871 23.737 526.605 27.7734ZM532.465 23.8672L529.535 25.7715C526.475 21.2793 522.504 17.7311 517.621 15.127C512.771 12.4902 507.53 11.1719 501.898 11.1719C497.374 11.1719 493.044 12.0508 488.91 13.8086C484.776 15.5664 481.212 17.9427 478.217 20.9375C475.255 23.8997 472.895 27.4479 471.137 31.582C469.379 35.7161 468.5 40.0456 468.5 44.5703C468.5 49.0951 469.379 53.4245 471.137 57.5586C472.895 61.6927 475.255 65.2572 478.217 68.252C481.212 71.2142 484.776 73.5742 488.91 75.332C493.044 77.0898 497.374 77.9688 501.898 77.9688C507.562 77.9688 512.82 76.6504 517.67 74.0137C522.52 71.377 526.475 67.8125 529.535 63.3203L532.367 65.4199C528.982 70.3678 524.604 74.2904 519.232 77.1875C513.894 80.0521 508.116 81.4844 501.898 81.4844C495.225 81.4844 489.057 79.8405 483.393 76.5527C477.729 73.2324 473.236 68.7402 469.916 63.0762C466.628 57.4121 464.984 51.2435 464.984 44.5703C464.984 37.8971 466.628 31.7285 469.916 26.0645C473.236 20.4004 477.729 15.9245 483.393 12.6367C489.057 9.31641 495.225 7.65625 501.898 7.65625C508.148 7.65625 513.959 9.12109 519.33 12.0508C524.701 14.9479 529.079 18.8867 532.465 23.8672ZM538.227 19.8633L535.297 21.7676C531.586 16.3314 526.785 12.0345 520.893 8.87695C515.033 5.7194 508.702 4.14062 501.898 4.14062C496.43 4.14062 491.189 5.21484 486.176 7.36328C481.195 9.47917 476.898 12.3438 473.285 15.957C469.672 19.5703 466.791 23.8835 464.643 28.8965C462.527 33.877 461.469 39.1016 461.469 44.5703C461.469 50.0391 462.527 55.2799 464.643 60.293C466.791 65.2734 469.672 69.5703 473.285 73.1836C476.898 76.7969 481.195 79.6777 486.176 81.8262C491.189 83.9421 496.43 85 501.898 85C508.702 85 515.049 83.4049 520.941 80.2148C526.833 77.0247 531.635 72.7116 535.346 67.2754L538.178 69.4238C534.141 75.2832 528.933 79.9382 522.553 83.3887C516.173 86.8066 509.288 88.5156 501.898 88.5156C495.941 88.5156 490.245 87.3438 484.809 85C479.405 82.6888 474.734 79.5801 470.795 75.6738C466.889 71.735 463.764 67.0638 461.42 61.6602C459.109 56.224 457.953 50.5273 457.953 44.5703C457.953 38.6133 459.109 32.9329 461.42 27.5293C463.764 22.0931 466.889 17.4219 470.795 13.5156C474.734 9.57682 479.405 6.45182 484.809 4.14062C490.245 1.79688 495.941 0.625 501.898 0.625C509.32 0.625 516.221 2.35026 522.602 5.80078C528.982 9.2513 534.19 13.9388 538.227 19.8633ZM575.576 51.4062H596.768C599.567 51.4062 601.943 50.5273 603.896 48.7695C605.85 47.0117 606.826 44.5378 606.826 41.3477C606.826 39.0039 605.801 36.9043 603.75 35.0488C601.732 33.1934 599.404 32.2656 596.768 32.2656H566.592V85H563.076V28.75H596.768C600.381 28.75 603.538 30.0195 606.24 32.5586C608.975 35.0977 610.342 38.0273 610.342 41.3477C610.342 45.4818 609.023 48.7858 606.387 51.2598C603.75 53.7012 600.544 54.9219 596.768 54.9219H575.576V51.4062ZM575.576 58.4375H596.768C601.455 58.4375 605.475 56.8424 608.828 53.6523C612.181 50.4622 613.857 46.3607 613.857 41.3477C613.857 37.0833 612.148 33.3398 608.73 30.1172C605.312 26.862 601.325 25.2344 596.768 25.2344H559.561V85H556.045V21.7188H596.768C602.301 21.7188 607.119 23.6882 611.221 27.627C615.322 31.5332 617.373 36.1068 617.373 41.3477C617.373 47.207 615.339 52.1061 611.27 56.0449C607.233 59.9837 602.399 61.9531 596.768 61.9531H575.576V58.4375ZM575.576 65.4688H596.768C601.097 65.4688 605.101 64.4271 608.779 62.3438C612.458 60.2604 615.387 57.3633 617.568 53.6523C619.782 49.9414 620.889 45.8398 620.889 41.3477C620.889 37.2786 619.798 33.4701 617.617 29.9219C615.436 26.3411 612.474 23.4928 608.73 21.377C605.02 19.2611 601.032 18.2031 596.768 18.2031H552.529V85H549.014V14.6875H596.768C600.446 14.6875 603.978 15.4199 607.363 16.8848C610.781 18.3171 613.727 20.2376 616.201 22.6465C618.675 25.0228 620.661 27.8548 622.158 31.1426C623.656 34.4303 624.404 37.832 624.404 41.3477C624.404 47.0443 623.102 52.0247 620.498 56.2891C617.894 60.5208 614.395 63.7435 610 65.957L617.373 85H613.613L606.631 67.373C605.752 67.666 604.727 67.959 603.555 68.252L610.146 85H606.387L599.941 68.8379C598.932 68.9355 597.874 68.9844 596.768 68.9844L602.969 85H599.258L593.105 68.9844H589.932L595.84 85H592.129L586.172 68.9844H575.576V65.4688ZM573.623 85H570.107V35.7812H596.768C598.59 35.7812 600.137 36.3346 601.406 37.4414C602.676 38.5156 603.311 39.8177 603.311 41.3477C603.311 45.7096 601.13 47.8906 596.768 47.8906H575.576V44.375H596.768C598.786 44.375 599.795 43.3659 599.795 41.3477C599.795 40.7943 599.486 40.3223 598.867 39.9316C598.281 39.5085 597.581 39.2969 596.768 39.2969H573.623V85ZM653.795 85H650.279V14.6875H653.795V85ZM646.764 85H643.248V14.6875H646.764V85ZM639.732 85H636.217V14.6875H639.732V85ZM660.826 67.4219H694.469V70.9375H660.826V74.4531H694.469V77.9688H660.826V81.4844H694.469V85H657.311V14.6875H694.469V18.2031H660.826V21.7188H694.469V25.2344H660.826V28.75H694.469V32.2656H660.826V41.0059H692.516V44.5215H660.826V48.0371H692.516V51.5527H660.826V55.0684H692.516V58.584H660.826V67.4219ZM756.818 50.332C756.818 46.1654 755.533 42.9427 752.961 40.6641C750.389 38.3854 746.988 37.2461 742.756 37.2461C739.175 37.2461 736.099 38.4831 733.527 40.957C730.956 43.431 729.67 46.3932 729.67 49.8438C729.67 51.7969 729.93 53.5547 730.451 55.1172C730.972 56.6471 731.672 57.9329 732.551 58.9746C733.462 59.9837 734.536 60.8301 735.773 61.5137C737.01 62.1647 738.296 62.6367 739.631 62.9297C740.998 63.2227 742.447 63.3691 743.977 63.3691C747.688 63.3691 751.073 62.4577 754.133 60.6348V64.1504C750.975 65.8105 747.574 66.6406 743.928 66.6406C741.584 66.6406 739.37 66.3314 737.287 65.7129C735.236 65.0618 733.365 64.1016 731.672 62.832C729.979 61.5299 728.628 59.7721 727.619 57.5586C726.643 55.3125 726.154 52.7409 726.154 49.8438C726.154 45.3516 727.733 41.543 730.891 38.418C734.048 35.293 738.003 33.7305 742.756 33.7305C747.997 33.7305 752.229 35.2116 755.451 38.1738C758.706 41.1035 760.334 45.1562 760.334 50.332V85H756.818V50.332ZM767.365 50.332V85H763.85V50.332C763.85 44.1797 761.88 39.2969 757.941 35.6836C754.003 32.0378 748.941 30.2148 742.756 30.2148C737.027 30.2148 732.242 32.1191 728.4 35.9277C724.559 39.7363 722.639 44.375 722.639 49.8438C722.639 53.1641 723.208 56.1426 724.348 58.7793C725.52 61.416 727.098 63.5319 729.084 65.127C731.07 66.722 733.283 67.9427 735.725 68.7891C738.199 69.6029 740.803 70.0098 743.537 70.0098C747.248 70.0098 750.78 69.1471 754.133 67.4219V71.1328C750.617 72.5977 747.069 73.3301 743.488 73.3301C740.266 73.3301 737.206 72.8418 734.309 71.8652C731.411 70.8561 728.824 69.4076 726.545 67.5195C724.266 65.599 722.46 63.125 721.125 60.0977C719.79 57.0378 719.123 53.6198 719.123 49.8438C719.123 43.431 721.385 37.9785 725.91 33.4863C730.467 28.9616 736.083 26.6992 742.756 26.6992C747.443 26.6992 751.643 27.6595 755.354 29.5801C759.064 31.4681 761.994 34.2188 764.143 37.832C766.291 41.4453 767.365 45.612 767.365 50.332ZM774.396 50.332V85H770.881V50.332C770.881 44.9609 769.644 40.2083 767.17 36.0742C764.729 31.9076 761.376 28.7174 757.111 26.5039C752.847 24.2904 748.062 23.1836 742.756 23.1836C737.71 23.1836 733.104 24.388 728.938 26.7969C724.771 29.1732 721.499 32.3958 719.123 36.4648C716.779 40.5339 715.607 44.9935 715.607 49.8438C715.607 54.0104 716.372 57.819 717.902 61.2695C719.432 64.6875 721.483 67.5033 724.055 69.7168C726.659 71.9303 729.605 73.6556 732.893 74.8926C736.213 76.097 739.68 76.6992 743.293 76.6992C746.971 76.6992 750.585 75.9342 754.133 74.4043V77.9688C750.422 79.3685 746.776 80.0684 743.195 80.0684C737.564 80.0684 732.388 78.7988 727.668 76.2598C722.948 73.7207 719.172 70.1237 716.34 65.4688C713.508 60.8138 712.092 55.6055 712.092 49.8438C712.092 45.7422 712.873 41.8359 714.436 38.125C716.031 34.4141 718.179 31.2077 720.881 28.5059C723.583 25.804 726.838 23.6556 730.646 22.0605C734.455 20.4655 738.492 19.668 742.756 19.668C748.713 19.668 754.084 20.9375 758.869 23.4766C763.687 26.0156 767.479 29.6289 770.246 34.3164C773.013 39.0039 774.396 44.3424 774.396 50.332ZM781.428 50.332V85H777.912V50.332C777.912 43.6914 776.366 37.7669 773.273 32.5586C770.181 27.3177 765.965 23.2812 760.627 20.4492C755.288 17.5846 749.331 16.1523 742.756 16.1523C736.441 16.1523 730.663 17.666 725.422 20.6934C720.181 23.7207 716.063 27.8223 713.068 32.998C710.074 38.1413 708.576 43.7565 708.576 49.8438C708.576 53.8477 709.211 57.6562 710.48 61.2695C711.783 64.8503 713.54 67.9915 715.754 70.6934C718 73.3626 720.572 75.6738 723.469 77.627C726.398 79.5801 729.54 81.0612 732.893 82.0703C736.278 83.0794 739.712 83.584 743.195 83.584C747.036 83.584 750.682 82.8516 754.133 81.3867V85C750.52 86.2695 746.809 86.9043 743 86.9043C739.061 86.9043 735.22 86.3509 731.477 85.2441C727.766 84.1374 724.315 82.5098 721.125 80.3613C717.967 78.1803 715.184 75.625 712.775 72.6953C710.367 69.7331 708.479 66.2826 707.111 62.3438C705.744 58.4049 705.061 54.2383 705.061 49.8438C705.061 44.7982 706.005 39.9967 707.893 35.4395C709.813 30.8496 712.417 26.8945 715.705 23.5742C719.025 20.2214 723.029 17.5684 727.717 15.6152C732.437 13.6296 737.45 12.6367 742.756 12.6367C748.16 12.6367 753.238 13.5482 757.99 15.3711C762.743 17.194 766.844 19.7331 770.295 22.9883C773.745 26.2109 776.464 30.1823 778.449 34.9023C780.435 39.6224 781.428 44.7656 781.428 50.332ZM806.57 34.1699H810.086V85H806.57V34.1699ZM792.508 18.2031V14.6875H845.242V18.2031H792.508ZM792.508 25.2344V21.7188H845.242V25.2344H792.508ZM792.508 32.2656V28.75H845.242V32.2656H792.508ZM827.664 34.1699H831.18V85H827.664V34.1699ZM820.633 34.1699H824.148V85H820.633V34.1699ZM813.602 34.1699H817.117V85H813.602V34.1699ZM878.1 14.6875H881.615V85H878.1V14.6875ZM871.068 14.6875H874.584V85H871.068V14.6875ZM864.037 14.6875H867.553V85H864.037V14.6875ZM857.006 14.6875H860.521V85H857.006V14.6875ZM892.012 14.6875H895.82L921.748 80.2637L947.676 14.6875H951.436L923.652 85H919.844L892.012 14.6875ZM899.58 14.6875H903.34L924.189 67.4219L922.188 71.9141L899.58 14.6875ZM907.148 14.6875H910.957L927.949 57.8027L926.094 62.6367L907.148 14.6875ZM914.717 14.6875H918.477L931.66 48.0371L929.805 52.9688L914.717 14.6875ZM970.332 14.6875H974.141L946.309 85H942.549L970.332 14.6875ZM962.812 14.6875H966.572L938.74 85H934.98L962.812 14.6875ZM955.195 14.6875H959.004L931.172 85H927.412L955.195 14.6875ZM1001.92 85H998.404V14.6875H1001.92V85ZM994.889 85H991.373V14.6875H994.889V85ZM987.857 85H984.342V14.6875H987.857V85ZM1008.95 67.4219H1042.59V70.9375H1008.95V74.4531H1042.59V77.9688H1008.95V81.4844H1042.59V85H1005.44V14.6875H1042.59V18.2031H1008.95V21.7188H1042.59V25.2344H1008.95V28.75H1042.59V32.2656H1008.95V41.0059H1040.64V44.5215H1008.95V48.0371H1040.64V51.5527H1008.95V55.0684H1040.64V58.584H1008.95V67.4219Z" fill="white"/>
</g>
<defs>
<filter id="filter0_d" x="0.904297" y="0.625" width="1045.69" height="95.8906" filterUnits="userSpaceOnUse" color-interpolation-filters="sRGB">
<feFlood flood-opacity="0" result="BackgroundImageFix"/>
<feColorMatrix in="SourceAlpha" type="matrix" values="0 0 0 0 0 0 0 0 0 0 0 0 0 0 0 0 0 0 127 0"/>
<feOffset dy="4"/>
<feGaussianBlur stdDeviation="2"/>
<feColorMatrix type="matrix" values="0 0 0 0 0 0 0 0 0 0 0 0 0 0 0 0 0 0 0.25 0"/>
<feBlend mode="normal" in2="BackgroundImageFix" result="effect1_dropShadow"/>
<feBlend mode="normal" in="SourceGraphic" in2="effect1_dropShadow" result="shape"/>
</filter>
</defs>
</svg>
