<svg width="54" height="77" viewBox="0 0 54 77" fill="none" xmlns="http://www.w3.org/2000/svg">
<mask id="path-1-inside-1" fill="white">
<path fill-rule="evenodd" clip-rule="evenodd" d="M50.3573 38.1593C50.2877 38.2719 50.2173 38.384 50.1459 38.4955L44.2829 48.0512C44.0758 48.4185 43.8559 48.7784 43.6238 49.1302L43.5263 49.2843L27 76.2193L26.7479 75.8083L26.5761 76.0799L17.4199 60.6054L3.85405 38.4954C3.7827 38.384 3.71224 38.2719 3.64267 38.1594C1.32648 41.9173 0 46.2852 0 50.9454C0 65.0137 12.0883 76.4182 27 76.4182C41.9117 76.4182 54 65.0137 54 50.9454C54 46.2852 52.6735 41.9173 50.3573 38.1593ZM7.73345 39.765C7.56072 38.7527 7.47654 37.713 7.48856 36.6531C7.52755 33.2137 8.57464 30.0068 10.3628 27.2785L27.2559 0.418148L31.8043 7.85066L43.6358 27.6227C45.2754 30.2485 46.2371 33.2918 46.2968 36.5375C44.8285 27.926 36.9812 21.2907 27.4179 21.1602C16.7013 21.014 7.88806 29.0917 7.73308 39.2022C7.7302 39.3904 7.73033 39.578 7.73345 39.765ZM27.0001 9.15528e-05L27 0L27 9.15527e-05C27 9.15527e-05 27 9.15528e-05 27.0001 9.15528e-05Z"/>
</mask>
<path fill-rule="evenodd" clip-rule="evenodd" d="M50.3573 38.1593C50.2877 38.2719 50.2173 38.384 50.1459 38.4955L44.2829 48.0512C44.0758 48.4185 43.8559 48.7784 43.6238 49.1302L43.5263 49.2843L27 76.2193L26.7479 75.8083L26.5761 76.0799L17.4199 60.6054L3.85405 38.4954C3.7827 38.384 3.71224 38.2719 3.64267 38.1594C1.32648 41.9173 0 46.2852 0 50.9454C0 65.0137 12.0883 76.4182 27 76.4182C41.9117 76.4182 54 65.0137 54 50.9454C54 46.2852 52.6735 41.9173 50.3573 38.1593ZM7.73345 39.765C7.56072 38.7527 7.47654 37.713 7.48856 36.6531C7.52755 33.2137 8.57464 30.0068 10.3628 27.2785L27.2559 0.418148L31.8043 7.85066L43.6358 27.6227C45.2754 30.2485 46.2371 33.2918 46.2968 36.5375C44.8285 27.926 36.9812 21.2907 27.4179 21.1602C16.7013 21.014 7.88806 29.0917 7.73308 39.2022C7.7302 39.3904 7.73033 39.578 7.73345 39.765ZM27.0001 9.15528e-05L27 0L27 9.15527e-05C27 9.15527e-05 27 9.15528e-05 27.0001 9.15528e-05Z" fill="white"/>
<path d="M50.3573 38.1593L92.9219 11.9247L50.4132 -57.0438L7.82356 11.8747L50.3573 38.1593ZM50.1459 38.4955L8.03257 11.5424L7.77666 11.9423L7.52838 12.3469L50.1459 38.4955ZM44.2829 48.0512L1.66532 21.9027L1.18034 22.6931L0.725002 23.501L44.2829 48.0512ZM43.6238 49.1302L1.89173 21.5904L1.62616 21.9929L1.36841 22.4003L43.6238 49.1302ZM43.5263 49.2843L1.2709 22.5545L1.08782 22.8439L0.908722 23.1358L43.5263 49.2843ZM27 76.2193L-15.6176 102.368L26.9998 171.827L69.6175 102.368L27 76.2193ZM26.7479 75.8083L69.3655 49.6599L27.3953 -18.7446L-15.5077 49.0788L26.7479 75.8083ZM26.5761 76.0799L-16.4554 101.541L25.1521 171.86L68.8316 102.809L26.5761 76.0799ZM17.4199 60.6054L60.4513 35.1438L60.2471 34.7986L60.0374 34.4568L17.4199 60.6054ZM3.85405 38.4954L46.4716 12.3469L46.2231 11.9419L45.967 11.5418L3.85405 38.4954ZM3.64267 38.1594L46.1765 11.8749L3.58697 -57.0441L-38.9219 11.9247L3.64267 38.1594ZM7.73345 39.765L-41.5542 48.1748L57.7265 38.9318L7.73345 39.765ZM7.48856 36.6531L57.4853 37.22L57.4853 37.22L7.48856 36.6531ZM10.3628 27.2785L52.1814 54.6866L52.4384 54.2946L52.6879 53.8977L10.3628 27.2785ZM27.2559 0.418148L69.9038 -25.6809L27.8365 -94.4221L-15.0692 -26.2011L27.2559 0.418148ZM31.8043 7.85066L74.7094 -17.8234L74.5819 -18.0365L74.4522 -18.2484L31.8043 7.85066ZM43.6358 27.6227L0.730701 53.2967L0.974296 53.7038L1.22557 54.1062L43.6358 27.6227ZM46.2968 36.5375L-2.99187 44.9414L96.2884 35.6174L46.2968 36.5375ZM27.4179 21.1602L26.7358 71.1556L26.7358 71.1556L27.4179 21.1602ZM7.73308 39.2022L-42.261 38.4358L-42.261 38.4359L7.73308 39.2022ZM27.0001 9.15528e-05L26.9999 50.0001L115.625 50.0003L69.7958 -25.8557L27.0001 9.15528e-05ZM27 0L69.7958 -25.8558L-0.0990428 -141.544L-22.3197 -8.21995L27 0ZM27 9.15527e-05L-22.3197 -8.21986L-32.023 50.0001L27 50.0001V9.15527e-05ZM7.82356 11.8747C7.89274 11.7628 7.96242 11.652 8.03257 11.5424L92.2592 65.4485C92.4721 65.1159 92.6827 64.7811 92.8911 64.4439L7.82356 11.8747ZM7.52838 12.3469L1.66532 21.9027L86.9004 74.1998L92.7634 64.644L7.52838 12.3469ZM85.3558 76.67C86.2269 75.3499 87.0563 73.9932 87.8407 72.6014L0.725002 23.501C1.09535 22.8439 1.48494 22.2069 1.89173 21.5904L85.3558 76.67ZM85.7816 76.0142L85.8791 75.8601L1.36841 22.4003L1.2709 22.5545L85.7816 76.0142ZM0.908722 23.1358L-15.6175 50.0707L69.6175 102.368L86.1438 75.4329L0.908722 23.1358ZM69.6176 50.0708L69.3655 49.6599L-15.8698 101.957L-15.6176 102.368L69.6176 50.0708ZM68.8316 102.809L69.0034 102.538L-15.5077 49.0788L-15.6795 49.3503L68.8316 102.809ZM-25.6116 86.0669L-16.4554 101.541L69.6076 50.6183L60.4513 35.1438L-25.6116 86.0669ZM60.0374 34.4568L46.4716 12.3469L-38.7635 64.644L-25.1977 86.7539L60.0374 34.4568ZM45.967 11.5418C46.0377 11.6523 46.1076 11.7633 46.1765 11.8749L-38.8912 64.4438C-38.6831 64.7805 -38.4723 65.1157 -38.2589 65.4491L45.967 11.5418ZM-38.9219 11.9247C-45.8869 23.2251 -50 36.6237 -50 50.9454H50C50 55.9468 48.5398 60.6095 46.2073 64.394L-38.9219 11.9247ZM-50 50.9454C-50 95.3309 -12.7431 126.418 27 126.418V26.4182C36.9198 26.4182 50 34.6965 50 50.9454H-50ZM27 126.418C66.7432 126.418 104 95.3309 104 50.9454H4C4 34.6965 17.0802 26.4182 27 26.4182V126.418ZM104 50.9454C104 36.6236 99.8869 23.225 92.9219 11.9247L7.79275 64.394C5.46016 60.6095 4 55.9468 4 50.9454H104ZM57.0211 31.3552C57.3513 33.2901 57.5076 35.2546 57.4853 37.22L-42.5082 36.0863C-42.5545 40.1714 -42.2298 44.2153 -41.5542 48.1748L57.0211 31.3552ZM57.4853 37.22C57.4112 43.7632 55.3798 49.8066 52.1814 54.6866L-31.4558 -0.129672C-38.2305 10.207 -42.3561 22.6642 -42.5082 36.0863L57.4853 37.22ZM52.6879 53.8977L69.581 27.0374L-15.0692 -26.2011L-31.9623 0.659249L52.6879 53.8977ZM74.4522 -18.2484L69.9038 -25.6809L-15.392 26.5172L-10.8435 33.9497L74.4522 -18.2484ZM-11.1007 33.5247L0.730701 53.2967L86.5408 1.9487L74.7094 -17.8234L-11.1007 33.5247ZM1.22557 54.1062C-1.71249 49.4013 -3.5805 43.6628 -3.69471 37.4576L96.2884 35.6174C96.0547 22.9208 92.2634 11.0957 86.046 1.13923L1.22557 54.1062ZM95.5855 28.1336C89.7933 -5.83781 60.1265 -28.3982 28.1 -28.8351L26.7358 71.1556C13.8358 70.9796 -0.136205 61.6898 -2.99187 44.9414L95.5855 28.1336ZM28.1 -28.8351C-7.42111 -29.3197 -41.642 -1.94747 -42.261 38.4358L57.7272 39.9685C57.4182 60.1308 40.8236 71.3478 26.7358 71.1556L28.1 -28.8351ZM-42.261 38.4359C-42.2721 39.1574 -42.2716 39.8782 -42.2596 40.5982L57.7265 38.9318C57.7323 39.2779 57.7325 39.6235 57.7272 39.9684L-42.261 38.4359ZM69.7958 -25.8557L69.7958 -25.8558L-15.7958 25.8558L-15.7957 25.8559L69.7958 -25.8557ZM-22.3197 -8.21995L-22.3197 -8.21986L76.3197 8.22004L76.3197 8.21995L-22.3197 -8.21995ZM27 50.0001L26.9999 50.0001L27.0002 -49.9999C27.0001 -49.9999 27 -49.9999 27 -49.9999V50.0001Z" fill="#AF3F4F" mask="url(#path-1-inside-1)"/>
</svg>
