<svg width="311" height="77" viewBox="0 0 311 77" fill="none" xmlns="http://www.w3.org/2000/svg">
<path d="M81.728 69.288C79.88 69.288 78.272 69 76.904 68.424C75.56 67.848 74.516 67.032 73.772 65.976C73.052 64.92 72.692 63.684 72.692 62.268V61.224C72.692 60.984 72.812 60.864 73.052 60.864H75.68C75.92 60.864 76.04 60.984 76.04 61.224V62.088C76.04 63.312 76.568 64.32 77.624 65.112C78.68 65.904 80.132 66.3 81.98 66.3C83.636 66.3 84.884 65.952 85.724 65.256C86.564 64.56 86.984 63.648 86.984 62.52C86.984 61.776 86.768 61.14 86.336 60.612C85.904 60.084 85.268 59.604 84.428 59.172C83.612 58.716 82.412 58.176 80.828 57.552C79.076 56.88 77.684 56.268 76.652 55.716C75.644 55.164 74.804 54.444 74.132 53.556C73.46 52.644 73.124 51.504 73.124 50.136C73.124 48.072 73.856 46.452 75.32 45.276C76.808 44.1 78.812 43.512 81.332 43.512C83.108 43.512 84.668 43.812 86.012 44.412C87.356 45.012 88.388 45.852 89.108 46.932C89.852 48.012 90.224 49.26 90.224 50.676V51.396C90.224 51.636 90.104 51.756 89.864 51.756H87.164C86.924 51.756 86.804 51.636 86.804 51.396V50.856C86.804 49.608 86.3 48.576 85.292 47.76C84.308 46.92 82.94 46.5 81.188 46.5C79.7 46.5 78.548 46.812 77.732 47.436C76.916 48.036 76.508 48.912 76.508 50.064C76.508 50.856 76.712 51.504 77.12 52.008C77.528 52.512 78.128 52.968 78.92 53.376C79.736 53.76 80.972 54.264 82.628 54.888C84.332 55.56 85.712 56.184 86.768 56.76C87.824 57.312 88.7 58.056 89.396 58.992C90.092 59.904 90.44 61.044 90.44 62.412C90.44 64.524 89.66 66.204 88.1 67.452C86.564 68.676 84.44 69.288 81.728 69.288ZM109.552 55.284C110.008 56.58 110.236 58.116 110.236 59.892C110.236 61.572 110.044 63.024 109.66 64.248C109.156 65.856 108.328 67.104 107.176 67.992C106.024 68.856 104.548 69.288 102.748 69.288C101.932 69.288 101.152 69.132 100.408 68.82C99.6881 68.484 99.0641 68.016 98.5361 67.416C98.4881 67.368 98.4401 67.356 98.3921 67.38C98.3681 67.404 98.3561 67.44 98.3561 67.488V75.516C98.3561 75.756 98.2361 75.876 97.9961 75.876H95.2601C95.0201 75.876 94.9001 75.756 94.9001 75.516V51.036C94.9001 50.796 95.0201 50.676 95.2601 50.676H97.9961C98.2361 50.676 98.3561 50.796 98.3561 51.036V52.224C98.3561 52.272 98.3681 52.308 98.3921 52.332C98.4401 52.356 98.4881 52.344 98.5361 52.296C99.0641 51.696 99.6881 51.228 100.408 50.892C101.128 50.556 101.908 50.388 102.748 50.388C104.476 50.388 105.904 50.82 107.032 51.684C108.184 52.524 109.024 53.724 109.552 55.284ZM105.592 64.572C106.36 63.42 106.744 61.836 106.744 59.82C106.744 57.972 106.444 56.484 105.844 55.356C105.148 54.036 104.008 53.376 102.424 53.376C101.032 53.376 99.9761 54.024 99.2561 55.32C98.6801 56.352 98.3921 57.864 98.3921 59.856C98.3921 61.872 98.7041 63.408 99.3281 64.464C100.024 65.688 101.044 66.3 102.388 66.3C103.828 66.3 104.896 65.724 105.592 64.572ZM129.379 57.552C129.475 58.536 129.511 59.64 129.487 60.864C129.487 61.104 129.367 61.224 129.127 61.224H117.643C117.547 61.224 117.499 61.272 117.499 61.368C117.499 62.184 117.571 62.808 117.715 63.24C117.979 64.2 118.507 64.956 119.299 65.508C120.115 66.036 121.135 66.3 122.359 66.3C124.135 66.3 125.503 65.568 126.463 64.104C126.583 63.864 126.739 63.828 126.931 63.996L128.983 65.364C129.151 65.508 129.187 65.664 129.091 65.832C128.419 66.912 127.459 67.764 126.211 68.388C124.987 69.012 123.595 69.324 122.035 69.324C120.283 69.324 118.807 68.94 117.607 68.172C116.407 67.404 115.507 66.312 114.907 64.896C114.331 63.48 114.043 61.764 114.043 59.748C114.043 57.996 114.175 56.664 114.439 55.752C114.871 54.096 115.735 52.788 117.031 51.828C118.327 50.868 119.899 50.388 121.747 50.388C124.171 50.388 125.983 51 127.183 52.224C128.383 53.424 129.115 55.2 129.379 57.552ZM121.747 53.376C120.715 53.376 119.863 53.64 119.191 54.168C118.519 54.672 118.063 55.356 117.823 56.22C117.655 56.748 117.547 57.42 117.499 58.236C117.499 58.332 117.547 58.38 117.643 58.38H125.887C125.983 58.38 126.031 58.332 126.031 58.236C125.983 57.444 125.911 56.856 125.815 56.472C125.575 55.536 125.095 54.792 124.375 54.24C123.679 53.664 122.803 53.376 121.747 53.376ZM141.876 50.496C142.644 50.496 143.34 50.652 143.964 50.964C144.132 51.036 144.192 51.18 144.144 51.396L143.568 54.096C143.544 54.312 143.4 54.384 143.136 54.312C142.728 54.144 142.248 54.06 141.696 54.06L141.192 54.096C140.064 54.144 139.128 54.54 138.384 55.284C137.664 56.004 137.304 56.952 137.304 58.128V68.64C137.304 68.88 137.184 69 136.944 69H134.208C133.968 69 133.848 68.88 133.848 68.64V51.036C133.848 50.796 133.968 50.676 134.208 50.676H136.944C137.184 50.676 137.304 50.796 137.304 51.036V52.944C137.304 53.016 137.316 53.064 137.34 53.088C137.388 53.088 137.424 53.064 137.448 53.016C138.528 51.336 140.004 50.496 141.876 50.496ZM149.296 47.796C148.624 47.796 148.072 47.58 147.64 47.148C147.208 46.716 146.992 46.164 146.992 45.492C146.992 44.82 147.208 44.268 147.64 43.836C148.072 43.404 148.624 43.188 149.296 43.188C149.968 43.188 150.52 43.404 150.952 43.836C151.384 44.268 151.6 44.82 151.6 45.492C151.6 46.164 151.384 46.716 150.952 47.148C150.52 47.58 149.968 47.796 149.296 47.796ZM147.856 68.964C147.616 68.964 147.496 68.844 147.496 68.604V51.036C147.496 50.796 147.616 50.676 147.856 50.676H150.592C150.832 50.676 150.952 50.796 150.952 51.036V68.604C150.952 68.844 150.832 68.964 150.592 68.964H147.856ZM163.079 50.388C164.543 50.388 165.815 50.652 166.895 51.18C167.999 51.684 168.839 52.404 169.415 53.34C170.015 54.252 170.315 55.296 170.315 56.472V68.64C170.315 68.88 170.195 69 169.955 69H167.219C166.979 69 166.859 68.88 166.859 68.64V67.344C166.859 67.224 166.799 67.2 166.679 67.272C166.055 67.92 165.287 68.424 164.375 68.784C163.487 69.12 162.491 69.288 161.387 69.288C159.611 69.288 158.135 68.844 156.959 67.956C155.807 67.044 155.231 65.676 155.231 63.852C155.231 61.98 155.879 60.516 157.175 59.46C158.495 58.38 160.331 57.84 162.683 57.84H166.715C166.811 57.84 166.859 57.792 166.859 57.696V56.724C166.859 55.668 166.547 54.852 165.923 54.276C165.323 53.676 164.399 53.376 163.151 53.376C162.143 53.376 161.315 53.58 160.667 53.988C160.043 54.372 159.659 54.9 159.515 55.572C159.443 55.812 159.299 55.92 159.083 55.896L156.167 55.5C155.927 55.452 155.819 55.356 155.843 55.212C156.035 53.796 156.791 52.644 158.111 51.756C159.431 50.844 161.087 50.388 163.079 50.388ZM162.143 66.372C163.415 66.372 164.519 66.036 165.455 65.364C166.391 64.692 166.859 63.84 166.859 62.808V60.684C166.859 60.588 166.811 60.54 166.715 60.54H163.331C161.915 60.54 160.787 60.816 159.947 61.368C159.107 61.92 158.687 62.688 158.687 63.672C158.687 64.56 158.999 65.232 159.623 65.688C160.271 66.144 161.111 66.372 162.143 66.372ZM190.72 69.324C188.992 69.324 187.456 68.988 186.112 68.316C184.792 67.62 183.76 66.648 183.016 65.4C182.296 64.128 181.936 62.676 181.936 61.044V51.72C181.936 50.088 182.296 48.66 183.016 47.436C183.76 46.188 184.792 45.228 186.112 44.556C187.456 43.86 188.992 43.512 190.72 43.512C192.448 43.512 193.972 43.848 195.292 44.52C196.612 45.168 197.632 46.092 198.352 47.292C199.096 48.492 199.468 49.884 199.468 51.468V51.504C199.468 51.624 199.432 51.72 199.36 51.792C199.288 51.864 199.204 51.9 199.108 51.9L196.372 52.044C196.132 52.044 196.012 51.936 196.012 51.72V51.612C196.012 50.076 195.532 48.84 194.572 47.904C193.612 46.968 192.328 46.5 190.72 46.5C189.112 46.5 187.816 46.968 186.832 47.904C185.872 48.84 185.392 50.076 185.392 51.612V61.188C185.392 62.724 185.872 63.96 186.832 64.896C187.816 65.832 189.112 66.3 190.72 66.3C192.328 66.3 193.612 65.832 194.572 64.896C195.532 63.96 196.012 62.724 196.012 61.188V61.116C196.012 60.9 196.132 60.792 196.372 60.792L199.108 60.936C199.348 60.936 199.468 61.056 199.468 61.296C199.468 62.88 199.096 64.284 198.352 65.508C197.632 66.708 196.612 67.644 195.292 68.316C193.972 68.988 192.448 69.324 190.72 69.324ZM212.083 50.496C212.851 50.496 213.547 50.652 214.171 50.964C214.339 51.036 214.399 51.18 214.351 51.396L213.775 54.096C213.751 54.312 213.607 54.384 213.343 54.312C212.935 54.144 212.455 54.06 211.903 54.06L211.399 54.096C210.271 54.144 209.335 54.54 208.591 55.284C207.871 56.004 207.511 56.952 207.511 58.128V68.64C207.511 68.88 207.391 69 207.151 69H204.415C204.175 69 204.055 68.88 204.055 68.64V51.036C204.055 50.796 204.175 50.676 204.415 50.676H207.151C207.391 50.676 207.511 50.796 207.511 51.036V52.944C207.511 53.016 207.523 53.064 207.547 53.088C207.595 53.088 207.631 53.064 207.655 53.016C208.735 51.336 210.211 50.496 212.083 50.496ZM231.965 57.552C232.061 58.536 232.097 59.64 232.073 60.864C232.073 61.104 231.953 61.224 231.713 61.224H220.229C220.133 61.224 220.085 61.272 220.085 61.368C220.085 62.184 220.157 62.808 220.301 63.24C220.565 64.2 221.093 64.956 221.885 65.508C222.701 66.036 223.721 66.3 224.945 66.3C226.721 66.3 228.089 65.568 229.049 64.104C229.169 63.864 229.325 63.828 229.517 63.996L231.569 65.364C231.737 65.508 231.773 65.664 231.677 65.832C231.005 66.912 230.045 67.764 228.797 68.388C227.573 69.012 226.181 69.324 224.621 69.324C222.869 69.324 221.393 68.94 220.193 68.172C218.993 67.404 218.093 66.312 217.493 64.896C216.917 63.48 216.629 61.764 216.629 59.748C216.629 57.996 216.761 56.664 217.025 55.752C217.457 54.096 218.321 52.788 219.617 51.828C220.913 50.868 222.485 50.388 224.333 50.388C226.757 50.388 228.569 51 229.769 52.224C230.969 53.424 231.701 55.2 231.965 57.552ZM224.333 53.376C223.301 53.376 222.449 53.64 221.777 54.168C221.105 54.672 220.649 55.356 220.409 56.22C220.241 56.748 220.133 57.42 220.085 58.236C220.085 58.332 220.133 58.38 220.229 58.38H228.473C228.569 58.38 228.617 58.332 228.617 58.236C228.569 57.444 228.497 56.856 228.401 56.472C228.161 55.536 227.681 54.792 226.961 54.24C226.265 53.664 225.389 53.376 224.333 53.376ZM242.954 50.388C244.418 50.388 245.69 50.652 246.77 51.18C247.874 51.684 248.714 52.404 249.29 53.34C249.89 54.252 250.19 55.296 250.19 56.472V68.64C250.19 68.88 250.07 69 249.83 69H247.094C246.854 69 246.734 68.88 246.734 68.64V67.344C246.734 67.224 246.674 67.2 246.554 67.272C245.93 67.92 245.162 68.424 244.25 68.784C243.362 69.12 242.366 69.288 241.262 69.288C239.486 69.288 238.01 68.844 236.834 67.956C235.682 67.044 235.106 65.676 235.106 63.852C235.106 61.98 235.754 60.516 237.05 59.46C238.37 58.38 240.206 57.84 242.558 57.84H246.59C246.686 57.84 246.734 57.792 246.734 57.696V56.724C246.734 55.668 246.422 54.852 245.798 54.276C245.198 53.676 244.274 53.376 243.026 53.376C242.018 53.376 241.19 53.58 240.542 53.988C239.918 54.372 239.534 54.9 239.39 55.572C239.318 55.812 239.174 55.92 238.958 55.896L236.042 55.5C235.802 55.452 235.694 55.356 235.718 55.212C235.91 53.796 236.666 52.644 237.986 51.756C239.306 50.844 240.962 50.388 242.954 50.388ZM242.018 66.372C243.29 66.372 244.394 66.036 245.33 65.364C246.266 64.692 246.734 63.84 246.734 62.808V60.684C246.734 60.588 246.686 60.54 246.59 60.54H243.206C241.79 60.54 240.662 60.816 239.822 61.368C238.982 61.92 238.562 62.688 238.562 63.672C238.562 64.56 238.874 65.232 239.498 65.688C240.146 66.144 240.986 66.372 242.018 66.372ZM263.646 53.16C263.646 53.4 263.526 53.52 263.286 53.52H259.398C259.302 53.52 259.254 53.568 259.254 53.664V63.204C259.254 64.212 259.482 64.944 259.938 65.4C260.394 65.832 261.102 66.048 262.062 66.048H263.106C263.346 66.048 263.466 66.168 263.466 66.408V68.64C263.466 68.88 263.346 69 263.106 69C262.338 69.048 261.786 69.072 261.45 69.072C259.626 69.072 258.246 68.748 257.31 68.1C256.398 67.428 255.942 66.204 255.942 64.428V53.664C255.942 53.568 255.894 53.52 255.798 53.52H253.602C253.362 53.52 253.242 53.4 253.242 53.16V51.036C253.242 50.796 253.362 50.676 253.602 50.676H255.798C255.894 50.676 255.942 50.628 255.942 50.532V46.284C255.942 46.044 256.062 45.924 256.302 45.924H258.894C259.134 45.924 259.254 46.044 259.254 46.284V50.532C259.254 50.628 259.302 50.676 259.398 50.676H263.286C263.526 50.676 263.646 50.796 263.646 51.036V53.16ZM269.987 47.796C269.315 47.796 268.763 47.58 268.331 47.148C267.899 46.716 267.683 46.164 267.683 45.492C267.683 44.82 267.899 44.268 268.331 43.836C268.763 43.404 269.315 43.188 269.987 43.188C270.659 43.188 271.211 43.404 271.643 43.836C272.075 44.268 272.291 44.82 272.291 45.492C272.291 46.164 272.075 46.716 271.643 47.148C271.211 47.58 270.659 47.796 269.987 47.796ZM268.547 68.964C268.307 68.964 268.187 68.844 268.187 68.604V51.036C268.187 50.796 268.307 50.676 268.547 50.676H271.283C271.523 50.676 271.643 50.796 271.643 51.036V68.604C271.643 68.844 271.523 68.964 271.283 68.964H268.547ZM281.899 69C281.683 69 281.539 68.904 281.467 68.712L275.599 51.072L275.563 50.928C275.563 50.76 275.671 50.676 275.887 50.676H278.911C279.127 50.676 279.271 50.772 279.343 50.964L283.303 63.996C283.327 64.044 283.363 64.068 283.411 64.068C283.459 64.068 283.495 64.044 283.519 63.996L287.443 50.964C287.515 50.772 287.659 50.676 287.875 50.676L290.899 50.712C291.163 50.712 291.259 50.844 291.187 51.108L285.355 68.712C285.283 68.904 285.139 69 284.923 69H281.899ZM308.782 57.552C308.878 58.536 308.914 59.64 308.89 60.864C308.89 61.104 308.77 61.224 308.53 61.224H297.046C296.95 61.224 296.902 61.272 296.902 61.368C296.902 62.184 296.974 62.808 297.118 63.24C297.382 64.2 297.91 64.956 298.702 65.508C299.518 66.036 300.538 66.3 301.762 66.3C303.538 66.3 304.906 65.568 305.866 64.104C305.986 63.864 306.142 63.828 306.334 63.996L308.386 65.364C308.554 65.508 308.59 65.664 308.494 65.832C307.822 66.912 306.862 67.764 305.614 68.388C304.39 69.012 302.998 69.324 301.438 69.324C299.686 69.324 298.21 68.94 297.01 68.172C295.81 67.404 294.91 66.312 294.31 64.896C293.734 63.48 293.446 61.764 293.446 59.748C293.446 57.996 293.578 56.664 293.842 55.752C294.274 54.096 295.138 52.788 296.434 51.828C297.73 50.868 299.302 50.388 301.15 50.388C303.574 50.388 305.386 51 306.586 52.224C307.786 53.424 308.518 55.2 308.782 57.552ZM301.15 53.376C300.118 53.376 299.266 53.64 298.594 54.168C297.922 54.672 297.466 55.356 297.226 56.22C297.058 56.748 296.95 57.42 296.902 58.236C296.902 58.332 296.95 58.38 297.046 58.38H305.29C305.386 58.38 305.434 58.332 305.434 58.236C305.386 57.444 305.314 56.856 305.218 56.472C304.978 55.536 304.498 54.792 303.778 54.24C303.082 53.664 302.206 53.376 301.15 53.376Z" fill="#4A5F70"/>
<mask id="path-2-inside-1" fill="white">
<path fill-rule="evenodd" clip-rule="evenodd" d="M50.3573 38.1593C50.2877 38.2719 50.2173 38.384 50.1459 38.4955L44.2829 48.0512C44.0758 48.4185 43.8559 48.7784 43.6238 49.1302L43.5263 49.2843L27 76.2193L26.7479 75.8083L26.5761 76.0799L17.4199 60.6054L3.85405 38.4954C3.7827 38.384 3.71224 38.2719 3.64267 38.1594C1.32648 41.9173 0 46.2852 0 50.9454C0 65.0137 12.0883 76.4182 27 76.4182C41.9117 76.4182 54 65.0137 54 50.9454C54 46.2852 52.6735 41.9173 50.3573 38.1593ZM7.73345 39.765C7.56072 38.7527 7.47654 37.713 7.48856 36.6531C7.52755 33.2137 8.57464 30.0068 10.3628 27.2785L27.2559 0.418148L31.8043 7.85066L43.6358 27.6227C45.2754 30.2485 46.2371 33.2918 46.2968 36.5375C44.8285 27.926 36.9812 21.2907 27.4179 21.1602C16.7013 21.014 7.88806 29.0917 7.73308 39.2022C7.7302 39.3904 7.73033 39.578 7.73345 39.765ZM27.0001 9.15528e-05L27 0L27 9.15527e-05C27 9.15527e-05 27 9.15528e-05 27.0001 9.15528e-05Z"/>
</mask>
<path fill-rule="evenodd" clip-rule="evenodd" d="M50.3573 38.1593C50.2877 38.2719 50.2173 38.384 50.1459 38.4955L44.2829 48.0512C44.0758 48.4185 43.8559 48.7784 43.6238 49.1302L43.5263 49.2843L27 76.2193L26.7479 75.8083L26.5761 76.0799L17.4199 60.6054L3.85405 38.4954C3.7827 38.384 3.71224 38.2719 3.64267 38.1594C1.32648 41.9173 0 46.2852 0 50.9454C0 65.0137 12.0883 76.4182 27 76.4182C41.9117 76.4182 54 65.0137 54 50.9454C54 46.2852 52.6735 41.9173 50.3573 38.1593ZM7.73345 39.765C7.56072 38.7527 7.47654 37.713 7.48856 36.6531C7.52755 33.2137 8.57464 30.0068 10.3628 27.2785L27.2559 0.418148L31.8043 7.85066L43.6358 27.6227C45.2754 30.2485 46.2371 33.2918 46.2968 36.5375C44.8285 27.926 36.9812 21.2907 27.4179 21.1602C16.7013 21.014 7.88806 29.0917 7.73308 39.2022C7.7302 39.3904 7.73033 39.578 7.73345 39.765ZM27.0001 9.15528e-05L27 0L27 9.15527e-05C27 9.15527e-05 27 9.15528e-05 27.0001 9.15528e-05Z" fill="white"/>
<path d="M50.3573 38.1593L92.9219 11.9247L50.4132 -57.0438L7.82356 11.8747L50.3573 38.1593ZM50.1459 38.4955L8.03257 11.5424L7.77666 11.9423L7.52838 12.3469L50.1459 38.4955ZM44.2829 48.0512L1.66532 21.9027L1.18034 22.6931L0.725002 23.501L44.2829 48.0512ZM43.6238 49.1302L1.89173 21.5904L1.62616 21.9929L1.36841 22.4003L43.6238 49.1302ZM43.5263 49.2843L1.2709 22.5545L1.08782 22.8439L0.908722 23.1358L43.5263 49.2843ZM27 76.2193L-15.6176 102.368L26.9998 171.827L69.6175 102.368L27 76.2193ZM26.7479 75.8083L69.3655 49.6599L27.3953 -18.7446L-15.5077 49.0788L26.7479 75.8083ZM26.5761 76.0799L-16.4554 101.541L25.1521 171.86L68.8316 102.809L26.5761 76.0799ZM17.4199 60.6054L60.4513 35.1438L60.2471 34.7986L60.0374 34.4568L17.4199 60.6054ZM3.85405 38.4954L46.4716 12.3469L46.2231 11.9419L45.967 11.5418L3.85405 38.4954ZM3.64267 38.1594L46.1765 11.8749L3.58697 -57.0441L-38.9219 11.9247L3.64267 38.1594ZM7.73345 39.765L-41.5542 48.1748L57.7265 38.9318L7.73345 39.765ZM7.48856 36.6531L57.4853 37.22V37.22L7.48856 36.6531ZM10.3628 27.2785L52.1814 54.6866L52.4384 54.2946L52.6879 53.8977L10.3628 27.2785ZM27.2559 0.418148L69.9038 -25.6809L27.8365 -94.4221L-15.0692 -26.2011L27.2559 0.418148ZM31.8043 7.85066L74.7094 -17.8234L74.5819 -18.0365L74.4522 -18.2484L31.8043 7.85066ZM43.6358 27.6227L0.730701 53.2967L0.974296 53.7038L1.22557 54.1062L43.6358 27.6227ZM46.2968 36.5375L-2.99187 44.9414L96.2884 35.6174L46.2968 36.5375ZM27.4179 21.1602L26.7358 71.1556H26.7358L27.4179 21.1602ZM7.73308 39.2022L-42.261 38.4358V38.4359L7.73308 39.2022ZM27.0001 9.15528e-05L26.9999 50.0001L115.625 50.0003L69.7958 -25.8557L27.0001 9.15528e-05ZM27 0L69.7958 -25.8558L-0.0990428 -141.544L-22.3197 -8.21995L27 0ZM27 9.15527e-05L-22.3197 -8.21986L-32.023 50.0001H27V9.15527e-05ZM7.82356 11.8747C7.89274 11.7628 7.96242 11.652 8.03257 11.5424L92.2592 65.4485C92.4721 65.1159 92.6827 64.7811 92.8911 64.4439L7.82356 11.8747ZM7.52838 12.3469L1.66532 21.9027L86.9004 74.1998L92.7634 64.644L7.52838 12.3469ZM85.3558 76.67C86.2269 75.3499 87.0563 73.9932 87.8407 72.6014L0.725002 23.501C1.09535 22.8439 1.48494 22.2069 1.89173 21.5904L85.3558 76.67ZM85.7816 76.0142L85.8791 75.8601L1.36841 22.4003L1.2709 22.5545L85.7816 76.0142ZM0.908722 23.1358L-15.6175 50.0707L69.6175 102.368L86.1438 75.4329L0.908722 23.1358ZM69.6176 50.0708L69.3655 49.6599L-15.8698 101.957L-15.6176 102.368L69.6176 50.0708ZM68.8316 102.809L69.0034 102.538L-15.5077 49.0788L-15.6795 49.3503L68.8316 102.809ZM-25.6116 86.0669L-16.4554 101.541L69.6076 50.6183L60.4513 35.1438L-25.6116 86.0669ZM60.0374 34.4568L46.4716 12.3469L-38.7635 64.644L-25.1977 86.7539L60.0374 34.4568ZM45.967 11.5418C46.0377 11.6523 46.1076 11.7633 46.1765 11.8749L-38.8912 64.4438C-38.6831 64.7805 -38.4723 65.1157 -38.2589 65.4491L45.967 11.5418ZM-38.9219 11.9247C-45.8869 23.2251 -50 36.6237 -50 50.9454H50C50 55.9468 48.5398 60.6095 46.2073 64.394L-38.9219 11.9247ZM-50 50.9454C-50 95.3309 -12.7431 126.418 27 126.418V26.4182C36.9198 26.4182 50 34.6965 50 50.9454H-50ZM27 126.418C66.7431 126.418 104 95.3309 104 50.9454H4C4 34.6965 17.0802 26.4182 27 26.4182V126.418ZM104 50.9454C104 36.6236 99.8869 23.225 92.9219 11.9247L7.79275 64.394C5.46016 60.6095 4 55.9468 4 50.9454H104ZM57.0211 31.3552C57.3513 33.2901 57.5076 35.2546 57.4853 37.22L-42.5082 36.0863C-42.5545 40.1714 -42.2298 44.2153 -41.5542 48.1748L57.0211 31.3552ZM57.4853 37.22C57.4112 43.7632 55.3798 49.8066 52.1814 54.6866L-31.4558 -0.129672C-38.2305 10.207 -42.3561 22.6642 -42.5082 36.0863L57.4853 37.22ZM52.6879 53.8977L69.581 27.0374L-15.0692 -26.2011L-31.9623 0.659249L52.6879 53.8977ZM74.4522 -18.2484L69.9038 -25.6809L-15.392 26.5172L-10.8435 33.9497L74.4522 -18.2484ZM-11.1007 33.5247L0.730701 53.2967L86.5408 1.9487L74.7094 -17.8234L-11.1007 33.5247ZM1.22557 54.1062C-1.71249 49.4013 -3.5805 43.6628 -3.69471 37.4576L96.2884 35.6174C96.0547 22.9208 92.2634 11.0957 86.046 1.13923L1.22557 54.1062ZM95.5855 28.1336C89.7933 -5.83781 60.1265 -28.3982 28.1 -28.8351L26.7358 71.1556C13.8358 70.9796 -0.136205 61.6898 -2.99187 44.9414L95.5855 28.1336ZM28.1 -28.8351C-7.42111 -29.3197 -41.642 -1.94747 -42.261 38.4358L57.7272 39.9685C57.4182 60.1308 40.8236 71.3478 26.7358 71.1556L28.1 -28.8351ZM-42.261 38.4359C-42.2721 39.1574 -42.2716 39.8782 -42.2596 40.5982L57.7265 38.9318C57.7323 39.2779 57.7325 39.6235 57.7272 39.9684L-42.261 38.4359ZM69.7958 -25.8557L69.7958 -25.8558L-15.7958 25.8558L-15.7957 25.8559L69.7958 -25.8557ZM-22.3197 -8.21995L-22.3197 -8.21986L76.3197 8.22004L76.3197 8.21995L-22.3197 -8.21995ZM27 50.0001H26.9999L27.0002 -49.9999C27.0001 -49.9999 27 -49.9999 27 -49.9999V50.0001Z" fill="#AF3F4F" mask="url(#path-2-inside-1)"/>
</svg>
