<svg viewBox="0 0 301 135" fill="none" xmlns="http://www.w3.org/2000/svg">
<g filter="url(#filter0_d)">
<path d="M13.166 120.272C11.398 120.272 9.85667 119.989 8.542 119.422C7.22733 118.855 6.20733 118.062 5.482 117.042C4.77933 116.022 4.428 114.821 4.428 113.438V112.588C4.428 112.475 4.462 112.384 4.53 112.316C4.62067 112.225 4.72267 112.18 4.836 112.18H7.862C7.97533 112.18 8.066 112.225 8.134 112.316C8.22467 112.384 8.27 112.475 8.27 112.588V113.234C8.27 114.277 8.73467 115.149 9.664 115.852C10.5933 116.532 11.8627 116.872 13.472 116.872C14.8547 116.872 15.8973 116.577 16.6 115.988C17.3027 115.399 17.654 114.639 17.654 113.71C17.654 113.075 17.4613 112.543 17.076 112.112C16.6907 111.659 16.1353 111.251 15.41 110.888C14.7073 110.525 13.642 110.072 12.214 109.528C10.6047 108.939 9.30133 108.383 8.304 107.862C7.30667 107.341 6.468 106.638 5.788 105.754C5.13067 104.847 4.802 103.725 4.802 102.388C4.802 100.393 5.52733 98.818 6.978 97.662C8.42867 96.506 10.3667 95.928 12.792 95.928C14.492 95.928 15.988 96.2227 17.28 96.812C18.5947 97.4013 19.6147 98.2287 20.34 99.294C21.0653 100.337 21.428 101.549 21.428 102.932V103.51C21.428 103.623 21.3827 103.725 21.292 103.816C21.224 103.884 21.1333 103.918 21.02 103.918H17.96C17.8467 103.918 17.7447 103.884 17.654 103.816C17.586 103.725 17.552 103.623 17.552 103.51V103.136C17.552 102.071 17.11 101.175 16.226 100.45C15.3647 99.702 14.1633 99.328 12.622 99.328C11.3753 99.328 10.4007 99.5887 9.698 100.11C9.018 100.631 8.678 101.368 8.678 102.32C8.678 103 8.85933 103.555 9.222 103.986C9.58467 104.417 10.1287 104.813 10.854 105.176C11.5793 105.516 12.7013 105.958 14.22 106.502C15.8293 107.114 17.11 107.669 18.062 108.168C19.0367 108.667 19.864 109.369 20.544 110.276C21.2467 111.16 21.598 112.271 21.598 113.608C21.598 115.648 20.8387 117.269 19.32 118.47C17.824 119.671 15.7727 120.272 13.166 120.272ZM44.6779 107.114C45.0859 108.27 45.2899 109.687 45.2899 111.364C45.2899 112.973 45.0972 114.356 44.7119 115.512C44.2132 117.008 43.4086 118.175 42.2979 119.014C41.2099 119.853 39.8272 120.272 38.1499 120.272C36.5406 120.272 35.2486 119.694 34.2739 118.538C34.2286 118.493 34.1832 118.481 34.1379 118.504C34.0926 118.527 34.0699 118.572 34.0699 118.64V126.018C34.0699 126.131 34.0246 126.222 33.9339 126.29C33.8659 126.381 33.7752 126.426 33.6619 126.426H30.5339C30.4206 126.426 30.3186 126.381 30.2279 126.29C30.1599 126.222 30.1259 126.131 30.1259 126.018V103.034C30.1259 102.921 30.1599 102.83 30.2279 102.762C30.3186 102.671 30.4206 102.626 30.5339 102.626H33.6619C33.7752 102.626 33.8659 102.671 33.9339 102.762C34.0246 102.83 34.0699 102.921 34.0699 103.034V104.054C34.0699 104.122 34.0926 104.167 34.1379 104.19C34.1832 104.213 34.2286 104.19 34.2739 104.122C35.2712 102.943 36.5746 102.354 38.1839 102.354C39.7932 102.354 41.1532 102.773 42.2639 103.612C43.3746 104.451 44.1792 105.618 44.6779 107.114ZM40.2579 115.444C40.9379 114.401 41.2779 113.019 41.2779 111.296C41.2779 109.641 41.0059 108.338 40.4619 107.386C39.8272 106.275 38.8639 105.72 37.5719 105.72C36.3932 105.72 35.5092 106.264 34.9199 107.352C34.3986 108.236 34.1379 109.551 34.1379 111.296C34.1379 113.087 34.4212 114.447 34.9879 115.376C35.5772 116.373 36.4272 116.872 37.5379 116.872C38.7392 116.872 39.6459 116.396 40.2579 115.444ZM68.3953 109.358C68.4859 109.925 68.5313 110.559 68.5313 111.262L68.4973 112.316C68.4973 112.588 68.3613 112.724 68.0893 112.724H57.4473C57.3339 112.724 57.2773 112.781 57.2773 112.894C57.3453 113.642 57.4473 114.152 57.5833 114.424C58.1273 116.056 59.4533 116.883 61.5613 116.906C63.1026 116.906 64.3266 116.271 65.2333 115.002C65.3239 114.866 65.4373 114.798 65.5733 114.798C65.6639 114.798 65.7433 114.832 65.8113 114.9L67.9193 116.634C68.1233 116.793 68.1573 116.974 68.0213 117.178C67.3186 118.175 66.3779 118.946 65.1993 119.49C64.0433 120.034 62.7513 120.306 61.3233 120.306C59.5553 120.306 58.0479 119.909 56.8013 119.116C55.5773 118.323 54.6819 117.212 54.1153 115.784C53.5939 114.56 53.3333 112.86 53.3333 110.684C53.3333 109.369 53.4693 108.304 53.7413 107.488C54.1946 105.901 55.0446 104.655 56.2913 103.748C57.5606 102.819 59.0793 102.354 60.8473 102.354C65.3126 102.354 67.8286 104.689 68.3953 109.358ZM60.8473 105.754C60.0086 105.754 59.3059 105.969 58.7393 106.4C58.1953 106.808 57.8099 107.386 57.5833 108.134C57.4473 108.519 57.3566 109.018 57.3113 109.63C57.2659 109.743 57.3113 109.8 57.4473 109.8H64.3493C64.4626 109.8 64.5193 109.743 64.5193 109.63C64.4739 109.063 64.4059 108.633 64.3153 108.338C64.1113 107.522 63.7033 106.887 63.0913 106.434C62.5019 105.981 61.7539 105.754 60.8473 105.754ZM84.9878 102.422C85.7131 102.422 86.3478 102.569 86.8918 102.864C87.0731 102.955 87.1411 103.125 87.0958 103.374L86.5178 106.434C86.4951 106.706 86.3365 106.785 86.0418 106.672C85.7018 106.559 85.3051 106.502 84.8518 106.502C84.5571 106.502 84.3305 106.513 84.1718 106.536C83.2198 106.581 82.4265 106.921 81.7918 107.556C81.1571 108.168 80.8398 108.973 80.8398 109.97V119.592C80.8398 119.705 80.7945 119.807 80.7038 119.898C80.6358 119.966 80.5451 120 80.4318 120H77.3038C77.1905 120 77.0885 119.966 76.9978 119.898C76.9298 119.807 76.8958 119.705 76.8958 119.592V103.034C76.8958 102.921 76.9298 102.83 76.9978 102.762C77.0885 102.671 77.1905 102.626 77.3038 102.626H80.4318C80.5451 102.626 80.6358 102.671 80.7038 102.762C80.7945 102.83 80.8398 102.921 80.8398 103.034V104.564C80.8398 104.655 80.8511 104.711 80.8738 104.734C80.9191 104.734 80.9645 104.7 81.0098 104.632C81.9618 103.159 83.2878 102.422 84.9878 102.422ZM96.683 100.246C95.9804 100.246 95.4024 100.019 94.949 99.566C94.4957 99.1127 94.269 98.5347 94.269 97.832C94.269 97.1293 94.4957 96.5513 94.949 96.098C95.4024 95.6447 95.9804 95.418 96.683 95.418C97.3857 95.418 97.9637 95.6447 98.417 96.098C98.8704 96.5513 99.097 97.1293 99.097 97.832C99.097 98.5347 98.8704 99.1127 98.417 99.566C97.9637 100.019 97.3857 100.246 96.683 100.246ZM95.051 120C94.9377 120 94.8357 119.966 94.745 119.898C94.677 119.807 94.643 119.705 94.643 119.592V103C94.643 102.887 94.677 102.796 94.745 102.728C94.8357 102.637 94.9377 102.592 95.051 102.592H98.179C98.2923 102.592 98.383 102.637 98.451 102.728C98.5417 102.796 98.587 102.887 98.587 103V119.592C98.587 119.705 98.5417 119.807 98.451 119.898C98.383 119.966 98.2923 120 98.179 120H95.051ZM114.495 102.354C115.923 102.354 117.181 102.603 118.269 103.102C119.357 103.601 120.196 104.292 120.785 105.176C121.374 106.037 121.669 107.023 121.669 108.134V119.592C121.669 119.705 121.624 119.807 121.533 119.898C121.465 119.966 121.374 120 121.261 120H118.133C118.02 120 117.918 119.966 117.827 119.898C117.759 119.807 117.725 119.705 117.725 119.592V118.504C117.725 118.436 117.702 118.402 117.657 118.402C117.612 118.379 117.566 118.391 117.521 118.436C116.41 119.66 114.801 120.272 112.693 120.272C110.993 120.272 109.588 119.841 108.477 118.98C107.389 118.119 106.845 116.838 106.845 115.138C106.845 113.37 107.457 111.999 108.681 111.024C109.928 110.027 111.673 109.528 113.917 109.528H117.555C117.668 109.528 117.725 109.471 117.725 109.358V108.542C117.725 107.658 117.464 106.978 116.943 106.502C116.422 106.003 115.64 105.754 114.597 105.754C113.736 105.754 113.033 105.913 112.489 106.23C111.968 106.525 111.639 106.944 111.503 107.488C111.435 107.76 111.276 107.873 111.027 107.828L107.729 107.42C107.616 107.397 107.514 107.363 107.423 107.318C107.355 107.25 107.332 107.171 107.355 107.08C107.536 105.697 108.273 104.564 109.565 103.68C110.88 102.796 112.523 102.354 114.495 102.354ZM113.679 117.144C114.79 117.144 115.742 116.849 116.535 116.26C117.328 115.671 117.725 114.923 117.725 114.016V112.418C117.725 112.305 117.668 112.248 117.555 112.248H114.699C113.498 112.248 112.546 112.475 111.843 112.928C111.163 113.381 110.823 114.027 110.823 114.866C110.823 115.591 111.084 116.158 111.605 116.566C112.149 116.951 112.84 117.144 113.679 117.144ZM150.285 120.272C148.585 120.272 147.089 119.943 145.797 119.286C144.505 118.606 143.508 117.665 142.805 116.464C142.103 115.263 141.751 113.869 141.751 112.282V103.884C141.751 102.297 142.103 100.903 142.805 99.702C143.508 98.5007 144.505 97.5713 145.797 96.914C147.089 96.2567 148.585 95.928 150.285 95.928C151.963 95.928 153.447 96.2453 154.739 96.88C156.031 97.5147 157.029 98.41 157.731 99.566C158.434 100.722 158.785 102.059 158.785 103.578C158.785 103.691 158.74 103.793 158.649 103.884C158.581 103.952 158.491 103.986 158.377 103.986L155.249 104.156C154.977 104.156 154.841 104.031 154.841 103.782C154.841 102.445 154.422 101.368 153.583 100.552C152.767 99.736 151.668 99.328 150.285 99.328C148.903 99.328 147.792 99.736 146.953 100.552C146.115 101.368 145.695 102.445 145.695 103.782V112.452C145.695 113.767 146.115 114.832 146.953 115.648C147.792 116.464 148.903 116.872 150.285 116.872C151.668 116.872 152.767 116.475 153.583 115.682C154.422 114.866 154.841 113.789 154.841 112.452C154.841 112.203 154.977 112.078 155.249 112.078L158.377 112.214C158.491 112.214 158.581 112.248 158.649 112.316C158.74 112.384 158.785 112.463 158.785 112.554C158.785 114.095 158.434 115.455 157.731 116.634C157.029 117.79 156.031 118.685 154.739 119.32C153.447 119.955 151.963 120.272 150.285 120.272ZM175.493 102.422C176.218 102.422 176.853 102.569 177.397 102.864C177.578 102.955 177.646 103.125 177.601 103.374L177.023 106.434C177 106.706 176.842 106.785 176.547 106.672C176.207 106.559 175.81 106.502 175.357 106.502C175.062 106.502 174.836 106.513 174.677 106.536C173.725 106.581 172.932 106.921 172.297 107.556C171.662 108.168 171.345 108.973 171.345 109.97V119.592C171.345 119.705 171.3 119.807 171.209 119.898C171.141 119.966 171.05 120 170.937 120H167.809C167.696 120 167.594 119.966 167.503 119.898C167.435 119.807 167.401 119.705 167.401 119.592V103.034C167.401 102.921 167.435 102.83 167.503 102.762C167.594 102.671 167.696 102.626 167.809 102.626H170.937C171.05 102.626 171.141 102.671 171.209 102.762C171.3 102.83 171.345 102.921 171.345 103.034V104.564C171.345 104.655 171.356 104.711 171.379 104.734C171.424 104.734 171.47 104.7 171.515 104.632C172.467 103.159 173.793 102.422 175.493 102.422ZM199.266 109.358C199.357 109.925 199.402 110.559 199.402 111.262L199.368 112.316C199.368 112.588 199.232 112.724 198.96 112.724H188.318C188.205 112.724 188.148 112.781 188.148 112.894C188.216 113.642 188.318 114.152 188.454 114.424C188.998 116.056 190.324 116.883 192.432 116.906C193.973 116.906 195.197 116.271 196.104 115.002C196.195 114.866 196.308 114.798 196.444 114.798C196.535 114.798 196.614 114.832 196.682 114.9L198.79 116.634C198.994 116.793 199.028 116.974 198.892 117.178C198.189 118.175 197.249 118.946 196.07 119.49C194.914 120.034 193.622 120.306 192.194 120.306C190.426 120.306 188.919 119.909 187.672 119.116C186.448 118.323 185.553 117.212 184.986 115.784C184.465 114.56 184.204 112.86 184.204 110.684C184.204 109.369 184.34 108.304 184.612 107.488C185.065 105.901 185.915 104.655 187.162 103.748C188.431 102.819 189.95 102.354 191.718 102.354C196.183 102.354 198.699 104.689 199.266 109.358ZM191.718 105.754C190.879 105.754 190.177 105.969 189.61 106.4C189.066 106.808 188.681 107.386 188.454 108.134C188.318 108.519 188.227 109.018 188.182 109.63C188.137 109.743 188.182 109.8 188.318 109.8H195.22C195.333 109.8 195.39 109.743 195.39 109.63C195.345 109.063 195.277 108.633 195.186 108.338C194.982 107.522 194.574 106.887 193.962 106.434C193.373 105.981 192.625 105.754 191.718 105.754ZM214.231 102.354C215.659 102.354 216.917 102.603 218.005 103.102C219.093 103.601 219.931 104.292 220.521 105.176C221.11 106.037 221.405 107.023 221.405 108.134V119.592C221.405 119.705 221.359 119.807 221.269 119.898C221.201 119.966 221.11 120 220.997 120H217.869C217.755 120 217.653 119.966 217.563 119.898C217.495 119.807 217.461 119.705 217.461 119.592V118.504C217.461 118.436 217.438 118.402 217.393 118.402C217.347 118.379 217.302 118.391 217.257 118.436C216.146 119.66 214.537 120.272 212.429 120.272C210.729 120.272 209.323 119.841 208.213 118.98C207.125 118.119 206.581 116.838 206.581 115.138C206.581 113.37 207.193 111.999 208.417 111.024C209.663 110.027 211.409 109.528 213.653 109.528H217.291C217.404 109.528 217.461 109.471 217.461 109.358V108.542C217.461 107.658 217.2 106.978 216.679 106.502C216.157 106.003 215.375 105.754 214.333 105.754C213.471 105.754 212.769 105.913 212.225 106.23C211.703 106.525 211.375 106.944 211.239 107.488C211.171 107.76 211.012 107.873 210.763 107.828L207.465 107.42C207.351 107.397 207.249 107.363 207.159 107.318C207.091 107.25 207.068 107.171 207.091 107.08C207.272 105.697 208.009 104.564 209.301 103.68C210.615 102.796 212.259 102.354 214.231 102.354ZM213.415 117.144C214.525 117.144 215.477 116.849 216.271 116.26C217.064 115.671 217.461 114.923 217.461 114.016V112.418C217.461 112.305 217.404 112.248 217.291 112.248H214.435C213.233 112.248 212.281 112.475 211.579 112.928C210.899 113.381 210.559 114.027 210.559 114.866C210.559 115.591 210.819 116.158 211.341 116.566C211.885 116.951 212.576 117.144 213.415 117.144ZM239.073 105.414C239.073 105.527 239.027 105.629 238.937 105.72C238.869 105.788 238.778 105.822 238.665 105.822H235.197C235.083 105.822 235.027 105.879 235.027 105.992V114.186C235.027 115.047 235.208 115.671 235.571 116.056C235.956 116.441 236.557 116.634 237.373 116.634H238.393C238.506 116.634 238.597 116.679 238.665 116.77C238.755 116.838 238.801 116.929 238.801 117.042V119.592C238.801 119.841 238.665 119.989 238.393 120.034L236.625 120.068C234.834 120.068 233.497 119.762 232.613 119.15C231.729 118.538 231.275 117.382 231.253 115.682V105.992C231.253 105.879 231.196 105.822 231.083 105.822H229.145C229.031 105.822 228.929 105.788 228.839 105.72C228.771 105.629 228.737 105.527 228.737 105.414V103.034C228.737 102.921 228.771 102.83 228.839 102.762C228.929 102.671 229.031 102.626 229.145 102.626H231.083C231.196 102.626 231.253 102.569 231.253 102.456V98.478C231.253 98.3647 231.287 98.274 231.355 98.206C231.445 98.1153 231.547 98.07 231.661 98.07H234.619C234.732 98.07 234.823 98.1153 234.891 98.206C234.981 98.274 235.027 98.3647 235.027 98.478V102.456C235.027 102.569 235.083 102.626 235.197 102.626H238.665C238.778 102.626 238.869 102.671 238.937 102.762C239.027 102.83 239.073 102.921 239.073 103.034V105.414ZM249.579 100.246C248.877 100.246 248.299 100.019 247.845 99.566C247.392 99.1127 247.165 98.5347 247.165 97.832C247.165 97.1293 247.392 96.5513 247.845 96.098C248.299 95.6447 248.877 95.418 249.579 95.418C250.282 95.418 250.86 95.6447 251.313 96.098C251.767 96.5513 251.993 97.1293 251.993 97.832C251.993 98.5347 251.767 99.1127 251.313 99.566C250.86 100.019 250.282 100.246 249.579 100.246ZM247.947 120C247.834 120 247.732 119.966 247.641 119.898C247.573 119.807 247.539 119.705 247.539 119.592V103C247.539 102.887 247.573 102.796 247.641 102.728C247.732 102.637 247.834 102.592 247.947 102.592H251.075C251.189 102.592 251.279 102.637 251.347 102.728C251.438 102.796 251.483 102.887 251.483 103V119.592C251.483 119.705 251.438 119.807 251.347 119.898C251.279 119.966 251.189 120 251.075 120H247.947ZM265.453 120C265.227 120 265.079 119.887 265.011 119.66L259.537 103.068C259.515 103.023 259.503 102.966 259.503 102.898C259.503 102.694 259.628 102.592 259.877 102.592H263.345C263.595 102.592 263.753 102.705 263.821 102.932L267.119 114.288C267.142 114.356 267.176 114.39 267.221 114.39C267.267 114.39 267.301 114.356 267.323 114.288L270.621 102.932C270.689 102.705 270.848 102.592 271.097 102.592L274.565 102.66C274.701 102.66 274.803 102.705 274.871 102.796C274.939 102.864 274.951 102.977 274.905 103.136L269.465 119.66C269.397 119.887 269.25 120 269.023 120H265.453ZM296.379 109.358C296.469 109.925 296.515 110.559 296.515 111.262L296.481 112.316C296.481 112.588 296.345 112.724 296.073 112.724H285.431C285.317 112.724 285.261 112.781 285.261 112.894C285.329 113.642 285.431 114.152 285.567 114.424C286.111 116.056 287.437 116.883 289.545 116.906C291.086 116.906 292.31 116.271 293.217 115.002C293.307 114.866 293.421 114.798 293.557 114.798C293.647 114.798 293.727 114.832 293.795 114.9L295.903 116.634C296.107 116.793 296.141 116.974 296.005 117.178C295.302 118.175 294.361 118.946 293.183 119.49C292.027 120.034 290.735 120.306 289.307 120.306C287.539 120.306 286.031 119.909 284.785 119.116C283.561 118.323 282.665 117.212 282.099 115.784C281.577 114.56 281.317 112.86 281.317 110.684C281.317 109.369 281.453 108.304 281.725 107.488C282.178 105.901 283.028 104.655 284.275 103.748C285.544 102.819 287.063 102.354 288.831 102.354C293.296 102.354 295.812 104.689 296.379 109.358ZM288.831 105.754C287.992 105.754 287.289 105.969 286.723 106.4C286.179 106.808 285.793 107.386 285.567 108.134C285.431 108.519 285.34 109.018 285.295 109.63C285.249 109.743 285.295 109.8 285.431 109.8H292.333C292.446 109.8 292.503 109.743 292.503 109.63C292.457 109.063 292.389 108.633 292.299 108.338C292.095 107.522 291.687 106.887 291.075 106.434C290.485 105.981 289.737 105.754 288.831 105.754Z" fill="#4A5F70"/>
</g>
<g filter="url(#filter1_d)">
<mask id="path-2-inside-1" fill="white">
<path fill-rule="evenodd" clip-rule="evenodd" d="M174.869 40.0697C174.8 40.1871 174.73 40.3039 174.659 40.4202L168.738 50.5305C168.532 50.9149 168.312 51.2918 168.079 51.6607L167.977 51.8304L151.302 80.3048L151.034 79.8789L150.86 80.166L141.103 64.1263L126.653 41.2057C126.578 41.0919 126.504 40.9776 126.431 40.8626C124.094 44.8354 122.793 49.43 122.873 54.308C123.114 69.0337 135.844 80.766 151.306 80.5129C166.767 80.2598 179.106 68.1171 178.865 53.3915C178.786 48.5135 177.335 43.9639 174.869 40.0697ZM130.7 42.4739C130.504 41.4172 130.399 40.3303 130.393 39.2208C130.374 35.6195 131.405 32.2446 133.213 29.3582L150.269 0.957079L155.111 8.65793L167.719 29.1543C169.464 31.875 170.514 35.0444 170.631 38.4409C168.961 29.4519 160.71 22.6397 150.792 22.6655C139.678 22.6943 130.678 31.299 130.69 41.8846C130.69 42.0817 130.694 42.2782 130.7 42.4739ZM149.996 0.52373L149.996 0.52367L149.996 0.523731C149.996 0.523731 149.996 0.52373 149.996 0.52373Z"/>
</mask>
<path fill-rule="evenodd" clip-rule="evenodd" d="M174.869 40.0697C174.8 40.1871 174.73 40.3039 174.659 40.4202L168.738 50.5305C168.532 50.9149 168.312 51.2918 168.079 51.6607L167.977 51.8304L151.302 80.3048L151.034 79.8789L150.86 80.166L141.103 64.1263L126.653 41.2057C126.578 41.0919 126.504 40.9776 126.431 40.8626C124.094 44.8354 122.793 49.43 122.873 54.308C123.114 69.0337 135.844 80.766 151.306 80.5129C166.767 80.2598 179.106 68.1171 178.865 53.3915C178.786 48.5135 177.335 43.9639 174.869 40.0697ZM130.7 42.4739C130.504 41.4172 130.399 40.3303 130.393 39.2208C130.374 35.6195 131.405 32.2446 133.213 29.3582L150.269 0.957079L155.111 8.65793L167.719 29.1543C169.464 31.875 170.514 35.0444 170.631 38.4409C168.961 29.4519 160.71 22.6397 150.792 22.6655C139.678 22.6943 130.678 31.299 130.69 41.8846C130.69 42.0817 130.694 42.2782 130.7 42.4739ZM149.996 0.52373L149.996 0.52367L149.996 0.523731C149.996 0.523731 149.996 0.52373 149.996 0.52373Z" fill="white"/>
<path d="M174.869 40.0697L217.112 13.3193L173.356 -55.7768L131.803 14.6664L174.869 40.0697ZM174.659 40.4202L131.993 14.351L131.749 14.75L131.513 15.1535L174.659 40.4202ZM168.738 50.5305L125.592 25.2638L125.128 26.0556L124.694 26.864L168.738 50.5305ZM168.079 51.6607L125.775 25.0081L125.525 25.4056L125.282 25.8077L168.079 51.6607ZM167.977 51.8304L125.179 25.9774L125.003 26.2694L124.831 26.5637L167.977 51.8304ZM151.302 80.3048L109.006 106.97L152.878 176.559L194.448 105.571L151.302 80.3048ZM151.034 79.8789L193.33 53.2137L150.124 -15.3183L108.236 54.0264L151.034 79.8789ZM150.86 80.166L108.144 106.152L151.011 176.618L193.658 106.019L150.86 80.166ZM141.103 64.1263L183.819 38.1399L183.612 37.7988L183.399 37.4611L141.103 64.1263ZM126.653 41.2057L168.949 14.5405L168.699 14.1451L168.443 13.7545L126.653 41.2057ZM126.431 40.8626L168.642 14.0633L124.806 -54.9819L83.3357 15.5091L126.431 40.8626ZM130.7 42.4739L81.5424 51.6125L180.673 40.8299L130.7 42.4739ZM130.393 39.2208L80.3936 39.4777L80.3936 39.4777L130.393 39.2208ZM133.213 29.3582L175.588 55.8984L175.837 55.5012L176.078 55.0994L133.213 29.3582ZM150.269 0.957079L192.596 -25.6592L149.288 -94.53L107.404 -24.7842L150.269 0.957079ZM155.111 8.65793L197.699 -17.5384L197.57 -17.749L197.438 -17.9584L155.111 8.65793ZM167.719 29.1543L125.131 55.3506L125.379 55.7538L125.634 56.1521L167.719 29.1543ZM170.631 38.4409L121.472 47.5738L220.601 36.7109L170.631 38.4409ZM150.792 22.6655L150.662 -27.3343L150.662 -27.3343L150.792 22.6655ZM130.69 41.8846L80.6901 41.9438L80.6901 41.9439L130.69 41.8846ZM149.996 0.52373L150.815 50.517L238.64 49.0796L192.565 -25.7034L149.996 0.52373ZM149.996 0.52367L192.565 -25.7035L116.016 -149.95L100.287 -4.86523L149.996 0.52367ZM149.996 0.523731L100.287 -4.86517L94.183 51.444L150.815 50.517L149.996 0.523731ZM131.803 14.6664C131.866 14.5601 131.929 14.4549 131.993 14.351L217.325 66.4894C217.53 66.1529 217.734 65.8141 217.935 65.473L131.803 14.6664ZM131.513 15.1535L125.592 25.2638L211.884 75.7971L217.805 65.6869L131.513 15.1535ZM210.384 78.3132C211.226 76.9754 212.027 75.6027 212.782 74.1969L124.694 26.864C125.036 26.227 125.397 25.6082 125.775 25.0081L210.384 78.3132ZM210.774 77.6833L210.877 77.5136L125.282 25.8077L125.179 25.9774L210.774 77.6833ZM124.831 26.5637L108.156 55.0381L194.448 105.571L211.123 77.097L124.831 26.5637ZM193.598 53.6395L193.33 53.2137L108.738 106.544L109.006 106.97L193.598 53.6395ZM193.658 106.019L193.831 105.731L108.236 54.0264L108.063 54.3135L193.658 106.019ZM98.386 90.1127L108.144 106.152L193.577 54.1796L183.819 38.1399L98.386 90.1127ZM183.399 37.4611L168.949 14.5405L84.3564 67.871L98.8064 90.7916L183.399 37.4611ZM168.443 13.7545C168.51 13.8568 168.576 13.9597 168.642 14.0633L84.2196 67.6619C84.4313 67.9954 84.6455 68.3271 84.8622 68.657L168.443 13.7545ZM83.3357 15.5091C76.5272 27.0819 72.6432 40.6875 72.8796 55.1264L172.866 53.4897C172.943 58.1725 171.66 62.589 169.526 66.2161L83.3357 15.5091ZM72.8796 55.1264C73.6097 99.733 111.378 131.173 152.124 130.506L150.487 30.5196C160.309 30.3588 172.618 38.3343 172.866 53.4897L72.8796 55.1264ZM152.124 130.506C192.87 129.839 229.589 97.1799 228.859 52.5732L128.872 54.2098C128.624 39.0544 140.665 30.6803 150.487 30.5196L152.124 130.506ZM228.859 52.5732C228.622 38.1343 224.295 24.6631 217.112 13.3193L132.627 66.8201C130.375 63.2647 128.949 58.8926 128.872 54.2098L228.859 52.5732ZM179.858 33.3352C180.203 35.1916 180.383 37.0769 180.392 38.9639L80.3936 39.4777C80.4147 43.5838 80.8044 47.6428 81.5424 51.6125L179.858 33.3352ZM180.392 38.9639C180.425 45.2441 178.589 51.1074 175.588 55.8984L90.8386 2.81789C84.2222 13.3818 80.3243 25.9949 80.3936 39.4777L180.392 38.9639ZM176.078 55.0994L193.134 26.6983L107.404 -24.7842L90.3485 3.6169L176.078 55.0994ZM197.438 -17.9584L192.596 -25.6592L107.942 27.5734L112.784 35.2742L197.438 -17.9584ZM112.523 34.8543L125.131 55.3506L210.307 2.95794L197.699 -17.5384L112.523 34.8543ZM125.634 56.1521C122.734 51.6317 120.867 46.1251 120.661 40.1709L220.601 36.7109C220.16 23.9636 216.194 12.1183 209.803 2.15643L125.634 56.1521ZM219.79 29.3079C213.475 -4.68461 183.408 -27.4193 150.662 -27.3343L150.922 72.6653C138.013 72.6988 124.448 63.5884 121.472 47.5738L219.79 29.3079ZM150.662 -27.3343C114.282 -27.2399 80.6423 1.50651 80.6901 41.9438L180.69 41.8254C180.713 61.0915 165.073 72.6286 150.922 72.6653L150.662 -27.3343ZM80.6901 41.9439C80.691 42.6692 80.7034 43.3939 80.7272 44.1178L180.673 40.8299C180.684 41.1624 180.69 41.4942 180.69 41.8253L80.6901 41.9439ZM192.565 -25.7034L192.565 -25.7035L107.427 26.7508L107.427 26.7509L192.565 -25.7034ZM100.287 -4.86523L100.287 -4.86517L199.705 5.91263L199.705 5.91257L100.287 -4.86523ZM150.815 50.517L150.815 50.517L149.178 -49.4696C149.178 -49.4696 149.178 -49.4696 149.178 -49.4696L150.815 50.517Z" fill="#4A5F70" mask="url(#path-2-inside-1)"/>
</g>
<defs>
<filter id="filter0_d" x="0.428009" y="95.418" width="300.087" height="39.008" filterUnits="userSpaceOnUse" color-interpolation-filters="sRGB">
<feFlood flood-opacity="0" result="BackgroundImageFix"/>
<feColorMatrix in="SourceAlpha" type="matrix" values="0 0 0 0 0 0 0 0 0 0 0 0 0 0 0 0 0 0 127 0"/>
<feOffset dy="4"/>
<feGaussianBlur stdDeviation="2"/>
<feColorMatrix type="matrix" values="0 0 0 0 0 0 0 0 0 0 0 0 0 0 0 0 0 0 0.25 0"/>
<feBlend mode="normal" in2="BackgroundImageFix" result="effect1_dropShadow"/>
<feBlend mode="normal" in="SourceGraphic" in2="effect1_dropShadow" result="shape"/>
</filter>
<filter id="filter1_d" x="118" y="0.0654297" width="65.3018" height="88.9057" filterUnits="userSpaceOnUse" color-interpolation-filters="sRGB">
<feFlood flood-opacity="0" result="BackgroundImageFix"/>
<feColorMatrix in="SourceAlpha" type="matrix" values="0 0 0 0 0 0 0 0 0 0 0 0 0 0 0 0 0 0 127 0"/>
<feOffset dy="4"/>
<feGaussianBlur stdDeviation="2"/>
<feColorMatrix type="matrix" values="0 0 0 0 0 0 0 0 0 0 0 0 0 0 0 0 0 0 0.25 0"/>
<feBlend mode="normal" in2="BackgroundImageFix" result="effect1_dropShadow"/>
<feBlend mode="normal" in="SourceGraphic" in2="effect1_dropShadow" result="shape"/>
</filter>
</defs>
</svg>
