<?xml version="1.0" encoding="UTF-8"?>
<svg width="925" height="506.9" fill="none" version="1.1" viewBox="0 0 925 506.9" xmlns="http://www.w3.org/2000/svg" xmlns:cc="http://creativecommons.org/ns#" xmlns:dc="http://purl.org/dc/elements/1.1/" xmlns:rdf="http://www.w3.org/1999/02/22-rdf-syntax-ns#">
 <metadata>
  <rdf:RDF>
   <cc:Work rdf:about="">
    <dc:format>image/svg+xml</dc:format>
    <dc:type rdf:resource="http://purl.org/dc/dcmitype/StillImage"/>
    <dc:title/>
   </cc:Work>
  </rdf:RDF>
 </metadata>
 <g transform="translate(-65 -83)" clip-path="url(#clip0)">
  <path d="m97.213 440.97c-13.614 0.776-34.802-15.637-31.953-34.676 1.6357-10.907 14.906-23.282 22.827-27.596 19.364-10.547 41.132-7.56 61.504-12.907 14.3-3.753 36.264-14.879 42.636-31.234 2.312-6.21 3.028-13.08 2.06-19.764-0.967-6.683-3.577-12.887-7.508-17.849-3.909-4.77-8.927-8.101-12.974-12.708-18.771-21.361-7.236-61.81 20.705-59.39 4.792 0.502 9.366 2.588 13.192 6.015 3.827 3.428 6.751 8.059 8.434 13.358 2.67 8.816 1.627 18.635 3.717 27.665 5.02 21.684 29.867 31.413 46.698 24.74 20.508-8.129 30.603-31.601 32.616-55.51 2.191-26.028-18.423-38.579-30.042-57.792-12.307-20.353-13.014-50.028-0.35-70.076 12.663-20.047 38.348-27.592 56.839-15.303 24.381 16.204 28.221 54.436 35.774 86.14 8.134 34.143 25.148 67.41 52.279 82.906s65.018 7.071 79.242-24.197c8.294-18.232 7.527-40.154 5.558-60.699-1.969-20.546-4.896-41.664-0.29-61.618 4.605-19.954 19.378-38.504 36.944-37.435 31.503 1.9161 39.347 56.492 67.581 73.032 16.877 9.887 37.368 3.781 54.352-5.849s32.931-22.731 51.393-27.238 41.083 2.96 47.979 23.591c8.597 25.721-10.999 51.522-17.182 78.185-9.619 41.49 17.434 86.355 52.371 99.107 34.938 12.752 73.721-1.031 103.66-25.751 11.718-9.678 22.56-21.046 35.422-28.449 12.863-7.404 28.668-10.332 41.319-2.443 17.502 10.916 22.527 40.141 13.78 61.039s-27.879 33.635-47.337 38.019c-19.458 4.385-39.508 1.64-59.181-1.118l-274.77-38.51c-33.654-4.717-67.651-9.439-101.35-5.22-33.702 4.219-67.574 18.224-91.661 46.253-17.797 20.712-33.086 50.474-58.085 52.228-25.604 1.797-44.321-27.258-67.786-39.436-30.654-15.91-66.339-1.468-95.936 17.001-29.598 18.469-59 41.578-92.469 43.488z" fill="#DADBDC" opacity=".4"/>
  <path d="m262.75 229.11h502.11c4.04 0 7.914 1.605 10.771 4.461 2.857 2.857 4.461 6.731 4.461 10.771v328.16h-532.58v-328.16c0-2 0.394-3.981 1.159-5.829 0.766-1.848 1.888-3.527 3.302-4.942 1.415-1.414 3.094-2.536 4.942-3.301 1.848-0.766 3.829-1.16 5.829-1.16z" fill="#F4BDD2"/>
  <path d="m773.09 244.34v321.16h-518.58v-321.16c0-2.183 0.867-4.277 2.411-5.821 1.543-1.543 3.637-2.411 5.82-2.411h502.12c2.183 1e-3 4.277 0.868 5.82 2.412 1.544 1.543 2.411 3.637 2.411 5.82z" fill="#fff"/>
  <path d="m764.86 229.11h-502.11c-4.04 0-7.914 1.605-10.771 4.461-2.856 2.857-4.461 6.731-4.461 10.771v29.174h532.58v-29.174c0-2-0.394-3.981-1.16-5.829-0.765-1.848-1.887-3.527-3.302-4.942-1.414-1.414-3.094-2.536-4.942-3.302-1.848-0.765-3.829-1.159-5.829-1.159z" fill="#F03C69"/>
  <g fill="#4A6493">
   <path d="m283.34 251.31c0 1.084-0.322 2.143-0.924 3.044-0.601 0.9-1.457 1.602-2.458 2.017s-2.102 0.523-3.165 0.312c-1.063-0.212-2.039-0.733-2.805-1.499-0.766-0.767-1.288-1.743-1.499-2.805-0.211-1.063-0.103-2.164 0.312-3.165 0.414-1.001 1.117-1.857 2.017-2.459 0.901-0.602 1.96-0.923 3.044-0.923 0.719 0 1.432 0.142 2.096 0.417 0.665 0.275 1.269 0.679 1.777 1.188 0.509 0.508 0.912 1.112 1.188 1.777 0.275 0.664 0.417 1.377 0.417 2.096z"/>
   <path d="m308.91 251.31c0 1.084-0.322 2.143-0.924 3.044-0.601 0.9-1.457 1.602-2.458 2.017s-2.102 0.523-3.165 0.312c-1.063-0.212-2.039-0.733-2.805-1.5-0.766-0.766-1.288-1.742-1.499-2.804-0.211-1.063-0.103-2.164 0.312-3.165s1.117-1.857 2.018-2.459c0.9-0.602 1.959-0.923 3.043-0.923 0.719 0 1.432 0.142 2.096 0.417 0.665 0.276 1.269 0.679 1.777 1.188 0.509 0.508 0.912 1.112 1.188 1.777 0.275 0.665 0.417 1.377 0.417 2.096z"/>
   <path d="m334.47 251.31c0 1.084-0.322 2.143-0.923 3.044-0.602 0.9-1.458 1.603-2.459 2.017-1.001 0.415-2.102 0.523-3.165 0.312s-2.039-0.733-2.805-1.499-1.288-1.742-1.499-2.805-0.103-2.164 0.312-3.165c0.414-1.001 1.116-1.857 2.017-2.459s1.96-0.923 3.044-0.923c0.719 0 1.431 0.142 2.096 0.417s1.269 0.679 1.777 1.188c0.509 0.508 0.913 1.112 1.188 1.777 0.275 0.664 0.417 1.377 0.417 2.096z"/>
   <path d="m751.8 261.87h-71.111c-2.935 0-5.75-1.166-7.825-3.241-2.075-2.076-3.241-4.89-3.241-7.825s1.166-5.75 3.241-7.825 4.89-3.241 7.825-3.241h71.111c2.935 0 5.749 1.166 7.825 3.241 2.075 2.075 3.241 4.89 3.241 7.825s-1.166 5.749-3.241 7.825c-2.076 2.075-4.89 3.241-7.825 3.241zm-71.111-20.536c-2.512 0-4.921 0.998-6.697 2.774s-2.773 4.184-2.773 6.696c0 2.511 0.997 4.92 2.773 6.696s4.185 2.774 6.697 2.774h71.111c2.512 0 4.92-0.998 6.696-2.774s2.774-4.185 2.774-6.696c0-2.512-0.998-4.92-2.774-6.696s-4.184-2.774-6.696-2.774z"/>
  </g>
  <path d="m718.77 316.44c-0.965-1.17-2.04-2.245-3.21-3.21-4.237-3.504-9.566-5.416-15.064-5.408h-373.39c-6.273 0.013-12.284 2.514-16.715 6.954s-6.92 10.456-6.92 16.729 2.489 12.289 6.92 16.729 10.442 6.941 16.715 6.954h373.39c4.491 0 8.889-1.277 12.682-3.682 3.792-2.404 6.823-5.838 8.739-9.899 1.915-4.062 2.637-8.584 2.08-13.04s-2.369-8.662-5.226-12.127zm-412.15 15.065c6e-3 -5.433 2.167-10.641 6.008-14.483 3.842-3.841 9.05-6.002 14.483-6.008h331.47v40.982h-331.47c-5.433-6e-3 -10.641-2.167-14.483-6.009-3.841-3.841-6.002-9.05-6.008-14.482z" fill="#F03C69"/>
  <path d="m685.14 340.2c-2.545 0-5.034-0.755-7.151-2.169-2.116-1.414-3.766-3.424-4.741-5.776-0.974-2.352-1.229-4.94-0.733-7.437 0.497-2.496 1.723-4.79 3.523-6.59s4.093-3.026 6.59-3.523 5.085-0.242 7.437 0.732c2.351 0.974 4.362 2.624 5.776 4.741 1.414 2.116 2.169 4.605 2.169 7.151-4e-3 3.412-1.361 6.683-3.774 9.096-2.412 2.413-5.684 3.77-9.096 3.775zm0-23.348c-2.072-1e-3 -4.098 0.614-5.821 1.765s-3.066 2.787-3.859 4.702c-0.793 1.914-1.001 4.021-0.596 6.053 0.404 2.033 1.402 3.9 2.867 5.365s3.332 2.463 5.364 2.867c2.033 0.405 4.139 0.197 6.054-0.596 1.914-0.793 3.551-2.136 4.702-3.859s1.766-3.748 1.766-5.82c-4e-3 -2.778-1.108-5.441-3.072-7.405s-4.627-3.069-7.405-3.072z" fill="#fff"/>
  <path d="m702.54 348.55c-0.302 0-0.601-0.059-0.879-0.174-0.279-0.116-0.532-0.285-0.745-0.499l-10.08-10.08 3.249-3.249 10.079 10.08c0.322 0.321 0.54 0.73 0.629 1.176s0.043 0.908-0.131 1.327c-0.174 0.42-0.468 0.779-0.846 1.031-0.378 0.253-0.822 0.388-1.276 0.388z" fill="#fff"/>
  <path d="m325.34 317.23h-2.394v28.558h2.394z" fill="#FF008C" opacity=".55"/>
  <path d="m625.63 378.92h122.59c0.86 0 1.684 0.342 2.292 0.949 0.608 0.608 0.949 1.433 0.949 2.292v45.959c0 0.859-0.341 1.683-0.949 2.291s-1.432 0.949-2.292 0.949h-122.59c-0.86 0-1.684-0.341-2.292-0.949s-0.949-1.432-0.949-2.291v-45.959c0-0.426 0.084-0.847 0.246-1.24 0.163-0.393 0.402-0.751 0.703-1.052 0.301-0.3 0.658-0.539 1.051-0.702s0.815-0.247 1.24-0.247z" fill="#0A2236"/>
  <path d="m311.48 375h272.04c2.249 0 4.406 0.953 5.996 2.648 1.591 1.696 2.484 3.996 2.484 6.394v152.92c0 2.398-0.893 4.698-2.484 6.394-1.59 1.695-3.747 2.648-5.996 2.648h-272.04c-2.249 0-4.406-0.953-5.996-2.648-1.591-1.696-2.484-3.996-2.484-6.394v-152.92c0-2.398 0.893-4.698 2.484-6.394 1.59-1.695 3.747-2.648 5.996-2.648z" fill="#DADBDC"/>
  <g fill="#BCBEC0">
   <path d="m574.53 387.09h-257.12c-2.706 0-4.901 2.195-4.901 4.901v1e-3c0 2.707 2.195 4.901 4.901 4.901h257.12c2.707 0 4.901-2.194 4.901-4.901v-1e-3c0-2.706-2.194-4.901-4.901-4.901z" opacity=".75"/>
   <path d="m317.41 404.32h257.12c1.3 0 2.547 0.516 3.466 1.435s1.435 2.166 1.435 3.466c0 1.299-0.516 2.546-1.435 3.465s-2.166 1.436-3.466 1.436h-257.12c-1.299 0-2.546-0.517-3.465-1.436s-1.435-2.165-1.435-3.465 0.516-2.546 1.435-3.466c0.919-0.919 2.165-1.435 3.465-1.435z" opacity=".75"/>
   <path d="m574.53 431.36h-257.12c-0.643 0-1.281-0.126-1.875-0.373-0.595-0.246-1.135-0.607-1.59-1.062s-0.816-0.995-1.063-1.59c-0.246-0.595-0.373-1.232-0.373-1.875 0-1.3 0.517-2.547 1.436-3.466s2.165-1.435 3.465-1.435h257.12c1.3 0 2.547 0.516 3.466 1.435s1.435 2.166 1.435 3.466c0 0.643-0.127 1.28-0.373 1.875s-0.607 1.135-1.062 1.59-0.996 0.816-1.59 1.062c-0.595 0.247-1.232 0.373-1.876 0.373z" opacity=".75"/>
   <path d="m574.53 448.59h-257.12c-0.643 0-1.281-0.127-1.875-0.373-0.595-0.246-1.135-0.607-1.59-1.062s-0.816-0.996-1.063-1.59c-0.246-0.595-0.373-1.232-0.373-1.876 0-1.299 0.517-2.546 1.436-3.465s2.165-1.435 3.465-1.435h257.12c1.3 0 2.547 0.516 3.466 1.435s1.435 2.166 1.435 3.465c0 0.644-0.127 1.281-0.373 1.876-0.246 0.594-0.607 1.135-1.062 1.59s-0.996 0.816-1.59 1.062c-0.595 0.246-1.232 0.373-1.876 0.373z" opacity=".75"/>
   <path d="m574.53 465.83h-257.12c-1.3 0-2.546-0.516-3.465-1.435s-1.436-2.166-1.436-3.466 0.517-2.546 1.436-3.465 2.165-1.436 3.465-1.436h257.12c1.3 0 2.547 0.517 3.466 1.436s1.435 2.165 1.435 3.465-0.516 2.547-1.435 3.466-2.166 1.435-3.466 1.435z" opacity=".75"/>
   <path d="m574.53 483.06h-257.12c-1.3 0-2.546-0.516-3.465-1.436-0.919-0.919-1.436-2.165-1.436-3.465s0.517-2.546 1.436-3.465c0.919-0.92 2.165-1.436 3.465-1.436h257.12c1.3 0 2.547 0.516 3.466 1.436 0.919 0.919 1.435 2.165 1.435 3.465s-0.516 2.546-1.435 3.465c-0.919 0.92-2.166 1.436-3.466 1.436z" opacity=".75"/>
   <path d="m574.53 500.3h-257.12c-1.3 0-2.546-0.517-3.465-1.436s-1.436-2.165-1.436-3.465 0.517-2.547 1.436-3.466 2.165-1.435 3.465-1.435h257.12c1.3 0 2.547 0.516 3.466 1.435s1.435 2.166 1.435 3.466-0.516 2.546-1.435 3.465-2.166 1.436-3.466 1.436z" opacity=".75"/>
   <path d="m574.53 517.53h-257.12c-1.3 0-2.546-0.517-3.465-1.436s-1.436-2.166-1.436-3.465c0-1.3 0.517-2.547 1.436-3.466s2.165-1.435 3.465-1.435h257.12c1.3 0 2.547 0.516 3.466 1.435s1.435 2.166 1.435 3.466c0 1.299-0.516 2.546-1.435 3.465s-2.166 1.436-3.466 1.436z" opacity=".75"/>
   <path d="m574.53 534.77h-257.12c-1.3 0-2.546-0.516-3.465-1.435s-1.436-2.166-1.436-3.466c0-1.299 0.517-2.546 1.436-3.465s2.165-1.435 3.465-1.435h257.12c1.3 0 2.547 0.516 3.466 1.435s1.435 2.166 1.435 3.465c0 1.3-0.516 2.547-1.435 3.466s-2.166 1.435-3.466 1.435z" opacity=".75"/>
  </g>
  <path d="m747.02 447.53h-120.19c-2.453 0-4.441 1.988-4.441 4.441v89.597c0 2.452 1.988 4.441 4.441 4.441h120.19c2.453 0 4.441-1.989 4.441-4.441v-89.597c0-2.453-1.988-4.441-4.441-4.441z" fill="#DADBDC"/>
  <g fill="#BCBEC0">
   <path d="m747.06 446.27h-120.28c-1.167 0-2.286 0.464-3.112 1.289-0.825 0.825-1.288 1.944-1.288 3.111v11.584h129.08v-11.584c0-1.167-0.464-2.286-1.289-3.111s-1.944-1.289-3.111-1.289z" opacity=".75"/>
   <path d="m734 483.06h-94.156c-1.299 0-2.546-0.516-3.465-1.436-0.919-0.919-1.436-2.165-1.436-3.465s0.517-2.546 1.436-3.465c0.919-0.92 2.166-1.436 3.465-1.436h94.156c1.3 0 2.547 0.516 3.466 1.436 0.919 0.919 1.435 2.165 1.435 3.465s-0.516 2.546-1.435 3.465c-0.919 0.92-2.166 1.436-3.466 1.436z" opacity=".75"/>
   <path d="m734 500.3h-94.156c-1.299 0-2.546-0.517-3.465-1.436s-1.436-2.165-1.436-3.465 0.517-2.547 1.436-3.466 2.166-1.435 3.465-1.435h94.156c1.3 0 2.547 0.516 3.466 1.435s1.435 2.166 1.435 3.466-0.516 2.546-1.435 3.465-2.166 1.436-3.466 1.436z" opacity=".75"/>
   <path d="m734 517.53h-94.156c-1.299 0-2.546-0.517-3.465-1.436s-1.436-2.166-1.436-3.465c0-1.3 0.517-2.547 1.436-3.466s2.166-1.435 3.465-1.435h94.156c1.3 0 2.547 0.516 3.466 1.435s1.435 2.166 1.435 3.466c0 1.299-0.516 2.546-1.435 3.465s-2.166 1.436-3.466 1.436z" opacity=".75"/>
   <path d="m734 534.77h-94.156c-1.299 0-2.546-0.516-3.465-1.435s-1.436-2.166-1.436-3.466c0-1.299 0.517-2.546 1.436-3.465s2.166-1.435 3.465-1.435h94.156c1.3 0 2.547 0.516 3.466 1.435s1.435 2.166 1.435 3.465c0 1.3-0.516 2.547-1.435 3.466s-2.166 1.435-3.466 1.435z" opacity=".75"/>
  </g>
  <path d="m729.29 422.26-3.077-1.87c-0.16-0.808-0.386-1.6-0.677-2.37-0.287-0.53-1.736-2.332-2.077-2.093-0.342 0.239 0.459 1.413 0.259 1.693-0.345 0.485-1.197 0.423-2.051 0.039-0.38-0.171-2.4-1.495-2.694-1.269-0.293 0.227-0.08 1.834 0.719 2.786 0.712 0.964 1.672 1.717 2.778 2.18 0.761 0.183 1.535 0.311 2.314 0.382l2.99 3.193" fill="#F9C5C8"/>
  <path d="m783.96 401.66c-5.701-3.673-11.2-2.383-17.232 5.398-4.065 5.244-11.285 22.216-15.977 22.649-4.693 0.433-24.095-9.085-24.095-9.085l-1.352 1.795s15.517 21.598 31.776 21.625c7.866 0.014 24.924-16.475 28.759-22.465 4.83-7.543 3.101-16.708-1.879-19.917z" fill="#BF214E"/>
  <path d="m791.42 583.46s-10.443 3.163-10.433 5.545c5e-3 1.366 15.341 1.007 16.265 0.083 1.479-1.479-1.15-5.956-1.15-5.956z" fill="#0A2236"/>
  <path d="m791.42 576.8v6.86c0.167 0.371 0.438 0.685 0.781 0.903 0.343 0.219 0.742 0.333 1.149 0.329 0.497 6e-3 0.988-0.101 1.437-0.315s0.842-0.527 1.15-0.917l0.165-8.585" fill="#F9C5C8"/>
  <path d="m770.48 463.87c-1.375-1.756-2.83 30.607 3.913 60.436 5.991 26.502 16.529 54.765 16.529 54.765h5.299s3.323-29.23 1.97-42.941c-0.647-6.553-1.588-31.41 1.344-38.976 3.6-4.689 5.871-14.864 3.6-24.717-1.842-7.373-4.079-14.641-6.702-21.773" fill="#425564"/>
  <path d="m796.22 578.68h-5.299v0.799h5.299z" fill="#D66121"/>
  <path d="m789.95 575.72-0.011 0.799 6.487 0.085 0.01-0.799z" fill="#D66121"/>
  <path d="m750.39 583.46s-10.442 3.163-10.433 5.545c5e-3 1.366 15.341 1.007 16.266 0.083 1.478-1.479-1.15-5.956-1.15-5.956z" fill="#0A2236"/>
  <path d="m750.39 576.8v6.86c0.167 0.371 0.439 0.685 0.782 0.904 0.343 0.218 0.742 0.333 1.149 0.328 0.496 6e-3 0.988-0.101 1.437-0.315 0.448-0.214 0.842-0.527 1.15-0.917l0.165-8.585" fill="#F9C5C8"/>
  <path d="m750.03 461.62c-3.526 10.285-4.634 28.147-4.634 59.812 0 27.17 4.751 57.648 4.751 57.648h5.299s11.097-34.373 12.18-40.868c1.082-6.495 5.832-35.216 10.359-41.949 1.819-0.542 9.129-8.023 9.086-18.133-0.044-10.111-10.68-21.381-10.68-21.381" fill="#425564"/>
  <path d="m755.44 578.68h-5.298v0.799h5.298z" fill="#D66121"/>
  <path d="m756.25 575.72h-6.541v0.798h6.541z" fill="#D66121"/>
  <path d="m750.03 429.97c-1.229 8.702-4.33 33.362-2.435 35.324 1.894 1.963 10.165 2.804 25.516 3.084 15.351 0.281 27.529-0.841 29.153-5.887 1.624-5.047 3.519-51.354-19.69-62.229l-11.698-0.567c-15.974 3.46-19.617 21.573-20.846 30.275z" fill="#F03C69"/>
  <g fill="#F9C5C8">
   <path d="m772.38 374.68c-1.705 0.342-3.902 3.735-4.845 5.815-1.388 3.062-1.877 8.734-0.272 10.644 1.176 1.399 3.858 1.899 7.379 1.956 2.978 0.048 7.741-0.918 7.741-5.44 0-4.523-1.926-14.59-10.003-12.975z"/>
   <path d="m772.55 391.84-1.676 7.856s4.692 4.398 11.698 0.567l-2.079-11.953"/>
   <path d="m767.75 381.05s-2.675 2.666-2.677 3.46c-4e-3 1.502 2.155 1.175 2.155 1.175"/>
  </g>
  <path d="m785.38 383.28c-0.309 1.568-0.987 3.041-1.978 4.295-0.863 1.032-2.034 1.758-3.341 2.073-0.676 0.014-1.341-0.179-1.903-0.555-0.563-0.375-0.996-0.914-1.243-1.544-0.341-0.663-0.582-1.372-0.856-2.066-0.162-0.409-0.223-1.202-0.649-1.318-0.296-0.08-0.546 0.541-0.848 0.598-0.131 0.031-0.267 0.033-0.399 8e-3 -0.133-0.025-0.258-0.078-0.369-0.155-0.111-0.076-0.204-0.175-0.275-0.29-0.07-0.115-0.116-0.244-0.133-0.377 0.039-0.672 0.204-1.33 0.487-1.941 0.284-0.615 0.35-1.308 0.187-1.965-0.113-0.278-0.28-0.529-0.492-0.741-0.213-0.211-0.465-0.378-0.743-0.49-0.594-0.236-1.227-0.364-1.866-0.378-0.614-0.081-1.213-0.243-1.784-0.48-1.151-0.384-2.17-1.086-2.938-2.025-0.668-0.871-1.029-1.939-1.025-3.036 4e-3 -1.098 0.373-2.163 1.047-3.029 0.675-0.866 1.617-1.484 2.681-1.757 1.063-0.272 2.187-0.185 3.195 0.25 0.673 0.304 1.288 0.723 1.817 1.239 0.099 0.119 0.236 0.2 0.388 0.228 0.198 9e-3 0.35-0.161 0.487-0.304 0.568-0.55 1.323-0.862 2.113-0.873s1.554 0.279 2.137 0.812c0.821 0.81 1.109 2.02 1.813 2.934 0.807 0.904 1.697 1.73 2.66 2.466 1.136 0.97 1.899 2.305 2.159 3.775 0.281 1.552 0.168 3.149-0.329 4.646z" fill="#151348"/>
  <path d="m775.27 384.11c0.215-0.603 0.794-1.118 1.833-0.569 0.673 0.356 0.488 1.345 0.296 1.935-0.094 0.333-0.256 0.641-0.478 0.906-0.222 0.264-0.497 0.478-0.808 0.628-0.152 0.058-0.314 0.084-0.477 0.076-0.163-7e-3 -0.322-0.048-0.469-0.12-0.146-0.072-0.276-0.173-0.381-0.297-0.106-0.124-0.185-0.268-0.233-0.424" fill="#F9C5C8"/>
  <path d="m704.04 268.86s-64.348 112.8-64.709 113.59h28.434l64.709-113.59z" fill="url(#paint0_linear)"/>
  <path d="m747.42 268.86s-64.348 112.8-64.709 113.59h8.996l64.709-113.59z" fill="url(#paint1_linear)"/>
  <path d="m711.62 372.39-11.495 3.768 20.092 61.297 11.495-3.768z" fill="#425564"/>
  <path d="m675.9 282.85c-9.527 3.122-17.914 9-24.1 16.889-6.187 7.889-9.895 17.435-10.656 27.432s1.46 19.994 6.381 28.729 12.322 15.814 21.266 20.342c8.945 4.529 19.031 6.303 28.984 5.099s19.326-5.332 26.932-11.862c7.607-6.531 13.106-15.171 15.803-24.827 2.696-9.656 2.469-19.895-0.653-29.422-4.188-12.775-13.278-23.363-25.272-29.436-11.995-6.072-25.91-7.132-38.685-2.944zm29.329 89.481c-8.171 2.678-16.953 2.873-25.234 0.56-8.282-2.312-15.692-7.029-21.293-13.553s-9.142-14.562-10.174-23.099c-1.033-8.536 0.489-17.187 4.373-24.858 3.884-7.672 9.955-14.019 17.447-18.24 7.491-4.22 16.066-6.125 24.64-5.472 8.573 0.652 16.761 3.833 23.527 9.138 6.767 5.306 11.807 12.5 14.486 20.67 1.778 5.426 2.47 11.148 2.037 16.841-0.434 5.693-1.984 11.244-4.563 16.338s-6.135 9.629-10.467 13.348-9.354 6.549-14.779 8.327z" fill="#4A6493"/>
  <path d="m740.81 480.86c-1.121 0.367-2.303 0.51-3.479 0.421-1.176-0.09-2.323-0.41-3.375-0.943-1.052-0.532-1.989-1.267-2.757-2.162-0.769-0.895-1.353-1.932-1.721-3.053l-25.43-77.589 17.068-5.594 25.431 77.589c0.368 1.12 0.511 2.302 0.421 3.478s-0.41 2.323-0.943 3.375c-0.532 1.053-1.267 1.99-2.162 2.758s-1.932 1.353-3.053 1.72z" fill="#4A6493"/>
  <path d="m721.84 427.19-3.316-2.016c-0.172-0.87-0.416-1.724-0.729-2.554-0.31-0.571-1.872-2.513-2.239-2.255-0.368 0.257 0.495 1.522 0.28 1.824-0.372 0.523-1.291 0.455-2.211 0.042-0.41-0.184-2.586-1.612-2.903-1.367-0.317 0.244-0.087 1.976 0.774 3.001 0.767 1.04 1.802 1.852 2.994 2.35 0.82 0.198 1.654 0.336 2.494 0.412l3.222 3.441" fill="#F9C5C8"/>
  <path d="m780.77 404.99c-6.145-3.959-12.071-2.569-18.572 5.817-4.38 5.651-12.161 23.942-17.218 24.409-5.058 0.466-25.967-9.791-25.967-9.791l-1.457 1.934s16.722 23.276 34.245 23.306c8.477 0.014 26.86-17.755 30.994-24.21 5.205-8.13 3.341-18.007-2.025-21.465z" fill="#F03C69"/>
  <path d="m790.78 357.27c0-3.364 1.336-6.59 3.715-8.969 2.378-2.379 5.604-3.715 8.968-3.715h21.957c1.668-4e-3 3.322 0.32 4.864 0.955 1.543 0.636 2.946 1.569 4.127 2.748 1.182 1.178 2.119 2.578 2.759 4.119s0.969 3.193 0.969 4.862c0 1.668-0.329 3.321-0.969 4.862s-1.577 2.941-2.759 4.119c-1.181 1.178-2.584 2.112-4.127 2.747-1.542 0.635-3.196 0.96-4.864 0.955h-21.957c-1.2-2e-3 -2.394-0.174-3.546-0.512l-4.775 3.283 1.384-4.843c-1.765-1.151-3.215-2.725-4.218-4.577-1.004-1.853-1.529-3.927-1.528-6.034z" fill="#425564"/>
  <g fill="#fff">
   <path d="m825.63 358.25c0 0.407 0.121 0.804 0.347 1.143 0.226 0.338 0.547 0.602 0.923 0.758 0.376 0.155 0.79 0.196 1.189 0.117 0.399-0.08 0.766-0.276 1.053-0.563 0.288-0.288 0.484-0.655 0.563-1.054 0.08-0.399 0.039-0.813-0.117-1.188-0.155-0.376-0.419-0.698-0.757-0.924-0.339-0.226-0.736-0.347-1.143-0.347-0.27 0-0.538 0.054-0.788 0.157-0.249 0.103-0.476 0.255-0.667 0.446s-0.343 0.418-0.446 0.667c-0.104 0.25-0.157 0.518-0.157 0.788z"/>
   <path d="m818.85 360.31c1.137 0 2.058-0.921 2.058-2.057 0-1.137-0.921-2.058-2.058-2.058-1.136 0-2.057 0.921-2.057 2.058 0 1.136 0.921 2.057 2.057 2.057z"/>
   <path d="m810.02 360.31c1.136 0 2.057-0.921 2.057-2.057 0-1.137-0.921-2.058-2.057-2.058-1.137 0-2.058 0.921-2.058 2.058 0 1.136 0.921 2.057 2.058 2.057z"/>
   <path d="m801.19 360.31c1.136 0 2.057-0.921 2.057-2.057 0-1.137-0.921-2.058-2.057-2.058-1.137 0-2.058 0.921-2.058 2.058 0 1.136 0.921 2.057 2.058 2.057z"/>
  </g>
  <path d="m288.3 388.19-1.332-0.152-0.809 7.102 1.332 0.152z" fill="#4348A3"/>
  <path d="m288.76 377.55c-2.47-0.282-4.758 1.989-5.109 5.071s1.366 5.809 3.836 6.091c2.471 0.282 4.758-1.989 5.109-5.071 0.352-3.082-1.366-5.81-3.836-6.091zm-1.182 10.368c-2.119-0.242-3.592-2.581-3.29-5.224 0.302-2.644 2.263-4.591 4.382-4.35 2.118 0.242 3.591 2.58 3.29 5.224s-2.264 4.591-4.383 4.35z" fill="#352E73"/>
  <path d="m286.23 400.46c-0.263-0.03-0.502-0.163-0.667-0.37-0.164-0.206-0.239-0.469-0.209-0.732l1.024-8.99 1.978 0.226-1.025 8.99c-0.03 0.262-0.163 0.502-0.369 0.666-0.207 0.164-0.47 0.24-0.732 0.21z" fill="#352E73"/>
  <path d="m287.23 405.08-0.382-4.19c-0.548-0.86-1.05-1.748-1.504-2.661-0.724-2.01 0.228-4.466 0.673-4.713 0.142 0.473 0.053 1.486 0.831 1.26 0.779-0.226 1.311-2.478 1.311-2.478s0.476-0.043 0.883 0.805c0.153 0.336 0.268 0.688 0.34 1.05 0.498 0.384 0.912 0.866 1.216 1.417 0.469 1.03 0.598 2.182 0.37 3.291-0.136 0.38-0.906 1.301-0.906 1.608 0 0.308 1.642 6.536 1.642 6.536" fill="#F9C5C8"/>
  <path d="m253.31 392.95c-9.117-1.932-41.673 16.954-43.425 31.485-1.234 10.238 16.376 38.899 16.376 38.899s3.812 2.008 3.812 0-1.239-36.017-1.239-36.017 23.533-4.098 25.167-9.544 15.764-21.337-0.691-24.823z" fill="#BF214E"/>
  <path d="m279.45 376.68s-1.347 12.071-4.041 12.28-8.926-1.143-10.229-4.11c-0.988-2.626-1.772-5.324-2.343-8.07 0 0 6.286-6.917 8.306-8.264 2.021-1.348 8.976 3.797 8.307 8.164z" fill="#F9C5C8"/>
  <path d="m266.11 379.86-8.685 11.567s6.506 7.464 8.685 9.547c2.178 2.083 3.268-3.313 3.268-3.313l-0.728-3.699 4.295-10.168" fill="#F9C5C8"/>
  <path d="m283.85 371.44c-0.522-1.742-2.363-2.701-4.078-3.307-1.919-0.678-3.902-1.159-5.919-1.437-1.386-0.25-2.808-0.225-4.185 0.072-0.687 0.154-1.332 0.459-1.887 0.891-0.556 0.433-1.009 0.983-1.327 1.611-0.449-0.14-0.93-0.144-1.381-0.012-0.452 0.132-0.854 0.394-1.157 0.754-1.109 1.143-1.793 2.631-1.939 4.217-0.246 2.189 8e-3 4.405 0.743 6.481 0.566 1.604 1.667 4.471 3.695 4.604 0.228 0.027 0.458-0.032 0.645-0.167 0.191-0.195 0.31-0.45 0.336-0.722 0.247-1.238 0.323-2.504 0.228-3.763-0.083-1.09-0.541-2.326-0.327-3.411 0.043-0.3 0.171-0.58 0.368-0.809s0.456-0.397 0.745-0.485c0.403-0.038 0.811-6e-3 1.203 0.096 1.193 0.168 2.476-0.976 3.734-1.07 2.079-0.155 4.187 0.7 6.291 0.744 2.335 0.047 5.04-1.52 4.212-4.287z" fill="#151348"/>
  <path d="m268.33 379.13c-0.147-0.226-0.373-0.39-0.633-0.462s-0.538-0.046-0.78 0.073c-0.238 0.128-0.446 0.306-0.609 0.521-0.164 0.214-0.28 0.462-0.341 0.725-0.112 0.407-0.138 0.832-0.078 1.249 0.061 0.418 0.208 0.818 0.431 1.176 0.138 0.243 0.327 0.453 0.556 0.614 0.228 0.161 0.489 0.27 0.764 0.318 0.277 0.036 0.557-0.036 0.783-0.199 0.226-0.164 0.381-0.408 0.434-0.682" fill="#F9C5C8"/>
  <path d="m229.84 583.46s10.781 3.163 10.772 5.545c-6e-3 1.366-15.839 1.007-16.794 0.083-1.527-1.479 1.187-5.956 1.187-5.956z" fill="#0A2236"/>
  <path d="m229.84 576.8v6.86c-0.178 0.376-0.46 0.692-0.814 0.911s-0.763 0.33-1.179 0.321c-0.509 9e-3 -1.014-0.097-1.477-0.31-0.463-0.214-0.871-0.529-1.195-0.922l-0.17-8.585" fill="#F9C5C8"/>
  <path d="m220.92 464.22c-2.567 4.948-4.331 10.273-5.228 15.774-1.089 8.142 0.308 18.371 0.308 18.371s7.419 32.87 7.226 35.797c-1.106 16.734 1.488 47.071 1.488 47.071l5.599 0.632s15.114-30.311 17.954-58.01c0.464-4.519 4.769-55.57 4.224-57.959" fill="#425564"/>
  <path d="m277.44 583.46s10.781 3.163 10.772 5.545c-6e-3 1.366-15.84 1.007-16.794 0.083-1.527-1.479 1.187-5.956 1.187-5.956z" fill="#0A2236"/>
  <path d="m277.44 576.8v6.86c-0.178 0.376-0.46 0.692-0.814 0.911s-0.763 0.33-1.179 0.321c-0.51 9e-3 -1.014-0.097-1.477-0.31-0.463-0.214-0.871-0.529-1.195-0.922l-0.17-8.585" fill="#F9C5C8"/>
  <path d="m275.91 450.99s11.049 44.553 11.165 71.344c0.117 26.79-9.157 58.791-9.157 58.791h-5.352s-8.272-31.328-9.727-52.841c-3.92-7.83-17.977-32.455-17.977-32.455-7.012-4.329-11.618-15.012-9.351-26.205" fill="#425564"/>
  <path d="m249.18 504.26-2.915-5.149c-1.381-2.101-3.045-4.002-4.945-5.649-2.555-2.379-4.488-5.348-5.631-8.647-1.143-3.298-1.461-6.827-0.925-10.277l0.779 0.17c-0.507 3.315-0.197 6.704 0.905 9.871s2.962 6.017 5.417 8.301c1.96 1.701 3.674 3.665 5.093 5.838l2.917 5.149z" fill="#454589"/>
  <path d="m257.94 390.66c-9.105 3.678-17.053 9.739-23.009 17.548-11.425 14.705-21.115 60.848-17.319 64.291 3.796 3.444 11.462 7.901 26.712 8.446 15.25 0.544 36.424-3.137 38.724-8.102 2.301-4.965-7.188-52.714-8.122-58.842-1.21-7.158-3.193-14.163-5.914-20.893-1.222 0.449-2.532 0.609-3.827 0.468-2.567-0.539-5.019-1.527-7.245-2.916z" fill="#F03C69"/>
  <path d="m252.49 397.66c3.484-1.528 7.299-2.147 11.087-1.799 6.535 0.521 19.252 23.538 22.41 21.865 1.089-0.576 0.863-16.06 0.863-16.06l3.722-0.215s12.245 30.68-1.261 35.51c-6.701 2.397-31.375-20.943-31.375-20.943" fill="#F03C69"/>
 </g>
 <defs>
  <linearGradient id="paint0_linear" x1="685.91" x2="685.91" y1="382.45" y2="268.86" gradientUnits="userSpaceOnUse">
   <stop stop-color="#fff" stop-opacity=".2" offset="0"/>
   <stop stop-color="#fff" stop-opacity=".2085" offset=".273"/>
   <stop stop-color="#fff" stop-opacity=".238" offset=".4033"/>
   <stop stop-color="#fff" stop-opacity=".2889" offset=".5034"/>
   <stop stop-color="#fff" stop-opacity=".3612" offset=".5881"/>
   <stop stop-color="#fff" stop-opacity=".4552" offset=".663"/>
   <stop stop-color="#fff" stop-opacity=".5688" offset=".7299"/>
   <stop stop-color="#fff" stop-opacity=".7" offset=".7903"/>
  </linearGradient>
  <linearGradient id="paint1_linear" x1="53718" x2="53718" y1="43712" y2="30809" gradientUnits="userSpaceOnUse">
   <stop stop-color="#fff" stop-opacity=".2" offset="0"/>
   <stop stop-color="#fff" stop-opacity=".2085" offset=".273"/>
   <stop stop-color="#fff" stop-opacity=".238" offset=".4033"/>
   <stop stop-color="#fff" stop-opacity=".2889" offset=".5034"/>
   <stop stop-color="#fff" stop-opacity=".3612" offset=".5881"/>
   <stop stop-color="#fff" stop-opacity=".4552" offset=".663"/>
   <stop stop-color="#fff" stop-opacity=".5688" offset=".7299"/>
   <stop stop-color="#fff" stop-opacity=".7" offset=".7903"/>
  </linearGradient>
  <clipPath id="clip0">
   <rect width="990" height="612" fill="#fff"/>
  </clipPath>
 </defs>
</svg>
