<svg width="20" height="10" viewBox="0 0 15 8" fill="none"
  xmlns="http://www.w3.org/2000/svg">
  <path d="M13.8363 0.197059L7.98003 5.96081C7.85225 6.08722 7.67977 6.15812 7.50003 6.15812C7.32029 6.15812 7.1478 6.08722 7.02003 5.96081L1.16378 0.19831C1.03521 0.0719651 0.862159 0.00116968 0.681901 0.00116968C0.501643 0.00116968 0.328595 0.0719651 0.200026 0.19831C0.136715 0.260031 0.0864 0.333801 0.0520453 0.415272C0.0176907 0.496743 -8.58307e-06 0.584267 -8.58307e-06 0.672685C-8.58307e-06 0.761103 0.0176907 0.848626 0.0520453 0.930097C0.0864 1.01157 0.136715 1.08534 0.200026 1.14706L6.05503 6.90956C6.44068 7.28822 6.95955 7.50037 7.50003 7.50037C8.0405 7.50037 8.55937 7.28822 8.94503 6.90956L14.8 1.14706C14.8635 1.08532 14.914 1.01147 14.9485 0.929885C14.9829 0.848298 15.0007 0.760628 15.0007 0.672059C15.0007 0.58349 14.9829 0.495821 14.9485 0.414235C14.914 0.332648 14.8635 0.2588 14.8 0.197059C14.6715 0.0707145 14.4984 -8.08239e-05 14.3182 -8.08239e-05C14.1379 -8.08239e-05 13.9648 0.0707145 13.8363 0.197059Z" fill="#F5EFE6"/>
</svg>
