<svg width="50" height="50" viewBox="0 0 50 50" fill="none"
  xmlns="http://www.w3.org/2000/svg">
  <path d="M25.8797 35.1399C23.5742 33.2938 19.8359 33.2938 17.5305 35.1399C15.2273 36.9868 15.2273 39.9797 17.5305 41.8266C19.8351 43.6735 23.5734 43.6735 25.8797 41.8266C28.1836 39.9797 28.1836 36.9868 25.8797 35.1399ZM17.0203 32.4766C18.807 30.2571 18.2023 27.4532 15.6711 26.2157C13.139 24.979 9.63983 25.7751 7.85311 27.9946C6.06874 30.2141 6.67186 33.018 9.20233 34.2555C11.7351 35.4938 15.2351 34.6969 17.0203 32.4766ZM14.5961 21.8891C16.3062 19.9782 15.893 17.4258 13.6719 16.1883C11.4515 14.9501 8.26639 15.4954 6.55545 17.4063C4.84452 19.3172 5.25858 21.8688 7.47889 23.1063C9.69921 24.3446 12.8859 23.7993 14.5961 21.8891ZM16.1719 15.0844C18.2953 16.3204 21.382 15.8501 23.0648 14.0368C24.7484 12.2227 24.393 9.75161 22.2703 8.51646C20.1476 7.28052 17.0609 7.75005 15.3781 9.56333C13.6937 11.3774 14.0492 13.8485 16.1719 15.0844ZM34.0984 11.9305C35.989 10.9641 36.1992 9.06568 34.5672 7.68833C32.9367 6.31099 30.0781 5.9774 28.1867 6.94302C26.2945 7.90865 26.0851 9.80786 27.7172 11.1852C29.3492 12.5626 32.2078 12.8961 34.0984 11.9305Z" fill="#123735"/>
  <path d="M40.9961 25.9367C39.3055 25.4398 37.8469 25.0102 37.4461 24.0156C37.2141 23.4391 37.3047 22.5922 37.6985 21.4992C41.8906 17.5773 48.1625 11.2578 47.986 8.68984C47.9156 7.66328 46.2797 6.19297 45.2071 6.19297L45.1227 6.19609C43.9617 6.27578 42.1875 7.81172 40.2922 9.89141C40.1332 9.41438 39.9289 8.95368 39.6821 8.51562C37.6938 5.08984 33.3227 3.125 27.6906 3.125C23.3117 3.125 18.436 4.33203 13.593 6.61563C7.37659 9.54688 2.73362 15.6594 1.76487 22.1891C1.04456 27.0375 1.9055 34.3703 10.0914 41.7789C13.7211 45.0656 19.4367 46.875 26.1828 46.875H26.1852C31.6008 46.875 37.0875 45.6695 41.2406 43.5703C45.8821 41.2227 48.4375 37.9758 48.4375 34.4266C48.4375 28.125 44.136 26.8602 40.9961 25.9367ZM45.2071 7.36484C45.7 7.36484 46.7906 8.38828 46.8164 8.76953C46.9656 10.9438 39.2203 18.65 34.043 23.2453L33.1602 22.4773L32.5828 21.9734C36.436 16.225 43.025 7.51328 45.2071 7.36484ZM30.6766 24.2656L31.8656 22.9023L33.218 24.082L32.0313 25.4445L30.6766 24.2656ZM40.536 42.175C36.5938 44.1688 31.3641 45.3125 26.1852 45.3125H26.1836C19.8242 45.3125 14.4821 43.6461 11.1399 40.6203C3.46487 33.6758 2.64534 26.8891 3.30862 22.418C4.20393 16.3914 8.50237 10.7438 14.261 8.02891C18.8961 5.84297 23.5407 4.6875 27.6906 4.6875C32.6774 4.6875 36.6539 6.41172 38.3297 9.3C38.6906 9.92109 38.9328 10.5852 39.0735 11.2805C35.575 15.4078 32.0219 20.6969 31.343 21.7172L29.1735 24.2047C28.0344 24.193 26.8938 24.6906 26.5422 25.893C25.2469 30.3109 22.3617 33.0508 22.3617 33.0508C22.3617 33.0508 29.675 31.6055 31.0742 29.9633C31.8321 29.0742 32.1992 28.0117 32.1906 27.043L34.4625 24.4383C34.7656 24.1719 35.2164 23.7711 35.7719 23.2695C35.7688 23.757 35.836 24.2023 35.9953 24.5992C36.6789 26.2961 38.561 26.8492 40.5539 27.4352C43.661 28.3492 46.8742 29.2938 46.8742 34.4266C46.875 37.3563 44.6227 40.1078 40.536 42.175Z" fill="#123735"/>
  <path d="M42.282 31.0992C39.9773 29.2531 36.2382 29.2531 33.9335 31.0992C31.6289 32.9453 31.6296 35.939 33.9335 37.7859C36.2375 39.6328 39.9765 39.632 42.282 37.7859C44.5874 35.9398 44.5867 32.9453 42.282 31.0992ZM41.1468 36.8757C39.4695 38.2203 36.746 38.2203 35.0695 36.8757C33.3921 35.5312 33.3921 33.3523 35.0695 32.0085C36.746 30.664 39.4695 30.664 41.1468 32.0085C42.8242 33.3531 42.8242 35.5312 41.1468 36.8757Z" fill="#123735"/>
</svg>
