<svg width="782" height="280" viewBox="0 0 782 280" fill="none" xmlns="http://www.w3.org/2000/svg">
<path d="M780.468 43.2416L780.721 42.5664H780H744.784H744.431L744.313 42.8986L686.297 205.688L675.334 231.654L675.332 231.66C673.219 236.845 671.308 240.757 669.601 243.413L669.597 243.42L669.593 243.426C667.882 246.277 666.098 248.331 664.25 249.624L664.237 249.633L664.225 249.643C662.38 251.119 660.263 251.948 657.859 252.133L657.837 252.135L657.816 252.139C655.54 252.518 652.875 252.709 649.815 252.709C648.354 252.709 646.009 252.248 642.744 251.287C639.66 250.324 637.291 249.823 635.671 249.823H635.333L635.207 250.137C634.816 251.114 634.235 252.762 633.465 255.072L633.457 255.094L633.452 255.117C632.875 257.619 632.297 260.217 631.72 262.91C630.95 265.992 630.18 269.265 629.41 272.729L629.312 273.17L629.74 273.312L633.181 274.459C634.93 275.235 636.867 275.912 638.99 276.492C641.312 277.265 643.636 277.846 645.961 278.235C648.288 278.816 650.345 279.111 652.125 279.111C657.716 279.111 662.643 278.822 666.901 278.242C671.4 277.849 675.514 276.478 679.237 274.127C682.952 271.78 686.552 268.37 690.04 263.914C693.535 259.641 697.208 253.643 701.063 245.934C705.114 238.41 709.45 228.966 714.071 217.607C718.885 206.246 724.371 192.385 730.53 176.025L730.531 176.023C736.688 159.475 743.904 140.329 752.179 118.584L752.179 118.583C760.454 96.644 769.884 71.5304 780.468 43.2416ZM680.239 190.761L680.698 191.876L681.163 190.763L692.998 162.475L692.999 162.472L697.04 152.658L697.116 152.475L697.045 152.29L655.479 42.8888L655.356 42.5664H655.011H620.084H619.338L619.621 43.2565L680.239 190.761Z" fill="#F5EFE6" stroke="#F5EFE6"/>
<path d="M532.639 43.167L532.112 43.1382V43.6663V70.5571V70.9701L532.517 71.0481C537.394 71.9858 541.8 74.0477 545.743 77.2393C549.695 80.4388 553.089 84.4903 555.923 89.4017C558.754 94.3096 560.835 99.8853 562.16 106.134L562.162 106.143L562.164 106.151C563.679 112.21 564.438 118.749 564.438 125.769C564.438 139.617 561.403 151.442 555.358 161.266L555.354 161.272C549.499 171.094 541.881 177 532.504 179.062L532.112 179.149V179.551V207.014V207.553L532.649 207.512C542.82 206.745 552.23 204.153 560.874 199.735C569.513 195.319 576.814 189.557 582.772 182.447L582.776 182.441C588.728 175.145 593.333 166.701 596.592 157.115C600.045 147.332 601.769 136.882 601.769 125.769C601.769 114.658 600.141 104.21 596.88 94.4291C593.622 84.6531 589.018 76.1135 583.066 68.8162C577.3 61.3218 570.093 55.365 561.451 50.9471C552.8 46.3342 543.194 43.7427 532.639 43.167ZM471.01 69.0907L471.009 69.0917C465.054 76.1998 460.448 84.5514 457.187 94.1402C453.926 103.733 452.298 114.086 452.298 125.197C452.298 136.115 453.83 146.464 456.898 156.242L456.898 156.242L456.9 156.251C460.16 166.029 464.765 174.571 470.719 181.869C476.673 189.168 483.875 195.121 492.322 199.729L492.33 199.733C500.788 204.154 510.297 206.745 520.847 207.512L521.383 207.551V207.014V179.551V179.122L520.959 179.057C516.092 178.308 511.693 176.344 507.756 173.158C503.997 169.962 500.794 165.914 498.151 161.005C495.505 156.091 493.422 150.508 491.905 144.253C490.579 137.999 489.915 131.361 489.915 124.339C489.915 110.485 492.761 98.6559 498.43 88.8295C504.095 79.0111 511.616 73.1078 520.99 71.0454L521.383 70.959V70.5571V43.9523V43.4029L520.836 43.4545C510.668 44.4138 501.355 47.1007 492.902 51.5193C484.453 55.9359 477.155 61.7938 471.01 69.0907Z" fill="#F5EFE6" stroke="#F5EFE6"/>
<path d="M410.288 1V0.5H409.788H377.621H377.121V1V188.205V188.231L377.123 188.257L378.969 205.923L379.016 206.371H379.466H409.788H410.288V205.871V1ZM281.447 94.6746L281.447 94.6746L281.444 94.6821C277.722 104.074 275.872 115.655 275.872 129.407C275.872 140.529 277.461 151.737 280.636 163.028L280.637 163.03C283.819 174.166 288.773 183.551 295.509 191.173L295.513 191.178C300.833 197.03 306.872 201.296 313.629 203.963L313.636 203.966L313.644 203.969C320.551 206.448 327.552 207.689 334.643 207.689C340.833 207.689 346.676 206.982 352.17 205.564L352.17 205.564L352.18 205.561C357.833 203.971 362.791 202.025 367.048 199.719L367.31 199.577V199.279V171.858V170.523L366.433 171.529C360.546 178.283 353.386 181.641 344.926 181.641C339.921 181.641 335.265 180.348 330.949 177.759C326.799 175.165 323.247 171.616 320.296 167.102C317.338 162.578 314.984 157.351 313.238 151.416C311.495 145.313 310.621 138.769 310.621 131.78C310.621 124.786 311.408 118.237 312.979 112.129C314.55 106.019 316.729 100.616 319.513 95.9179C322.465 91.2303 326.016 87.5981 330.162 85.0072L330.168 85.0033L330.174 84.9992C334.304 82.2456 339.04 80.8645 344.398 80.8645C348.896 80.8645 352.946 81.8152 356.559 83.7078C360.199 85.6145 363.495 88.129 366.447 91.2546L367.31 92.1689V90.9113V62.9623V62.677L367.065 62.5318C363.151 60.2192 358.711 58.4445 353.748 57.2038C348.784 55.9628 343.557 55.3432 338.07 55.3432C330.977 55.3432 323.714 56.6732 316.285 59.3262C309.003 61.8133 302.35 65.9855 296.326 71.8319C290.292 77.6889 285.335 85.3084 281.447 94.6746Z" fill="#F5EFE6" stroke="#F5EFE6"/>
<path d="M238.14 206.926C235.503 207.102 232.866 207.189 230.23 207.189C227.593 207.189 224.956 207.102 222.32 206.926C219.683 206.75 217.31 206.486 215.2 206.135C209.224 204.904 204.566 202.268 201.226 198.225C197.886 194.182 195.337 189.699 193.58 184.778L238.14 206.926ZM238.14 206.926V207.426C240.784 207.426 243.084 207.338 245.036 207.16C247.507 206.984 249.892 206.719 252.19 206.365L252.614 206.3V205.871V186.36V185.86H252.114C247.917 185.86 243.986 185.597 240.322 185.074C236.865 184.555 233.764 183.52 231.012 181.974C228.296 180.274 226.163 177.806 224.619 174.548C223.079 171.123 222.292 166.458 222.292 160.52V1V0.5H221.792H189.625H189.125V1V155.774V158.938C189.125 161.593 189.301 165.299 189.653 170.049L189.654 170.058L189.655 170.067C190.187 174.854 191.339 179.812 193.107 184.941L193.109 184.946C194.886 189.922 197.464 194.456 200.84 198.543C204.264 202.688 209.031 205.375 215.1 206.624L215.109 206.626L215.118 206.628C217.247 206.983 219.637 207.248 222.286 207.425C224.934 207.601 227.582 207.689 230.23 207.689C232.877 207.689 235.525 207.601 238.173 207.425L238.14 206.926Z" fill="#F5EFE6" stroke="#F5EFE6"/>
<path d="M82.856 36.7985L82.3099 36.748V37.2964V65.1592V65.6067L82.7547 65.6561C88.0175 66.2409 92.7854 67.8962 97.0657 70.62C101.363 73.3545 105.074 76.7722 108.2 80.8757L108.208 80.8863L108.217 80.8965C111.536 84.8018 113.974 89.0933 115.534 93.7729L115.537 93.7817L115.54 93.7904C117.239 98.3221 118.117 103.036 118.173 107.935H50.2045H49.7045V108.435V134.52V135.02H50.2045H151.874H152.315L152.37 134.582C152.966 129.819 153.263 125.055 153.263 120.292C153.263 109.766 151.575 99.6339 148.198 89.8987C145.018 80.1619 140.346 71.5121 134.18 63.9539C128.013 56.3941 120.553 50.2273 111.803 45.4546C103.24 40.6754 93.5883 37.7923 82.856 36.7985ZM110.736 169.35L110.726 169.356C107.194 171.318 103.564 172.986 99.8363 174.36C96.3073 175.536 92.8795 176.417 89.5527 177.005C86.4086 177.398 83.7672 177.592 81.6242 177.592C73.383 177.592 66.348 176.219 60.5031 173.494C54.8345 170.56 50.0504 166.751 46.1456 162.066C42.2394 157.182 39.3055 151.514 37.347 145.054C35.5822 138.384 34.6982 131.217 34.6982 123.552C34.6982 119.242 35.1881 114.036 36.1727 107.93C37.3508 101.846 39.2154 95.9583 41.7668 90.2659C44.5069 84.3953 48.2245 79.2105 52.9217 74.709C57.5854 70.2396 63.5206 67.3146 70.7499 65.9469L71.157 65.8699V65.4556V37V36.4685L70.6264 36.5009C60.8685 37.0984 51.7057 39.7875 43.1433 44.5665L43.1389 44.569C34.7851 49.3426 27.4279 55.6069 21.0679 63.3575C14.7051 70.914 9.63915 79.7578 5.86689 89.8833L5.86682 89.8833L5.86393 89.8914C2.28712 100.026 0.5 110.753 0.5 122.07C0.5 133.984 2.48574 145.111 6.46158 155.448C10.4331 165.774 15.7977 174.817 22.5576 182.571C29.3224 190.33 37.4795 196.497 47.0243 201.071L47.032 201.074C56.5853 205.453 66.8336 207.641 77.7709 207.641C91.2552 207.641 102.401 205.559 111.184 201.367C119.952 197.183 127.618 191.008 134.182 182.852L134.411 182.568L134.211 182.264L121.169 162.404L120.831 161.891L120.397 162.325C117.669 165.054 114.45 167.396 110.736 169.35L110.736 169.35Z" fill="#F5EFE6" stroke="#F5EFE6"/>
<line x1="526.126" y1="169.249" x2="526" y2="81.0143" stroke="#F5EFE6" stroke-width="20"/>
<line x1="526" y1="242.294" x2="526" y2="207" stroke="#F5EFE6" stroke-width="20"/>
<line x1="526" y1="44.2937" x2="526" y2="8.99992" stroke="#F5EFE6" stroke-width="20"/>
</svg>
