<svg width="680" height="252" viewBox="0 0 680 252" fill="none" xmlns="http://www.w3.org/2000/svg">
<path d="M310.845 153.238C297.4 153.238 287.372 149.686 280.758 142.584C274.253 135.482 271 124.609 271 109.968C271 100.243 272.41 92.1024 275.228 85.5463C278.156 78.9902 282.438 74.0186 288.076 70.6312C293.714 67.2439 300.653 65.5502 308.893 65.5502C316.374 65.5502 322.554 67.1893 327.433 70.4673C332.421 73.7454 336.161 78.5531 338.654 84.8907C341.148 91.2283 342.395 99.0409 342.395 108.329C342.395 108.984 342.07 109.858 341.419 110.951C340.877 111.935 340.172 112.864 339.305 113.738C338.438 114.611 337.679 115.049 337.028 115.049H285.637C286.287 124.118 288.618 130.783 292.63 135.045C296.642 139.306 302.659 141.437 310.682 141.437C315.452 141.437 319.464 140.891 322.717 139.798C326.078 138.596 328.734 137.449 330.686 136.356C332.637 135.154 333.884 134.553 334.426 134.553C335.185 134.553 335.998 135.099 336.865 136.192C337.733 137.285 338.492 138.487 339.142 139.798C339.793 141.109 340.118 142.093 340.118 142.748C340.118 143.732 339.359 144.825 337.841 146.026C336.324 147.228 334.21 148.375 331.499 149.468C328.897 150.561 325.807 151.489 322.229 152.255C318.76 152.91 314.964 153.238 310.845 153.238ZM285.637 103.248H327.921C327.921 94.6156 326.294 88.1688 323.042 83.9073C319.789 79.5365 314.91 77.3512 308.405 77.3512C301.358 77.3512 295.936 79.5365 292.142 83.9073C288.348 88.1688 286.179 94.6156 285.637 103.248ZM384.039 153.238C381.978 153.238 379.756 152.91 377.371 152.255C374.985 151.709 372.708 150.67 370.54 149.14C368.372 147.501 366.583 145.207 365.173 142.257C363.764 139.197 363.059 135.318 363.059 130.62V32.6059C363.059 30.2019 365.227 29 369.564 29H370.215C374.552 29 376.72 30.2019 376.72 32.6059V129.308C376.72 134.225 377.587 137.503 379.322 139.142C381.057 140.672 383.117 141.437 385.502 141.437C387.888 141.437 389.459 141.327 390.219 141.109C390.978 140.781 391.736 140.618 392.495 140.618C393.255 140.618 393.85 141.164 394.284 142.257C394.826 143.35 395.206 144.551 395.423 145.862C395.748 147.064 395.911 147.884 395.911 148.321C395.911 149.742 395.206 150.834 393.796 151.599C392.495 152.255 390.923 152.692 389.08 152.91C387.237 153.128 385.556 153.238 384.039 153.238ZM432.612 153.238C426.107 153.238 420.469 151.381 415.699 147.665C411.036 143.841 407.405 138.651 404.802 132.095C402.308 125.429 401.062 117.889 401.062 109.476C401.062 95.162 404.152 84.2897 410.332 76.8595C416.512 69.32 424.426 65.5502 434.076 65.5502C439.171 65.5502 443.509 66.3152 447.086 67.8449C450.772 69.3746 454.187 71.3961 457.332 73.9093V32.6059C457.332 30.2019 459.5 29 463.837 29H464.488C468.824 29 470.993 30.2019 470.993 32.6059V127.997C470.993 132.477 471.156 136.192 471.481 139.142C471.806 142.093 472.132 144.333 472.457 145.862C472.782 147.392 472.945 148.321 472.945 148.649C472.945 149.414 472.565 150.07 471.806 150.616C471.156 151.053 470.343 151.435 469.367 151.763C468.391 151.981 467.415 152.145 466.44 152.255C465.464 152.364 464.704 152.419 464.163 152.419C462.862 152.419 461.831 151.817 461.073 150.616C460.422 149.304 459.879 147.775 459.446 146.026C459.121 144.169 458.796 142.475 458.471 140.945C454.459 145.097 450.284 148.211 445.948 150.288C441.72 152.255 437.274 153.238 432.612 153.238ZM435.377 141.273C438.955 141.273 442.641 140.344 446.436 138.487C450.339 136.52 453.971 133.679 457.332 129.964V85.0546C454.405 82.5415 451.26 80.6839 447.9 79.4819C444.538 78.28 441.014 77.679 437.329 77.679C430.064 77.679 424.589 80.3561 420.903 85.7102C417.216 90.9551 415.373 98.44 415.373 108.165C415.373 118.764 417.108 126.959 420.578 132.75C424.047 138.433 428.98 141.273 435.377 141.273ZM498.71 151.927C498.277 151.927 497.734 151.763 497.083 151.435C496.541 150.998 496.054 150.506 495.62 149.96C495.187 149.414 494.969 148.922 494.969 148.485C494.969 147.939 495.349 147.174 496.107 146.19L562.461 68.1727C563.22 67.2986 563.979 66.8615 564.738 66.8615C565.172 66.8615 565.66 67.08 566.201 67.5171C566.744 67.8449 567.232 68.282 567.665 68.8283C568.099 69.3746 568.316 69.8663 568.316 70.3034C568.316 70.959 567.99 71.7239 567.34 72.598L500.986 150.616C500.228 151.489 499.469 151.927 498.71 151.927ZM531.236 153.238C518.985 153.238 509.606 149.523 503.101 142.093C496.704 134.663 493.505 123.9 493.505 109.804C493.505 95.599 496.758 84.6722 503.263 77.0234C509.768 69.3746 519.093 65.5502 531.236 65.5502C543.163 65.5502 552.27 69.3746 558.558 77.0234C564.955 84.5629 568.153 95.4898 568.153 109.804C568.153 124.009 565.009 134.827 558.72 142.257C552.54 149.578 543.379 153.238 531.236 153.238ZM530.748 141.437C538.772 141.437 544.626 138.869 548.312 133.734C552.107 128.489 554.004 120.403 554.004 109.476C554.004 98.5492 552.107 90.4634 548.312 85.2185C544.626 79.9737 538.772 77.3512 530.748 77.3512C522.834 77.3512 517.033 79.9737 513.346 85.2185C509.661 90.3541 507.817 98.44 507.817 109.476C507.817 120.403 509.661 128.489 513.346 133.734C517.033 138.869 522.834 141.437 530.748 141.437ZM598.333 186.346C594.755 186.346 592.966 185.473 592.966 183.724C592.966 183.506 592.966 183.232 592.966 182.904C593.074 182.686 593.345 182.031 593.779 180.938L609.555 142.42V153.074L578.98 71.1229C578.871 70.9044 578.763 70.5766 578.655 70.1395C578.546 69.7024 578.492 69.32 578.492 68.9922C578.492 67.1347 580.823 66.2059 585.485 66.2059H586.786C588.413 66.2059 589.821 66.4244 591.015 66.8615C592.207 67.1893 592.966 67.8449 593.292 68.8283L609.88 113.246C610.856 115.978 611.777 118.764 612.645 121.605C613.512 124.446 614.325 127.178 615.084 129.8H615.409C616.276 127.287 617.143 124.555 618.011 121.605C618.878 118.545 619.8 115.759 620.776 113.246L637.039 68.8283C637.365 67.8449 638.123 67.1893 639.316 66.8615C640.508 66.4244 641.972 66.2059 643.707 66.2059H644.195C648.531 66.2059 650.7 67.1347 650.7 68.9922C650.7 69.5385 650.538 70.3034 650.212 71.2868L608.416 182.904C607.982 184.106 607.06 184.981 605.652 185.527C604.35 186.073 602.724 186.346 600.773 186.346H598.333Z" fill="#272829"/>
<path d="M283 227.168L283.215 208.017L283 185.832C283 185.832 283.358 185.792 284.075 185.713C284.827 185.634 285.812 185.534 287.03 185.415C288.248 185.298 289.573 185.197 291.006 185.119C292.475 185.04 293.926 185 295.358 185C298.546 185 301.018 186.169 302.773 188.508C304.529 190.808 305.406 194.277 305.406 198.917C305.406 201.812 305.084 204.209 304.44 206.115C303.83 208.017 302.988 209.504 301.914 210.575C300.839 211.604 299.639 212.338 298.314 212.775C296.989 213.212 295.628 213.428 294.23 213.428C293.119 213.428 291.884 213.388 290.523 213.309C289.162 213.191 288.159 213.112 287.513 213.073V227.168H283ZM294.553 209.207C295.699 209.207 296.63 209.146 297.346 209.028C298.063 208.87 298.636 208.551 299.066 208.075C299.675 207.401 300.087 206.251 300.302 204.628C300.517 202.962 300.624 200.859 300.624 198.322C300.624 196.179 300.517 194.535 300.302 193.385C300.123 192.195 299.89 191.342 299.603 190.827C299.353 190.314 299.084 189.956 298.797 189.758C297.974 189.124 296.469 188.806 294.284 188.806C292.887 188.806 291.562 188.884 290.308 189.042C289.09 189.164 288.159 189.3 287.513 189.461V208.494C288.015 208.573 288.946 208.709 290.308 208.909C291.705 209.107 293.119 209.207 294.553 209.207ZM324.968 227.168L325.237 207.601L325.076 185.832C325.613 185.752 326.562 185.653 327.923 185.534C329.284 185.415 330.789 185.315 332.436 185.236C334.085 185.119 335.589 185.057 336.951 185.057C339.386 185.057 341.5 185.474 343.29 186.308C345.082 187.14 346.461 188.508 347.428 190.41C348.395 192.274 348.878 194.774 348.878 197.906C348.878 201.356 348.198 204.091 346.837 206.115C345.476 208.136 343.506 209.483 340.926 210.157V210.336L349.363 227.168H344.043L336.52 210.751L329.535 210.454V227.168H324.968ZM337.488 206.587C340.138 206.587 341.894 205.896 342.754 204.506C343.648 203.08 344.097 200.859 344.097 197.845C344.097 195.387 343.9 193.524 343.506 192.255C343.147 190.947 342.646 190.095 342.001 189.698C341.607 189.422 340.998 189.221 340.175 189.102C339.386 188.945 338.526 188.866 337.595 188.866C336.127 188.866 334.622 188.945 333.082 189.102C331.577 189.261 330.413 189.4 329.589 189.519L329.482 205.993C330.735 206.153 332.061 206.291 333.457 206.412C334.891 206.53 336.234 206.587 337.488 206.587ZM381.804 228C379.942 228 378.168 227.685 376.485 227.05C374.837 226.416 373.369 225.323 372.079 223.779C370.825 222.192 369.839 219.991 369.124 217.175C368.407 214.359 368.049 210.773 368.049 206.412C368.049 202.048 368.407 198.48 369.124 195.706C369.839 192.929 370.825 190.768 372.079 189.221C373.369 187.637 374.837 186.544 376.485 185.95C378.168 185.315 379.942 185 381.804 185C383.703 185 385.476 185.315 387.124 185.95C388.772 186.544 390.222 187.637 391.476 189.221C392.765 190.768 393.768 192.929 394.485 195.706C395.202 198.48 395.56 202.048 395.56 206.412C395.56 210.773 395.202 214.359 394.485 217.175C393.768 219.991 392.765 222.192 391.476 223.779C390.222 225.323 388.772 226.416 387.124 227.05C385.476 227.685 383.703 228 381.804 228ZM381.804 223.481C383.345 223.481 384.67 223.302 385.78 222.945C386.927 222.55 387.858 221.776 388.575 220.626C389.327 219.476 389.882 217.791 390.24 215.57C390.598 213.309 390.778 210.317 390.778 206.587C390.778 202.862 390.598 199.869 390.24 197.609C389.918 195.348 389.398 193.643 388.682 192.493C387.966 191.302 387.034 190.51 385.888 190.113C384.742 189.718 383.381 189.519 381.804 189.519C380.192 189.519 378.813 189.718 377.667 190.113C376.557 190.51 375.643 191.302 374.926 192.493C374.21 193.643 373.673 195.348 373.315 197.609C372.992 199.869 372.831 202.862 372.831 206.587C372.831 210.317 373.01 213.309 373.369 215.57C373.726 217.791 374.263 219.476 374.98 220.626C375.697 221.776 376.627 222.55 377.775 222.945C378.921 223.302 380.264 223.481 381.804 223.481ZM413.197 227.942C412.445 227.942 411.747 227.864 411.102 227.702C410.492 227.584 410.045 227.505 409.759 227.466L410.295 223.184C410.619 223.223 411.12 223.302 411.801 223.421C412.481 223.539 413.233 223.6 414.057 223.6C414.81 223.6 415.436 223.421 415.938 223.065C416.439 222.668 416.815 221.776 417.066 220.39C417.353 218.999 417.496 216.839 417.496 213.904V185.832H422.009V213.13C422.009 216.82 421.616 219.755 420.827 221.934C420.075 224.076 419.036 225.621 417.711 226.573C416.386 227.487 414.88 227.942 413.197 227.942ZM443.578 227.168V185.832H461.901V190.232L448.091 190.056L447.823 204.033H460.611V208.254H447.823L448.091 222.886L461.901 222.768V227.168H443.578ZM493.048 228C490.504 228 488.266 227.326 486.331 225.979C484.397 224.592 482.874 222.349 481.764 219.257C480.689 216.165 480.152 212.062 480.152 206.946C480.152 202.425 480.492 198.738 481.173 195.882C481.889 192.99 482.856 190.748 484.074 189.164C485.328 187.577 486.797 186.487 488.48 185.892C490.164 185.298 491.991 185 493.961 185C494.821 185 495.842 185.057 497.024 185.176C498.206 185.258 499.352 185.377 500.463 185.534C501.573 185.653 502.415 185.792 502.989 185.95L502.451 190.232C502.129 190.192 501.609 190.135 500.893 190.056C500.176 189.973 499.388 189.894 498.529 189.816C497.669 189.737 496.845 189.676 496.057 189.637C495.268 189.558 494.66 189.519 494.23 189.519C492.475 189.519 491.06 189.618 489.985 189.816C488.946 190.016 488.176 190.45 487.675 191.123C487.209 191.758 486.761 192.693 486.331 193.922C485.901 195.151 485.561 196.834 485.31 198.977C485.059 201.077 484.934 203.793 484.934 207.125C484.934 211.328 485.293 214.699 486.009 217.236C486.761 219.734 487.496 221.378 488.212 222.173C488.713 222.729 489.322 223.123 490.039 223.363C490.755 223.56 491.561 223.66 492.457 223.66C493.818 223.66 495.125 223.499 496.38 223.184C497.669 222.865 498.797 222.489 499.765 222.052C500.768 221.619 501.555 221.242 502.129 220.923C502.701 220.604 502.989 220.447 502.989 220.447L504.547 224.373C504.547 224.373 504.26 224.552 503.687 224.907C503.15 225.266 502.379 225.702 501.376 226.215C500.373 226.692 499.155 227.107 497.723 227.466C496.325 227.824 494.767 228 493.048 228ZM528.834 227.168L528.942 190.056L518.463 190.232V185.832H543.718V190.232L533.24 190.056L533.348 227.168H528.834ZM567.771 228C566.301 228 564.887 227.802 563.524 227.405C562.164 227.05 560.947 226.613 559.873 226.097C558.834 225.582 558.009 225.147 557.399 224.79C556.791 224.392 556.487 224.194 556.487 224.194C556.487 224.194 556.558 223.998 556.7 223.6C556.881 223.163 557.076 222.686 557.293 222.173C557.507 221.619 557.687 221.142 557.83 220.745C558.009 220.35 558.099 220.149 558.099 220.149C558.099 220.149 558.384 220.328 558.957 220.686C559.568 221.002 560.375 221.378 561.375 221.815C562.378 222.213 563.524 222.59 564.815 222.945C566.104 223.263 567.447 223.421 568.846 223.421C569.741 223.421 570.438 223.342 570.94 223.184C571.477 222.984 571.852 222.808 572.069 222.647C572.785 222.091 573.341 221.339 573.733 220.39C574.128 219.397 574.326 218.128 574.326 216.581C574.326 215.076 574.04 213.825 573.465 212.833C572.892 211.844 572.122 211.009 571.156 210.336C570.225 209.662 569.205 209.067 568.091 208.551C566.661 207.878 565.317 207.203 564.061 206.53C562.808 205.857 561.698 205.083 560.731 204.209C559.763 203.337 559.012 202.249 558.474 200.938C557.937 199.59 557.669 197.924 557.669 195.943C557.669 193.882 558.079 192.037 558.904 190.41C559.728 188.744 560.963 187.436 562.612 186.487C564.259 185.494 566.301 185 568.738 185C570.315 185 571.765 185.119 573.089 185.355C574.416 185.556 575.472 185.771 576.261 186.011C577.083 186.207 577.495 186.308 577.495 186.308L576.743 190.589C576.743 190.589 576.297 190.51 575.4 190.353C574.539 190.152 573.429 189.973 572.069 189.816C570.707 189.618 569.276 189.519 567.771 189.519C566.874 189.519 566.159 189.579 565.622 189.698C565.12 189.816 564.673 190.016 564.278 190.292C563.812 190.569 563.365 191.145 562.935 192.016C562.54 192.851 562.342 194.001 562.342 195.466C562.342 197.092 562.718 198.422 563.472 199.451C564.223 200.482 565.21 201.335 566.427 202.009C567.645 202.643 568.936 203.277 570.295 203.911C571.73 204.546 573.109 205.32 574.432 206.233C575.759 207.104 576.851 208.293 577.711 209.802C578.57 211.307 579 213.349 579 215.928C579 218.347 578.517 220.468 577.55 222.292C576.617 224.076 575.31 225.484 573.627 226.513C571.944 227.505 569.991 228 567.771 228Z" fill="#272829"/>
<mask id="mask0_984_435" style="mask-type:luminance" maskUnits="userSpaceOnUse" x="31" y="6" width="212" height="205">
<path d="M242.675 6H31V210.927H242.675V6Z" fill="white"/>
</mask>
<g mask="url(#mask0_984_435)">
<path d="M150.12 11.2231L80.0609 112.853" stroke="#272829" stroke-width="3"/>
<path d="M155.435 11.2231L82.7147 112.853" stroke="#272829" stroke-width="3"/>
<path d="M157.206 14.4419L77.391 111.571" stroke="#272829" stroke-width="3"/>
<path d="M147.457 14.4419L77.3983 108.993" stroke="#272829" stroke-width="3"/>
<path d="M154.554 9.28809L87.1554 110.918" stroke="#272829" stroke-width="3"/>
<path d="M148.337 11.2231L72.0698 110.922" stroke="#272829" stroke-width="3"/>
<path d="M159.868 13.1516L68.525 112.85" stroke="#272829" stroke-width="3"/>
<path d="M148.337 9.93311L86.2594 115.426" stroke="#272829" stroke-width="3"/>
<path d="M160.761 17.657L77.3983 114.786" stroke="#272829" stroke-width="3"/>
<path d="M161.641 13.1516L75.6185 114.781" stroke="#272829" stroke-width="3"/>
<path d="M153.663 9.93311L72.9617 112.848" stroke="#272829" stroke-width="3"/>
<path d="M162.532 17.0085L69.4153 109.636" stroke="#272829" stroke-width="3"/>
<path d="M228.169 113.171L158.11 11.5408" stroke="#272829" stroke-width="3"/>
<path d="M233.482 113.171L160.763 11.5408" stroke="#272829" stroke-width="3"/>
<path d="M235.254 109.953L155.439 12.8242" stroke="#272829" stroke-width="3"/>
<path d="M225.505 109.951L155.445 15.4011" stroke="#272829" stroke-width="3"/>
<path d="M232.603 115.096L165.204 13.4658" stroke="#272829" stroke-width="3"/>
<path d="M226.385 113.168L150.118 13.4692" stroke="#272829" stroke-width="3"/>
<path d="M237.917 111.239L146.574 11.5408" stroke="#272829" stroke-width="3"/>
<path d="M226.385 114.454L164.306 8.96069" stroke="#272829" stroke-width="3"/>
<path d="M238.808 106.738L155.445 9.60889" stroke="#272829" stroke-width="3"/>
<path d="M239.687 111.242L153.666 9.6123" stroke="#272829" stroke-width="3"/>
<path d="M231.711 114.456L151.009 11.5408" stroke="#272829" stroke-width="3"/>
<path d="M240.579 107.381L147.462 14.7527" stroke="#272829" stroke-width="3"/>
<path d="M228.169 100.965L158.109 202.594" stroke="#272829" stroke-width="3"/>
<path d="M233.483 100.965L160.763 202.594" stroke="#272829" stroke-width="3"/>
<path d="M235.254 104.18L155.439 201.309" stroke="#272829" stroke-width="3"/>
<path d="M225.504 104.18L155.445 198.731" stroke="#272829" stroke-width="3"/>
<path d="M232.602 99.0327L165.204 200.663" stroke="#272829" stroke-width="3"/>
<path d="M226.385 100.965L150.118 200.663" stroke="#272829" stroke-width="3"/>
<path d="M237.917 102.893L146.574 202.592" stroke="#272829" stroke-width="3"/>
<path d="M226.385 99.6812L164.306 205.174" stroke="#272829" stroke-width="3"/>
<path d="M238.808 107.395L155.445 204.524" stroke="#272829" stroke-width="3"/>
<path d="M239.687 102.893L153.666 204.523" stroke="#272829" stroke-width="3"/>
<path d="M231.711 99.6812L151.009 202.596" stroke="#272829" stroke-width="3"/>
<path d="M240.579 106.753L147.462 199.381" stroke="#272829" stroke-width="3"/>
<path d="M149.239 209.005L79.1805 107.375" stroke="#272829" stroke-width="3"/>
<path d="M154.554 209.005L81.8342 107.375" stroke="#272829" stroke-width="3"/>
<path d="M156.325 205.788L76.5105 108.658" stroke="#272829" stroke-width="3"/>
<path d="M146.577 205.786L76.5179 111.235" stroke="#272829" stroke-width="3"/>
<path d="M153.675 210.934L86.2766 109.303" stroke="#272829" stroke-width="3"/>
<path d="M147.457 209.005L71.1893 109.307" stroke="#272829" stroke-width="3"/>
<path d="M158.99 207.077L67.6462 107.379" stroke="#272829" stroke-width="3"/>
<path d="M147.457 210.288L85.379 104.795" stroke="#272829" stroke-width="3"/>
<path d="M159.88 202.572L76.5179 105.444" stroke="#272829" stroke-width="3"/>
<path d="M160.76 207.074L74.7382 105.444" stroke="#272829" stroke-width="3"/>
<path d="M152.783 210.29L72.0813 107.375" stroke="#272829" stroke-width="3"/>
<path d="M161.652 203.215L68.5349 110.587" stroke="#272829" stroke-width="3"/>
<path d="M121.46 207.411L191.521 105.781" stroke="#272829" stroke-width="3"/>
<path d="M116.146 207.411L188.867 105.781" stroke="#272829" stroke-width="3"/>
<path d="M114.375 204.193L194.19 107.064" stroke="#272829" stroke-width="3"/>
<path d="M124.123 204.191L194.184 109.641" stroke="#272829" stroke-width="3"/>
<path d="M117.027 209.338L184.426 107.709" stroke="#272829" stroke-width="3"/>
<path d="M123.244 207.411L199.512 107.712" stroke="#272829" stroke-width="3"/>
<path d="M111.712 205.482L203.056 105.784" stroke="#272829" stroke-width="3"/>
<path d="M123.244 208.697L185.323 103.204" stroke="#272829" stroke-width="3"/>
<path d="M110.821 200.977L194.184 103.849" stroke="#272829" stroke-width="3"/>
<path d="M109.94 205.478L195.962 103.849" stroke="#272829" stroke-width="3"/>
<path d="M117.917 208.698L198.62 105.784" stroke="#272829" stroke-width="3"/>
<path d="M109.048 201.623L202.166 108.996" stroke="#272829" stroke-width="3"/>
<path d="M43.4106 105.463L113.471 207.094" stroke="#272829" stroke-width="3"/>
<path d="M38.0977 105.463L110.818 207.094" stroke="#272829" stroke-width="3"/>
<path d="M36.3262 108.682L116.142 205.81" stroke="#272829" stroke-width="3"/>
<path d="M46.0741 108.682L116.133 203.232" stroke="#272829" stroke-width="3"/>
<path d="M38.9773 103.538L106.376 205.168" stroke="#272829" stroke-width="3"/>
<path d="M45.1953 105.463L121.464 205.162" stroke="#272829" stroke-width="3"/>
<path d="M33.6627 107.395L125.007 207.093" stroke="#272829" stroke-width="3"/>
<path d="M45.1953 104.18L107.274 209.673" stroke="#272829" stroke-width="3"/>
<path d="M32.7708 111.894L116.133 209.022" stroke="#272829" stroke-width="3"/>
<path d="M31.8911 107.395L117.914 209.025" stroke="#272829" stroke-width="3"/>
<path d="M39.8693 104.18L120.572 207.094" stroke="#272829" stroke-width="3"/>
<path d="M31 111.255L124.117 203.882" stroke="#272829" stroke-width="3"/>
<path d="M43.4106 117.669L113.471 16.0393" stroke="#272829" stroke-width="3"/>
<path d="M38.0977 117.669L110.818 16.0393" stroke="#272829" stroke-width="3"/>
<path d="M36.3262 114.451L116.142 17.3228" stroke="#272829" stroke-width="3"/>
<path d="M46.0741 114.45L116.133 19.8997" stroke="#272829" stroke-width="3"/>
<path d="M38.9773 119.597L106.376 17.9678" stroke="#272829" stroke-width="3"/>
<path d="M45.1953 117.669L121.464 17.9712" stroke="#272829" stroke-width="3"/>
<path d="M33.6627 115.741L125.007 16.0427" stroke="#272829" stroke-width="3"/>
<path d="M45.1953 118.948L107.274 13.4558" stroke="#272829" stroke-width="3"/>
<path d="M32.7708 111.236L116.133 14.1077" stroke="#272829" stroke-width="3"/>
<path d="M31.8911 115.737L117.914 14.1077" stroke="#272829" stroke-width="3"/>
<path d="M39.8693 118.954L120.572 16.0393" stroke="#272829" stroke-width="3"/>
<path d="M31 111.879L124.117 19.2512" stroke="#272829" stroke-width="3"/>
<path d="M122.34 9.63208L192.4 111.261" stroke="#272829" stroke-width="3"/>
<path d="M117.027 9.63208L189.747 111.261" stroke="#272829" stroke-width="3"/>
<path d="M115.254 12.8472L195.069 109.976" stroke="#272829" stroke-width="3"/>
<path d="M125.004 12.8472L195.063 107.397" stroke="#272829" stroke-width="3"/>
<path d="M117.906 7.7002L185.304 109.33" stroke="#272829" stroke-width="3"/>
<path d="M124.123 9.63208L200.391 109.33" stroke="#272829" stroke-width="3"/>
<path d="M112.591 11.5605L203.935 111.259" stroke="#272829" stroke-width="3"/>
<path d="M124.123 8.34521L186.202 113.838" stroke="#272829" stroke-width="3"/>
<path d="M111.699 16.0625L195.062 113.191" stroke="#272829" stroke-width="3"/>
<path d="M110.821 11.5605L196.843 113.19" stroke="#272829" stroke-width="3"/>
<path d="M118.797 8.34521L199.5 111.259" stroke="#272829" stroke-width="3"/>
<path d="M109.928 15.4175L203.046 108.044" stroke="#272829" stroke-width="3"/>
<path d="M109.048 201.623L202.166 108.996" stroke="#272829" stroke-width="3"/>
<path d="M31 111.879L124.117 19.2512" stroke="#272829" stroke-width="3"/>
<path d="M109.928 15.4175L203.046 108.044" stroke="#272829" stroke-width="3"/>
<path d="M150.12 11.2231L80.0609 112.853" stroke="#272829" stroke-width="3"/>
<path d="M155.435 11.2231L82.7147 112.853" stroke="#272829" stroke-width="3"/>
<path d="M157.206 14.4419L77.391 111.571" stroke="#272829" stroke-width="3"/>
<path d="M147.457 14.4419L77.3983 108.993" stroke="#272829" stroke-width="3"/>
<path d="M154.554 9.28809L87.1554 110.918" stroke="#272829" stroke-width="3"/>
<path d="M148.337 11.2231L72.0698 110.922" stroke="#272829" stroke-width="3"/>
<path d="M159.868 13.1516L68.525 112.85" stroke="#272829" stroke-width="3"/>
<path d="M148.337 9.93311L86.2594 115.426" stroke="#272829" stroke-width="3"/>
<path d="M160.761 17.657L77.3983 114.786" stroke="#272829" stroke-width="3"/>
<path d="M161.641 13.1516L75.6185 114.781" stroke="#272829" stroke-width="3"/>
<path d="M153.663 9.93311L72.9617 112.848" stroke="#272829" stroke-width="3"/>
<path d="M162.532 17.0085L69.4153 109.636" stroke="#272829" stroke-width="3"/>
<path d="M149.239 209.005L79.1805 107.375" stroke="#272829" stroke-width="3"/>
<path d="M154.554 209.005L81.8342 107.375" stroke="#272829" stroke-width="3"/>
<path d="M156.325 205.788L76.5105 108.658" stroke="#272829" stroke-width="3"/>
<path d="M146.577 205.786L76.5179 111.235" stroke="#272829" stroke-width="3"/>
<path d="M153.675 210.934L86.2766 109.303" stroke="#272829" stroke-width="3"/>
<path d="M147.457 209.005L71.1893 109.307" stroke="#272829" stroke-width="3"/>
<path d="M158.99 207.077L67.6462 107.379" stroke="#272829" stroke-width="3"/>
<path d="M147.457 210.288L85.379 104.795" stroke="#272829" stroke-width="3"/>
<path d="M159.88 202.572L76.5179 105.444" stroke="#272829" stroke-width="3"/>
<path d="M160.76 207.074L74.7382 105.444" stroke="#272829" stroke-width="3"/>
<path d="M152.783 210.29L72.0813 107.375" stroke="#272829" stroke-width="3"/>
<path d="M161.652 203.215L68.5349 110.587" stroke="#272829" stroke-width="3"/>
<path d="M121.46 207.411L191.521 105.781" stroke="#272829" stroke-width="3"/>
<path d="M116.146 207.411L188.867 105.781" stroke="#272829" stroke-width="3"/>
<path d="M114.375 204.193L194.19 107.064" stroke="#272829" stroke-width="3"/>
<path d="M124.123 204.191L194.184 109.641" stroke="#272829" stroke-width="3"/>
<path d="M117.027 209.338L184.426 107.709" stroke="#272829" stroke-width="3"/>
<path d="M123.244 207.411L199.512 107.712" stroke="#272829" stroke-width="3"/>
<path d="M111.712 205.482L203.056 105.784" stroke="#272829" stroke-width="3"/>
<path d="M123.244 208.697L185.323 103.204" stroke="#272829" stroke-width="3"/>
<path d="M110.821 200.977L194.184 103.849" stroke="#272829" stroke-width="3"/>
<path d="M109.94 205.478L195.962 103.849" stroke="#272829" stroke-width="3"/>
<path d="M117.917 208.698L198.62 105.784" stroke="#272829" stroke-width="3"/>
<path d="M109.048 201.623L202.166 108.996" stroke="#272829" stroke-width="3"/>
<path d="M43.4106 105.463L113.471 207.094" stroke="#272829" stroke-width="3"/>
<path d="M38.0977 105.463L110.818 207.094" stroke="#272829" stroke-width="3"/>
<path d="M36.3262 108.682L116.142 205.81" stroke="#272829" stroke-width="3"/>
<path d="M46.0741 108.682L116.133 203.232" stroke="#272829" stroke-width="3"/>
<path d="M38.9773 103.538L106.376 205.168" stroke="#272829" stroke-width="3"/>
<path d="M45.1953 105.463L121.464 205.162" stroke="#272829" stroke-width="3"/>
<path d="M33.6627 107.395L125.007 207.093" stroke="#272829" stroke-width="3"/>
<path d="M45.1953 104.18L107.274 209.673" stroke="#272829" stroke-width="3"/>
<path d="M32.7708 111.894L116.133 209.022" stroke="#272829" stroke-width="3"/>
<path d="M31.8911 107.395L117.914 209.025" stroke="#272829" stroke-width="3"/>
<path d="M39.8693 104.18L120.572 207.094" stroke="#272829" stroke-width="3"/>
<path d="M31 111.255L124.117 203.882" stroke="#272829" stroke-width="3"/>
<path d="M43.4106 117.669L113.471 16.0393" stroke="#272829" stroke-width="3"/>
<path d="M38.0977 117.669L110.818 16.0393" stroke="#272829" stroke-width="3"/>
<path d="M36.3262 114.451L116.142 17.3228" stroke="#272829" stroke-width="3"/>
<path d="M46.0741 114.45L116.133 19.8997" stroke="#272829" stroke-width="3"/>
<path d="M38.9773 119.597L106.376 17.9678" stroke="#272829" stroke-width="3"/>
<path d="M45.1953 117.669L121.464 17.9712" stroke="#272829" stroke-width="3"/>
<path d="M33.6627 115.741L125.007 16.0427" stroke="#272829" stroke-width="3"/>
<path d="M45.1953 118.948L107.274 13.4558" stroke="#272829" stroke-width="3"/>
<path d="M32.7708 111.236L116.133 14.1077" stroke="#272829" stroke-width="3"/>
<path d="M31.8911 115.737L117.914 14.1077" stroke="#272829" stroke-width="3"/>
<path d="M39.8693 118.954L120.572 16.0393" stroke="#272829" stroke-width="3"/>
<path d="M31 111.879L124.117 19.2512" stroke="#272829" stroke-width="3"/>
<path d="M122.34 9.63208L192.4 111.261" stroke="#272829" stroke-width="3"/>
<path d="M117.027 9.63208L189.747 111.261" stroke="#272829" stroke-width="3"/>
<path d="M115.254 12.8472L195.069 109.976" stroke="#272829" stroke-width="3"/>
<path d="M125.004 12.8472L195.063 107.397" stroke="#272829" stroke-width="3"/>
<path d="M117.906 7.7002L185.304 109.33" stroke="#272829" stroke-width="3"/>
<path d="M124.123 9.63208L200.391 109.33" stroke="#272829" stroke-width="3"/>
<path d="M112.591 11.5605L203.935 111.259" stroke="#272829" stroke-width="3"/>
<path d="M124.123 8.34521L186.202 113.838" stroke="#272829" stroke-width="3"/>
<path d="M111.699 16.0625L195.062 113.191" stroke="#272829" stroke-width="3"/>
<path d="M110.821 11.5605L196.843 113.19" stroke="#272829" stroke-width="3"/>
<path d="M118.797 8.34521L199.5 111.259" stroke="#272829" stroke-width="3"/>
<path d="M109.928 15.4175L203.046 108.044" stroke="#272829" stroke-width="3"/>
<path d="M109.048 201.623L202.166 108.996" stroke="#272829" stroke-width="3"/>
<path d="M31 111.879L124.117 19.2512" stroke="#272829" stroke-width="3"/>
<path d="M109.928 15.4175L203.046 108.044" stroke="#272829" stroke-width="3"/>
</g>
</svg>
