<svg width="24" height="20" viewBox="0 0 24 20" fill="none"
  xmlns="http://www.w3.org/2000/svg">
  <path d="M3.78947 0H20.2105C21.2156 0 22.1794 0.421428 22.8901 1.17157C23.6008 1.92172 24 2.93913 24 4V16C24 17.0609 23.6008 18.0783 22.8901 18.8284C22.1794 19.5786 21.2156 20 20.2105 20H3.78947C2.78444 20 1.82058 19.5786 1.10991 18.8284C0.399247 18.0783 0 17.0609 0 16V4C0 2.93913 0.399247 1.92172 1.10991 1.17157C1.82058 0.421428 2.78444 0 3.78947 0ZM3.78947 1.33333C3.15789 1.33333 2.60211 1.56 2.17263 1.96L12 8.66667L21.8274 1.96C21.3979 1.56 20.8421 1.33333 20.2105 1.33333H3.78947ZM12 10.28L1.42737 3.04C1.32632 3.33333 1.26316 3.66667 1.26316 4V16C1.26316 16.7072 1.52932 17.3855 2.0031 17.8856C2.47687 18.3857 3.11945 18.6667 3.78947 18.6667H20.2105C20.8805 18.6667 21.5231 18.3857 21.9969 17.8856C22.4707 17.3855 22.7368 16.7072 22.7368 16V4C22.7368 3.66667 22.6737 3.33333 22.5726 3.04L12 10.28Z" fill="#4f6f52"/>
</svg>
