<svg width="20" height="20" viewBox="0 0 20 20" fill="none" xmlns="http://www.w3.org/2000/svg">
<path d="M9.11625 10L3.9325 4.8175C3.87439 4.75939 3.82829 4.6904 3.79684 4.61448C3.76539 4.53855 3.74921 4.45718 3.74921 4.375C3.74921 4.29282 3.76539 4.21144 3.79684 4.13552C3.82829 4.05959 3.87439 3.99061 3.9325 3.9325C3.99061 3.87439 4.05959 3.82829 4.13552 3.79684C4.21144 3.76539 4.29282 3.74921 4.375 3.74921C4.45718 3.74921 4.53855 3.76539 4.61448 3.79684C4.6904 3.82829 4.75939 3.87439 4.8175 3.9325L10 9.11625L15.1825 3.9325C15.2999 3.81514 15.459 3.74921 15.625 3.74921C15.791 3.74921 15.9501 3.81514 16.0675 3.9325C16.1849 4.04985 16.2508 4.20903 16.2508 4.375C16.2508 4.54097 16.1849 4.70014 16.0675 4.8175L10.8837 10L16.0675 15.1825C16.1849 15.2999 16.2508 15.459 16.2508 15.625C16.2508 15.791 16.1849 15.9501 16.0675 16.0675C15.9501 16.1849 15.791 16.2508 15.625 16.2508C15.459 16.2508 15.2999 16.1849 15.1825 16.0675L10 10.8837L4.8175 16.0675C4.70014 16.1849 4.54097 16.2508 4.375 16.2508C4.20903 16.2508 4.04985 16.1849 3.9325 16.0675C3.81514 15.9501 3.74921 15.791 3.74921 15.625C3.74921 15.459 3.81514 15.2999 3.9325 15.1825L9.11625 10Z" fill="#272829"/>
</svg>
