<svg width="668" height="300" viewBox="0 0 668 300" fill="none" xmlns="http://www.w3.org/2000/svg">
<mask id="mask0_983_245" style="mask-type:luminance" maskUnits="userSpaceOnUse" x="0" y="0" width="668" height="300">
<path d="M668 0H0V300H668V0Z" fill="white"/>
</mask>
<g mask="url(#mask0_983_245)">
<path d="M314.15 296.625C485.861 296.625 625.06 293.668 625.06 290.02C625.06 286.372 485.861 283.415 314.15 283.415C142.439 283.415 3.23999 286.372 3.23999 290.02C3.23999 293.668 142.439 296.625 314.15 296.625Z" fill="#151348"/>
<path d="M596.47 271.04H223.64C221.418 271.04 219.286 270.157 217.715 268.586C216.143 267.014 215.26 264.883 215.26 262.661V11.1809C215.26 8.95791 216.143 6.82691 217.715 5.25491C219.286 3.68391 221.417 2.8009 223.64 2.8009H596.47C598.692 2.8009 600.824 3.68391 602.395 5.25591C603.966 6.82691 604.849 8.95791 604.849 11.1809V262.661C604.849 264.883 603.966 267.014 602.395 268.586C600.824 270.157 598.692 271.04 596.47 271.04Z" fill="#272829"/>
<path d="M589.94 271.04H204.61C202.351 271.04 200.186 270.143 198.589 268.546C196.992 266.949 196.094 264.783 196.094 262.524V11.3139C196.094 9.05595 196.992 6.88995 198.589 5.29295C200.186 3.69595 202.351 2.79895 204.61 2.79895H589.94C592.198 2.79895 594.364 3.69595 595.961 5.29295C597.558 6.88995 598.455 9.05595 598.455 11.3139V262.524C598.455 263.643 598.235 264.75 597.807 265.783C597.379 266.816 596.752 267.755 595.961 268.546C595.17 269.337 594.231 269.964 593.198 270.392C592.165 270.82 591.059 271.04 589.94 271.04Z" fill="#123735"/>
<path d="M581.43 24.09V249.75C581.43 250.879 580.981 251.962 580.183 252.761C579.384 253.559 578.301 254.008 577.172 254.008H217.382C216.253 254.008 215.17 253.56 214.371 252.761C213.573 251.963 213.124 250.88 213.124 249.75V24.09C213.124 23.531 213.234 22.978 213.448 22.461C213.662 21.944 213.976 21.475 214.371 21.08C214.767 20.684 215.236 20.371 215.753 20.157C216.269 19.943 216.823 19.833 217.382 19.833H577.172C578.301 19.833 579.384 20.281 580.183 21.08C580.982 21.878 581.43 22.961 581.43 24.091V24.09Z" fill="#F9F9F9"/>
<path d="M581.43 24.0899V41.1209H213.13V24.0899C213.13 23.5309 213.24 22.9769 213.454 22.4609C213.668 21.9439 213.982 21.4749 214.377 21.0789C214.772 20.6839 215.242 20.3699 215.758 20.1559C216.275 19.9419 216.829 19.8319 217.388 19.8319H577.178C577.737 19.8319 578.291 19.9419 578.807 20.1559C579.324 20.3699 579.793 20.6839 580.189 21.0789C580.584 21.4739 580.898 21.9439 581.112 22.4599C581.326 22.9769 581.436 23.5309 581.436 24.0899H581.43Z" fill="#D3C7B4"/>
<path d="M28.59 287.39C33.978 292.779 6.73596 289.062 512.24 290.2C514.781 290.2 517.218 289.191 519.014 287.394C520.811 285.598 521.82 283.161 521.82 280.62C521.82 278.079 520.811 275.643 519.014 273.846C517.218 272.049 514.781 271.04 512.24 271.04H35.36C33.467 271.043 31.618 271.607 30.045 272.66C28.472 273.713 27.246 275.208 26.522 276.957C25.798 278.706 25.608 280.63 25.976 282.487C26.344 284.344 27.254 286.05 28.59 287.39Z" fill="#4F6049"/>
<path d="M339.41 287.4C344.785 292.775 334.976 289.098 595.26 290.21C597.801 290.21 600.237 289.201 602.034 287.404C603.831 285.607 604.84 283.171 604.84 280.63C604.84 278.089 603.831 275.653 602.034 273.856C600.237 272.059 597.801 271.05 595.26 271.05H346.18C344.287 271.053 342.438 271.617 340.865 272.67C339.292 273.723 338.066 275.218 337.342 276.967C336.618 278.716 336.428 280.64 336.796 282.497C337.164 284.354 338.074 286.06 339.41 287.4Z" fill="#78825E"/>
<path d="M558.49 284.49H578.977C579.996 284.49 580.973 284.085 581.693 283.365C582.414 282.644 582.818 281.667 582.818 280.648C582.818 279.63 582.413 278.653 581.693 277.932C580.973 277.212 579.996 276.807 578.977 276.807H558.49C557.471 276.807 556.494 277.212 555.774 277.932C555.053 278.653 554.648 279.63 554.648 280.648C554.648 281.667 555.053 282.644 555.774 283.365C556.494 284.085 557.471 284.49 558.49 284.49Z" fill="#272829"/>
<path d="M508.55 284.49H536.72V276.807H508.55V284.49Z" fill="#272829"/>
<path d="M472.7 284.49H500.87V276.807H472.7V284.49Z" fill="#272829"/>
<path d="M385.63 280.65C385.63 279.631 385.225 278.654 384.505 277.934C383.784 277.213 382.807 276.809 381.788 276.809C380.77 276.809 379.793 277.214 379.072 277.934C378.352 278.654 377.947 279.631 377.947 280.65C377.947 285.761 385.63 285.765 385.63 280.65Z" fill="#272829"/>
<path d="M400.99 280.65C400.99 279.631 400.585 278.654 399.865 277.934C399.144 277.214 398.168 276.809 397.149 276.809C396.13 276.809 395.153 277.214 394.433 277.934C393.712 278.654 393.307 279.631 393.307 280.65C393.307 285.761 400.99 285.765 400.99 280.65Z" fill="#272829"/>
<path d="M144.43 270.816C175.224 270.816 200.187 269.658 200.187 268.23C200.187 266.802 175.224 265.644 144.43 265.644C113.636 265.644 88.673 266.802 88.673 268.23C88.673 269.658 113.636 270.816 144.43 270.816Z" fill="#151348"/>
<path d="M126.9 173.98C128.355 168.719 127.634 163.111 128.382 157.703C129.23 150.977 132.623 144.832 137.863 140.531C140.49 138.434 143.578 136.991 146.872 136.323C150.167 135.654 153.573 135.778 156.81 136.685C163.214 138.66 168.42 144.46 169.149 151.121C169.805 157.121 167.065 162.888 165.171 168.619C165.086 168.879 165.002 169.139 164.922 169.4C163.718 173.31 162.936 177.652 164.018 181.682C165.086 185.66 168.449 189.009 171.874 191.138C173.42 192.099 175.05 192.718 176.597 193.661C178.799 195.045 181.292 195.898 183.879 196.154C186.944 196.163 189.964 195.417 192.673 193.983C195.383 192.661 198.968 191.828 201.15 193.908C202.659 195.346 202.88 197.723 202.372 199.744C201.715 201.722 200.891 203.641 199.907 205.478C198.921 207.336 198.627 209.484 199.077 211.539C200.113 214.956 204.003 214.662 206.821 215.417C209.411 216.111 212.245 217.247 213.264 219.728C214.326 222.313 212.958 225.22 211.452 227.575C209.946 229.931 208.191 232.445 208.457 235.228C208.692 237.695 210.485 239.74 211.094 242.142C211.417 243.501 211.36 244.924 210.927 246.252C210.495 247.581 209.704 248.764 208.642 249.672C199.155 257.55 194.981 240.507 187.886 238.488C184.849 237.623 181.558 238.934 179.113 240.932C176.668 242.93 174.84 245.562 172.747 247.926C169.539 251.77 165.312 254.632 160.551 256.183C155.772 257.567 150.284 256.992 146.338 253.961C142.392 250.93 140.42 245.265 142.329 240.671C144.012 236.621 148.393 233.373 147.846 229.022C147.372 225.255 143.076 222.951 139.294 223.28C135.512 223.61 132.191 225.822 129.067 227.98C125.553 230.409 121.979 232.894 117.895 234.143C113.811 235.393 109.051 235.221 105.65 232.637C102.249 230.053 100.911 224.684 103.545 221.321C105.526 218.791 108.945 218.027 111.9 216.761C114.854 215.496 117.875 212.81 117.251 209.658C116.265 204.682 108.307 205.161 105.378 201.019C101.335 195.302 109.21 189.515 113.267 186.698C119.225 182.559 124.731 181.828 126.901 173.98H126.9Z" fill="#272829"/>
<path d="M167.99 191.18C165.261 190.327 162.472 189.681 159.646 189.247C156.186 193.911 151.576 198.457 146.712 198.56C139.993 198.701 135.397 191.623 133.09 186.916C124.46 189.132 113.168 192.771 106.428 204.994C99.433 217.681 100.406 242.571 122.386 240.071C122.561 241.744 122.835 243.406 123.206 245.048C136.515 248.517 156.889 249.463 163.701 245.048C164.222 242.826 164.601 240.572 164.834 238.302C166.551 238.606 168.293 238.742 170.037 238.707C172.806 238.668 175.503 237.817 177.793 236.26C180.083 234.702 181.865 232.506 182.919 229.945C187.516 218.743 189.804 198.982 167.991 191.181L167.99 191.18Z" fill="#FBFADA"/>
<path d="M159.65 189.25C156.19 193.914 151.58 198.46 146.716 198.563C139.997 198.704 135.401 191.626 133.094 186.919C133.993 186.687 134.865 186.471 135.699 186.263C139.491 185.315 141.458 183.576 142.497 181.651C143.22 180.188 143.62 178.587 143.671 176.956C143.739 175.994 143.751 175.115 143.836 174.404C146.022 174.087 148.253 174.371 150.29 175.226C150.112 175.904 149.966 176.549 149.851 177.16C149.602 178.391 149.491 179.646 149.519 180.902C149.738 186.884 154.304 188.217 159.65 189.25Z" fill="#F9C5C8"/>
<path d="M171.54 202.85H121.209C120.105 202.851 119.046 203.291 118.265 204.072C117.484 204.852 117.045 205.911 117.043 207.016V242.638H175.705V207.016C175.704 205.911 175.265 204.852 174.484 204.071C173.703 203.29 172.644 202.851 171.539 202.85H171.54Z" fill="#7F8184"/>
<path d="M150.89 222.27C150.89 223.163 150.625 224.037 150.129 224.78C149.632 225.523 148.927 226.102 148.101 226.444C147.276 226.786 146.367 226.875 145.491 226.701C144.615 226.526 143.81 226.096 143.178 225.464C142.546 224.833 142.116 224.028 141.942 223.151C141.767 222.275 141.857 221.367 142.199 220.541C142.541 219.716 143.12 219.01 143.863 218.514C144.606 218.017 145.479 217.752 146.373 217.753C146.966 217.753 147.553 217.869 148.101 218.096C148.649 218.323 149.147 218.656 149.567 219.076C149.986 219.495 150.319 219.993 150.546 220.541C150.773 221.089 150.89 221.677 150.89 222.27Z" fill="white"/>
<path d="M174.68 245.82H118.058C117.783 245.82 117.51 245.766 117.255 245.66C117.001 245.555 116.77 245.401 116.575 245.206C116.38 245.011 116.226 244.78 116.12 244.525C116.015 244.271 115.961 243.998 115.961 243.723V242.674C115.961 242.537 115.988 242.4 116.041 242.273C116.093 242.146 116.171 242.03 116.268 241.933C116.365 241.836 116.481 241.758 116.608 241.706C116.735 241.653 116.872 241.626 117.01 241.626H175.728C175.865 241.626 176.002 241.653 176.129 241.706C176.256 241.758 176.372 241.836 176.469 241.933C176.566 242.03 176.644 242.146 176.696 242.273C176.749 242.4 176.776 242.537 176.776 242.674V243.723C176.776 243.998 176.722 244.271 176.616 244.525C176.511 244.78 176.357 245.011 176.162 245.206C175.967 245.401 175.736 245.555 175.482 245.66C175.227 245.766 174.954 245.82 174.679 245.82H174.68Z" fill="#A7A9AC"/>
<path d="M190.41 256.48C189.572 257.231 188.674 257.976 187.713 258.717C165.197 274.339 128.413 265.105 121.738 260.473C118.971 259.243 119.537 254.611 120.395 252.808C123.684 252.716 131.273 253.62 148.059 244.836C153.689 241.851 159.148 238.556 164.411 234.965C192.958 215.728 200.261 231.012 200.588 237.38C200.843 242.207 198.438 249.335 190.41 256.48Z" fill="#272829"/>
<path d="M187.84 258.29C188.66 260.766 184.221 264.465 177.923 266.552C171.626 268.639 165.855 268.323 165.035 265.847C164.215 263.371 168.655 259.672 174.952 257.585C181.249 255.499 187.02 255.814 187.84 258.29Z" fill="#0A2236"/>
<path d="M181.23 260.48C181.746 262.038 178.953 264.365 174.991 265.678C171.029 266.991 167.399 266.792 166.882 265.235C166.366 263.677 169.159 261.35 173.121 260.037C177.083 258.723 180.713 258.922 181.23 260.48Z" fill="#F9C5C8"/>
<path d="M101.09 263.6C100.502 261.059 105.266 257.787 111.729 256.292C118.192 254.797 123.909 255.646 124.496 258.187C125.083 260.729 120.32 264.001 113.857 265.495C107.394 266.99 101.677 266.141 101.09 263.6Z" fill="#0A2236"/>
<path d="M107.87 262.03C107.5 260.431 110.497 258.373 114.564 257.432C118.63 256.492 122.227 257.026 122.596 258.625C122.966 260.223 119.969 262.282 115.903 263.222C111.836 264.163 108.24 263.629 107.87 262.03Z" fill="#F9C5C8"/>
<path d="M93.57 235.13C94.676 228.847 103.788 214.567 129.776 237.148C155.764 259.73 167.117 259.603 171.28 260.234C171.911 262.127 171.911 266.794 169.009 267.677C161.819 271.462 124.183 276.129 103.746 257.88C94.591 248.823 92.645 240.387 93.57 235.13Z" fill="#323538"/>
<path d="M150.29 175.23C150.112 175.909 149.966 176.553 149.851 177.164C148.366 177.607 146.796 177.691 145.272 177.409C144.726 177.307 144.19 177.157 143.671 176.961C143.739 175.998 143.751 175.119 143.836 174.409C146.022 174.091 148.253 174.375 150.29 175.23Z" fill="#E48788"/>
<path d="M160.014 163.083C161.528 155.02 157.542 147.505 151.11 146.297C144.678 145.09 138.237 150.647 136.723 158.709C135.209 166.772 139.195 174.287 145.627 175.495C152.058 176.703 158.5 171.146 160.014 163.083Z" fill="#F9C5C8"/>
<path d="M162.2 161.76C162.002 162.028 161.733 162.235 161.423 162.358C161.113 162.482 160.775 162.516 160.447 162.457C160.119 162.399 159.813 162.25 159.565 162.027C159.317 161.804 159.136 161.517 159.043 161.197C158.95 160.877 158.947 160.537 159.036 160.216C159.126 159.895 159.303 159.605 159.548 159.379C159.793 159.153 160.096 159 160.424 158.937C160.751 158.874 161.089 158.904 161.401 159.023C161.862 159.287 162.203 159.72 162.352 160.231C162.501 160.741 162.447 161.289 162.2 161.76Z" fill="#F9C5C8"/>
<path d="M138.64 158.61C138.745 159.131 138.643 159.673 138.357 160.121C138.071 160.569 137.622 160.889 137.105 161.013C136.156 161.089 135.304 160.139 135.203 158.889C135.098 158.367 135.2 157.826 135.486 157.378C135.772 156.93 136.221 156.61 136.738 156.486C137.687 156.409 138.539 157.36 138.64 158.61Z" fill="#F9C5C8"/>
<path d="M163.52 157.37C160.983 159.634 155.799 157.964 151.942 153.641C148.085 149.318 147.014 143.978 149.551 141.714C152.088 139.45 157.272 141.12 161.129 145.443C164.986 149.766 166.057 155.106 163.52 157.37Z" fill="#202820"/>
<path d="M153.81 145.27C155.149 148.395 151.917 152.779 146.592 155.061C141.266 157.343 135.863 156.659 134.524 153.533C133.185 150.408 136.416 146.025 141.742 143.743C147.068 141.461 152.471 142.145 153.81 145.27Z" fill="#202820"/>
<path d="M51.671 272.66C64.1919 272.66 74.342 271.411 74.342 269.871C74.342 268.331 64.1919 267.082 51.671 267.082C39.1502 267.082 29 268.331 29 269.871C29 271.411 39.1502 272.66 51.671 272.66Z" fill="#151348"/>
<path d="M62.42 268.721C58.69 270 55.7042 270.64 41.74 269.468C20.633 258.594 32.2532 227.254 32.2532 227.254C32.3491 226.899 32.5007 226.562 32.7024 226.254C32.9647 225.86 33.2874 225.509 33.6586 225.215C36.0907 223.606 42.4228 222.879 49.7266 223.563C55.7789 224.129 60.9946 225.525 63.7946 227.143C64.5933 227.649 65.292 228.298 65.8556 229.057L65.8576 229.06C66.0687 229.358 66.2391 229.682 66.3645 230.025C77.6645 248.254 64.873 264.351 62.42 268.721Z" fill="#E3FF95"/>
<path d="M66.656 261.561C64.9341 264.882 63.1799 267.367 62.4226 268.72C58.6876 270.002 55.7035 270.636 41.7416 269.465C20.6326 258.59 32.2522 227.254 32.2522 227.254C32.348 226.897 32.501 226.558 32.7052 226.25C32.9657 225.857 33.2868 225.507 33.6567 225.215C34.1484 224.904 34.6768 224.656 35.2297 224.477C35.6365 234.508 39.4574 244.1 46.0597 251.664C50.6879 256.861 56.9217 261.037 63.8607 261.561C64.7913 261.632 65.7254 261.632 66.656 261.561Z" fill="#CFE886"/>
<path d="M65.982 229.781C65.859 231.089 63.8266 232.085 60.6549 232.642C56.7474 233.22 52.7822 233.298 48.8549 232.875C46.7721 232.684 44.7018 232.375 42.6538 231.949C36.5886 230.687 32.4198 228.61 32.6008 226.655C32.6131 226.516 32.6481 226.38 32.7044 226.253C32.9117 225.821 33.2429 225.461 33.6559 225.217C34.6825 224.617 35.8063 224.201 36.9765 223.987C41.1838 223.225 45.4801 223.083 49.7285 223.567C53.0522 223.85 56.3394 224.464 59.5414 225.399C61.0197 225.821 62.4461 226.407 63.7943 227.146C64.6609 227.558 65.3812 228.224 65.8591 229.056V229.063C65.9591 229.289 66.0016 229.536 65.982 229.781Z" fill="#8FBC0F"/>
<path d="M89.868 178.641C85.1037 197.717 58.441 202.442 59.542 225.396C59.581 226.108 59.6392 226.833 59.7298 227.584C59.7492 227.791 59.7816 228.005 59.8076 228.218L60.6556 232.639C56.7481 233.217 52.7829 233.296 48.8556 232.872C46.7728 232.681 44.7025 232.372 42.6545 231.947C40.842 229.487 38.8483 226.807 36.9775 223.985C30.168 213.764 24.8735 201.595 35.5018 190.636C51.0178 174.648 60.9278 167.767 39.3403 140.586C17.7523 113.399 38.2203 104.285 46.5383 108.603C54.8496 112.92 66.2483 118.837 65.9893 105.088C65.7239 91.3329 85.5513 89.2549 90.0303 99.1719C94.5096 109.082 96.7493 117.717 81.2334 144.742C65.7234 171.768 94.8264 158.815 89.868 178.642V178.641Z" fill="#1B683D"/>
<path d="M52.6548 231.316C52.518 231.316 52.3848 231.273 52.2742 231.192C50.0038 229.467 48.3453 227.061 47.5415 224.325C46.7377 221.589 46.8308 218.668 47.8073 215.989C48.4654 214.442 49.2759 212.965 50.2268 211.578C51.0252 210.398 51.7306 209.157 52.3368 207.868C53.353 205.396 53.6226 202.681 53.1122 200.058C52.6019 197.435 51.3339 195.019 49.4651 193.11C49.3425 192.989 49.2727 192.825 49.2709 192.654C49.2691 192.482 49.3356 192.317 49.4556 192.194C49.5757 192.072 49.7395 192.002 49.9111 192C50.0828 191.998 50.2481 192.064 50.3709 192.184C52.4451 194.267 53.8525 196.92 54.4139 199.805C54.9753 202.69 54.6652 205.677 53.5233 208.386C52.8909 209.738 52.1535 211.039 51.3178 212.276C50.4129 213.589 49.6414 214.99 49.0146 216.457C48.1352 218.869 48.0513 221.499 48.775 223.962C49.4988 226.426 50.9923 228.592 53.0367 230.145C53.1472 230.226 53.2294 230.339 53.2715 230.469C53.3136 230.599 53.3134 230.739 53.271 230.869C53.2286 230.999 53.1462 231.112 53.0355 231.193C52.9248 231.273 52.7915 231.316 52.6548 231.316Z" fill="white"/>
<path d="M57.733 200.971C57.6752 200.971 57.6177 200.963 57.5618 200.948C57.3963 200.903 57.2555 200.794 57.1705 200.645C57.0855 200.495 57.0632 200.319 57.1085 200.153C58.3585 195.587 62.3125 192.336 65.6174 190.013C66.1622 189.631 66.7144 189.252 67.2674 188.873C70.2509 186.829 73.3361 184.714 75.3451 181.762C77.5957 178.454 78.1643 173.375 75.2199 170.6C75.0955 170.482 75.0229 170.32 75.0181 170.148C75.0133 169.977 75.0766 169.811 75.1941 169.686C75.3117 169.561 75.4739 169.489 75.6452 169.483C75.8165 169.478 75.9829 169.541 76.1079 169.658C79.555 172.907 78.9712 178.735 76.4152 182.491C74.2691 185.645 71.0817 187.83 67.9994 189.942C67.4504 190.318 66.9022 190.694 66.3617 191.074C63.234 193.272 59.4981 196.329 58.3567 200.495C58.3193 200.632 58.238 200.753 58.1253 200.839C58.0126 200.925 57.8748 200.972 57.733 200.972V200.971Z" fill="white"/>
<path d="M51.297 146.161C51.1976 146.161 51.0995 146.138 51.0104 146.094C50.9213 146.05 50.8435 145.986 50.7832 145.907L40.8455 132.943C39.0475 130.857 37.6382 128.465 36.6847 125.881C35.7558 122.812 36.3709 119.616 38.2514 117.741C39.2683 116.844 40.4921 116.213 41.8129 115.906C43.1336 115.598 44.5101 115.624 45.8187 115.979C48.284 116.683 50.6148 117.792 52.7152 119.262C52.7875 119.307 52.8503 119.365 52.9 119.434C52.9496 119.503 52.9851 119.582 53.0045 119.665C53.0238 119.748 53.0266 119.833 53.0127 119.917C52.9989 120.001 52.9685 120.082 52.9235 120.154C52.8785 120.226 52.8197 120.289 52.7504 120.338C52.6812 120.388 52.6028 120.423 52.5199 120.442C52.437 120.462 52.3511 120.464 52.2671 120.45C52.1832 120.436 52.1028 120.405 52.0307 120.36C50.0534 118.967 47.8576 117.913 45.5336 117.242C43.5836 116.802 40.8859 116.942 39.1656 118.657C37.6191 120.2 37.1316 122.888 37.9237 125.506C38.8319 127.941 40.1694 130.193 41.8727 132.156L51.8104 145.12C51.8838 145.216 51.929 145.33 51.9408 145.45C51.9526 145.571 51.9306 145.692 51.8772 145.8C51.8238 145.908 51.7411 146 51.6386 146.063C51.5361 146.127 51.4177 146.161 51.297 146.161Z" fill="white"/>
<path d="M76.9711 134.191C76.8659 134.191 76.7622 134.166 76.6691 134.117C76.5759 134.068 76.4962 133.997 76.4368 133.91C75.0745 131.871 74.2329 129.53 73.9857 127.091C73.7385 124.652 74.0933 122.19 75.0189 119.92C75.787 118.248 76.7138 116.654 77.7868 115.16C78.0451 114.775 78.3034 114.391 78.5558 114.004C79.8333 112.241 80.7227 110.228 81.1651 108.097C81.3584 107.094 81.293 106.058 80.9751 105.087C80.6573 104.115 80.0975 103.241 79.3484 102.546C78.9232 102.223 78.4376 101.988 77.9202 101.856C77.4028 101.724 76.8642 101.697 76.3361 101.776C75.9276 101.824 75.5337 101.956 75.1793 102.165C74.8248 102.373 74.5179 102.653 74.278 102.987C73.6965 104.124 73.4627 105.407 73.6059 106.676C73.6065 107.052 73.6065 107.427 73.5936 107.794C73.5171 109.92 72.5237 112.214 70.4767 112.545C70.3928 112.559 70.307 112.556 70.2242 112.536C70.1415 112.517 70.0634 112.481 69.9945 112.431C69.9255 112.381 69.867 112.319 69.8223 112.246C69.7776 112.174 69.7478 112.093 69.7342 112.01C69.7206 111.926 69.7236 111.84 69.7432 111.757C69.7627 111.674 69.7984 111.596 69.8482 111.527C69.8979 111.458 69.9607 111.4 70.0331 111.355C70.1054 111.311 70.186 111.281 70.2699 111.267C71.5854 111.054 72.2443 109.293 72.2998 107.748C72.3124 107.396 72.3121 107.037 72.3114 106.677C72.1521 105.149 72.4641 103.608 73.2056 102.262C73.5449 101.779 73.9815 101.373 74.4874 101.069C74.9932 100.764 75.5572 100.569 76.1429 100.496C76.8478 100.388 77.5673 100.425 78.2577 100.604C78.9481 100.782 79.5949 101.1 80.1588 101.536C81.0908 102.368 81.7914 103.427 82.1923 104.61C82.5931 105.793 82.6805 107.059 82.4459 108.286C81.9803 110.604 81.0236 112.794 79.6401 114.711C79.3844 115.102 79.123 115.491 78.862 115.881C77.8367 117.307 76.9494 118.828 76.212 120.423C75.3681 122.492 75.0446 124.737 75.27 126.961C75.4954 129.185 76.2627 131.319 77.5047 133.178C77.5713 133.275 77.6101 133.388 77.6169 133.506C77.6238 133.624 77.5984 133.741 77.5435 133.845C77.4886 133.949 77.4064 134.037 77.3055 134.098C77.2047 134.159 77.0889 134.191 76.9711 134.191Z" fill="white"/>
<path d="M629.48 292.101C637.97 292.101 644.853 291.255 644.853 290.21C644.853 289.165 637.97 288.319 629.48 288.319C620.99 288.319 614.107 289.165 614.107 290.21C614.107 291.255 620.99 292.101 629.48 292.101Z" fill="#151348"/>
<path d="M640.7 282.68C639.654 284.777 638.491 286.813 637.218 288.779C634.686 289.645 632.662 290.078 623.19 289.285C608.882 281.912 616.761 260.662 616.761 260.662C616.822 260.42 616.925 260.191 617.066 259.985C617.241 259.716 617.46 259.477 617.713 259.278C618.937 258.626 620.287 258.246 621.671 258.162C621.743 261.661 622.519 265.111 623.952 268.305C625.548 271.762 627.87 274.836 630.76 277.317C633.65 279.797 637.04 281.627 640.7 282.681V282.68Z" fill="#C0D976"/>
<path d="M639.63 262.38C639.466 264.123 634.267 265.061 628.018 264.476C621.769 263.89 616.833 262.002 616.996 260.259C617.005 260.166 617.028 260.074 617.064 259.988C617.206 259.694 617.432 259.449 617.713 259.283C619.362 258.193 623.656 257.699 628.609 258.163C632.713 258.547 636.249 259.493 638.148 260.591C638.735 260.872 639.222 261.324 639.546 261.889L639.547 261.891C639.615 262.044 639.644 262.212 639.63 262.38Z" fill="#817FFA"/>
<path d="M639.64 262.38C639.552 263.269 638.177 263.942 636.025 264.322C635.463 264.422 634.849 264.498 634.194 264.55C634.179 264.555 634.163 264.557 634.147 264.556C632.107 264.707 630.058 264.682 628.022 264.48C627.572 264.439 627.127 264.387 626.688 264.334C625.682 264.205 624.717 264.042 623.816 263.849C622.939 263.667 622.12 263.457 621.371 263.229C618.633 262.398 616.902 261.304 617.001 260.263C617.01 260.168 617.033 260.075 617.071 259.988C617.213 259.696 617.436 259.453 617.714 259.286C618.41 258.877 619.173 258.594 619.967 258.449C620.942 258.244 621.931 258.113 622.927 258.057C624.163 257.979 625.403 257.971 626.641 258.034C627.285 258.063 627.94 258.104 628.613 258.169C629.948 258.289 631.276 258.482 632.59 258.748C633.494 258.921 634.389 259.142 635.27 259.409C636.272 259.695 637.24 260.093 638.154 260.596C638.333 260.698 638.507 260.809 638.674 260.93C639.045 261.167 639.348 261.498 639.552 261.889V261.895C639.621 262.047 639.651 262.214 639.64 262.38Z" fill="#ADD833"/>
<path d="M656.42 242.29C654.794 249.286 649.652 255.165 643.375 258.675C641.901 259.5 640.245 260.155 638.672 260.927C637.657 261.402 636.691 261.974 635.788 262.635C635.062 263.098 634.49 263.766 634.144 264.554C632.104 264.705 630.055 264.679 628.019 264.478C626.606 264.348 625.202 264.137 623.813 263.846C622.936 263.665 622.117 263.454 621.368 263.226C621.385 262.137 621.588 261.059 621.97 260.038C622.234 259.352 622.552 258.689 622.924 258.055C624.109 256.177 625.491 254.432 627.048 252.849C623.351 254.013 619.484 255.189 615.652 254.592C611.814 254.001 608.047 251.053 607.889 247.174C607.725 243.302 610.961 240.254 613.798 237.622C616.641 234.983 619.578 231.444 618.635 227.683C617.53 223.284 611.902 221.845 607.392 222.365C602.883 222.886 598.226 224.5 593.937 223.009C592.473 222.5 591.151 221.649 590.081 220.528C589.01 219.406 588.223 218.046 587.782 216.559C587.342 215.073 587.262 213.503 587.549 211.98C587.836 210.456 588.482 209.023 589.433 207.799C592.013 204.47 596.71 202.82 598.196 198.872C599.84 194.496 596.506 189.711 592.545 187.219C588.579 184.727 583.864 183.522 580.161 180.655C578.21 179.145 576.613 177.225 575.483 175.032C574.353 172.838 573.718 170.423 573.621 167.957C573.525 165.492 573.97 163.035 574.925 160.759C575.88 158.484 577.322 156.445 579.149 154.787C580.804 153.176 582.929 152.133 585.216 151.81C586.356 151.668 587.514 151.837 588.567 152.299C589.619 152.761 590.527 153.5 591.194 154.436C593.47 158.005 590.843 163.158 593.007 166.797C595.014 170.161 600.051 170.237 603.531 168.441C607.006 166.639 609.639 163.545 612.956 161.468C616.51 159.243 620.713 158.285 624.88 158.748C629.048 159.211 632.938 161.069 635.917 164.02C638.897 166.971 640.792 170.842 641.295 175.006C641.798 179.169 640.88 183.38 638.69 186.956C636.683 190.226 633.688 192.841 631.892 196.228C630.281 199.472 629.818 203.166 630.579 206.706C631.34 210.247 633.28 213.425 636.081 215.72C640.205 218.926 645.715 219.885 649.916 222.986C655.695 227.262 658.041 235.288 656.421 242.29H656.42Z" fill="#37A568"/>
<g filter="url(#filter0_d_983_245)">
<path d="M662.99 228.06C662.546 231.88 660.96 235.46 659.48 239.005C657.994 242.55 656.578 246.23 656.503 250.073C656.438 253.331 657.175 257.11 654.883 259.421C653.21 261.1 650.489 261.246 648.22 260.579C645.95 259.906 643.95 258.567 641.796 257.578C639.65 256.59 637.146 255.958 634.935 256.783C633.962 257.167 633.14 257.854 632.589 258.743C632.21 259.278 631.983 259.906 631.932 260.561C631.882 261.215 632.01 261.87 632.302 262.457C632.84 263.232 633.475 263.934 634.192 264.546C634.177 264.551 634.161 264.553 634.145 264.552C632.105 264.703 630.056 264.677 628.02 264.476C627.57 264.435 627.125 264.382 626.686 264.33C626.26 262.253 626.244 260.113 626.639 258.03C626.93 256.223 627.411 254.453 628.073 252.747C629.723 248.611 632.138 244.522 631.881 240.076C631.624 235.66 628.786 231.892 626.967 227.862C624.324 221.962 623.813 215.326 625.522 209.09C626.61 205.159 628.781 201.275 632.396 199.379C636.011 197.478 641.206 198.326 643.13 201.93C644.224 203.983 644.124 206.504 645.171 208.587C646.476 211.173 649.278 212.612 651.986 213.63C654.695 214.648 657.59 215.478 659.714 217.444C662.539 220.052 663.428 224.241 662.99 228.061V228.06Z" fill="#336148"/>
</g>
<path d="M633.68 251.18C633.558 251.18 633.439 251.142 633.34 251.072C633.241 251.001 633.166 250.901 633.126 250.786C633.087 250.671 633.084 250.547 633.118 250.43C633.153 250.313 633.223 250.21 633.319 250.135C635.873 248.043 637.762 245.254 638.757 242.106C639.751 238.959 639.808 235.59 638.92 232.411C638.343 230.684 637.627 229.007 636.779 227.395C635.94 225.791 635.223 224.127 634.634 222.416C633.494 218.815 633.763 214.132 636.936 211.788C637.06 211.696 637.216 211.658 637.369 211.681C637.522 211.705 637.66 211.788 637.752 211.912C637.844 212.037 637.883 212.192 637.86 212.345C637.838 212.498 637.755 212.636 637.631 212.729C634.922 214.73 634.734 218.858 635.749 222.062C636.322 223.717 637.017 225.327 637.829 226.879C638.706 228.547 639.445 230.283 640.04 232.071C641.023 235.475 640.978 239.093 639.91 242.47C638.843 245.848 636.8 248.835 634.04 251.055C633.937 251.136 633.811 251.18 633.68 251.18Z" fill="white"/>
<path d="M645.07 245.02C644.953 245.02 644.838 244.985 644.741 244.919C644.644 244.853 644.569 244.759 644.526 244.65C643.73 242.635 643.352 240.479 643.416 238.313C643.48 236.147 643.985 234.017 644.9 232.053C645.815 230.089 647.12 228.331 648.737 226.888C650.353 225.445 652.246 224.347 654.301 223.66C654.448 223.613 654.607 223.626 654.744 223.696C654.881 223.765 654.985 223.886 655.034 224.032C655.082 224.178 655.071 224.337 655.004 224.475C654.936 224.613 654.817 224.718 654.671 224.769C652.767 225.406 651.013 226.424 649.515 227.761C648.017 229.098 646.808 230.727 645.96 232.547C645.113 234.367 644.645 236.341 644.585 238.348C644.525 240.355 644.875 242.353 645.613 244.22C645.648 244.309 645.661 244.405 645.651 244.499C645.64 244.594 645.607 244.685 645.553 244.764C645.5 244.843 645.427 244.907 645.343 244.952C645.259 244.997 645.165 245.02 645.07 245.02Z" fill="white"/>
<path d="M598.42 177.91C596.166 177.946 593.941 177.391 591.968 176.299C589.995 175.208 588.343 173.619 587.175 171.69C586.008 169.761 585.366 167.56 585.314 165.306C585.262 163.052 585.802 160.824 586.879 158.843C586.915 158.775 586.965 158.715 587.025 158.667C587.084 158.618 587.153 158.582 587.227 158.56C587.3 158.538 587.378 158.53 587.454 158.538C587.531 158.546 587.605 158.569 587.673 158.606C587.74 158.643 587.8 158.692 587.849 158.752C587.897 158.812 587.933 158.881 587.955 158.954C587.977 159.028 587.984 159.106 587.975 159.182C587.967 159.259 587.944 159.333 587.907 159.4C586.817 161.412 586.338 163.697 586.527 165.977C586.716 168.257 587.566 170.432 588.972 172.236C590.379 174.04 592.281 175.395 594.445 176.135C596.61 176.875 598.943 176.967 601.16 176.401C601.234 176.382 601.312 176.378 601.388 176.389C601.464 176.4 601.537 176.426 601.603 176.465C601.669 176.504 601.727 176.556 601.773 176.618C601.819 176.679 601.853 176.749 601.872 176.823C601.891 176.898 601.895 176.975 601.884 177.051C601.873 177.127 601.847 177.2 601.808 177.267C601.769 177.333 601.717 177.39 601.655 177.436C601.594 177.482 601.524 177.516 601.45 177.535C600.459 177.786 599.442 177.912 598.42 177.91Z" fill="white"/>
<path d="M625.42 197.43C625.293 197.43 625.17 197.389 625.069 197.313C624.968 197.237 624.894 197.13 624.858 197.008C623.629 192.782 626.037 188.458 627.955 185.574C628.198 185.209 628.447 184.843 628.695 184.474C630.618 181.633 632.606 178.696 632.821 175.386C632.925 173.784 632.601 172.182 631.882 170.746C631.163 169.31 630.075 168.091 628.729 167.215C627.384 166.338 625.829 165.835 624.225 165.757C622.621 165.68 621.025 166.03 619.601 166.773C619.533 166.809 619.459 166.831 619.382 166.838C619.305 166.845 619.228 166.837 619.154 166.814C619.081 166.791 619.012 166.753 618.953 166.704C618.894 166.655 618.845 166.594 618.81 166.526C618.774 166.457 618.752 166.383 618.746 166.306C618.739 166.229 618.748 166.152 618.771 166.078C618.794 166.005 618.832 165.937 618.881 165.878C618.931 165.819 618.992 165.77 619.06 165.735C620.668 164.897 622.471 164.501 624.282 164.589C626.093 164.677 627.849 165.245 629.368 166.235C630.887 167.225 632.116 168.601 632.928 170.222C633.74 171.844 634.106 173.652 633.989 175.462C633.753 179.088 631.675 182.16 629.664 185.13C629.417 185.495 629.171 185.859 628.93 186.222C627.141 188.912 624.889 192.923 625.982 196.681C626.007 196.768 626.011 196.86 625.995 196.949C625.979 197.038 625.942 197.122 625.887 197.195C625.833 197.268 625.762 197.327 625.681 197.367C625.6 197.408 625.511 197.429 625.42 197.429V197.43Z" fill="white"/>
<path d="M622.38 250.41C620.767 250.489 619.149 250.321 617.587 249.912C616.747 249.691 615.968 249.283 615.309 248.717C614.65 248.152 614.127 247.445 613.781 246.649C613.438 245.788 613.422 244.831 613.736 243.959C614.05 243.087 614.671 242.359 615.484 241.914C615.625 241.85 615.786 241.845 615.931 241.899C616.076 241.953 616.193 242.063 616.257 242.204C616.322 242.345 616.328 242.505 616.274 242.651C616.22 242.796 616.111 242.914 615.97 242.979C615.429 243.3 615.02 243.805 614.819 244.402C614.618 244.999 614.638 245.648 614.874 246.232C615.162 246.859 615.586 247.415 616.116 247.858C616.646 248.302 617.267 248.622 617.936 248.795C619.387 249.164 620.885 249.314 622.381 249.24C622.536 249.24 622.684 249.302 622.794 249.412C622.904 249.521 622.966 249.67 622.966 249.825C622.966 249.98 622.904 250.129 622.794 250.239C622.684 250.349 622.535 250.41 622.38 250.41Z" fill="white"/>
<path d="M640.7 282.68C637.04 281.626 633.65 279.797 630.76 277.316C627.87 274.835 625.548 271.762 623.952 268.304C623.248 266.76 622.707 265.148 622.336 263.492C622.806 263.62 623.3 263.73 623.812 263.84C624.708 264.035 625.678 264.2 626.684 264.328C627.123 264.376 627.563 264.431 628.014 264.474C630.052 264.673 632.103 264.697 634.144 264.547C634.159 264.548 634.173 264.546 634.187 264.541C634.846 264.492 635.456 264.413 636.017 264.315C638.17 263.937 639.548 263.26 639.634 262.37C639.644 262.205 639.615 262.039 639.548 261.888C639.692 262.089 639.807 262.308 639.89 262.541C644.762 270.39 643.03 277.66 640.7 282.68Z" fill="#E3FF95"/>
<g filter="url(#filter1_d_983_245)">
<path d="M331.9 168.22H223.54V243.715H331.9V168.22Z" fill="#E8DFCA"/>
</g>
<path d="M331.9 50.49H223.54V158.85H331.9V50.49Z" fill="#F5EFE6"/>
<path d="M570.12 50.49H342.94V158.93H570.12V50.49Z" fill="#F5EFE6"/>
<path d="M414.108 168.22H342.94V243.784H414.108V168.22Z" fill="#E8DFCA"/>
<path d="M500.134 168.22H424.57V243.784H500.134V168.22Z" fill="#E8DFCA"/>
<path d="M570.124 168.22H510.59V243.784H570.124V168.22Z" fill="#E8DFCA"/>
</g>
<defs>
<filter id="filter0_d_983_245" x="620.53" y="198.393" width="46.5657" height="74.2554" filterUnits="userSpaceOnUse" color-interpolation-filters="sRGB">
<feFlood flood-opacity="0" result="BackgroundImageFix"/>
<feColorMatrix in="SourceAlpha" type="matrix" values="0 0 0 0 0 0 0 0 0 0 0 0 0 0 0 0 0 0 127 0" result="hardAlpha"/>
<feOffset dy="4"/>
<feGaussianBlur stdDeviation="2"/>
<feColorMatrix type="matrix" values="0 0 0 0 0 0 0 0 0 0 0 0 0 0 0 0 0 0 0.25 0"/>
<feBlend mode="normal" in2="BackgroundImageFix" result="effect1_dropShadow_983_245"/>
<feBlend mode="normal" in="SourceGraphic" in2="effect1_dropShadow_983_245" result="shape"/>
</filter>
<filter id="filter1_d_983_245" x="219.54" y="168.22" width="116.36" height="83.495" filterUnits="userSpaceOnUse" color-interpolation-filters="sRGB">
<feFlood flood-opacity="0" result="BackgroundImageFix"/>
<feColorMatrix in="SourceAlpha" type="matrix" values="0 0 0 0 0 0 0 0 0 0 0 0 0 0 0 0 0 0 127 0" result="hardAlpha"/>
<feOffset dy="4"/>
<feGaussianBlur stdDeviation="2"/>
<feColorMatrix type="matrix" values="0 0 0 0 0 0 0 0 0 0 0 0 0 0 0 0 0 0 0.25 0"/>
<feBlend mode="normal" in2="BackgroundImageFix" result="effect1_dropShadow_983_245"/>
<feBlend mode="normal" in="SourceGraphic" in2="effect1_dropShadow_983_245" result="shape"/>
</filter>
</defs>
</svg>
