<svg width="730" height="146" viewBox="0 0 730 146" fill="none" xmlns="http://www.w3.org/2000/svg">
<g clip-path="url(#clip0_984_432)">
<path d="M1.96083 0.349848L0 2.38829V141.736L1.96083 143.775H25.981L28.0235 141.736V2.38829L25.981 0.349848H1.96083ZM717.091 128.201H713.088L712.679 127.875V125.184L713.088 124.858H717.091C718.072 124.858 718.725 125.51 718.725 126.489C718.725 127.549 718.072 128.201 717.091 128.201ZM721.421 126.489C721.421 123.88 719.706 122.493 717.091 122.493H710.392L710.065 122.82V135.539L710.392 135.866H712.353L712.679 135.539V130.81L713.088 130.484H715.049L715.702 130.81L719.379 135.539L720.032 135.866H721.095L721.421 135.539V133.827L718.725 130.484V130.158C720.686 129.506 721.421 128.201 721.421 126.489ZM715.294 141.084C708.513 141.084 703.365 135.947 703.365 129.18C703.365 122.412 708.513 117.275 715.294 117.275C722.157 117.275 727.222 122.412 727.222 129.18C727.222 135.947 722.157 141.084 715.294 141.084ZM715.294 114.584C707.205 114.584 700.669 121.026 700.669 129.18C700.669 137.333 707.205 143.775 715.294 143.775C723.464 143.775 730 137.333 730 129.18C730 121.026 723.464 114.584 715.294 114.584ZM677.221 43.9726C659.165 43.9726 655.243 51.8817 655.243 51.8817H653.201L651.24 45.9295L649.198 43.9726H627.22L625.177 45.9295V141.736L627.22 143.775H651.24L653.201 141.736V93.8737C653.201 75.8538 659.165 67.8631 675.178 67.8631H689.231L691.192 65.9062V45.9295L689.231 43.9726H677.221ZM579.343 83.8445H547.316L545.355 81.8876C545.355 79.8492 547.316 65.9062 563.33 65.9062C579.343 65.9062 581.386 79.8492 581.386 81.8876L579.343 83.8445ZM563.33 41.9341C531.303 41.9341 515.371 65.9062 515.371 93.8737C515.371 121.76 531.303 145.732 565.372 145.732C595.356 145.732 605.406 127.793 607.366 115.807L605.406 113.769H581.386L579.343 115.807C577.382 119.803 571.336 121.76 565.372 121.76C549.359 121.76 545.355 109.855 545.355 105.86L547.316 103.821H609.327L611.37 101.864V93.8737C611.37 65.9062 595.356 41.9341 563.33 41.9341ZM475.501 0.349848L473.54 2.38829V141.736L475.501 143.775H499.521L501.482 141.736V2.38829L499.521 0.349848H475.501ZM427.624 0.349848L425.663 2.38829V141.736L427.624 143.775H451.644L453.687 141.736V2.38829L451.644 0.349848H427.624ZM361.855 121.76C347.802 121.76 339.795 111.812 339.795 93.8737C339.795 75.8538 347.802 65.9062 361.855 65.9062C375.825 65.9062 383.832 75.8538 383.832 93.8737C383.832 111.812 375.825 121.76 361.855 121.76ZM361.855 41.9341C331.788 41.9341 311.772 61.9109 311.772 93.8737C311.772 125.755 331.788 145.732 361.855 145.732C391.839 145.732 411.856 125.755 411.856 93.8737C411.856 61.9109 391.839 41.9341 361.855 41.9341ZM292 43.9726C273.944 43.9726 269.941 51.8817 269.941 51.8817H267.98L265.937 45.9295L263.977 43.9726H241.917L239.956 45.9295V141.736L241.917 143.775H265.937L267.98 141.736V93.8737C267.98 75.8538 273.944 67.8631 289.957 67.8631H304.01L305.971 65.9062V45.9295L304.01 43.9726H292ZM152.618 43.9726L150.575 45.9295V65.9062L152.618 67.8631H166.589L168.631 69.9016V113.769C168.631 135.784 184.563 143.775 202.619 143.775H220.593L222.636 141.736V121.76L220.593 119.803H202.619C198.616 119.803 196.573 117.764 196.573 113.769V69.9016L198.616 67.8631H220.593L222.636 65.9062V45.9295L220.593 43.9726H152.618ZM168.304 22.202V2.30675L166.344 0.268311H145.837C128.516 0.268311 113.074 7.68825 111.931 27.7465C111.849 28.5619 111.849 33.128 111.849 33.9434V41.9341L109.888 43.9726H95.8355L93.8746 45.9295V65.9062L95.8355 67.8631H109.888L111.849 69.9016V141.736L113.891 143.775H137.83L139.872 141.736V30.1927C139.872 26.1973 141.833 24.2404 145.837 24.2404H166.344L168.304 22.202ZM54.0045 43.9726L52.0436 45.9295V141.736L54.0045 143.775H78.0246L79.9854 141.736V45.9295L78.0246 43.9726H54.0045ZM54.0045 0.268311L52.0436 2.30675V22.202L54.0045 24.2404H78.0246L79.9854 22.202V2.30675L78.0246 0.268311H54.0045Z" fill="#F5EFE6"/>
</g>
<defs>
<clipPath id="clip0_984_432">
<rect width="730" height="146" fill="white"/>
</clipPath>
</defs>
</svg>
