<svg width="20" height="24" viewBox="0 0 20 24" fill="none"
  xmlns="http://www.w3.org/2000/svg">
  <path d="M10.0072 24C9.66683 24.0015 9.33082 23.9269 9.02629 23.7821C8.72175 23.6373 8.45721 23.4264 8.25397 23.1663L1.84278 15.0325C0.781991 13.6078 0.152987 11.9328 0.0245565 10.1906C-0.103874 8.44838 0.273216 6.70607 1.11459 5.15423C1.95595 3.60239 3.2292 2.30077 4.79508 1.39172C6.36095 0.482681 8.15915 0.00122223 9.99302 2.32401e-06C11.8269 -0.00121759 13.6258 0.477849 15.193 1.38481C16.7602 2.29177 18.0354 3.59169 18.879 5.14241C19.7226 6.69313 20.1023 8.43493 19.9764 10.1773C19.8505 11.9197 19.224 13.5956 18.1653 15.0217L11.7617 23.1639C11.5585 23.4244 11.2938 23.6358 10.9891 23.781C10.6843 23.9263 10.348 24.0013 10.0072 24ZM9.99707 1.23809C7.85599 1.23168 5.78892 1.98378 4.19773 3.34815C2.60208 4.70503 1.58513 6.57266 1.33993 8.59649C1.09473 10.6203 1.63836 12.6594 2.86761 14.3267L9.26614 22.4425C9.35193 22.5522 9.46355 22.6412 9.59204 22.7024C9.72052 22.7636 9.86229 22.7952 10.0059 22.7947C10.1499 22.7949 10.2919 22.7632 10.4208 22.702C10.5496 22.6409 10.6617 22.552 10.7483 22.4425L17.1379 14.3183C18.0097 13.1434 18.5456 11.7727 18.6929 10.3409C18.8402 8.90907 18.5939 7.46539 17.9781 6.15168C17.3623 4.83797 16.3982 3.69942 15.1807 2.84788C13.9631 1.99634 12.5338 1.46112 11.0333 1.29479C10.6893 1.25737 10.3433 1.23844 9.99707 1.23809Z" fill="#272829"/>
  <path d="M10 12.5716C9.41831 12.5716 8.84966 12.3873 8.36599 12.0419C7.88231 11.6966 7.50533 11.2057 7.28272 10.6315C7.06011 10.0572 7.00187 9.42526 7.11535 8.81561C7.22884 8.20595 7.50896 7.64595 7.92029 7.20641C8.33162 6.76688 8.85569 6.46755 9.42622 6.34628C9.99675 6.22501 10.5881 6.28725 11.1256 6.52513C11.663 6.763 12.1223 7.16583 12.4455 7.68267C12.7687 8.19951 12.9412 8.80715 12.9412 9.42875C12.9412 10.2623 12.6313 11.0617 12.0797 11.6511C11.5282 12.2405 10.7801 12.5716 10 12.5716ZM10 7.54303C9.65099 7.54303 9.3098 7.65363 9.0196 7.86083C8.72939 8.06804 8.50321 8.36255 8.36964 8.70712C8.23607 9.05168 8.20113 9.43084 8.26922 9.79663C8.33731 10.1624 8.50538 10.4984 8.75218 10.7621C8.99898 11.0259 9.31342 11.2055 9.65574 11.2782C9.99806 11.351 10.3529 11.3136 10.6753 11.1709C10.9978 11.0282 11.2734 10.7865 11.4673 10.4764C11.6612 10.1663 11.7647 9.80171 11.7647 9.42875C11.7647 8.92862 11.5788 8.44899 11.2479 8.09535C10.9169 7.74171 10.468 7.54303 10 7.54303Z" fill="#272829"/>
</svg>
