<svg width="50" height="50" viewBox="0 0 50 50" fill="none" xmlns="http://www.w3.org/2000/svg">
<path d="M2.30958 9.50146L2.34585 9.48024L2.38021 9.45606L14.1819 1.15071V41.9218L4.82821 48.2103L4.82571 48.212C4.81443 48.2196 4.79675 48.2306 4.76563 48.2477C4.37515 48.4604 3.93968 48.5647 3.50122 48.5522C3.0623 48.5398 2.63228 48.4107 2.25291 48.1754C1.87334 47.94 1.55642 47.6055 1.33564 47.2021C1.11479 46.7985 0.998546 46.341 1.00002 45.8746V45.8715L1.00002 11.8379L1.00002 11.8352C0.998712 11.3573 1.12101 10.8891 1.35247 10.4787C1.58383 10.0685 1.91506 9.73221 2.30958 9.50146ZM1.86858e-05 11.8379V45.8715V11.8379ZM19.7499 1.09777L30.2498 8.13675V48.9026L19.7499 41.8872V1.09777ZM45.2239 1.75308L45.2326 1.74849L45.2412 1.74373C45.6291 1.52939 46.0629 1.42422 46.4998 1.43676C46.9355 1.44927 47.3623 1.57856 47.738 1.81408C48.1242 2.06136 48.4452 2.40867 48.6674 2.825C48.8902 3.24251 49.0053 3.71388 48.9998 4.19322L48.9997 4.19322V4.2046V38.151L48.9998 38.1526C49.0005 38.634 48.876 39.1053 48.6409 39.5174C48.406 39.9293 48.0701 40.2657 47.671 40.4946L47.6303 40.5179L47.5921 40.5448L35.8213 48.8434V8.066L45.1756 1.78346L45.1824 1.7789L45.1891 1.77424C45.2004 1.76637 45.212 1.75932 45.2239 1.75308Z" fill="white" stroke="#272829" stroke-width="2"/>
</svg>
