<svg width="680" height="216" viewBox="0 0 680 216" fill="none" xmlns="http://www.w3.org/2000/svg">
<g clip-path="url(#clip0_984_394)">
<path d="M35.4365 216C15.3 216 0 206.02 0 188.702H21.8535C21.8535 196.346 27.625 200.083 35.275 200.083C42.143 200.083 46.325 197.595 46.325 192.6C46.325 177.312 1.3685 191.037 1.3685 158.906C1.3685 143.932 15.1045 134.886 33.0565 134.886C52.411 134.886 67.0565 146.429 67.0565 161.217H45.271C45.271 155.271 40.12 150.761 33.252 150.761C27.2 150.795 22.95 153.445 22.95 157.819C22.95 171.698 68.5355 159.068 68.5355 191.352C68.5355 206.802 54.3235 215.983 35.4365 215.983" fill="#272829"/>
<path d="M113.178 199.31C122.528 199.31 130.662 193.849 130.662 183.402V179.342C119.893 184.183 103.343 182.739 103.343 191.819C103.343 196.813 107.712 199.31 113.178 199.31ZM131.13 202.589C126.132 212.101 117.079 216 106.31 216C93.3555 216 80.7075 209.137 80.7075 193.696C80.7075 160.63 130.348 175.443 130.348 160.163C130.348 154.702 125.044 151.432 118.014 151.432C110.211 151.432 105.366 155.679 105.366 163.323H83.045C83.045 142.887 100.53 134.937 118.635 134.937C136.587 134.937 152.975 142.114 152.975 160.834V214.488H131.121V202.597L131.13 202.589Z" fill="#272829"/>
<path d="M199.189 136.449H218.391V154.693H199.189V214.437H176.554V154.693H165.317V136.449H176.554V125.407C176.554 105.753 189.975 95.9263 207.774 95.9263C212.143 95.9263 216.674 96.3934 219.479 97.3277V116.362C216.67 115.386 213.713 114.909 210.741 114.952C203.558 114.952 199.189 118.859 199.189 126.189V136.449Z" fill="#272829"/>
<path d="M248.37 168.419H283.645C281.775 158.601 275.528 153.445 266.008 153.445C256.488 153.445 250.24 158.601 248.37 168.419ZM305.15 181.686H248.2C250.07 191.98 256.318 197.442 266.62 197.442C273.802 197.442 278.52 194.945 280.67 189.797H303.62C298.784 206.954 285.201 216 265.999 216C243.049 216 226.508 199.31 226.508 175.452C226.508 151.593 243.1 134.895 266.05 134.895C289 134.895 305.541 151.585 305.541 175.452C305.541 177.635 305.388 179.699 305.227 181.686" fill="#272829"/>
<path d="M338.75 175.443C338.75 187.767 346.553 195.879 357.17 195.879C367.939 195.879 375.742 187.767 375.742 175.443C375.742 163.119 367.939 155.008 357.17 155.008C346.553 155.008 338.75 163.127 338.75 175.443ZM376.218 204.457C373.483 208.069 369.941 210.993 365.876 212.996C361.811 215 357.334 216.029 352.801 216C331.551 216 316.429 199.624 316.429 175.452C316.429 151.118 331.568 134.895 352.801 134.895C357.2 134.886 361.545 135.863 365.517 137.753C369.488 139.643 372.985 142.399 375.751 145.818V97.4636H398.386V214.454H376.21V204.457H376.218Z" fill="#272829"/>
<path d="M441.312 214.446H418.676V136.458H440.53V150.048C445.681 140.373 454.58 134.92 465.664 134.92C466.973 134.849 468.285 134.954 469.566 135.235V158.32C466.949 157.453 464.205 157.031 461.448 157.072C448.647 157.072 441.312 163.467 441.312 175.01V214.463V214.446Z" fill="#272829"/>
<path d="M505.784 136.449H483.148V214.437H505.784V136.449Z" fill="#272829"/>
<path d="M570.885 136.449L555.738 198.996L540.6 136.449H517.964L539.036 214.437H572.441L593.521 136.449H570.885Z" fill="#272829"/>
<path d="M622.863 168.419H658.146C656.276 158.601 650.029 153.445 640.509 153.445C630.989 153.445 624.741 158.601 622.863 168.419ZM679.685 181.686H622.735C624.605 191.98 630.853 197.442 641.155 197.442C648.337 197.442 653.055 194.945 655.205 189.797H678.155C673.319 206.954 659.736 216 640.534 216C617.584 216 601.043 199.31 601.043 175.452C601.043 151.593 617.593 134.895 640.534 134.895C663.476 134.895 680 151.585 680 175.443C680 177.635 679.847 179.69 679.685 181.686Z" fill="#272829"/>
<path d="M576.139 33.9743L576.334 34.2206C577.071 35.1962 578.018 35.9932 579.106 36.552C580.193 37.1109 581.393 37.4172 582.616 37.4482C584.023 37.4477 585.403 37.062 586.606 36.3329C587.809 35.6038 588.79 34.5593 589.44 33.3127C590.091 32.0661 590.388 30.6651 590.298 29.2619C590.208 27.8587 589.736 26.5069 588.931 25.3533C588.2 24.3001 570.903 0 536.418 0C501.934 0 484.628 24.3001 483.905 25.3363C482.748 27.0104 482.299 29.0736 482.658 31.0766C483.016 33.0795 484.152 34.8599 485.818 36.0297C487.491 37.1584 489.534 37.5993 491.524 37.2608C493.514 36.9223 495.297 35.8304 496.502 34.2121L496.723 33.9233C501.05 28.3515 513.562 15.3988 536.418 15.3988C559.275 15.3988 571.812 28.377 576.139 33.9743Z" fill="#272829"/>
<path d="M505.792 77.1642C505.798 79.1613 505.209 81.115 504.102 82.7779C502.996 84.4408 501.42 85.738 499.575 86.5054C497.729 87.2728 495.698 87.4757 493.737 87.0886C491.776 86.7015 489.975 85.7416 488.56 84.3306C487.146 82.9196 486.182 81.1209 485.791 79.1624C485.401 77.2038 485.6 75.1734 486.365 73.3283C487.13 71.4831 488.426 69.9063 490.088 68.7975C491.75 67.6886 493.704 67.0976 495.703 67.0993C498.379 67.1038 500.944 68.1686 502.835 70.0602C504.727 71.9517 505.79 74.5157 505.792 77.1896M495.703 53.8408C491.087 53.8408 486.574 55.2087 482.735 57.7715C478.897 60.3343 475.905 63.9769 474.139 68.2387C472.372 72.5005 471.91 77.19 472.81 81.7143C473.711 86.2386 475.934 90.3944 479.198 93.6563C482.463 96.9181 486.622 99.1394 491.149 100.039C495.677 100.939 500.37 100.477 504.635 98.7121C508.9 96.9468 512.546 93.9574 515.11 90.1219C517.675 86.2864 519.044 81.7771 519.044 77.1642C519.037 70.9805 516.576 65.052 512.2 60.6795C507.824 56.307 501.891 53.8476 495.703 53.8408Z" fill="#272829"/>
<path d="M587.766 77.1642C587.771 79.1613 587.183 81.115 586.076 82.7779C584.97 84.4408 583.394 85.738 581.548 86.5054C579.703 87.2728 577.672 87.4757 575.711 87.0886C573.75 86.7015 571.949 85.7416 570.534 84.3306C569.12 82.9196 568.156 81.1209 567.765 79.1624C567.375 77.2038 567.574 75.1734 568.339 73.3283C569.104 71.4831 570.4 69.9063 572.062 68.7975C573.724 67.6886 575.678 67.0976 577.677 67.0993C580.353 67.1038 582.918 68.1686 584.809 70.0602C586.701 71.9517 587.764 74.5157 587.766 77.1896M577.668 53.8408C573.052 53.8408 568.539 55.2087 564.701 57.7715C560.862 60.3343 557.871 63.9769 556.104 68.2387C554.338 72.5005 553.875 77.19 554.776 81.7143C555.677 86.2386 557.9 90.3944 561.164 93.6563C564.428 96.9181 568.587 99.1394 573.115 100.039C577.643 100.939 582.336 100.477 586.601 98.7121C590.866 96.9468 594.511 93.9574 597.076 90.1219C599.64 86.2864 601.009 81.7771 601.009 77.1642C601.003 70.9805 598.541 65.052 594.166 60.6795C589.79 56.307 583.857 53.8476 577.668 53.8408Z" fill="#272829"/>
</g>
<defs>
<clipPath id="clip0_984_394">
<rect width="680" height="216" fill="white"/>
</clipPath>
</defs>
</svg>
