<svg width="925" height="507" viewBox="0 0 925 507" fill="none" xmlns="http://www.w3.org/2000/svg">
<g clip-path="url(#clip0_983_47)">
<mask id="mask0_983_47" style="mask-type:luminance" maskUnits="userSpaceOnUse" x="-65" y="-83" width="990" height="612">
<path d="M925 -83H-65V529H925V-83Z" fill="white"/>
</mask>
<g mask="url(#mask0_983_47)">
<path d="M197.75 146.11H699.86C703.9 146.11 707.774 147.715 710.631 150.571C713.488 153.428 715.092 157.302 715.092 161.342V489.502H182.512V161.342C182.512 159.342 182.906 157.361 183.671 155.513C184.437 153.665 185.559 151.986 186.973 150.571C188.388 149.157 190.067 148.035 191.915 147.27C193.763 146.504 195.744 146.11 197.744 146.11H197.75Z" fill="#123735"/>
<path d="M708.09 161.34V482.5H189.51V161.34C189.51 159.157 190.377 157.063 191.921 155.519C193.464 153.976 195.558 153.108 197.741 153.108H699.861C702.044 153.109 704.138 153.976 705.681 155.52C707.225 157.063 708.092 159.157 708.092 161.34H708.09Z" fill="white"/>
<path d="M699.86 146.11H197.75C193.71 146.11 189.836 147.715 186.979 150.571C184.123 153.428 182.518 157.302 182.518 161.342V190.516H715.098V161.342C715.098 159.342 714.704 157.361 713.938 155.513C713.173 153.665 712.051 151.986 710.636 150.571C709.222 149.157 707.542 148.035 705.694 147.269C703.846 146.504 701.865 146.11 699.865 146.11H699.86Z" fill="#123735"/>
<path d="M218.34 168.31C218.34 169.394 218.018 170.453 217.416 171.354C216.815 172.254 215.959 172.956 214.958 173.371C213.957 173.786 212.856 173.894 211.793 173.683C210.73 173.471 209.754 172.95 208.988 172.184C208.222 171.417 207.7 170.441 207.489 169.379C207.278 168.316 207.386 167.215 207.801 166.214C208.215 165.213 208.918 164.357 209.818 163.755C210.719 163.153 211.778 162.832 212.862 162.832C213.581 162.832 214.294 162.974 214.958 163.249C215.623 163.524 216.227 163.928 216.735 164.437C217.244 164.945 217.647 165.549 217.923 166.214C218.198 166.878 218.34 167.591 218.34 168.31Z" fill="#7F9F80"/>
<path d="M243.91 168.31C243.91 169.394 243.588 170.453 242.986 171.354C242.385 172.254 241.529 172.956 240.528 173.371C239.527 173.786 238.426 173.894 237.363 173.683C236.3 173.471 235.324 172.95 234.558 172.183C233.792 171.417 233.27 170.441 233.059 169.379C232.848 168.316 232.956 167.215 233.371 166.214C233.786 165.213 234.488 164.357 235.389 163.755C236.289 163.153 237.348 162.832 238.432 162.832C239.151 162.832 239.864 162.974 240.528 163.249C241.193 163.525 241.797 163.928 242.305 164.437C242.814 164.945 243.217 165.549 243.493 166.214C243.768 166.879 243.91 167.591 243.91 168.31Z" fill="#7F9F80"/>
<path d="M269.47 168.31C269.47 169.394 269.148 170.453 268.547 171.354C267.945 172.254 267.089 172.957 266.088 173.371C265.087 173.786 263.986 173.894 262.923 173.683C261.86 173.472 260.884 172.95 260.118 172.184C259.352 171.418 258.83 170.442 258.619 169.379C258.408 168.316 258.516 167.215 258.931 166.214C259.345 165.213 260.047 164.357 260.948 163.755C261.849 163.153 262.908 162.832 263.992 162.832C264.711 162.832 265.423 162.974 266.088 163.249C266.753 163.524 267.357 163.928 267.865 164.437C268.374 164.945 268.778 165.549 269.053 166.214C269.328 166.878 269.47 167.591 269.47 168.31Z" fill="#7F9F80"/>
<path d="M686.8 178.87H615.689C612.754 178.87 609.939 177.704 607.864 175.629C605.789 173.553 604.623 170.739 604.623 167.804C604.623 164.869 605.789 162.054 607.864 159.979C609.939 157.904 612.754 156.738 615.689 156.738H686.8C689.735 156.738 692.549 157.904 694.625 159.979C696.7 162.054 697.866 164.869 697.866 167.804C697.866 170.739 696.7 173.553 694.625 175.629C692.549 177.704 689.735 178.87 686.8 178.87ZM615.689 158.334C613.177 158.334 610.768 159.332 608.992 161.108C607.216 162.884 606.219 165.292 606.219 167.804C606.219 170.315 607.216 172.724 608.992 174.5C610.768 176.276 613.177 177.274 615.689 177.274H686.8C689.312 177.274 691.72 176.276 693.496 174.5C695.272 172.724 696.27 170.315 696.27 167.804C696.27 165.292 695.272 162.884 693.496 161.108C691.72 159.332 689.312 158.334 686.8 158.334H615.689Z" fill="#7F9F80"/>
<path d="M653.77 233.44C652.805 232.27 651.73 231.195 650.56 230.23C646.323 226.726 640.994 224.814 635.496 224.822H262.106C255.833 224.835 249.822 227.336 245.391 231.776C240.96 236.216 238.471 242.232 238.471 248.505C238.471 254.778 240.96 260.794 245.391 265.234C249.822 269.674 255.833 272.175 262.106 272.188H635.496C639.987 272.188 644.385 270.911 648.178 268.506C651.97 266.102 655.001 262.668 656.917 258.607C658.832 254.545 659.554 250.023 658.997 245.567C658.44 241.111 656.627 236.905 653.77 233.44ZM241.62 248.505C241.626 243.072 243.787 237.864 247.628 234.022C251.47 230.181 256.678 228.02 262.111 228.014H593.581V268.996H262.111C256.678 268.99 251.47 266.829 247.628 262.987C243.787 259.146 241.626 253.937 241.62 248.505Z" fill="#123735"/>
<path d="M620.14 257.2C617.595 257.2 615.106 256.445 612.989 255.031C610.873 253.617 609.223 251.607 608.248 249.255C607.274 246.903 607.019 244.315 607.515 241.818C608.012 239.322 609.238 237.028 611.038 235.228C612.838 233.428 615.131 232.202 617.628 231.705C620.125 231.208 622.713 231.463 625.065 232.437C627.416 233.411 629.427 235.061 630.841 237.178C632.255 239.294 633.01 241.783 633.01 244.329C633.006 247.741 631.649 251.012 629.236 253.425C626.824 255.838 623.552 257.195 620.14 257.2ZM620.14 233.852C618.068 233.851 616.042 234.466 614.319 235.617C612.596 236.768 611.253 238.404 610.46 240.319C609.667 242.233 609.459 244.34 609.864 246.372C610.268 248.405 611.266 250.272 612.731 251.737C614.196 253.202 616.063 254.2 618.095 254.604C620.128 255.009 622.234 254.801 624.149 254.008C626.063 253.215 627.7 251.872 628.851 250.149C630.002 248.426 630.617 246.401 630.617 244.329C630.613 241.551 629.509 238.888 627.545 236.924C625.581 234.96 622.918 233.855 620.14 233.852Z" fill="white"/>
<path d="M637.54 265.55C637.238 265.55 636.939 265.491 636.661 265.376C636.382 265.26 636.129 265.091 635.916 264.877L625.836 254.797L629.085 251.548L639.164 261.628C639.486 261.949 639.704 262.358 639.793 262.804C639.882 263.25 639.836 263.712 639.662 264.131C639.488 264.551 639.194 264.91 638.816 265.162C638.438 265.415 637.994 265.55 637.54 265.55Z" fill="white"/>
<path opacity="0.55" d="M260.34 234.23H257.946V262.788H260.34V234.23Z" fill="#272829"/>
<path d="M560.63 295.92H683.22C684.08 295.92 684.904 296.262 685.512 296.869C686.12 297.477 686.461 298.302 686.461 299.161V345.12C686.461 345.979 686.12 346.803 685.512 347.411C684.904 348.019 684.08 348.36 683.22 348.36H560.63C559.77 348.36 558.946 348.019 558.338 347.411C557.73 346.803 557.389 345.979 557.389 345.12V299.161C557.389 298.735 557.473 298.314 557.635 297.921C557.798 297.528 558.037 297.17 558.338 296.869C558.639 296.569 558.996 296.33 559.389 296.167C559.782 296.004 560.205 295.92 560.63 295.92Z" fill="#123735"/>
<path d="M246.48 292H518.52C520.769 292 522.926 292.953 524.516 294.648C526.107 296.344 527 298.644 527 301.042V453.962C527 456.36 526.107 458.66 524.516 460.356C522.926 462.051 520.769 463.004 518.52 463.004H246.48C244.231 463.004 242.074 462.051 240.484 460.356C238.893 458.66 238 456.36 238 453.962V301.042C238 298.644 238.893 296.344 240.484 294.648C242.074 292.953 244.231 292 246.48 292Z" fill="#F5EFE6"/>
<path opacity="0.75" d="M509.53 304.09H252.41C249.704 304.09 247.509 306.285 247.509 308.991V308.992C247.509 311.699 249.704 313.893 252.41 313.893H509.53C512.237 313.893 514.431 311.699 514.431 308.992V308.991C514.431 306.285 512.237 304.09 509.53 304.09Z" fill="#D3C7B4"/>
<path opacity="0.75" d="M252.41 321.32H509.53C510.83 321.32 512.077 321.836 512.996 322.755C513.915 323.674 514.431 324.921 514.431 326.221C514.431 327.52 513.915 328.767 512.996 329.686C512.077 330.605 510.83 331.122 509.53 331.122H252.41C251.111 331.122 249.864 330.605 248.945 329.686C248.026 328.767 247.51 327.521 247.51 326.221C247.51 324.921 248.026 323.675 248.945 322.755C249.864 321.836 251.11 321.32 252.41 321.32Z" fill="#D3C7B4"/>
<path opacity="0.75" d="M509.53 348.36H252.41C251.767 348.36 251.129 348.234 250.535 347.987C249.94 347.741 249.4 347.38 248.945 346.925C248.49 346.47 248.129 345.93 247.882 345.335C247.636 344.74 247.509 344.103 247.509 343.46C247.509 342.16 248.026 340.913 248.945 339.994C249.864 339.075 251.11 338.559 252.41 338.559H509.53C510.83 338.559 512.077 339.075 512.996 339.994C513.915 340.913 514.431 342.16 514.431 343.46C514.431 344.103 514.304 344.74 514.058 345.335C513.812 345.93 513.451 346.47 512.996 346.925C512.541 347.38 512 347.741 511.406 347.987C510.811 348.234 510.174 348.36 509.53 348.36Z" fill="#D3C7B4"/>
<path opacity="0.75" d="M509.53 365.59H252.41C251.767 365.59 251.129 365.463 250.535 365.217C249.94 364.971 249.4 364.61 248.945 364.155C248.49 363.7 248.129 363.159 247.882 362.565C247.636 361.97 247.509 361.333 247.509 360.689C247.509 359.39 248.026 358.143 248.945 357.224C249.864 356.305 251.11 355.789 252.41 355.789H509.53C510.83 355.789 512.077 356.305 512.996 357.224C513.915 358.143 514.431 359.39 514.431 360.689C514.431 361.333 514.304 361.97 514.058 362.565C513.812 363.159 513.451 363.7 512.996 364.155C512.541 364.61 512 364.971 511.406 365.217C510.811 365.463 510.174 365.59 509.53 365.59Z" fill="#D3C7B4"/>
<path opacity="0.75" d="M509.53 382.83H252.41C251.11 382.83 249.864 382.314 248.945 381.395C248.026 380.476 247.509 379.229 247.509 377.929C247.509 376.629 248.026 375.383 248.945 374.464C249.864 373.545 251.11 373.028 252.41 373.028H509.53C510.83 373.028 512.077 373.545 512.996 374.464C513.915 375.383 514.431 376.629 514.431 377.929C514.431 379.229 513.915 380.476 512.996 381.395C512.077 382.314 510.83 382.83 509.53 382.83Z" fill="#D3C7B4"/>
<path opacity="0.75" d="M509.53 400.06H252.41C251.11 400.06 249.864 399.544 248.945 398.624C248.026 397.705 247.509 396.459 247.509 395.159C247.509 393.859 248.026 392.613 248.945 391.694C249.864 390.774 251.11 390.258 252.41 390.258H509.53C510.83 390.258 512.077 390.774 512.996 391.694C513.915 392.613 514.431 393.859 514.431 395.159C514.431 396.459 513.915 397.705 512.996 398.624C512.077 399.544 510.83 400.06 509.53 400.06Z" fill="#D3C7B4"/>
<path opacity="0.75" d="M509.53 417.3H252.41C251.11 417.3 249.864 416.783 248.945 415.864C248.026 414.945 247.509 413.699 247.509 412.399C247.509 411.099 248.026 409.852 248.945 408.933C249.864 408.014 251.11 407.498 252.41 407.498H509.53C510.83 407.498 512.077 408.014 512.996 408.933C513.915 409.852 514.431 411.099 514.431 412.399C514.431 413.699 513.915 414.945 512.996 415.864C512.077 416.783 510.83 417.3 509.53 417.3Z" fill="#D3C7B4"/>
<path opacity="0.75" d="M509.53 434.53H252.41C251.11 434.53 249.864 434.013 248.945 433.094C248.026 432.175 247.509 430.928 247.509 429.629C247.509 428.329 248.026 427.082 248.945 426.163C249.864 425.244 251.11 424.728 252.41 424.728H509.53C510.83 424.728 512.077 425.244 512.996 426.163C513.915 427.082 514.431 428.329 514.431 429.629C514.431 430.928 513.915 432.175 512.996 433.094C512.077 434.013 510.83 434.53 509.53 434.53Z" fill="#D3C7B4"/>
<path opacity="0.75" d="M509.53 451.77H252.41C251.11 451.77 249.864 451.254 248.945 450.335C248.026 449.416 247.509 448.169 247.509 446.869C247.509 445.57 248.026 444.323 248.945 443.404C249.864 442.485 251.11 441.969 252.41 441.969H509.53C510.83 441.969 512.077 442.485 512.996 443.404C513.915 444.323 514.431 445.57 514.431 446.869C514.431 448.169 513.915 449.416 512.996 450.335C512.077 451.254 510.83 451.77 509.53 451.77Z" fill="#D3C7B4"/>
<path d="M682.02 364.53H561.83C559.377 364.53 557.389 366.518 557.389 368.971V458.568C557.389 461.02 559.377 463.009 561.83 463.009H682.02C684.473 463.009 686.461 461.02 686.461 458.568V368.971C686.461 366.518 684.473 364.53 682.02 364.53Z" fill="#F5EFE6"/>
<path opacity="0.75" d="M682.06 363.27H561.78C560.613 363.27 559.494 363.734 558.668 364.559C557.843 365.384 557.38 366.503 557.38 367.67V379.254H686.46V367.67C686.46 366.503 685.996 365.384 685.171 364.559C684.346 363.734 683.227 363.27 682.06 363.27Z" fill="#D3C7B4"/>
<path opacity="0.75" d="M669 400.06H574.844C573.545 400.06 572.298 399.544 571.379 398.624C570.46 397.705 569.943 396.459 569.943 395.159C569.943 393.859 570.46 392.613 571.379 391.694C572.298 390.774 573.545 390.258 574.844 390.258H669C670.3 390.258 671.547 390.774 672.466 391.694C673.385 392.613 673.901 393.859 673.901 395.159C673.901 396.459 673.385 397.705 672.466 398.624C671.547 399.544 670.3 400.06 669 400.06Z" fill="#D3C7B4"/>
<path opacity="0.75" d="M669 417.3H574.844C573.545 417.3 572.298 416.783 571.379 415.864C570.46 414.945 569.943 413.699 569.943 412.399C569.943 411.099 570.46 409.852 571.379 408.933C572.298 408.014 573.545 407.498 574.844 407.498H669C670.3 407.498 671.547 408.014 672.466 408.933C673.385 409.852 673.901 411.099 673.901 412.399C673.901 413.699 673.385 414.945 672.466 415.864C671.547 416.783 670.3 417.3 669 417.3Z" fill="#D3C7B4"/>
<path opacity="0.75" d="M669 434.53H574.844C573.545 434.53 572.298 434.013 571.379 433.094C570.46 432.175 569.943 430.928 569.943 429.629C569.943 428.329 570.46 427.082 571.379 426.163C572.298 425.244 573.545 424.728 574.844 424.728H669C670.3 424.728 671.547 425.244 672.466 426.163C673.385 427.082 673.901 428.329 673.901 429.629C673.901 430.928 673.385 432.175 672.466 433.094C671.547 434.013 670.3 434.53 669 434.53Z" fill="#D3C7B4"/>
<path opacity="0.75" d="M669 451.77H574.844C573.545 451.77 572.298 451.254 571.379 450.335C570.46 449.416 569.943 448.169 569.943 446.869C569.943 445.57 570.46 444.323 571.379 443.404C572.298 442.485 573.545 441.969 574.844 441.969H669C670.3 441.969 671.547 442.485 672.466 443.404C673.385 444.323 673.901 445.57 673.901 446.869C673.901 448.169 673.385 449.416 672.466 450.335C671.547 451.254 670.3 451.77 669 451.77Z" fill="#D3C7B4"/>
<path d="M664.29 339.26L661.213 337.39C661.053 336.582 660.827 335.79 660.536 335.02C660.249 334.49 658.8 332.688 658.459 332.927C658.117 333.166 658.918 334.34 658.718 334.62C658.373 335.105 657.521 335.043 656.667 334.659C656.287 334.488 654.267 333.164 653.973 333.39C653.68 333.617 653.893 335.224 654.692 336.176C655.404 337.14 656.364 337.893 657.47 338.356C658.231 338.539 659.005 338.667 659.784 338.738L662.774 341.931" fill="#F9C5C8"/>
<path d="M718.96 318.66C713.259 314.987 707.76 316.277 701.728 324.058C697.663 329.302 690.443 346.274 685.751 346.707C681.058 347.14 661.656 337.622 661.656 337.622L660.304 339.417C660.304 339.417 675.821 361.015 692.08 361.042C699.946 361.056 717.004 344.567 720.839 338.577C725.669 331.034 723.94 321.869 718.96 318.66Z" fill="#B4C585"/>
<path d="M726.42 500.46C726.42 500.46 715.977 503.623 715.987 506.005C715.992 507.371 731.328 507.012 732.252 506.088C733.731 504.609 731.102 500.132 731.102 500.132L726.42 500.46Z" fill="#0A2236"/>
<path d="M726.42 493.8V500.66C726.587 501.031 726.858 501.345 727.201 501.563C727.544 501.782 727.943 501.896 728.35 501.892C728.847 501.898 729.338 501.791 729.787 501.577C730.236 501.363 730.629 501.05 730.937 500.66L731.102 492.075" fill="#F9C5C8"/>
<path d="M705.48 380.87C704.105 379.114 702.65 411.477 709.393 441.306C715.384 467.808 725.922 496.071 725.922 496.071H731.221C731.221 496.071 734.544 466.841 733.191 453.13C732.544 446.577 731.603 421.72 734.535 414.154C738.135 409.465 740.406 399.29 738.135 389.437C736.293 382.064 734.056 374.796 731.433 367.664" fill="#272829"/>
<path d="M731.22 495.68H725.921V496.479H731.22V495.68Z" fill="#D66121"/>
<path d="M724.95 492.72L724.939 493.519L731.426 493.604L731.436 492.805L724.95 492.72Z" fill="#D66121"/>
<path d="M685.39 500.46C685.39 500.46 674.948 503.623 674.957 506.005C674.962 507.371 690.298 507.012 691.223 506.088C692.701 504.609 690.073 500.132 690.073 500.132L685.39 500.46Z" fill="#0A2236"/>
<path d="M685.39 493.8V500.66C685.557 501.031 685.829 501.345 686.172 501.564C686.515 501.782 686.914 501.897 687.321 501.892C687.817 501.898 688.309 501.791 688.758 501.577C689.206 501.363 689.6 501.05 689.908 500.66L690.073 492.075" fill="#F9C5C8"/>
<path d="M685.03 378.62C681.504 388.905 680.396 406.767 680.396 438.432C680.396 465.602 685.147 496.08 685.147 496.08H690.446C690.446 496.08 701.543 461.707 702.626 455.212C703.708 448.717 708.458 419.996 712.985 413.263C714.804 412.721 722.114 405.24 722.071 395.13C722.027 385.019 711.391 373.749 711.391 373.749" fill="#272829"/>
<path d="M690.44 495.68H685.142V496.479H690.44V495.68Z" fill="#D66121"/>
<path d="M691.25 492.72H684.709V493.518H691.25V492.72Z" fill="#D66121"/>
<path d="M685.03 346.97C683.801 355.672 680.7 380.332 682.595 382.294C684.489 384.257 692.76 385.098 708.111 385.378C723.462 385.659 735.64 384.537 737.264 379.491C738.888 374.444 740.783 328.137 717.574 317.262L705.876 316.695C689.902 320.155 686.259 338.268 685.03 346.97Z" fill="#E3FF95"/>
<path d="M707.38 291.68C705.675 292.022 703.478 295.415 702.535 297.495C701.147 300.557 700.658 306.229 702.263 308.139C703.439 309.538 706.121 310.038 709.642 310.095C712.62 310.143 717.383 309.177 717.383 304.655C717.383 300.132 715.457 290.065 707.38 291.68Z" fill="#F9C5C8"/>
<path d="M707.55 308.84L705.874 316.696C705.874 316.696 710.566 321.094 717.572 317.263L715.493 305.31" fill="#F9C5C8"/>
<path d="M702.75 298.05C702.75 298.05 700.075 300.716 700.073 301.51C700.069 303.012 702.228 302.685 702.228 302.685" fill="#F9C5C8"/>
<path d="M720.38 300.28C720.071 301.848 719.393 303.321 718.402 304.575C717.539 305.607 716.368 306.333 715.061 306.648C714.385 306.662 713.72 306.469 713.158 306.093C712.595 305.718 712.162 305.179 711.915 304.549C711.574 303.886 711.333 303.177 711.059 302.483C710.897 302.074 710.836 301.281 710.41 301.165C710.114 301.085 709.864 301.706 709.562 301.763C709.431 301.794 709.295 301.796 709.163 301.771C709.03 301.746 708.905 301.693 708.794 301.616C708.683 301.54 708.59 301.441 708.519 301.326C708.449 301.211 708.403 301.082 708.386 300.949C708.425 300.277 708.59 299.619 708.873 299.008C709.157 298.393 709.223 297.7 709.06 297.043C708.947 296.765 708.78 296.514 708.568 296.302C708.355 296.091 708.103 295.924 707.825 295.812C707.231 295.576 706.598 295.448 705.959 295.434C705.345 295.353 704.746 295.191 704.175 294.954C703.024 294.57 702.005 293.868 701.237 292.929C700.569 292.058 700.208 290.99 700.212 289.893C700.216 288.795 700.585 287.73 701.259 286.864C701.934 285.998 702.876 285.38 703.94 285.107C705.003 284.835 706.127 284.922 707.135 285.357C707.808 285.661 708.423 286.08 708.952 286.596C709.051 286.715 709.188 286.796 709.34 286.824C709.538 286.833 709.69 286.663 709.827 286.52C710.395 285.97 711.15 285.658 711.94 285.647C712.73 285.636 713.494 285.926 714.077 286.459C714.898 287.269 715.186 288.479 715.89 289.393C716.697 290.297 717.587 291.123 718.55 291.859C719.686 292.829 720.449 294.164 720.709 295.634C720.99 297.186 720.877 298.783 720.38 300.28Z" fill="#151348"/>
<path d="M710.27 301.11C710.485 300.507 711.064 299.992 712.103 300.541C712.776 300.897 712.591 301.886 712.399 302.476C712.305 302.809 712.143 303.117 711.921 303.382C711.699 303.646 711.424 303.86 711.113 304.01C710.961 304.068 710.799 304.094 710.636 304.086C710.473 304.079 710.314 304.038 710.167 303.966C710.021 303.894 709.891 303.793 709.786 303.669C709.68 303.545 709.601 303.401 709.553 303.245" fill="#F9C5C8"/>
<path d="M639.04 185.86C639.04 185.86 574.692 298.66 574.331 299.45H602.765L667.474 185.86H639.04Z" fill="url(#paint0_linear_983_47)"/>
<path d="M682.42 185.86C682.42 185.86 618.072 298.66 617.711 299.45H626.707L691.416 185.86H682.42Z" fill="url(#paint1_linear_983_47)"/>
<path d="M646.62 289.39L635.125 293.158L655.217 354.455L666.712 350.687L646.62 289.39Z" fill="#536B54"/>
<path d="M610.9 199.85C601.373 202.972 592.986 208.85 586.8 216.739C580.613 224.628 576.905 234.174 576.144 244.171C575.383 254.168 577.604 264.165 582.525 272.9C587.446 281.635 594.847 288.714 603.791 293.242C612.736 297.771 622.822 299.545 632.775 298.341C642.728 297.137 652.101 293.009 659.707 286.479C667.314 279.948 672.813 271.308 675.51 261.652C678.206 251.996 677.979 241.757 674.857 232.23C670.669 219.455 661.579 208.867 649.585 202.794C637.59 196.722 623.675 195.662 610.9 199.85ZM640.229 289.331C632.058 292.009 623.276 292.204 614.995 289.891C606.713 287.579 599.303 282.862 593.702 276.338C588.101 269.814 584.56 261.776 583.528 253.239C582.495 244.703 584.017 236.052 587.901 228.381C591.785 220.709 597.856 214.362 605.348 210.141C612.839 205.921 621.414 204.016 629.988 204.669C638.561 205.321 646.749 208.502 653.515 213.807C660.282 219.113 665.322 226.307 668.001 234.477C669.779 239.903 670.471 245.625 670.038 251.318C669.604 257.011 668.054 262.562 665.475 267.656C662.896 272.75 659.34 277.285 655.008 281.004C650.676 284.723 645.654 287.553 640.229 289.331Z" fill="#7F9F80"/>
<path d="M675.81 397.86C674.689 398.227 673.507 398.37 672.331 398.281C671.155 398.191 670.008 397.871 668.956 397.338C667.904 396.806 666.967 396.071 666.199 395.176C665.43 394.281 664.846 393.244 664.478 392.123L639.048 314.534L656.116 308.94L681.547 386.529C681.915 387.649 682.058 388.831 681.968 390.007C681.878 391.183 681.558 392.33 681.025 393.382C680.493 394.435 679.758 395.372 678.863 396.14C677.968 396.908 676.931 397.493 675.81 397.86Z" fill="#7F9F80"/>
<path d="M656.84 344.19L653.524 342.174C653.352 341.304 653.108 340.45 652.795 339.62C652.485 339.049 650.923 337.107 650.556 337.365C650.188 337.622 651.051 338.887 650.836 339.189C650.464 339.712 649.545 339.644 648.625 339.231C648.215 339.047 646.039 337.619 645.722 337.864C645.405 338.108 645.635 339.84 646.496 340.865C647.263 341.905 648.298 342.717 649.49 343.215C650.31 343.413 651.144 343.551 651.984 343.627L655.206 347.068" fill="#F9C5C8"/>
<path d="M715.77 321.99C709.625 318.031 703.699 319.421 697.198 327.807C692.818 333.458 685.037 351.749 679.98 352.216C674.922 352.682 654.013 342.425 654.013 342.425L652.556 344.359C652.556 344.359 669.278 367.635 686.801 367.665C695.278 367.679 713.661 349.91 717.795 343.455C723 335.325 721.136 325.448 715.77 321.99Z" fill="#E3FF95"/>
<path d="M725.78 274.27C725.78 270.906 727.116 267.68 729.495 265.301C731.873 262.922 735.099 261.586 738.463 261.586H760.42C762.088 261.582 763.742 261.906 765.284 262.541C766.827 263.177 768.23 264.11 769.411 265.289C770.593 266.467 771.53 267.867 772.17 269.408C772.81 270.949 773.139 272.601 773.139 274.27C773.139 275.938 772.81 277.591 772.17 279.132C771.53 280.673 770.593 282.073 769.411 283.251C768.23 284.429 766.827 285.363 765.284 285.998C763.742 286.633 762.088 286.958 760.42 286.953H738.463C737.263 286.951 736.069 286.779 734.917 286.441L730.142 289.724L731.526 284.881C729.761 283.73 728.311 282.156 727.308 280.304C726.304 278.451 725.779 276.377 725.78 274.27Z" fill="#E8DFCA"/>
<path d="M760.63 275.25C760.63 275.657 760.751 276.054 760.977 276.393C761.203 276.731 761.524 276.995 761.9 277.151C762.276 277.306 762.69 277.347 763.089 277.268C763.488 277.188 763.855 276.992 764.142 276.705C764.43 276.417 764.626 276.05 764.705 275.651C764.785 275.252 764.744 274.838 764.588 274.463C764.433 274.087 764.169 273.765 763.831 273.539C763.492 273.313 763.095 273.192 762.688 273.192C762.418 273.192 762.15 273.246 761.9 273.349C761.651 273.452 761.424 273.604 761.233 273.795C761.042 273.986 760.89 274.213 760.787 274.462C760.683 274.712 760.63 274.98 760.63 275.25Z" fill="white"/>
<path d="M753.85 277.31C754.987 277.31 755.908 276.389 755.908 275.253C755.908 274.116 754.987 273.195 753.85 273.195C752.714 273.195 751.793 274.116 751.793 275.253C751.793 276.389 752.714 277.31 753.85 277.31Z" fill="white"/>
<path d="M745.02 277.31C746.156 277.31 747.077 276.389 747.077 275.253C747.077 274.116 746.156 273.195 745.02 273.195C743.883 273.195 742.962 274.116 742.962 275.253C742.962 276.389 743.883 277.31 745.02 277.31Z" fill="white"/>
<path d="M736.19 277.31C737.326 277.31 738.247 276.389 738.247 275.253C738.247 274.116 737.326 273.195 736.19 273.195C735.053 273.195 734.132 274.116 734.132 275.253C734.132 276.389 735.053 277.31 736.19 277.31Z" fill="white"/>
<path d="M223.3 305.19L221.968 305.038L221.159 312.14L222.491 312.292L223.3 305.19Z" fill="#4348A3"/>
<path d="M223.76 294.55C221.29 294.268 219.002 296.539 218.651 299.621C218.3 302.703 220.017 305.43 222.487 305.712C224.958 305.994 227.245 303.723 227.596 300.641C227.948 297.559 226.23 294.831 223.76 294.55ZM222.578 304.918C220.459 304.676 218.986 302.337 219.288 299.694C219.59 297.05 221.551 295.103 223.67 295.344C225.788 295.586 227.261 297.924 226.96 300.568C226.659 303.212 224.696 305.159 222.577 304.918H222.578Z" fill="#352E73"/>
<path d="M221.23 317.46C220.967 317.43 220.728 317.297 220.563 317.09C220.399 316.884 220.324 316.621 220.354 316.358L221.378 307.368L223.356 307.594L222.331 316.584C222.301 316.846 222.168 317.086 221.962 317.25C221.755 317.414 221.492 317.49 221.23 317.46Z" fill="#352E73"/>
<path d="M222.23 322.08L221.848 317.89C221.3 317.03 220.798 316.142 220.344 315.229C219.62 313.219 220.572 310.763 221.017 310.516C221.159 310.989 221.07 312.002 221.848 311.776C222.627 311.55 223.159 309.298 223.159 309.298C223.159 309.298 223.635 309.255 224.042 310.103C224.195 310.439 224.31 310.791 224.382 311.153C224.88 311.537 225.294 312.019 225.598 312.57C226.067 313.6 226.196 314.752 225.968 315.861C225.832 316.241 225.062 317.162 225.062 317.469C225.062 317.777 226.704 324.005 226.704 324.005" fill="#F9C5C8"/>
<path d="M188.31 309.95C179.193 308.018 146.637 326.904 144.885 341.435C143.651 351.673 161.261 380.334 161.261 380.334C161.261 380.334 165.073 382.342 165.073 380.334C165.073 378.326 163.834 344.317 163.834 344.317C163.834 344.317 187.367 340.219 189.001 334.773C190.635 329.327 204.765 313.436 188.31 309.95Z" fill="#ECEAB8"/>
<path d="M214.45 293.68C214.45 293.68 213.103 305.751 210.409 305.96C207.715 306.169 201.483 304.817 200.18 301.85C199.192 299.224 198.408 296.526 197.837 293.78C197.837 293.78 204.123 286.863 206.143 285.516C208.164 284.168 215.119 289.313 214.45 293.68Z" fill="#F9C5C8"/>
<path d="M201.11 296.86L192.425 308.427C192.425 308.427 198.931 315.891 201.11 317.974C203.288 320.057 204.378 314.661 204.378 314.661L203.65 310.962L207.945 300.794" fill="#F9C5C8"/>
<path d="M218.85 288.44C218.328 286.698 216.487 285.739 214.772 285.133C212.853 284.455 210.87 283.974 208.853 283.696C207.467 283.446 206.045 283.471 204.668 283.768C203.981 283.922 203.336 284.227 202.781 284.659C202.225 285.092 201.772 285.642 201.454 286.27C201.005 286.13 200.524 286.126 200.073 286.258C199.621 286.39 199.219 286.652 198.916 287.012C197.807 288.155 197.123 289.643 196.977 291.229C196.731 293.418 196.985 295.634 197.72 297.71C198.286 299.314 199.387 302.181 201.415 302.314C201.643 302.341 201.873 302.282 202.06 302.147C202.251 301.952 202.37 301.697 202.396 301.425C202.643 300.187 202.719 298.921 202.624 297.662C202.541 296.572 202.083 295.336 202.297 294.251C202.34 293.951 202.468 293.671 202.665 293.442C202.862 293.213 203.121 293.045 203.41 292.957C203.813 292.919 204.221 292.951 204.613 293.053C205.806 293.221 207.089 292.077 208.347 291.983C210.426 291.828 212.534 292.683 214.638 292.727C216.973 292.774 219.678 291.207 218.85 288.44Z" fill="#151348"/>
<path d="M203.33 296.13C203.183 295.904 202.957 295.74 202.697 295.668C202.437 295.596 202.159 295.622 201.917 295.741C201.679 295.869 201.471 296.047 201.308 296.262C201.144 296.476 201.028 296.724 200.967 296.987C200.855 297.394 200.829 297.819 200.889 298.236C200.95 298.654 201.097 299.054 201.32 299.412C201.458 299.655 201.647 299.865 201.876 300.026C202.104 300.187 202.365 300.296 202.64 300.344C202.917 300.38 203.197 300.308 203.423 300.145C203.649 299.981 203.804 299.737 203.857 299.463" fill="#F9C5C8"/>
<path d="M164.84 500.46C164.84 500.46 175.621 503.623 175.612 506.005C175.606 507.371 159.773 507.012 158.818 506.088C157.291 504.609 160.005 500.132 160.005 500.132L164.84 500.46Z" fill="#0A2236"/>
<path d="M164.84 493.8V500.66C164.662 501.036 164.38 501.352 164.026 501.571C163.672 501.79 163.263 501.901 162.847 501.892C162.338 501.901 161.833 501.795 161.37 501.582C160.907 501.368 160.499 501.053 160.175 500.66L160.005 492.075" fill="#F9C5C8"/>
<path d="M155.92 381.22C153.353 386.168 151.589 391.493 150.692 396.994C149.603 405.136 151 415.365 151 415.365C151 415.365 158.419 448.235 158.226 451.162C157.12 467.896 159.714 498.233 159.714 498.233L165.313 498.865C165.313 498.865 180.427 468.554 183.267 440.855C183.731 436.336 188.036 385.285 187.491 382.896" fill="#272829"/>
<path d="M212.44 500.46C212.44 500.46 223.221 503.623 223.212 506.005C223.206 507.371 207.372 507.012 206.418 506.088C204.891 504.609 207.605 500.132 207.605 500.132L212.44 500.46Z" fill="#0A2236"/>
<path d="M212.44 493.8V500.66C212.262 501.036 211.98 501.352 211.626 501.571C211.272 501.79 210.863 501.901 210.447 501.892C209.937 501.901 209.433 501.795 208.97 501.582C208.507 501.368 208.099 501.053 207.775 500.66L207.605 492.075" fill="#F9C5C8"/>
<path d="M210.91 367.99C210.91 367.99 221.959 412.543 222.075 439.334C222.192 466.124 212.918 498.125 212.918 498.125H207.566C207.566 498.125 199.294 466.797 197.839 445.284C193.919 437.454 179.862 412.829 179.862 412.829C172.85 408.5 168.244 397.817 170.511 386.624" fill="#272829"/>
<path d="M184.18 421.26L181.265 416.111C179.884 414.01 178.22 412.109 176.32 410.462C173.765 408.083 171.832 405.114 170.689 401.815C169.546 398.517 169.228 394.988 169.764 391.538L170.543 391.708C170.036 395.023 170.346 398.412 171.448 401.579C172.55 404.746 174.41 407.596 176.865 409.88C178.825 411.581 180.539 413.545 181.958 415.718L184.875 420.867L184.18 421.26Z" fill="#454589"/>
<path d="M192.94 307.66C183.835 311.338 175.887 317.399 169.931 325.208C158.506 339.913 148.816 386.056 152.612 389.499C156.408 392.943 164.074 397.4 179.324 397.945C194.574 398.489 215.748 394.808 218.048 389.843C220.349 384.878 210.86 337.129 209.926 331.001C208.716 323.843 206.733 316.838 204.012 310.108C202.79 310.557 201.48 310.717 200.185 310.576C197.618 310.037 195.166 309.049 192.94 307.66Z" fill="#FBFADA"/>
<path d="M187.49 314.66C190.974 313.132 194.789 312.513 198.577 312.861C205.112 313.382 217.829 336.399 220.987 334.726C222.076 334.15 221.85 318.666 221.85 318.666L225.572 318.451C225.572 318.451 237.817 349.131 224.311 353.961C217.61 356.358 192.936 333.018 192.936 333.018" fill="#FBFADA"/>
</g>
</g>
<defs>
<linearGradient id="paint0_linear_983_47" x1="620.91" y1="299.45" x2="620.91" y2="185.86" gradientUnits="userSpaceOnUse">
<stop stop-color="white" stop-opacity="0.2"/>
<stop offset="0.273" stop-color="white" stop-opacity="0.2085"/>
<stop offset="0.4033" stop-color="white" stop-opacity="0.238"/>
<stop offset="0.5034" stop-color="white" stop-opacity="0.2889"/>
<stop offset="0.5881" stop-color="white" stop-opacity="0.3612"/>
<stop offset="0.663" stop-color="white" stop-opacity="0.4552"/>
<stop offset="0.7299" stop-color="white" stop-opacity="0.5688"/>
<stop offset="0.7903" stop-color="white" stop-opacity="0.7"/>
</linearGradient>
<linearGradient id="paint1_linear_983_47" x1="53653" y1="43629" x2="53653" y2="30726" gradientUnits="userSpaceOnUse">
<stop stop-color="white" stop-opacity="0.2"/>
<stop offset="0.273" stop-color="white" stop-opacity="0.2085"/>
<stop offset="0.4033" stop-color="white" stop-opacity="0.238"/>
<stop offset="0.5034" stop-color="white" stop-opacity="0.2889"/>
<stop offset="0.5881" stop-color="white" stop-opacity="0.3612"/>
<stop offset="0.663" stop-color="white" stop-opacity="0.4552"/>
<stop offset="0.7299" stop-color="white" stop-opacity="0.5688"/>
<stop offset="0.7903" stop-color="white" stop-opacity="0.7"/>
</linearGradient>
<clipPath id="clip0_983_47">
<rect width="925" height="506.9" fill="white"/>
</clipPath>
</defs>
</svg>
