<svg width="913" height="429" viewBox="0 0 913 429" fill="none" xmlns="http://www.w3.org/2000/svg">
<path d="M13.1 314.8C28 304.6 27.5 298.1 23.3 281.9C21.5 275.1 22.5 270.1 25.5 263.4C31.9 249.2 44.8 237.4 59.7 232.7C87.4 224.1 117.3 233.3 144.5 243.4C171.7 253.5 200.3 264.8 228.9 260.1C266.3 254 293.7 222.8 319.2 194.7C344.7 166.6 376.3 137.8 414.2 139C442.3 140 467.1 157.7 487.2 177.4C507.4 197.1 525.2 219.6 549.1 234.6C578.2 252.8 615.2 258 648.2 248.4C681.2 238.8 709.6 214.7 724.5 183.7C734.3 163.3 738.4 140 751.4 121.5C764.4 102.9 791.7 90.9 809.8 104.5C827 117.4 824.7 144.8 813.5 163.2C802.3 181.6 784.6 195.3 773.2 213.6C761.8 231.9 759.1 259.2 776 272.5C791.8 285 814.9 278.4 833.3 270.1C851.7 261.8 872.5 252.2 891 260.1C909.6 268.1 917.3 292.9 909.8 311.8C902.3 330.7 883 343 863 346.4C843 349.8 822.4 345.4 803.3 338.6C791.1 334.3 776.4 329.3 766.3 337.3C756.8 344.8 757.7 360.7 765.9 369.5C774.2 378.3 787.3 381 799.3 379.9C811.3 378.8 822.8 374.5 834.5 371.5C849 367.8 865.1 366.1 878.3 373.1C891.5 380.1 899.4 398.5 890.8 410.7C883 421.9 867 422.6 853.4 422.1C821.6 421.1 789.8 417.4 757.9 417.4H75.1C71.4 410 75.3 400.9 79.3 393.7C83.3 386.5 88 378.8 86.8 370.6C85.4 361.5 76.7 354.9 67.7 352.9C58.7 350.8 49.3 352.3 40.1 353.1C30.9 353.9 21.2 354.2 12.9 350.1C4.60002 346 -1.49998 336.2 1.40002 327.5C3.40002 322 8.30002 318.1 13.1 314.8Z" fill="#DADBDC"/>
<path opacity="0.4" d="M34.1 350.1C20.9 350.7 0.300037 337.2 3.10004 321.5C4.70004 312.5 17.6 302.3 25.2 298.7C44 290 65.1 292.5 84.9 288C98.8 284.9 120.1 275.7 126.3 262.2C130.9 252.1 128.8 239.2 121 231.2C117.2 227.3 112.3 224.5 108.4 220.7C90.2 203.1 101.4 169.7 128.5 171.7C137.8 172.4 146.4 178.9 149.5 187.7C152.1 195 151.1 203.1 153.1 210.5C158 228.4 182.1 236.4 198.4 230.9C218.3 224.2 228.1 204.8 230 185.1C232.1 163.6 212.1 153.3 200.9 137.4C189 120.6 188.3 96.1 200.6 79.6C212.9 63.1 237.8 56.8 255.7 67C279.4 80.4 283.1 111.9 290.4 138.1C298.3 166.3 314.8 193.7 341.1 206.5C367.4 219.3 404.2 212.3 418 186.5C426 171.5 425.3 153.4 423.4 136.4C421.5 119.4 418.7 102 423.1 85.6C427.6 69.1 441.9 53.8 458.9 54.7C489.5 56.3 497.1 101.3 524.5 115C540.9 123.2 560.7 118.1 577.2 110.2C593.7 102.3 609.1 91.4 627.1 87.7C645 84 667 90.1 673.6 107.2C681.9 128.4 662.9 149.7 656.9 171.7C647.6 205.9 673.8 243 707.7 253.5C741.6 264 779.2 252.6 808.2 232.2C819.6 224.2 830.1 214.8 842.6 208.7C855.1 202.6 870.4 200.2 882.7 206.7C899.7 215.7 904.6 239.8 896.1 257.1C887.6 274.3 869.1 284.9 850.2 288.5C831.3 292.1 811.9 289.9 792.8 287.6C704 277 615.1 266.4 526.3 255.8C493.7 251.9 460.7 248 428 251.5C395.3 255 362.5 266.5 339.1 289.7C321.8 306.8 307 331.4 282.8 332.8C258 334.3 239.8 310.3 217 300.3C187.3 287.2 152.6 299.1 123.9 314.3C95.1 329.4 66.6 348.5 34.1 350.1Z" fill="#DADBDC"/>
<path d="M430.5 228.7C430.5 231.3 428.3 233.5 425.6 233.5H289.7C287 233.5 284.8 231.4 284.8 228.7C284.8 226.1 287 223.9 289.7 223.9H425.6C428.3 223.9 430.5 226.1 430.5 228.7Z" fill="url(#paint0_linear)"/>
<path d="M360.3 233.5H355H294.8V240.2V242.4C294.8 246.4 298.1 249.7 302.1 249.7H332.7C339.7 249.7 345.4 255.4 345.4 262.4V367.9C345.4 378.8 336.6 387.7 325.6 387.7H321.9C311.2 387.7 302.5 396.4 302.5 407.1V412.2V415.8V419.4C302.5 420.7 303.6 421.8 304.9 421.8H315.4C316.7 421.8 317.8 420.7 317.8 419.4V412.3C317.8 412.1 317.7 411.9 317.7 411.7V407.2C317.7 405 319.6 403.1 321.8 403.1H354.8H360.1H393.1C395.3 403.1 397.2 405 397.2 407.2V411.7C397.2 411.9 397.1 412.1 397.1 412.3V419.4C397.1 420.7 398.2 421.8 399.5 421.8H410C411.3 421.8 412.4 420.7 412.4 419.4V415.8V412.2V407.1C412.4 396.4 403.7 387.7 393 387.7H389.3C378.4 387.7 369.5 378.9 369.5 367.9V262.4C369.5 255.4 375.2 249.7 382.2 249.7H412.8C416.8 249.7 420.1 246.4 420.1 242.4V240.2V233.5H360.3Z" fill="url(#paint1_linear)"/>
<path d="M360.3 233.5H355H294.8V240.2V242.4C294.8 246.4 298.1 249.7 302.1 249.7H332.7C339.7 249.7 345.4 255.4 345.4 262.4V367.9C345.4 378.8 336.6 387.7 325.6 387.7H321.9C311.2 387.7 302.5 396.4 302.5 407.1V412.2V415.8V419.4C302.5 420.7 303.6 421.8 304.9 421.8H315.4C316.7 421.8 317.8 420.7 317.8 419.4V412.3C317.8 412.1 317.7 411.9 317.7 411.7V407.2C317.7 405 319.6 403.1 321.8 403.1H354.8H360.1H393.1C395.3 403.1 397.2 405 397.2 407.2V411.7C397.2 411.9 397.1 412.1 397.1 412.3V419.4C397.1 420.7 398.2 421.8 399.5 421.8H410C411.3 421.8 412.4 420.7 412.4 419.4V415.8V412.2V407.1C412.4 396.4 403.7 387.7 393 387.7H389.3C378.4 387.7 369.5 378.9 369.5 367.9V262.4C369.5 255.4 375.2 249.7 382.2 249.7H412.8C416.8 249.7 420.1 246.4 420.1 242.4V240.2V233.5H360.3Z" fill="url(#paint2_linear)"/>
<path d="M360.3 233.5H355H294.8V240.2V242.4C294.8 246.4 298.1 249.7 302.1 249.7H332.7C339.7 249.7 345.4 255.4 345.4 262.4V367.9C345.4 378.8 336.6 387.7 325.6 387.7H321.9C311.2 387.7 302.5 396.4 302.5 407.1V412.2V415.8V419.4C302.5 420.7 303.6 421.8 304.9 421.8H315.4C316.7 421.8 317.8 420.7 317.8 419.4V412.3C317.8 412.1 317.7 411.9 317.7 411.7V407.2C317.7 405 319.6 403.1 321.8 403.1H354.8H360.1H393.1C395.3 403.1 397.2 405 397.2 407.2V411.7C397.2 411.9 397.1 412.1 397.1 412.3V419.4C397.1 420.7 398.2 421.8 399.5 421.8H410C411.3 421.8 412.4 420.7 412.4 419.4V415.8V412.2V407.1C412.4 396.4 403.7 387.7 393 387.7H389.3C378.4 387.7 369.5 378.9 369.5 367.9V262.4C369.5 255.4 375.2 249.7 382.2 249.7H412.8C416.8 249.7 420.1 246.4 420.1 242.4V240.2V233.5H360.3Z" fill="#999B9D"/>
<path d="M361.2 374.4C361.2 377.1 359.6 379.3 357.6 379.3C355.6 379.3 354 377.1 354 374.4V263.6C354 260.9 355.6 258.7 357.6 258.7C359.6 258.7 361.2 260.9 361.2 263.6V374.4Z" fill="#F5F5F5"/>
<path d="M360.9 130.2C360.9 130.2 360.7 125.5 359.1 121.6C357.5 117.6 349.2 112 345.7 115.1C342.2 118.2 342.9 122.8 346 126.3C349 129.8 353.2 130 353.9 132.2C354.6 134.3 361.2 132.9 360.9 130.2Z" fill="#FFA76C"/>
<path d="M458.6 159.5C458.6 159.5 431.2 177.1 390.1 190.1C390.1 190.1 383.5 192.6 385.5 199.7C387.6 207.2 394.3 205.2 394.3 205.2C394.5 205.2 394.6 205.1 394.8 205.1C434.2 195.7 463.7 178.2 466.6 170.3C469.5 162.3 464.2 157.1 458.6 159.5Z" fill="#FFA76C"/>
<path d="M400.4 194.3C374.8 159.5 360.7 130.1 360.7 130.1L352.9 129.1C352.9 129.1 364.4 166.3 387.8 203.5C387.8 203.5 390.8 207.8 397.5 203.6C403.8 199.6 400.7 194.7 400.7 194.7C400.6 194.6 400.5 194.5 400.4 194.3Z" fill="#FFA76C"/>
<path d="M454.2 157.8C433.4 168.1 420 176.3 420 176.3C419.1 176.7 429.7 197.4 429.7 197.4C445.5 193 453.6 189.3 464.2 180.4C475.9 170.5 473.3 148.4 454.2 157.8Z" fill="url(#paint3_linear)"/>
<path d="M191.7 152.3L164.8 218.9C163.7 221.6 165 223.8 167.6 223.8H318.9H323.4C326.1 223.8 329.1 221.6 330.2 218.9L357.1 152.2H191.7V152.3Z" fill="url(#paint4_linear)"/>
<path d="M191.7 152.3L164.8 218.9C163.7 221.6 165 223.8 167.6 223.8H318.9H323.4C326.1 223.8 329.1 221.6 330.2 218.9L357.1 152.2H191.7V152.3Z" fill="url(#paint5_linear)"/>
<path d="M191.7 152.3L164.8 218.9C163.7 221.6 165 223.8 167.6 223.8H318.9H323.4C326.1 223.8 329.1 221.6 330.2 218.9L357.1 152.2H191.7V152.3Z" fill="url(#paint6_linear)"/>
<path d="M191.7 152.3L164.8 218.9C163.7 221.6 165 223.8 167.6 223.8H318.9H323.4C326.1 223.8 329.1 221.6 330.2 218.9L357.1 152.2H191.7V152.3Z" fill="url(#paint7_linear)"/>
<path d="M191.7 152.3L164.8 218.9C163.7 221.6 165 223.8 167.6 223.8H318.9H323.4C326.1 223.8 329.1 221.6 330.2 218.9L357.1 152.2H191.7V152.3Z" fill="url(#paint8_linear)"/>
<path d="M191.7 152.3L164.8 218.9C163.7 221.6 165 223.8 167.6 223.8H318.9H323.4C326.1 223.8 329.1 221.6 330.2 218.9L357.1 152.2H191.7V152.3Z" fill="url(#paint9_linear)"/>
<path d="M191.7 152.3L164.8 218.9C163.7 221.6 165 223.8 167.6 223.8H318.9H323.4C326.1 223.8 329.1 221.6 330.2 218.9L357.1 152.2H191.7V152.3Z" fill="#F4BDD2"/>
<path d="M173.1 223.9C170.4 223.9 169.2 221.7 170.3 219L197.2 152.4H191.7L164.8 219C163.7 221.7 165 223.9 167.6 223.9H318.9H323.4H173.1Z" fill="#DCABBF"/>
<path d="M346.5 114.7C345.4 112 342.3 109.8 339.7 109.8H176.8C174.1 109.8 172.9 112 174 114.7L216 219C217.1 221.7 220.2 223.9 222.8 223.9H385.7C388.4 223.9 389.6 221.7 388.5 219L346.5 114.7Z" fill="#F4BDD2"/>
<path d="M220.5 219L178.4 114.8C177.3 112.1 178.6 109.9 181.2 109.9H176.6C173.9 109.9 172.7 112.1 173.8 114.8L216 219C217.1 221.7 220.2 223.9 222.8 223.9H227.4C224.7 223.9 221.6 221.7 220.5 219Z" fill="#DCABBF"/>
<path d="M342.4 121C341.4 118.6 338.7 116.7 336.4 116.7H219.7C217.4 116.7 216.2 118.7 217.2 121L254.3 212.8C255.3 215.2 258 217.1 260.3 217.1H377C379.3 217.1 380.5 215.1 379.5 212.8L342.4 121Z" fill="white"/>
<path d="M245.5 203.7C242.5 196.3 234.2 190.3 226.9 190.3C219.6 190.3 216.2 196.3 219.2 203.7C222.2 211.1 230.5 217.1 237.8 217.1C245 217.1 248.5 211.1 245.5 203.7Z" fill="#DCABBF"/>
<g opacity="0.75">
<g opacity="0.75">
<path opacity="0.75" d="M231.4 167.8C231.7 168.5 231.4 169 230.7 169H206C205.3 169 204.6 168.4 204.3 167.8L204.2 167.5C203.9 166.8 204.2 166.3 204.9 166.3H229.6C230.3 166.3 231 166.9 231.3 167.5L231.4 167.8Z" fill="#DCABBF"/>
</g>
<g opacity="0.75">
<path opacity="0.75" d="M229.2 162.5C229.5 163.2 229.2 163.7 228.5 163.7H203.8C203.1 163.7 202.4 163.1 202.1 162.5L202 162.2C201.7 161.5 202 161 202.7 161H227.4C228.1 161 228.8 161.6 229.1 162.2L229.2 162.5Z" fill="#DCABBF"/>
</g>
<g opacity="0.75">
<path opacity="0.75" d="M227.1 157.1C227.4 157.8 227.1 158.3 226.4 158.3H201.7C201 158.3 200.3 157.7 200 157.1L199.9 156.8C199.6 156.1 199.9 155.6 200.6 155.6H225.3C226 155.6 226.7 156.2 227 156.8L227.1 157.1Z" fill="#DCABBF"/>
</g>
<g opacity="0.75">
<path opacity="0.75" d="M233.6 173.2C233.9 173.9 233.6 174.4 232.9 174.4H208.2C207.5 174.4 206.8 173.8 206.5 173.2L206.4 172.9C206.1 172.2 206.4 171.7 207.1 171.7H231.8C232.5 171.7 233.2 172.3 233.5 172.9L233.6 173.2Z" fill="#DCABBF"/>
</g>
<g opacity="0.75">
<path opacity="0.75" d="M235.8 178.6C236.1 179.3 235.8 179.8 235.1 179.8H210.4C209.7 179.8 209 179.2 208.7 178.6L208.6 178.3C208.3 177.6 208.6 177.1 209.3 177.1H234C234.7 177.1 235.4 177.7 235.7 178.3L235.8 178.6Z" fill="#DCABBF"/>
</g>
<g opacity="0.75">
<path opacity="0.75" d="M237.9 184C238.2 184.7 237.9 185.2 237.2 185.2H212.5C211.8 185.2 211.1 184.6 210.8 184L210.7 183.7C210.4 183 210.7 182.5 211.4 182.5H236.1C236.8 182.5 237.5 183.1 237.8 183.7L237.9 184Z" fill="#DCABBF"/>
</g>
</g>
<path d="M191.8 121.5C192.1 122.1 191.8 122.7 191.1 122.7H187.5C186.9 122.7 186.1 122.2 185.9 121.5L184.4 117.9C184.1 117.3 184.4 116.7 185.1 116.7H188.7C189.3 116.7 190.1 117.2 190.3 117.9L191.8 121.5Z" fill="#F5F5F5"/>
<path d="M198.8 121.5C199.1 122.1 198.8 122.7 198.1 122.7H194.5C193.9 122.7 193.1 122.2 192.9 121.5L191.4 117.9C191.1 117.3 191.4 116.7 192.1 116.7H195.7C196.3 116.7 197.1 117.2 197.3 117.9L198.8 121.5Z" fill="#F5F5F5"/>
<path d="M205.7 121.5C206 122.1 205.7 122.7 205 122.7H201.4C200.8 122.7 200 122.2 199.8 121.5L198.3 117.9C198 117.3 198.3 116.7 199 116.7H202.6C203.2 116.7 204 117.2 204.2 117.9L205.7 121.5Z" fill="#F5F5F5"/>
<path d="M212.7 121.5C213 122.1 212.7 122.7 212 122.7H208.4C207.8 122.7 207 122.2 206.8 121.5L205.3 117.9C205 117.3 205.3 116.7 206 116.7H209.6C210.2 116.7 211 117.2 211.2 117.9L212.7 121.5Z" fill="#F5F5F5"/>
<path d="M194.8 128.7C195.1 129.3 194.8 129.9 194.1 129.9H190.5C189.9 129.9 189.1 129.4 188.9 128.7L187.4 125.1C187.1 124.5 187.4 123.9 188.1 123.9H191.7C192.3 123.9 193.1 124.4 193.3 125.1L194.8 128.7Z" fill="#F5F5F5"/>
<path d="M201.7 128.7C202 129.3 201.7 129.9 201 129.9H197.4C196.8 129.9 196 129.4 195.8 128.7L194.3 125.1C194 124.5 194.3 123.9 195 123.9H198.6C199.2 123.9 200 124.4 200.2 125.1L201.7 128.7Z" fill="#F5F5F5"/>
<path d="M208.7 128.7C209 129.3 208.7 129.9 208 129.9H204.4C203.8 129.9 203 129.4 202.8 128.7L201.3 125.1C201 124.5 201.3 123.9 202 123.9H205.6C206.2 123.9 207 124.4 207.2 125.1L208.7 128.7Z" fill="#F5F5F5"/>
<path d="M215.6 128.7C215.9 129.3 215.6 129.9 214.9 129.9H211.3C210.7 129.9 209.9 129.4 209.7 128.7L208.2 125.1C207.9 124.5 208.2 123.9 208.9 123.9H212.5C213.1 123.9 213.9 124.4 214.1 125.1L215.6 128.7Z" fill="#F5F5F5"/>
<path d="M197.7 136C198 136.6 197.7 137.2 197 137.2H193.4C192.8 137.2 192 136.7 191.8 136L190.3 132.4C190 131.8 190.3 131.2 191 131.2H194.6C195.2 131.2 196 131.7 196.2 132.4L197.7 136Z" fill="#F5F5F5"/>
<path d="M204.7 136C205 136.6 204.7 137.2 204 137.2H200.4C199.8 137.2 199 136.7 198.8 136L197.3 132.4C197 131.8 197.3 131.2 198 131.2H201.6C202.2 131.2 203 131.7 203.2 132.4L204.7 136Z" fill="#F5F5F5"/>
<path d="M211.6 136C211.9 136.6 211.6 137.2 210.9 137.2H207.3C206.7 137.2 205.9 136.7 205.7 136L204.2 132.4C203.9 131.8 204.2 131.2 204.9 131.2H208.5C209.1 131.2 209.9 131.7 210.1 132.4L211.6 136Z" fill="#F5F5F5"/>
<path d="M218.6 136C218.9 136.6 218.6 137.2 217.9 137.2H214.3C213.7 137.2 212.9 136.7 212.7 136L211.2 132.4C210.9 131.8 211.2 131.2 211.9 131.2H215.5C216.1 131.2 216.9 131.7 217.1 132.4L218.6 136Z" fill="#F5F5F5"/>
<path d="M200.7 143.3C201 143.9 200.7 144.5 200 144.5H196.4C195.8 144.5 195 144 194.8 143.3L193.3 139.7C193 139.1 193.3 138.5 194 138.5H197.6C198.2 138.5 199 139 199.2 139.7L200.7 143.3Z" fill="#F5F5F5"/>
<path d="M207.6 143.3C207.9 143.9 207.6 144.5 206.9 144.5H203.3C202.7 144.5 201.9 144 201.7 143.3L200.2 139.7C199.9 139.1 200.2 138.5 200.9 138.5H204.5C205.1 138.5 205.9 139 206.1 139.7L207.6 143.3Z" fill="#F5F5F5"/>
<path d="M214.6 143.3C214.9 143.9 214.6 144.5 213.9 144.5H210.3C209.7 144.5 208.9 144 208.7 143.3L207.2 139.7C206.9 139.1 207.2 138.5 207.9 138.5H211.5C212.1 138.5 212.9 139 213.1 139.7L214.6 143.3Z" fill="#F5F5F5"/>
<path d="M221.5 143.3C221.8 143.9 221.5 144.5 220.8 144.5H217.2C216.6 144.5 215.8 144 215.6 143.3L214.1 139.7C213.8 139.1 214.1 138.5 214.8 138.5H218.4C219 138.5 219.8 139 220 139.7L221.5 143.3Z" fill="#F5F5F5"/>
<path d="M203.6 150.6C203.9 151.2 203.6 151.8 202.9 151.8H199.3C198.7 151.8 197.9 151.3 197.7 150.6L196.2 147C195.9 146.4 196.2 145.8 196.9 145.8H200.5C201.1 145.8 201.9 146.3 202.1 147L203.6 150.6Z" fill="#F5F5F5"/>
<path d="M210.5 150.6C210.8 151.2 210.5 151.8 209.8 151.8H206.2C205.6 151.8 204.8 151.3 204.6 150.6L203.1 147C202.8 146.4 203.1 145.8 203.8 145.8H207.4C208 145.8 208.8 146.3 209 147L210.5 150.6Z" fill="#F5F5F5"/>
<path d="M217.5 150.6C217.8 151.2 217.5 151.8 216.8 151.8H213.2C212.6 151.8 211.8 151.3 211.6 150.6L210.1 147C209.8 146.4 210.1 145.8 210.8 145.8H214.4C215 145.8 215.8 146.3 216 147L217.5 150.6Z" fill="#F5F5F5"/>
<path d="M224.4 150.6C224.7 151.2 224.4 151.8 223.7 151.8H220.1C219.5 151.8 218.7 151.3 218.5 150.6L217 147C216.7 146.4 217 145.8 217.7 145.8H221.3C221.9 145.8 222.7 146.3 222.9 147L224.4 150.6Z" fill="#F5F5F5"/>
<path d="M323.7 155.6C326.6 155 330.6 156.1 334 158.6L364.3 180.5C364.7 180.8 365.2 181 365.7 181C366 181 366.3 180.9 366.6 180.8L364 174.3L336.9 154.7C332.3 151.4 327.1 150 322.7 150.9C319.8 151.5 317.6 153.1 316.2 155.4L306.5 172.3L267.3 144C262.7 140.7 257.4 139.3 253.1 140.2C250.2 140.8 248 142.4 246.6 144.7L235 164.9L237.1 170C237.6 169.8 238 169.5 238.3 169L250.9 147.1C251.6 146 252.7 145.2 254.2 144.9C257.1 144.3 261.1 145.4 264.5 147.9L305.9 177.8L359.3 216.4C359.6 216.6 359.9 216.8 360.1 217.1H366.1C366.1 216.5 365.9 215.9 365.4 215.4C364.2 214.2 363.2 213.2 362.1 212.5L310.5 175.2L320.5 157.9C321.1 156.7 322.2 155.9 323.7 155.6Z" fill="#DADBDC"/>
<path d="M430.5 228.7C430.5 231.3 428.3 233.5 425.6 233.5H67.9C65.2 233.5 63 231.4 63 228.7C63 226.1 65.2 223.9 67.9 223.9H425.6C428.3 223.9 430.5 226.1 430.5 228.7Z" fill="#999B9D"/>
<path d="M306.9 182.3L302.4 185.6V180.1L314.6 154.8L319.2 157.1L306.9 182.3Z" fill="#F03C69"/>
<path d="M395.3 405.5C398.8 409.1 400.6 422.1 396 422C392.7 421.9 387.2 421.6 382.4 421.4C377.5 421.2 377.8 411.7 381.3 407.4C387.1 400 392.4 402.5 395.3 405.5Z" fill="#0A2236"/>
<path d="M385.6 408C384.6 406.6 360.1 347.9 340 307.5C336.4 300.4 335 288.5 345.5 283.7C355.3 279.3 362.9 289.1 364.4 294.4C370.4 316.2 392.8 394.8 393.7 405.7L393.6 404.3C393.9 405.4 394 407.7 391.6 408.2C386.7 409.3 385.6 408 385.6 408Z" fill="#FFB680"/>
<path d="M470.8 257.5C445.9 255.5 419.9 255.8 370.1 274C362.1 277 354.2 279.4 345.1 283.2C345.1 283.2 328 290.5 341.7 312.9C343.5 316.7 361 353 361 353C361 353 363.4 356.9 369.9 355.4C376.4 353.9 379.5 347.9 379.5 347.9L371.6 316.4C371.7 316.3 371.9 316.2 372 316.1C395.8 314.8 418.3 309.8 432.4 306.3C475.2 295.7 474.5 277.3 470.8 257.5Z" fill="#2D4253"/>
<path d="M338.4 406.5C338.4 406.5 340.6 419.2 337.6 420.7C334 422.5 301.5 422 299.9 419.1C298.1 415.9 299.6 413.5 321.6 405.8C330.5 402.8 336.3 400.3 338.4 406.5Z" fill="#0A2236"/>
<path d="M327.5 405.8C327 404.2 315.5 351.7 308.9 307.5C307.7 299.6 310.9 287.9 322.5 287.2C333.2 286.5 336.9 298.4 336.3 303.9C334.2 326.4 335.8 390.9 336.1 404.7C336.1 405.9 336 407.1 336 408.3C335.9 410.7 325.6 411.6 322 412.1C312.1 413.5 303.6 415.8 303.3 414.9C303 413.4 327.5 405.8 327.5 405.8Z" fill="#FFB680"/>
<path d="M436.6 259.6C411.9 255.7 388.2 265 337.3 279.5C329.1 281.8 329.2 282.1 319.9 285.2C319.9 285.2 304.2 291.2 308.3 310.2C309.9 322.7 319.3 370.3 319.3 370.3C319.3 370.3 320.1 372.6 326.4 373C332.7 373.5 336.3 370.3 336.3 370.3C336.3 370.3 336.7 330.3 337 321.5C371.2 314.9 416.4 304.8 424.9 303.3C445.9 299.4 448 261.4 436.6 259.6Z" fill="#425564"/>
<path d="M418.6 172.7C422.9 202.3 411.3 234.1 406 260.7C409.8 271.4 419.6 271.2 434.6 274.2C445.1 276.2 474.1 276.9 475 272.6C488.8 199.6 474.2 158.4 465.6 155C461.1 153.3 458 151 453 149.7C444.7 147.5 436.4 148.2 427.6 152.3C422.3 154.7 416.7 160 418.6 172.7Z" fill="#F03C69"/>
<path d="M372.6 320.1L371.7 316.5C371.8 316.4 372 316.3 372.1 316.2C395.9 314.9 418.4 309.9 432.5 306.4C462.7 298.8 471.2 287.4 472.2 274.4C473.8 273.9 474.8 273.3 475 272.6C483.5 227.5 481.2 194.5 476.2 175.1C468.2 175.2 461.8 175.3 459 175.3C448.4 175.3 445.1 175.5 435.6 200.5C426.1 225.6 421.8 259.5 426.1 278.9C430.4 298.5 411.2 297 387.8 297C364.4 297 360.2 300.3 358.9 309.7C357.6 319.3 365.7 320.4 372.6 320.1Z" fill="url(#paint10_linear)"/>
<path d="M322.7 172.2C322.7 172.2 320.6 168 317.5 165.1C314.5 162.1 304.6 160.4 302.6 164.7C300.6 169 303.2 172.8 307.4 174.8C311.6 176.8 315.5 175.3 317 176.9C318.6 178.6 324.1 174.6 322.7 172.2Z" fill="#FFB680"/>
<path d="M423.9 159.1C423.9 159.1 406 186.3 373.8 214.9C373.8 214.9 368.7 219.9 373.4 225.5C378.4 231.5 383.7 227 383.7 227C383.8 226.9 384 226.8 384.1 226.7C416.3 202 436.1 174 435.5 165.7C435 157.4 428.1 154.8 423.9 159.1Z" fill="#FFB680"/>
<path d="M384.9 214.7C347.3 193.4 322.5 172.2 322.5 172.2L315 174.5C315 174.5 340.6 203.8 377.2 228.2C377.2 228.2 381.7 230.9 386.1 224.4C390.2 218.2 385.4 214.9 385.4 214.9C385.2 214.9 385.1 214.8 384.9 214.7Z" fill="#FFB680"/>
<path d="M419.2 159.5C404.4 177.3 395.5 190.3 395.5 190.3C394.8 191 413 205.6 413 205.6C425.7 195.1 431.5 188.5 437.6 176C444.2 162.3 432.8 143 419.2 159.5Z" fill="#F03C69"/>
<path d="M473.4 408.7L442.6 400.8C441.2 400.5 439 400.5 437.7 400.8L406.9 408.7C405.5 409 404.4 410.5 404.4 411.9V412.4C404.4 413.8 405.5 414.9 406.9 414.9H428.1H453.3H473.3C474.7 414.9 475.8 413.8 475.8 412.4V411.9C475.8 410.5 474.7 409 473.4 408.7Z" fill="#425564"/>
<path d="M447.2 405.7C447.2 409.7 444 413 440.1 413C436.2 413 433 409.7 433 405.7V362.5C433 358.5 436.2 355.2 440.1 355.2C444 355.2 447.2 358.5 447.2 362.5V405.7Z" fill="#8FACEA"/>
<path d="M447.2 405.7C447.2 409.7 444 413 440.1 413C436.2 413 433 409.7 433 405.7V362.5C433 358.5 436.2 355.2 440.1 355.2C444 355.2 447.2 358.5 447.2 362.5V405.7Z" fill="#2D4253"/>
<path d="M444.1 406.3C444.1 404.1 442.3 402.3 440.1 402.3C437.9 402.3 436.1 404.1 436.1 406.3C436.1 408.5 437.9 410.3 440.1 410.3C442.3 410.3 444.1 408.5 444.1 406.3Z" fill="url(#paint11_linear)"/>
<path d="M413.7 414.2C413.7 410.1 410.4 406.7 406.2 406.7C402.1 406.7 398.7 410 398.7 414.2C398.7 418.3 402 421.7 406.2 421.7C410.4 421.6 413.7 418.3 413.7 414.2Z" fill="#8FACEA"/>
<path d="M413.7 414.2C413.7 410.1 410.4 406.7 406.2 406.7C402.1 406.7 398.7 410 398.7 414.2C398.7 418.3 402 421.7 406.2 421.7C410.4 421.6 413.7 418.3 413.7 414.2Z" fill="url(#paint12_linear)"/>
<path d="M413.7 414.2C413.7 410.1 410.4 406.7 406.2 406.7C402.1 406.7 398.7 410 398.7 414.2C398.7 418.3 402 421.7 406.2 421.7C410.4 421.6 413.7 418.3 413.7 414.2Z" fill="#566D7F"/>
<path d="M409.5 414.2C409.5 412.4 408.1 411 406.3 411C404.5 411 403.1 412.4 403.1 414.2C403.1 416 404.5 417.4 406.3 417.4C408 417.3 409.5 415.9 409.5 414.2Z" fill="#F5F5F5"/>
<path d="M481.3 414.2C481.3 410.1 478 406.7 473.8 406.7C469.7 406.7 466.3 410 466.3 414.2C466.3 418.3 469.6 421.7 473.8 421.7C478 421.6 481.3 418.3 481.3 414.2Z" fill="#8FACEA"/>
<path d="M481.3 414.2C481.3 410.1 478 406.7 473.8 406.7C469.7 406.7 466.3 410 466.3 414.2C466.3 418.3 469.6 421.7 473.8 421.7C478 421.6 481.3 418.3 481.3 414.2Z" fill="url(#paint13_linear)"/>
<path d="M481.3 414.2C481.3 410.1 478 406.7 473.8 406.7C469.7 406.7 466.3 410 466.3 414.2C466.3 418.3 469.6 421.7 473.8 421.7C478 421.6 481.3 418.3 481.3 414.2Z" fill="#566D7F"/>
<path d="M477 414.2C477 412.4 475.6 411 473.8 411C472 411 470.6 412.4 470.6 414.2C470.6 416 472 417.4 473.8 417.4C475.6 417.3 477 415.9 477 414.2Z" fill="#F5F5F5"/>
<path d="M442.1 416C442.1 416.3 441.8 416.6 441.5 416.6H438.6C438.3 416.6 438 416.3 438 416V402.1C438 401.8 438.3 401.5 438.6 401.5H441.5C441.8 401.5 442.1 401.8 442.1 402.1V416Z" fill="#566D7F"/>
<path d="M441.5 421.2C441.5 421.5 441.2 421.8 440.9 421.8H439.2C438.9 421.8 438.6 421.5 438.6 421.2V407.3C438.6 407 438.9 406.7 439.2 406.7H440.9C441.2 406.7 441.5 407 441.5 407.3V421.2Z" fill="#2D4253"/>
<path d="M428.1 318.2V364C428.1 365.3 429.2 366.4 430.5 366.4H449.6C450.9 366.4 452 365.3 452 364V318.2H428.1Z" fill="#8FACEA"/>
<path d="M428.1 318.2V364C428.1 365.3 429.2 366.4 430.5 366.4H449.6C450.9 366.4 452 365.3 452 364V318.2H428.1Z" fill="#566D7F"/>
<path d="M526.6 178.7C525.3 178 523.8 177.7 522.4 177.8H456.5C456.1 177.8 455.7 177.8 455.4 177.8C453.1 178 450.8 179.3 449.6 181.5C448.8 182.9 430.5 215.7 430.5 248.5C430.5 272.9 433.2 281.2 435.6 288.5C436.4 290.8 437 292.9 437.6 295.4C438.9 301.4 438.2 302.9 438.2 302.9C438.2 302.9 437.2 303.6 433.6 303.6H430.2H427.4C429.5 306.4 431.5 310.9 431.3 318.3H433.6H500.7C508.1 318.3 513.4 316.3 516.7 312.2C521.4 306.4 520.4 298.5 519 292.3C518.3 289.1 517.4 286.5 516.6 284C514.4 277.4 512.2 270.6 512.2 248.6C512.2 219.7 529.2 189.1 529.4 188.8C531.3 185.1 530.1 180.7 526.6 178.7Z" fill="#6E9BED"/>
<path d="M526.6 178.7C525.3 178 523.8 177.7 522.4 177.8H456.5C456.1 177.8 455.7 177.8 455.4 177.8C453.1 178 450.8 179.3 449.6 181.5C448.8 182.9 430.5 215.7 430.5 248.5C430.5 272.9 433.2 281.2 435.6 288.5C436.4 290.8 437 292.9 437.6 295.4C438.9 301.4 438.2 302.9 438.2 302.9C438.2 302.9 437.2 303.6 433.6 303.6H430.2H427.4C429.5 306.4 431.5 310.9 431.3 318.3H433.6H500.7C508.1 318.3 513.4 316.3 516.7 312.2C521.4 306.4 520.4 298.5 519 292.3C518.3 289.1 517.4 286.5 516.6 284C514.4 277.4 512.2 270.6 512.2 248.6C512.2 219.7 529.2 189.1 529.4 188.8C531.3 185.1 530.1 180.7 526.6 178.7Z" fill="#2D4253"/>
<path d="M526.6 178.7C525.3 178 523.8 177.7 522.4 177.8H470.1C471.8 181.6 472.7 188.8 469.6 202.2C464 227 450 308.1 518.9 307.9C520.8 302.8 520 297 519 292.2C518.3 289 517.4 286.4 516.6 283.9C514.4 277.3 512.2 270.5 512.2 248.5C512.2 219.6 529.2 189 529.4 188.7C531.3 185.1 530.1 180.7 526.6 178.7Z" fill="url(#paint14_linear)"/>
<path d="M433.5 318.2H371.4C367.4 318.2 364.1 314.9 364.1 310.9C364.1 306.9 367.4 303.6 371.4 303.6H433.5C437.1 303.6 438.1 302.9 438.1 302.9C438.1 302.9 438.8 301.4 437.5 295.4C437 292.9 436.3 290.9 435.5 288.5C433.1 281.2 430.4 272.9 430.4 248.5C430.4 215.7 448.7 182.9 449.5 181.5C451.5 178 456 176.7 459.5 178.7C463 180.7 464.3 185.2 462.3 188.7C462.1 189 445.1 219.6 445.1 248.5C445.1 270.5 447.3 277.3 449.5 283.9C450.3 286.4 451.2 289 451.9 292.2C453.3 298.4 454.2 306.3 449.6 312.1C446.2 316.2 441 318.2 433.5 318.2Z" fill="#425564"/>
<path d="M458 157C458 157 445.6 156.6 441.1 143.7C440 140.6 435.1 140.2 431.5 138.5C423.1 134.4 418.4 126.8 416.5 117.5C414.4 116.1 411.4 114.5 411.4 109.2C411.4 97.1 416.4 92.8 425.2 91.1C442.2 87.8 465.2 99.6 466.5 121C467.7 142.4 465.4 143.7 465.4 143.7C465.4 143.7 490.7 132.2 516.6 148.6C537.2 161.7 526.9 183.1 526.9 183.1C526.9 183.1 570.7 214.7 559.5 264.2C548.3 313.7 490.3 311.4 471.4 245.7C459.5 205.1 496.5 186.6 458 157Z" fill="url(#paint15_linear)"/>
<path d="M458 157C458 157 445.6 156.6 441.1 143.7C440 140.6 435.1 140.2 431.5 138.5C423.1 134.4 418.4 126.8 416.5 117.5C414.4 116.1 411.4 114.5 411.4 109.2C411.4 97.1 416.4 92.8 425.2 91.1C442.2 87.8 465.2 99.6 466.5 121C467.7 142.4 465.4 143.7 465.4 143.7C465.4 143.7 490.7 132.2 516.6 148.6C537.2 161.7 526.9 183.1 526.9 183.1C526.9 183.1 570.7 214.7 559.5 264.2C548.3 313.7 490.3 311.4 471.4 245.7C459.5 205.1 496.5 186.6 458 157Z" fill="#151348"/>
<path d="M465.4 141.8C465.4 141.8 465.6 145.2 462.9 149.6C460.2 154.1 458 155 458 155C458 155 457.4 157 457.9 158.4C458.4 159.8 460.2 161.4 460.2 161.4C460.2 161.4 464.1 161.9 467.8 155.6C471.5 149.3 471.2 144 471.2 144C471.2 144 470.8 142.1 468.7 141.4C466.7 140.8 465.4 141.8 465.4 141.8Z" fill="#03002D"/>
<path d="M416.5 114.6C416.5 114.6 415.4 139.3 421.3 144.1C427.1 148.8 434.2 144.5 434.2 144.5C434.2 144.5 436.6 147 436.1 148.7C440.4 153.1 443.2 152.5 446.5 152.1C444.8 148.5 444.5 139.2 431.5 137.4C429.8 137.2 427.7 135.4 426.7 132.8C427 130.2 431.5 128.1 429.3 125.2C427.5 123.6 423.9 126.4 423.9 126.4C423.9 126.4 419 113.7 416.5 114.6Z" fill="#FFB680"/>
<path opacity="0.5" d="M302.4 183.3V185.6L304.2 184.3L302.4 183.3Z" fill="url(#paint16_linear)"/>
<path d="M208.7 228.7C208.7 231.3 206.5 233.5 203.8 233.5H67.9C65.2 233.5 63 231.4 63 228.7C63 226.1 65.2 223.9 67.9 223.9H203.8C206.5 223.9 208.7 226.1 208.7 228.7Z" fill="#747678"/>
<path d="M138.5 233.5H133.2H73V240.2V242.4C73 246.4 76.3 249.7 80.3 249.7H111C118 249.7 123.7 255.4 123.7 262.4V367.9C123.7 378.8 114.9 387.7 103.9 387.7H100.2C89.5 387.7 80.8 396.4 80.8 407.1V412.2V415.8V419.4C80.8 420.7 81.9 421.8 83.2 421.8H93.7C95 421.8 96.1 420.7 96.1 419.4V412.3C96.1 412.1 96 411.9 96 411.7V407.2C96 405 97.9 403.1 100.1 403.1H133.1H138.4H171.4C173.6 403.1 175.5 405 175.5 407.2V411.7C175.5 411.9 175.4 412.1 175.4 412.3V419.4C175.4 420.7 176.5 421.8 177.8 421.8H188.3C189.6 421.8 190.7 420.7 190.7 419.4V415.8V412.2V407.1C190.7 396.4 182 387.7 171.3 387.7H167.6C156.7 387.7 147.8 378.9 147.8 367.9V262.4C147.8 255.4 153.5 249.7 160.5 249.7H191.1C195.1 249.7 198.4 246.4 198.4 242.4V240.2V233.5H138.5Z" fill="url(#paint17_linear)"/>
<path d="M138.5 233.5H133.2H73V240.2V242.4C73 246.4 76.3 249.7 80.3 249.7H111C118 249.7 123.7 255.4 123.7 262.4V367.9C123.7 378.8 114.9 387.7 103.9 387.7H100.2C89.5 387.7 80.8 396.4 80.8 407.1V412.2V415.8V419.4C80.8 420.7 81.9 421.8 83.2 421.8H93.7C95 421.8 96.1 420.7 96.1 419.4V412.3C96.1 412.1 96 411.9 96 411.7V407.2C96 405 97.9 403.1 100.1 403.1H133.1H138.4H171.4C173.6 403.1 175.5 405 175.5 407.2V411.7C175.5 411.9 175.4 412.1 175.4 412.3V419.4C175.4 420.7 176.5 421.8 177.8 421.8H188.3C189.6 421.8 190.7 420.7 190.7 419.4V415.8V412.2V407.1C190.7 396.4 182 387.7 171.3 387.7H167.6C156.7 387.7 147.8 378.9 147.8 367.9V262.4C147.8 255.4 153.5 249.7 160.5 249.7H191.1C195.1 249.7 198.4 246.4 198.4 242.4V240.2V233.5H138.5Z" fill="url(#paint18_linear)"/>
<path d="M138.5 233.5H133.2H73V240.2V242.4C73 246.4 76.3 249.7 80.3 249.7H111C118 249.7 123.7 255.4 123.7 262.4V367.9C123.7 378.8 114.9 387.7 103.9 387.7H100.2C89.5 387.7 80.8 396.4 80.8 407.1V412.2V415.8V419.4C80.8 420.7 81.9 421.8 83.2 421.8H93.7C95 421.8 96.1 420.7 96.1 419.4V412.3C96.1 412.1 96 411.9 96 411.7V407.2C96 405 97.9 403.1 100.1 403.1H133.1H138.4H171.4C173.6 403.1 175.5 405 175.5 407.2V411.7C175.5 411.9 175.4 412.1 175.4 412.3V419.4C175.4 420.7 176.5 421.8 177.8 421.8H188.3C189.6 421.8 190.7 420.7 190.7 419.4V415.8V412.2V407.1C190.7 396.4 182 387.7 171.3 387.7H167.6C156.7 387.7 147.8 378.9 147.8 367.9V262.4C147.8 255.4 153.5 249.7 160.5 249.7H191.1C195.1 249.7 198.4 246.4 198.4 242.4V240.2V233.5H138.5Z" fill="#999B9D"/>
<path d="M139.4 374.4C139.4 377.1 137.8 379.3 135.8 379.3C133.8 379.3 132.2 377.1 132.2 374.4V263.6C132.2 260.9 133.8 258.7 135.8 258.7C137.8 258.7 139.4 260.9 139.4 263.6V374.4Z" fill="#F5F5F5"/>
<path d="M183.7 198.3H178.4V197.5C178.4 196.4 177.5 195.5 176.4 195.5H155.1C154 195.5 153.1 196.4 153.1 197.5V222.6C153.1 223.7 154 224.6 155.1 224.6H176.4C177.5 224.6 178.4 223.7 178.4 222.6V221.8H183.7C186.6 221.8 188.9 219.5 188.9 216.6V203.6C188.9 200.6 186.5 198.3 183.7 198.3ZM184.8 216.5C184.8 217.1 184.3 217.6 183.7 217.6H178.4V202.4H183.7C184.3 202.4 184.8 202.9 184.8 203.5V216.5Z" fill="#151348"/>
<mask id="mask0" mask-type="alpha" maskUnits="userSpaceOnUse" x="153" y="149" width="32" height="45">
<path d="M167.4 193.1C167.4 193.1 155.5 186.2 153.7 172.9C151.9 159.6 160.5 149.4 169.8 149.2C179.1 148.9 186.8 158 184.3 169.7C181.9 181.3 166.1 178.4 167.4 193.1Z" fill="url(#paint19_linear)"/>
</mask>
<g mask="url(#mask0)">
<path d="M167.4 193.1C167.4 193.1 155.5 186.2 153.7 172.9C151.9 159.6 160.5 149.4 169.8 149.2C179.1 148.9 186.8 158 184.3 169.7C181.9 181.3 166.1 178.4 167.4 193.1Z" fill="url(#paint20_linear)"/>
</g>
<mask id="mask1" mask-type="alpha" maskUnits="userSpaceOnUse" x="171" y="173" width="26" height="21">
<path d="M172 193.1C172 193.1 169.8 187.5 175.1 184.6C180.5 181.7 182.8 180.7 185.6 175.8C189.3 169 199.6 176.6 195.2 186.2C190.8 195.8 174.5 183 172 193.1Z" fill="url(#paint21_linear)"/>
</mask>
<g mask="url(#mask1)">
<path d="M172 193.1C172 193.1 169.8 187.5 175.1 184.6C180.5 181.7 182.8 180.7 185.6 175.8C189.3 169 199.6 176.6 195.2 186.2C190.8 195.8 174.5 183 172 193.1Z" fill="url(#paint22_linear)"/>
</g>
<mask id="mask2" mask-type="alpha" maskUnits="userSpaceOnUse" x="138" y="175" width="25" height="19">
<path d="M162.9 193.1C162.9 193.1 155.6 189.9 153.1 184.4C150.6 178.9 147.5 172.1 140.4 176.6C135 180 142.1 195.4 162.9 193.1Z" fill="url(#paint23_linear)"/>
</mask>
<g mask="url(#mask2)">
<path d="M162.9 193.1C162.9 193.1 155.6 189.9 153.1 184.4C150.6 178.9 147.5 172.1 140.4 176.6C135 180 142.1 195.4 162.9 193.1Z" fill="url(#paint24_linear)"/>
</g>
<path d="M625.3 82.3C625.3 82.3 602.1 105.2 564.7 126.5C564.7 126.5 558.7 130.3 562.2 136.8C565.9 143.7 571.9 140.4 571.9 140.4C572 140.3 572.2 140.3 572.3 140.2C608.9 122.7 634.1 99.5 635.3 91.2C636.5 82.8 630.3 78.8 625.3 82.3Z" fill="#F9C5C8"/>
<path d="M618 84.3C605.6 97.4 583.7 112.2 576.3 117.2C576.3 117.2 576.4 125.4 579.1 132.2C583.2 142.4 591.1 141.9 591.1 141.9C608.1 126.6 632.5 109.5 639.4 95.9C646.2 82.3 632.7 68.8 618 84.3Z" fill="#F03C69"/>
<path d="M667.6 416.9C665.2 400.5 663.4 379 663.3 378L671.4 377.3C671.4 377.5 673.4 397.3 675.6 413.3L667.6 416.9Z" fill="#FFB680"/>
<path d="M676.5 405.1C675 403.9 655.7 408.9 644.2 411.5C632.7 414.1 629.8 421.4 644.7 421.7C659.5 422 672.7 422.2 672.7 422.2C672.7 422.2 681.1 423 680.1 417.9C679.1 413.3 677.8 406.3 676.5 405.1Z" fill="#0A2236"/>
<path d="M658.4 393.2C658.4 393.2 674.8 393 675.2 389.6C676.3 381.3 677.8 321 679.6 273.3C679.6 273.3 675.9 256.5 657.6 259.4C640.6 262.1 641.2 277.1 641.2 277.1C651.6 331.7 658.4 393.2 658.4 393.2Z" fill="#2D4253"/>
<path d="M690.3 170.4C687.5 159.2 649.8 164.8 647.8 186.2C646.8 196.3 644.7 237.6 641.3 275.7C641.3 275.7 640 290.5 656.5 292.5C675.9 294.8 679.5 280 679.5 280C681.7 270.4 683.7 261.2 685.3 252.8C695.2 200.7 696.4 194.7 690.3 170.4Z" fill="#2D4253"/>
<path d="M748.6 408.6C740.9 393.9 732 374.2 731.6 373.3L739.1 369.9C739.2 370.1 747.7 388.1 755.1 402.4L748.6 408.6Z" fill="#FFB680"/>
<path d="M753 394.5C751.2 393.8 734.6 405 724.6 411.3C714.6 417.6 714.4 425.4 728.4 420.7C742.5 416 755 411.9 755 411.9C755 411.9 763.2 409.8 760.5 405.4C758.2 401.4 754.6 395.2 753 394.5Z" fill="#0A2236"/>
<path d="M732 389.4C732 389.4 747.4 383.8 746.7 380.4C745 372.2 726.3 314.8 712.2 269.3C712.2 269.3 703.1 254.7 686.8 263.5C671.7 271.7 677.2 285.6 677.2 285.6C705.2 333.6 732 389.4 732 389.4Z" fill="#425564"/>
<path d="M709.2 169.6C704.8 158.9 668.3 170 669.5 191.5C670 201.6 674 242.8 676.2 280.9C676.2 280.9 677 295.7 693.7 295.3C713.2 294.7 714.6 279.6 714.6 279.6C715.4 269.8 716 260.4 716.4 251.8C718.5 198.9 718.8 192.8 709.2 169.6Z" fill="#425564"/>
<path d="M648.9 68.9C662.2 64.9 672.5 69.4 679.5 79.9C705.4 118.2 713.5 150 719.2 193.2C716.2 198.8 709 198.5 693.5 201.3C673 205 653.2 206.9 645.4 201.3C645.9 162.9 641.1 151.7 622.7 103.5C617.6 90.1 619 79.9 634.5 72.8C634.6 72.8 646.6 69.2 648.9 68.9Z" fill="#F03C69"/>
<path d="M614.4 55.3C601.3 58.6 579.4 25.3 606.5 21C628.3 17.5 634.7 3.60001 648.8 19.4C663.5 35.9 647.9 53.2 647.1 64.2C646.4 73.9 638.3 77.4 628.8 61.9C619.4 46.3 618.3 54.3 614.4 55.3Z" fill="#151348"/>
<path d="M610.6 42.1C610.6 42.1 612.1 66.7 618.4 70.8C624.7 74.9 633.1 68.7 633.1 68.7C633.1 68.7 634.5 71.1 635.3 72.6C635.1 74.4 630.8 82 639.9 81.3C649.3 80.6 649.6 68.5 649.6 68.5C649.6 68.5 647.8 66.7 640.5 49C640.5 46.3 646.1 42 642.1 37.7C638.1 33.4 635.3 41.1 635.3 41.1L633.7 27.7C633.7 27.7 619 42.1 610.6 42.1Z" fill="#F9C5C8"/>
<path d="M565.7 140.5C525.9 127.2 494.1 116.5 494.1 116.5L491.8 110C491.8 110 529.8 116.5 572.2 127C572.2 127 577.1 129 574.5 136.4C572 143.5 565.8 140.6 565.7 140.5Z" fill="#F9C5C8"/>
<path d="M496.7 110.9C487.6 106.5 476.7 102.5 470 110.1C469.4 110.8 470.6 112 472.2 111.5C481.7 108.4 484 112.4 488.1 113.8C492.2 115.2 484.8 117.4 485.5 119.2C486.1 121 492.1 117.7 495.7 116.3C499.1 114.9 504.1 114.5 496.7 110.9Z" fill="#FFA466"/>
<path d="M659.7 85.3C659.7 85.3 681.4 109.6 700.7 148.1C700.7 148.1 704.2 154.3 710.9 151.2C718 147.9 715 141.6 715 141.6C714.9 141.4 714.9 141.3 714.8 141.1C699.2 103.6 677.3 77.3 669.1 75.7C660.8 74.1 656.5 80.1 659.7 85.3Z" fill="#F9C5C8"/>
<path d="M661.3 92.7C673.8 105.8 687.4 128.4 692 136.1C692 136.1 700.8 137.8 707.1 134.1C716.1 128.9 720 125.9 720 125.9C705.6 108.2 687.1 79.5 673.9 72C660.8 64.4 646.6 77.3 661.3 92.7Z" fill="#F03C69"/>
<path d="M709.4 139.3C667.5 138.5 633.9 138 633.9 138L629.6 143.4C629.6 143.4 667.6 150 711 154.3C711 154.3 716.3 154.1 716.3 146.2C716.4 138.7 709.6 139.3 709.4 139.3Z" fill="#F9C5C8"/>
<path d="M633.8 143C623.9 145 612.3 146.1 607.7 137.1C607.3 136.2 608.8 135.4 610.1 136.3C618.5 141.7 621.7 138.4 626.1 138.1C630.4 137.8 623.8 133.8 624.9 132.2C626 130.6 630.9 135.3 634 137.6C637.1 139.7 641.9 141.4 633.8 143Z" fill="#F9C5C8"/>
<g opacity="0.75">
<g opacity="0.75">
<path opacity="0.75" d="M540.4 0C529.1 0 520 9.09999 520 20.4C520 27.6 526.4 34.4 526.4 34.4C528.1 36.2 529.5 39.6 529.5 42.1V43.7V46.3V47.9V49.3V49.9C529.5 50.4 529.9 50.8 530.4 50.8H534H536.8H539.1H541.9H544.8H547H550.6C551.1 50.8 551.5 50.4 551.5 49.9V49.3V46.3V43.7V42.1C551.5 39.7 552.9 36.2 554.5 34.4C554.5 34.4 560.9 27.7 560.9 20.4C560.8 9.09999 551.7 0 540.4 0Z" fill="#FFB680"/>
</g>
<g opacity="0.75">
<mask id="mask3" mask-type="alpha" maskUnits="userSpaceOnUse" x="539" y="1" width="19" height="15">
<g opacity="0.75">
<g opacity="0.75">
<path opacity="0.75" d="M556.8 15.5C556.4 15.5 555.9 15.2 555.8 14.8C553.4 8.39999 547.3 4.09999 540.5 4.09999C539.9 4.09999 539.4 3.6 539.4 3C539.4 2.4 539.9 1.89999 540.5 1.89999C548.2 1.89999 555.2 6.8 557.9 14C558.1 14.6 557.8 15.2 557.2 15.4C557 15.4 556.9 15.5 556.8 15.5Z" fill="url(#paint25_linear)"/>
</g>
</g>
</mask>
<g mask="url(#mask3)">
<path opacity="0.75" d="M556.8 15.5C556.4 15.5 555.9 15.2 555.8 14.8C553.4 8.39999 547.3 4.09999 540.5 4.09999C539.9 4.09999 539.4 3.6 539.4 3C539.4 2.4 539.9 1.89999 540.5 1.89999C548.2 1.89999 555.2 6.8 557.9 14C558.1 14.6 557.8 15.2 557.2 15.4C557 15.4 556.9 15.5 556.8 15.5Z" fill="url(#paint26_linear)"/>
</g>
</g>
</g>
<mask id="mask4" mask-type="alpha" maskUnits="userSpaceOnUse" x="556" y="16" width="3" height="6">
<path d="M557.9 21.5C557.3 21.5 556.8 21 556.8 20.4C556.8 19.4 556.7 18.4 556.5 17.5C556.4 16.9 556.8 16.3 557.4 16.2C558 16.1 558.6 16.5 558.7 17.1C558.9 18.2 559 19.3 559 20.4C559 21 558.5 21.5 557.9 21.5Z" fill="url(#paint27_linear)"/>
</mask>
<g mask="url(#mask4)">
<path d="M557.9 21.5C557.3 21.5 556.8 21 556.8 20.4C556.8 19.4 556.7 18.4 556.5 17.5C556.4 16.9 556.8 16.3 557.4 16.2C558 16.1 558.6 16.5 558.7 17.1C558.9 18.2 559 19.3 559 20.4C559 21 558.5 21.5 557.9 21.5Z" fill="url(#paint28_linear)"/>
</g>
<path d="M544.1 50.7H542.6V35.1C542.6 33.9 541.6 32.9 540.4 32.9C539.2 32.9 538.2 33.9 538.2 35.1V50.7H536.7V35.1C536.7 33.1 538.4 31.4 540.4 31.4C542.4 31.4 544.1 33.1 544.1 35.1V50.7V50.7Z" fill="white"/>
<path d="M532.9 57.5C532.8 58.1 532.7 58.7 532.7 59.4C532.7 63.8 536.2 67.3 540.6 67.3C545 67.3 548.5 63.8 548.5 59.4C548.5 58.7 548.4 58.1 548.3 57.5H532.9Z" fill="#A8A8A8"/>
<path d="M549.7 50.7H548.9H532.1H531.3C530.8 50.7 530.4 51.1 530.4 51.6V58.2C530.4 59.1 531.1 59.9 532.1 59.9H548.9C549.8 59.9 550.6 59.2 550.6 58.2V51.6C550.6 51 550.2 50.7 549.7 50.7Z" fill="#BABABA"/>
<path opacity="0.25" d="M530.5 54.9L546.1 59.8H548.9C549.3 59.8 549.6 59.7 549.9 59.4L530.5 53.3V54.9ZM531.3 50.7C531.1 50.7 530.9 50.8 530.7 50.9L550.5 57.1V55.5L534.9 50.6H531.3V50.7ZM550.6 51.5L547.9 50.7H542.9L550.5 53.1L550.6 51.5ZM530.5 58.1C530.5 58.4 530.6 58.8 530.8 59L533.2 59.7H538.2L530.6 57.3V58.1H530.5Z" fill="white"/>
<path d="M90.9 428.4C109.457 428.4 124.5 426.564 124.5 424.3C124.5 422.036 109.457 420.2 90.9 420.2C72.3433 420.2 57.3 422.036 57.3 424.3C57.3 426.564 72.3433 428.4 90.9 428.4Z" fill="#151348"/>
<path d="M106.8 422.6C101.3 424.5 96.9001 425.4 76.2001 423.7C44.9001 407.6 62.1001 361.2 62.1001 361.2C62.2001 360.7 62.5001 360.2 62.8001 359.7C63.2001 359.1 63.6001 358.6 64.2001 358.2C67.8001 355.8 77.2001 354.7 88.0001 355.8C97.0001 356.6 104.7 358.7 108.8 361.1C110.1 362 111.1 362.9 111.9 363.9C112.2 364.4 112.5 364.8 112.7 365.3C129.4 392.3 110.5 416.2 106.8 422.6Z" fill="#FF5A89"/>
<path d="M113.1 412C110.5 416.9 108 420.6 106.8 422.6C101.3 424.5 96.8001 425.4 76.2001 423.7C44.9001 407.6 62.1001 361.2 62.1001 361.2C62.2001 360.7 62.5001 360.2 62.8001 359.7C63.2001 359.1 63.6001 358.6 64.2001 358.2C64.8001 357.8 65.6001 357.4 66.5001 357.1C67.1001 371.8 72.7001 386.3 82.5001 397.4C89.4001 405.1 98.6001 411.3 108.9 412.1C110.4 412.1 111.7 412.1 113.1 412Z" fill="#F03C69"/>
<path d="M112.1 364.9C111.7 368.7 100.4 370.8 86.7 369.5C73 368.2 62.3 364.1 62.6 360.3C62.6 360.1 62.7 359.9 62.7 359.7C62.9 359.1 63.4 358.6 64.1 358.2C67.7 355.8 77.1 354.7 87.9 355.8C96.9 356.6 104.6 358.7 108.7 361.1C110.3 362 111.3 363 111.8 363.9C112.1 364.2 112.2 364.6 112.1 364.9Z" fill="#817FFA"/>
<path d="M112.1 364.9C111.9 366.8 108.9 368.3 104.2 369.1C99.6 369.9 93.5 370.1 86.7 369.4C83.4 369.1 80.3 368.6 77.5 368C68.5 366.1 62.3 363.1 62.6 360.2C62.6 360 62.7 359.8 62.8 359.6C63 359 63.5 358.5 64.2 358.1C65.3 357.4 67 356.7 69.1 356.3C73.8 355.3 80.5 355 88 355.7C93.5 356.2 98.5 357.2 102.5 358.4C105.1 359.2 107.2 360.1 108.8 361C110.4 361.9 111.4 362.9 111.9 363.8C112.1 364.2 112.1 364.6 112.1 364.9Z" fill="#EF7B9C"/>
<path d="M90.9001 369.8C90.2001 369.8 89.6001 369.7 88.9001 369.7C87.5001 365.7 85.9001 361.1 85.0001 355.7C85.0001 355.6 85.0001 355.6 85.0001 355.5C85.7001 355.5 86.3001 355.6 87.0001 355.6C87.9001 360.8 89.4001 365.2 90.8001 369.2L90.9001 369.4C90.9001 369.6 90.9001 369.7 90.9001 369.8Z" fill="#ABB2D8"/>
<path d="M147.5 289.2C140.4 317.5 100.9 324.5 102.6 358.5C102.7 359.6 102.7 360.6 102.9 361.7C102.9 362 103 362.3 103 362.6L104.3 369.1C99.7001 369.9 93.6001 370.1 86.8001 369.4C83.5001 369.1 80.4001 368.6 77.6001 368C74.9001 364.4 72.0001 360.4 69.2001 356.2C59.1001 341.1 51.3001 323 67.0001 306.8C90.0001 283.1 104.7 272.9 72.7001 232.7C40.7001 192.4 71.0001 178.9 83.4001 185.3C95.7001 191.7 112.6 200.5 112.2 180.1C111.8 159.7 141.2 156.6 147.8 171.3C154.4 186 157.8 198.8 134.8 238.8C111.7 279 154.9 259.8 147.5 289.2Z" fill="#A1E0BD"/>
<path d="M92.4001 378C92.2001 378 92.0001 377.9 91.8001 377.8C85.0001 372.8 82.1001 363.1 85.2001 355.3C86.1001 352.9 87.5001 350.8 88.8001 348.8C89.9001 347 91.1001 345.2 91.9001 343.3C95.0001 336.1 93.2001 326.9 87.6001 321.4C87.2001 321 87.2001 320.4 87.6001 320C88.0001 319.6 88.6001 319.6 89.0001 320C95.2001 326.1 97.2001 336 93.7001 344C92.8001 346 91.6001 347.9 90.4001 349.8C89.1001 351.9 87.8001 353.8 87.0001 356C84.3001 363.1 86.8001 371.8 93.0001 376.3C93.4001 376.6 93.5001 377.2 93.2001 377.6C93.0001 377.8 92.7001 378 92.4001 378Z" fill="white"/>
<path d="M99.9 322.3C99.8 322.3 99.7 322.3 99.6 322.3C99.1 322.2 98.8 321.6 98.9 321.1C100.8 314.3 106.6 309.5 111.5 306.1C112.3 305.5 113.1 305 113.9 304.4C118.3 301.4 122.9 298.2 125.9 293.9C129.2 289 130.1 281.5 125.7 277.4C125.3 277 125.3 276.4 125.7 276C126.1 275.6 126.7 275.6 127.1 276C132.2 280.8 131.3 289.4 127.6 295C124.4 299.7 119.7 302.9 115.1 306C114.3 306.6 113.5 307.1 112.7 307.7C108.1 311 102.5 315.5 100.8 321.7C100.7 322 100.3 322.3 99.9 322.3Z" fill="white"/>
<path d="M90.4001 241.1C90.1001 241.1 89.8001 241 89.6001 240.7L74.9001 221.5C72.6001 218.5 69.9001 215 68.7001 211C67.3001 206.5 68.2001 201.7 71.0001 198.9C73.6001 196.3 77.9001 195.3 82.2001 196.3C86.0001 197.2 89.4001 199.3 92.4001 201.2C92.8001 201.5 93.0001 202.1 92.7001 202.5C92.4001 202.9 91.8001 203.1 91.4001 202.8C88.4001 200.9 85.2001 199 81.8001 198.2C78.9001 197.5 74.9001 197.8 72.4001 200.3C70.1001 202.6 69.4001 206.6 70.6001 210.4C71.7001 214.1 74.1001 217.2 76.5001 220.3L91.2001 239.5C91.5001 239.9 91.4001 240.5 91.0001 240.8C90.8001 241 90.6001 241.1 90.4001 241.1Z" fill="white"/>
<path d="M128.4 223.3C128.1 223.3 127.8 223.2 127.6 222.9C123.5 217 122.7 208.8 125.5 202.2C126.6 199.7 128.1 197.4 129.6 195.1C130 194.5 130.4 194 130.7 193.4C132.3 190.9 134.1 187.9 134.6 184.7C135.1 181.4 134 178.2 131.9 176.5C130.7 175.6 129 175.1 127.4 175.4C126.1 175.6 125 176.2 124.4 177.2C123.4 178.7 123.4 180.6 123.4 182.7C123.4 183.3 123.4 183.8 123.4 184.4C123.3 187.5 121.8 190.9 118.8 191.4C118.3 191.5 117.8 191.1 117.7 190.6C117.6 190.1 118 189.6 118.5 189.5C120.4 189.2 121.4 186.6 121.5 184.3C121.5 183.8 121.5 183.2 121.5 182.7C121.5 180.5 121.5 178.1 122.8 176.2C123.8 174.8 125.3 173.9 127.2 173.6C129.3 173.3 131.5 173.9 133.1 175.1C135.8 177.3 137.1 181.1 136.5 185.1C136 188.7 134.1 191.9 132.3 194.6C131.9 195.2 131.5 195.8 131.1 196.3C129.7 198.4 128.2 200.7 127.2 203C124.6 209.1 125.4 216.5 129.1 221.9C129.4 222.3 129.3 222.9 128.9 223.2C128.8 223.3 128.6 223.3 128.4 223.3Z" fill="white"/>
<defs>
<linearGradient id="paint0_linear" x1="357.678" y1="181.813" x2="357.678" y2="305.635" gradientUnits="userSpaceOnUse">
<stop stop-color="#43CAFF"/>
<stop offset="0.1856" stop-color="#6BD5FF"/>
<stop offset="0.5807" stop-color="#BAECFF"/>
<stop offset="0.8618" stop-color="#ECFAFF"/>
<stop offset="1" stop-color="white"/>
</linearGradient>
<linearGradient id="paint1_linear" x1="357.678" y1="-597.862" x2="357.678" y2="1846.98" gradientUnits="userSpaceOnUse">
<stop stop-color="#43CAFF"/>
<stop offset="0.1856" stop-color="#6BD5FF"/>
<stop offset="0.5807" stop-color="#BAECFF"/>
<stop offset="0.8618" stop-color="#ECFAFF"/>
<stop offset="1" stop-color="white"/>
</linearGradient>
<linearGradient id="paint2_linear" x1="357.678" y1="230.256" x2="357.678" y2="328.586" gradientUnits="userSpaceOnUse">
<stop stop-color="#43CAFF"/>
<stop offset="0.1856" stop-color="#6BD5FF"/>
<stop offset="0.5807" stop-color="#BAECFF"/>
<stop offset="0.8618" stop-color="#ECFAFF"/>
<stop offset="1" stop-color="white"/>
</linearGradient>
<linearGradient id="paint3_linear" x1="460.298" y1="169.401" x2="422.254" y2="189.692" gradientUnits="userSpaceOnUse">
<stop stop-color="#3E3C9B"/>
<stop offset="0.2028" stop-color="#363487"/>
<stop offset="0.7361" stop-color="#232255"/>
<stop offset="1" stop-color="#1B1B42"/>
</linearGradient>
<linearGradient id="paint4_linear" x1="268.041" y1="161.455" x2="238.002" y2="263.989" gradientUnits="userSpaceOnUse">
<stop stop-color="#43CAFF"/>
<stop offset="0.3782" stop-color="#35CAFF"/>
<stop offset="1" stop-color="#22CBFF"/>
</linearGradient>
<linearGradient id="paint5_linear" x1="260.778" y1="125.635" x2="260.778" y2="228.136" gradientUnits="userSpaceOnUse">
<stop stop-color="#43CAFF"/>
<stop offset="0.1856" stop-color="#6BD5FF"/>
<stop offset="0.5807" stop-color="#BAECFF"/>
<stop offset="0.8618" stop-color="#ECFAFF"/>
<stop offset="1" stop-color="white"/>
</linearGradient>
<linearGradient id="paint6_linear" x1="260.778" y1="125.635" x2="260.778" y2="228.136" gradientUnits="userSpaceOnUse">
<stop stop-color="#43CAFF"/>
<stop offset="0.1856" stop-color="#6BD5FF"/>
<stop offset="0.5807" stop-color="#BAECFF"/>
<stop offset="0.8618" stop-color="#ECFAFF"/>
<stop offset="1" stop-color="white"/>
</linearGradient>
<linearGradient id="paint7_linear" x1="268.041" y1="161.455" x2="238.002" y2="263.989" gradientUnits="userSpaceOnUse">
<stop stop-color="#43CAFF"/>
<stop offset="0.3782" stop-color="#35CAFF"/>
<stop offset="1" stop-color="#22CBFF"/>
</linearGradient>
<linearGradient id="paint8_linear" x1="260.778" y1="125.635" x2="260.778" y2="228.136" gradientUnits="userSpaceOnUse">
<stop stop-color="#43CAFF"/>
<stop offset="0.1856" stop-color="#6BD5FF"/>
<stop offset="0.5807" stop-color="#BAECFF"/>
<stop offset="0.8618" stop-color="#ECFAFF"/>
<stop offset="1" stop-color="white"/>
</linearGradient>
<linearGradient id="paint9_linear" x1="260.778" y1="176.523" x2="260.778" y2="335.113" gradientUnits="userSpaceOnUse">
<stop stop-color="#43CAFF"/>
<stop offset="0.1856" stop-color="#6BD5FF"/>
<stop offset="0.5807" stop-color="#BAECFF"/>
<stop offset="0.8618" stop-color="#ECFAFF"/>
<stop offset="1" stop-color="white"/>
</linearGradient>
<linearGradient id="paint10_linear" x1="522.122" y1="135.571" x2="211.105" y2="596.398" gradientUnits="userSpaceOnUse">
<stop stop-color="white"/>
<stop offset="0.6392" stop-color="#D4D4D4"/>
<stop offset="1" stop-color="#C1C1C1"/>
</linearGradient>
<linearGradient id="paint11_linear" x1="440.058" y1="394.157" x2="440.058" y2="434.576" gradientUnits="userSpaceOnUse">
<stop stop-color="white"/>
<stop offset="0.347" stop-color="#D4DFF7"/>
<stop offset="0.7837" stop-color="#A2BAEE"/>
<stop offset="1" stop-color="#8FACEA"/>
</linearGradient>
<linearGradient id="paint12_linear" x1="406.271" y1="403.782" x2="406.271" y2="423.027" gradientUnits="userSpaceOnUse">
<stop stop-color="white"/>
<stop offset="0.347" stop-color="#D4DFF7"/>
<stop offset="0.7837" stop-color="#A2BAEE"/>
<stop offset="1" stop-color="#8FACEA"/>
</linearGradient>
<linearGradient id="paint13_linear" x1="473.844" y1="403.782" x2="473.844" y2="423.027" gradientUnits="userSpaceOnUse">
<stop stop-color="white"/>
<stop offset="0.347" stop-color="#D4DFF7"/>
<stop offset="0.7837" stop-color="#A2BAEE"/>
<stop offset="1" stop-color="#8FACEA"/>
</linearGradient>
<linearGradient id="paint14_linear" x1="497.434" y1="292.937" x2="497.434" y2="112.039" gradientUnits="userSpaceOnUse">
<stop stop-color="white"/>
<stop offset="0.4754" stop-color="#B3CBF6"/>
<stop offset="0.827" stop-color="#81A8EF"/>
<stop offset="1" stop-color="#6E9BED"/>
</linearGradient>
<linearGradient id="paint15_linear" x1="-12.5541" y1="-3711.95" x2="22.5299" y2="-3438.44" gradientUnits="userSpaceOnUse">
<stop stop-color="#508FEA"/>
<stop offset="0.6341" stop-color="#7AA6F6"/>
<stop offset="1" stop-color="#8DB0FC"/>
</linearGradient>
<linearGradient id="paint16_linear" x1="303.188" y1="181.165" x2="303.42" y2="189.355" gradientUnits="userSpaceOnUse">
<stop stop-color="#2095F9"/>
<stop offset="0.1145" stop-color="#1C8BF8"/>
<stop offset="0.6989" stop-color="#0959F6"/>
<stop offset="0.988" stop-color="#0246F5"/>
</linearGradient>
<linearGradient id="paint17_linear" x1="135.879" y1="-597.862" x2="135.879" y2="1846.98" gradientUnits="userSpaceOnUse">
<stop stop-color="#43CAFF"/>
<stop offset="0.1856" stop-color="#6BD5FF"/>
<stop offset="0.5807" stop-color="#BAECFF"/>
<stop offset="0.8618" stop-color="#ECFAFF"/>
<stop offset="1" stop-color="white"/>
</linearGradient>
<linearGradient id="paint18_linear" x1="135.879" y1="230.256" x2="135.879" y2="328.586" gradientUnits="userSpaceOnUse">
<stop stop-color="#43CAFF"/>
<stop offset="0.1856" stop-color="#6BD5FF"/>
<stop offset="0.5807" stop-color="#BAECFF"/>
<stop offset="0.8618" stop-color="#ECFAFF"/>
<stop offset="1" stop-color="white"/>
</linearGradient>
<linearGradient id="paint19_linear" x1="169.157" y1="214.979" x2="169.157" y2="150.619" gradientUnits="userSpaceOnUse">
<stop stop-color="white"/>
<stop offset="0.3704" stop-color="#969696"/>
<stop offset="0.6776" stop-color="#454545"/>
<stop offset="0.8938" stop-color="#131313"/>
<stop offset="1"/>
</linearGradient>
<linearGradient id="paint20_linear" x1="169.157" y1="214.979" x2="169.157" y2="150.619" gradientUnits="userSpaceOnUse">
<stop stop-color="#969696"/>
<stop offset="0.3092" stop-color="#BABABA"/>
<stop offset="0.7713" stop-color="#ECECEC"/>
<stop offset="1" stop-color="white"/>
</linearGradient>
<linearGradient id="paint21_linear" x1="183.955" y1="214.98" x2="183.955" y2="150.619" gradientUnits="userSpaceOnUse">
<stop stop-color="white"/>
<stop offset="0.3704" stop-color="#969696"/>
<stop offset="0.6776" stop-color="#454545"/>
<stop offset="0.8938" stop-color="#131313"/>
<stop offset="1"/>
</linearGradient>
<linearGradient id="paint22_linear" x1="183.955" y1="214.98" x2="183.955" y2="150.619" gradientUnits="userSpaceOnUse">
<stop stop-color="#969696"/>
<stop offset="0.3092" stop-color="#BABABA"/>
<stop offset="0.7713" stop-color="#ECECEC"/>
<stop offset="1" stop-color="white"/>
</linearGradient>
<linearGradient id="paint23_linear" x1="150.806" y1="214.98" x2="150.806" y2="150.618" gradientUnits="userSpaceOnUse">
<stop stop-color="white"/>
<stop offset="0.3704" stop-color="#969696"/>
<stop offset="0.6776" stop-color="#454545"/>
<stop offset="0.8938" stop-color="#131313"/>
<stop offset="1"/>
</linearGradient>
<linearGradient id="paint24_linear" x1="150.806" y1="214.98" x2="150.806" y2="150.618" gradientUnits="userSpaceOnUse">
<stop stop-color="#969696"/>
<stop offset="0.3092" stop-color="#BABABA"/>
<stop offset="0.7713" stop-color="#ECECEC"/>
<stop offset="1" stop-color="white"/>
</linearGradient>
<linearGradient id="paint25_linear" x1="548.573" y1="-7.78961" x2="548.573" y2="26.979" gradientUnits="userSpaceOnUse">
<stop stop-color="white"/>
<stop offset="0.4136" stop-color="#C4C4C4"/>
<stop offset="0.8066" stop-color="#939393"/>
<stop offset="1" stop-color="#808080"/>
</linearGradient>
<linearGradient id="paint26_linear" x1="548.573" y1="-7.78961" x2="548.573" y2="26.979" gradientUnits="userSpaceOnUse">
<stop stop-color="white"/>
<stop offset="1" stop-color="white"/>
</linearGradient>
<linearGradient id="paint27_linear" x1="557.716" y1="-7.79771" x2="557.716" y2="26.9815" gradientUnits="userSpaceOnUse">
<stop stop-color="white"/>
<stop offset="0.4136" stop-color="#C4C4C4"/>
<stop offset="0.8066" stop-color="#939393"/>
<stop offset="1" stop-color="#808080"/>
</linearGradient>
<linearGradient id="paint28_linear" x1="557.716" y1="-7.79771" x2="557.716" y2="26.9815" gradientUnits="userSpaceOnUse">
<stop stop-color="white"/>
<stop offset="1" stop-color="white"/>
</linearGradient>
</defs>
</svg>
