<svg width="684" height="415" viewBox="0 0 684 415" fill="none" xmlns="http://www.w3.org/2000/svg">
<mask id="mask0_983_133" style="mask-type:luminance" maskUnits="userSpaceOnUse" x="0" y="0" width="684" height="415">
<path d="M684 0H0V415H684V0Z" fill="white"/>
</mask>
<g mask="url(#mask0_983_133)">
<path d="M85.75 32.11H587.86C591.9 32.11 595.774 33.715 598.631 36.571C601.488 39.428 603.092 43.302 603.092 47.342V375.502H70.512V47.342C70.512 45.342 70.906 43.361 71.671 41.513C72.437 39.665 73.559 37.986 74.973 36.571C76.388 35.157 78.067 34.035 79.915 33.27C81.763 32.504 83.744 32.11 85.744 32.11H85.75Z" fill="#123735"/>
<path d="M596.09 47.3399V368.5H77.51V47.3399C77.51 45.1569 78.377 43.0629 79.921 41.5189C81.464 39.9759 83.558 39.1079 85.741 39.1079H587.861C590.044 39.1089 592.138 39.9759 593.681 41.5199C595.225 43.0629 596.092 45.1569 596.092 47.3399H596.09Z" fill="white"/>
<path d="M587.86 32.11H85.7501C81.7101 32.11 77.8361 33.715 74.9791 36.571C72.1231 39.428 70.5181 43.302 70.5181 47.342V76.516H603.098V47.342C603.098 45.342 602.704 43.361 601.938 41.513C601.173 39.665 600.051 37.986 598.636 36.571C597.222 35.157 595.542 34.035 593.694 33.269C591.846 32.504 589.865 32.11 587.865 32.11H587.86Z" fill="#123735"/>
<path d="M106.34 54.31C106.34 55.394 106.018 56.453 105.416 57.354C104.815 58.254 103.959 58.956 102.958 59.371C101.957 59.786 100.856 59.894 99.7929 59.683C98.7299 59.471 97.7539 58.95 96.9879 58.184C96.2219 57.417 95.6999 56.441 95.4889 55.379C95.2779 54.316 95.3859 53.215 95.8009 52.214C96.2149 51.213 96.9179 50.357 97.8179 49.755C98.7189 49.153 99.7779 48.832 100.862 48.832C101.581 48.832 102.294 48.974 102.958 49.249C103.623 49.524 104.227 49.928 104.735 50.437C105.244 50.945 105.647 51.549 105.923 52.214C106.198 52.878 106.34 53.591 106.34 54.31Z" fill="#7F9F80"/>
<path d="M131.91 54.31C131.91 55.394 131.588 56.453 130.986 57.354C130.385 58.254 129.529 58.956 128.528 59.371C127.527 59.786 126.426 59.894 125.363 59.683C124.3 59.471 123.324 58.95 122.558 58.183C121.792 57.417 121.27 56.441 121.059 55.379C120.848 54.316 120.956 53.215 121.371 52.214C121.786 51.213 122.488 50.357 123.389 49.755C124.289 49.153 125.348 48.832 126.432 48.832C127.151 48.832 127.864 48.974 128.528 49.249C129.193 49.525 129.797 49.928 130.305 50.437C130.814 50.945 131.217 51.549 131.493 52.214C131.768 52.879 131.91 53.591 131.91 54.31Z" fill="#7F9F80"/>
<path d="M157.47 54.31C157.47 55.394 157.148 56.453 156.547 57.354C155.945 58.254 155.089 58.957 154.088 59.371C153.087 59.786 151.986 59.894 150.923 59.683C149.86 59.472 148.884 58.95 148.118 58.184C147.352 57.418 146.83 56.442 146.619 55.379C146.408 54.316 146.516 53.215 146.931 52.214C147.345 51.213 148.047 50.357 148.948 49.755C149.849 49.153 150.908 48.832 151.992 48.832C152.711 48.832 153.423 48.974 154.088 49.249C154.753 49.524 155.357 49.928 155.865 50.437C156.374 50.945 156.778 51.549 157.053 52.214C157.328 52.878 157.47 53.591 157.47 54.31Z" fill="#7F9F80"/>
<path d="M574.8 64.87H503.689C500.754 64.87 497.939 63.704 495.864 61.629C493.789 59.553 492.623 56.739 492.623 53.804C492.623 50.869 493.789 48.054 495.864 45.979C497.939 43.904 500.754 42.738 503.689 42.738H574.8C577.735 42.738 580.549 43.904 582.625 45.979C584.7 48.054 585.866 50.869 585.866 53.804C585.866 56.739 584.7 59.553 582.625 61.629C580.549 63.704 577.735 64.87 574.8 64.87ZM503.689 44.334C501.177 44.334 498.768 45.332 496.992 47.108C495.216 48.884 494.219 51.292 494.219 53.804C494.219 56.315 495.216 58.724 496.992 60.5C498.768 62.276 501.177 63.274 503.689 63.274H574.8C577.312 63.274 579.72 62.276 581.496 60.5C583.272 58.724 584.27 56.315 584.27 53.804C584.27 51.292 583.272 48.884 581.496 47.108C579.72 45.332 577.312 44.334 574.8 44.334H503.689Z" fill="#7F9F80"/>
<path d="M541.77 119.44C540.805 118.27 539.73 117.195 538.56 116.23C534.323 112.726 528.994 110.814 523.496 110.822H150.106C143.833 110.835 137.822 113.336 133.391 117.776C128.96 122.216 126.471 128.232 126.471 134.505C126.471 140.778 128.96 146.794 133.391 151.234C137.822 155.674 143.833 158.175 150.106 158.188H523.496C527.987 158.188 532.385 156.911 536.178 154.506C539.97 152.102 543.001 148.668 544.917 144.607C546.832 140.545 547.554 136.023 546.997 131.567C546.44 127.111 544.627 122.905 541.77 119.44ZM129.62 134.505C129.626 129.072 131.787 123.864 135.628 120.022C139.47 116.181 144.678 114.02 150.111 114.014H481.581V154.996H150.111C144.678 154.99 139.47 152.829 135.628 148.987C131.787 145.146 129.626 139.937 129.62 134.505Z" fill="#123735"/>
<path d="M508.14 143.2C505.595 143.2 503.106 142.445 500.989 141.031C498.873 139.617 497.223 137.607 496.248 135.255C495.274 132.903 495.019 130.315 495.515 127.818C496.012 125.322 497.238 123.028 499.038 121.228C500.838 119.428 503.131 118.202 505.628 117.705C508.125 117.208 510.713 117.463 513.065 118.437C515.416 119.411 517.427 121.061 518.841 123.178C520.255 125.294 521.01 127.783 521.01 130.329C521.006 133.741 519.649 137.012 517.236 139.425C514.824 141.838 511.552 143.195 508.14 143.2ZM508.14 119.852C506.068 119.851 504.042 120.466 502.319 121.617C500.596 122.768 499.253 124.404 498.46 126.319C497.667 128.233 497.459 130.34 497.864 132.372C498.268 134.405 499.266 136.272 500.731 137.737C502.196 139.202 504.063 140.2 506.095 140.604C508.128 141.009 510.234 140.801 512.149 140.008C514.063 139.215 515.7 137.872 516.851 136.149C518.002 134.426 518.617 132.401 518.617 130.329C518.613 127.551 517.509 124.888 515.545 122.924C513.581 120.96 510.918 119.855 508.14 119.852Z" fill="white"/>
<path d="M525.54 151.55C525.238 151.55 524.939 151.491 524.661 151.376C524.382 151.26 524.129 151.091 523.916 150.877L513.836 140.797L517.085 137.548L527.164 147.628C527.486 147.949 527.704 148.358 527.793 148.804C527.882 149.25 527.836 149.712 527.662 150.131C527.488 150.551 527.194 150.91 526.816 151.162C526.438 151.415 525.994 151.55 525.54 151.55Z" fill="white"/>
<path opacity="0.55" d="M148.34 120.23H145.946V148.788H148.34V120.23Z" fill="#272829"/>
<path d="M448.63 181.92H571.22C572.08 181.92 572.904 182.262 573.512 182.869C574.12 183.477 574.461 184.302 574.461 185.161V231.12C574.461 231.979 574.12 232.803 573.512 233.411C572.904 234.019 572.08 234.36 571.22 234.36H448.63C447.77 234.36 446.946 234.019 446.338 233.411C445.73 232.803 445.389 231.979 445.389 231.12V185.161C445.389 184.735 445.473 184.314 445.635 183.921C445.798 183.528 446.037 183.17 446.338 182.869C446.639 182.569 446.996 182.33 447.389 182.167C447.782 182.004 448.205 181.92 448.63 181.92Z" fill="#123735"/>
<path d="M134.48 178H406.52C408.769 178 410.926 178.953 412.516 180.648C414.107 182.344 415 184.644 415 187.042V339.962C415 342.36 414.107 344.66 412.516 346.356C410.926 348.051 408.769 349.004 406.52 349.004H134.48C132.231 349.004 130.074 348.051 128.484 346.356C126.893 344.66 126 342.36 126 339.962V187.042C126 184.644 126.893 182.344 128.484 180.648C130.074 178.953 132.231 178 134.48 178Z" fill="#F5EFE6"/>
<path opacity="0.75" d="M397.53 190.09H140.41C137.704 190.09 135.509 192.285 135.509 194.991V194.992C135.509 197.699 137.704 199.893 140.41 199.893H397.53C400.237 199.893 402.431 197.699 402.431 194.992V194.991C402.431 192.285 400.237 190.09 397.53 190.09Z" fill="#D3C7B4"/>
<path opacity="0.75" d="M140.41 207.32H397.53C398.83 207.32 400.077 207.836 400.996 208.755C401.915 209.674 402.431 210.921 402.431 212.221C402.431 213.52 401.915 214.767 400.996 215.686C400.077 216.605 398.83 217.122 397.53 217.122H140.41C139.111 217.122 137.864 216.605 136.945 215.686C136.026 214.767 135.51 213.521 135.51 212.221C135.51 210.921 136.026 209.675 136.945 208.755C137.864 207.836 139.11 207.32 140.41 207.32Z" fill="#D3C7B4"/>
<path opacity="0.75" d="M397.53 234.36H140.41C139.767 234.36 139.129 234.234 138.535 233.987C137.94 233.741 137.4 233.38 136.945 232.925C136.49 232.47 136.129 231.93 135.882 231.335C135.636 230.74 135.509 230.103 135.509 229.46C135.509 228.16 136.026 226.913 136.945 225.994C137.864 225.075 139.11 224.559 140.41 224.559H397.53C398.83 224.559 400.077 225.075 400.996 225.994C401.915 226.913 402.431 228.16 402.431 229.46C402.431 230.103 402.304 230.74 402.058 231.335C401.812 231.93 401.451 232.47 400.996 232.925C400.541 233.38 400 233.741 399.406 233.987C398.811 234.234 398.174 234.36 397.53 234.36Z" fill="#D3C7B4"/>
<path opacity="0.75" d="M397.53 251.59H140.41C139.767 251.59 139.129 251.463 138.535 251.217C137.94 250.971 137.4 250.61 136.945 250.155C136.49 249.7 136.129 249.159 135.882 248.565C135.636 247.97 135.509 247.333 135.509 246.689C135.509 245.39 136.026 244.143 136.945 243.224C137.864 242.305 139.11 241.789 140.41 241.789H397.53C398.83 241.789 400.077 242.305 400.996 243.224C401.915 244.143 402.431 245.39 402.431 246.689C402.431 247.333 402.304 247.97 402.058 248.565C401.812 249.159 401.451 249.7 400.996 250.155C400.541 250.61 400 250.971 399.406 251.217C398.811 251.463 398.174 251.59 397.53 251.59Z" fill="#D3C7B4"/>
<path opacity="0.75" d="M397.53 268.83H140.41C139.11 268.83 137.864 268.314 136.945 267.395C136.026 266.476 135.509 265.229 135.509 263.929C135.509 262.629 136.026 261.383 136.945 260.464C137.864 259.545 139.11 259.028 140.41 259.028H397.53C398.83 259.028 400.077 259.545 400.996 260.464C401.915 261.383 402.431 262.629 402.431 263.929C402.431 265.229 401.915 266.476 400.996 267.395C400.077 268.314 398.83 268.83 397.53 268.83Z" fill="#D3C7B4"/>
<path opacity="0.75" d="M397.53 286.06H140.41C139.11 286.06 137.864 285.544 136.945 284.624C136.026 283.705 135.509 282.459 135.509 281.159C135.509 279.859 136.026 278.613 136.945 277.694C137.864 276.774 139.11 276.258 140.41 276.258H397.53C398.83 276.258 400.077 276.774 400.996 277.694C401.915 278.613 402.431 279.859 402.431 281.159C402.431 282.459 401.915 283.705 400.996 284.624C400.077 285.544 398.83 286.06 397.53 286.06Z" fill="#D3C7B4"/>
<path opacity="0.75" d="M397.53 303.3H140.41C139.11 303.3 137.864 302.783 136.945 301.864C136.026 300.945 135.509 299.699 135.509 298.399C135.509 297.099 136.026 295.852 136.945 294.933C137.864 294.014 139.11 293.498 140.41 293.498H397.53C398.83 293.498 400.077 294.014 400.996 294.933C401.915 295.852 402.431 297.099 402.431 298.399C402.431 299.699 401.915 300.945 400.996 301.864C400.077 302.783 398.83 303.3 397.53 303.3Z" fill="#D3C7B4"/>
<path opacity="0.75" d="M397.53 320.53H140.41C139.11 320.53 137.864 320.013 136.945 319.094C136.026 318.175 135.509 316.928 135.509 315.629C135.509 314.329 136.026 313.082 136.945 312.163C137.864 311.244 139.11 310.728 140.41 310.728H397.53C398.83 310.728 400.077 311.244 400.996 312.163C401.915 313.082 402.431 314.329 402.431 315.629C402.431 316.928 401.915 318.175 400.996 319.094C400.077 320.013 398.83 320.53 397.53 320.53Z" fill="#D3C7B4"/>
<path opacity="0.75" d="M397.53 337.77H140.41C139.11 337.77 137.864 337.254 136.945 336.335C136.026 335.416 135.509 334.169 135.509 332.869C135.509 331.57 136.026 330.323 136.945 329.404C137.864 328.485 139.11 327.969 140.41 327.969H397.53C398.83 327.969 400.077 328.485 400.996 329.404C401.915 330.323 402.431 331.57 402.431 332.869C402.431 334.169 401.915 335.416 400.996 336.335C400.077 337.254 398.83 337.77 397.53 337.77Z" fill="#D3C7B4"/>
<path d="M570.02 250.53H449.83C447.377 250.53 445.389 252.518 445.389 254.971V344.568C445.389 347.02 447.377 349.009 449.83 349.009H570.02C572.473 349.009 574.461 347.02 574.461 344.568V254.971C574.461 252.518 572.473 250.53 570.02 250.53Z" fill="#F5EFE6"/>
<path opacity="0.75" d="M570.06 249.27H449.78C448.613 249.27 447.494 249.734 446.668 250.559C445.843 251.384 445.38 252.503 445.38 253.67V265.254H574.46V253.67C574.46 252.503 573.996 251.384 573.171 250.559C572.346 249.734 571.227 249.27 570.06 249.27Z" fill="#D3C7B4"/>
<path opacity="0.75" d="M557 286.06H462.844C461.545 286.06 460.298 285.544 459.379 284.624C458.46 283.705 457.943 282.459 457.943 281.159C457.943 279.859 458.46 278.613 459.379 277.694C460.298 276.774 461.545 276.258 462.844 276.258H557C558.3 276.258 559.547 276.774 560.466 277.694C561.385 278.613 561.901 279.859 561.901 281.159C561.901 282.459 561.385 283.705 560.466 284.624C559.547 285.544 558.3 286.06 557 286.06Z" fill="#D3C7B4"/>
<path opacity="0.75" d="M557 303.3H462.844C461.545 303.3 460.298 302.783 459.379 301.864C458.46 300.945 457.943 299.699 457.943 298.399C457.943 297.099 458.46 295.852 459.379 294.933C460.298 294.014 461.545 293.498 462.844 293.498H557C558.3 293.498 559.547 294.014 560.466 294.933C561.385 295.852 561.901 297.099 561.901 298.399C561.901 299.699 561.385 300.945 560.466 301.864C559.547 302.783 558.3 303.3 557 303.3Z" fill="#D3C7B4"/>
<path opacity="0.75" d="M557 320.53H462.844C461.545 320.53 460.298 320.013 459.379 319.094C458.46 318.175 457.943 316.928 457.943 315.629C457.943 314.329 458.46 313.082 459.379 312.163C460.298 311.244 461.545 310.728 462.844 310.728H557C558.3 310.728 559.547 311.244 560.466 312.163C561.385 313.082 561.901 314.329 561.901 315.629C561.901 316.928 561.385 318.175 560.466 319.094C559.547 320.013 558.3 320.53 557 320.53Z" fill="#D3C7B4"/>
<path opacity="0.75" d="M557 337.77H462.844C461.545 337.77 460.298 337.254 459.379 336.335C458.46 335.416 457.943 334.169 457.943 332.869C457.943 331.57 458.46 330.323 459.379 329.404C460.298 328.485 461.545 327.969 462.844 327.969H557C558.3 327.969 559.547 328.485 560.466 329.404C561.385 330.323 561.901 331.57 561.901 332.869C561.901 334.169 561.385 335.416 560.466 336.335C559.547 337.254 558.3 337.77 557 337.77Z" fill="#D3C7B4"/>
<path d="M552.29 225.26L549.213 223.39C549.053 222.582 548.827 221.79 548.536 221.02C548.249 220.49 546.8 218.688 546.459 218.927C546.117 219.166 546.918 220.34 546.718 220.62C546.373 221.105 545.521 221.043 544.667 220.659C544.287 220.488 542.267 219.164 541.973 219.39C541.68 219.617 541.893 221.224 542.692 222.176C543.404 223.14 544.364 223.893 545.47 224.356C546.231 224.539 547.005 224.667 547.784 224.738L550.774 227.931" fill="#F9C5C8"/>
<path d="M606.96 204.66C601.259 200.987 595.76 202.277 589.728 210.058C585.663 215.302 578.443 232.274 573.751 232.707C569.058 233.14 549.656 223.622 549.656 223.622L548.304 225.417C548.304 225.417 563.821 247.015 580.08 247.042C587.946 247.056 605.004 230.567 608.839 224.577C613.669 217.034 611.94 207.869 606.96 204.66Z" fill="#B4C585"/>
<path d="M614.42 386.46C614.42 386.46 603.977 389.623 603.987 392.005C603.992 393.371 619.328 393.012 620.252 392.088C621.731 390.609 619.102 386.132 619.102 386.132L614.42 386.46Z" fill="#0A2236"/>
<path d="M614.42 379.8V386.66C614.587 387.031 614.858 387.345 615.201 387.563C615.544 387.782 615.943 387.896 616.35 387.892C616.847 387.898 617.338 387.791 617.787 387.577C618.236 387.363 618.629 387.05 618.937 386.66L619.102 378.075" fill="#F9C5C8"/>
<path d="M593.48 266.87C592.105 265.114 590.65 297.477 597.393 327.306C603.384 353.808 613.922 382.071 613.922 382.071H619.221C619.221 382.071 622.544 352.841 621.191 339.13C620.544 332.577 619.603 307.72 622.535 300.154C626.135 295.465 628.406 285.29 626.135 275.437C624.293 268.064 622.056 260.796 619.433 253.664" fill="#272829"/>
<path d="M619.22 381.68H613.921V382.479H619.22V381.68Z" fill="#D66121"/>
<path d="M612.95 378.72L612.939 379.519L619.426 379.604L619.436 378.805L612.95 378.72Z" fill="#D66121"/>
<path d="M573.39 386.46C573.39 386.46 562.948 389.623 562.957 392.005C562.962 393.371 578.298 393.012 579.223 392.088C580.701 390.609 578.073 386.132 578.073 386.132L573.39 386.46Z" fill="#0A2236"/>
<path d="M573.39 379.8V386.66C573.557 387.031 573.829 387.345 574.172 387.564C574.515 387.782 574.914 387.897 575.321 387.892C575.817 387.898 576.309 387.791 576.758 387.577C577.206 387.363 577.6 387.05 577.908 386.66L578.073 378.075" fill="#F9C5C8"/>
<path d="M573.03 264.62C569.504 274.905 568.396 292.767 568.396 324.432C568.396 351.602 573.147 382.08 573.147 382.08H578.446C578.446 382.08 589.543 347.707 590.626 341.212C591.708 334.717 596.458 305.996 600.985 299.263C602.804 298.721 610.114 291.24 610.071 281.13C610.027 271.019 599.391 259.749 599.391 259.749" fill="#272829"/>
<path d="M578.44 381.68H573.142V382.479H578.44V381.68Z" fill="#D66121"/>
<path d="M579.25 378.72H572.709V379.518H579.25V378.72Z" fill="#D66121"/>
<path d="M573.03 232.97C571.801 241.672 568.7 266.332 570.595 268.294C572.489 270.257 580.76 271.098 596.111 271.378C611.462 271.659 623.64 270.537 625.264 265.491C626.888 260.444 628.783 214.137 605.574 203.262L593.876 202.695C577.902 206.155 574.259 224.268 573.03 232.97Z" fill="#E3FF95"/>
<path d="M595.38 177.68C593.675 178.022 591.478 181.415 590.535 183.495C589.147 186.557 588.658 192.229 590.263 194.139C591.439 195.538 594.121 196.038 597.642 196.095C600.62 196.143 605.383 195.177 605.383 190.655C605.383 186.132 603.457 176.065 595.38 177.68Z" fill="#F9C5C8"/>
<path d="M595.55 194.84L593.874 202.696C593.874 202.696 598.566 207.094 605.572 203.263L603.493 191.31" fill="#F9C5C8"/>
<path d="M590.75 184.05C590.75 184.05 588.075 186.716 588.073 187.51C588.069 189.012 590.228 188.685 590.228 188.685" fill="#F9C5C8"/>
<path d="M608.38 186.28C608.071 187.848 607.393 189.321 606.402 190.575C605.539 191.607 604.368 192.333 603.061 192.648C602.385 192.662 601.72 192.469 601.158 192.093C600.595 191.718 600.162 191.179 599.915 190.549C599.574 189.886 599.333 189.177 599.059 188.483C598.897 188.074 598.836 187.281 598.41 187.165C598.114 187.085 597.864 187.706 597.562 187.763C597.431 187.794 597.295 187.796 597.163 187.771C597.03 187.746 596.905 187.693 596.794 187.616C596.683 187.54 596.59 187.441 596.519 187.326C596.449 187.211 596.403 187.082 596.386 186.949C596.425 186.277 596.59 185.619 596.873 185.008C597.157 184.393 597.223 183.7 597.06 183.043C596.947 182.765 596.78 182.514 596.568 182.302C596.355 182.091 596.103 181.924 595.825 181.812C595.231 181.576 594.598 181.448 593.959 181.434C593.345 181.353 592.746 181.191 592.175 180.954C591.024 180.57 590.005 179.868 589.237 178.929C588.569 178.058 588.208 176.99 588.212 175.893C588.216 174.795 588.585 173.73 589.259 172.864C589.934 171.998 590.876 171.38 591.94 171.107C593.003 170.835 594.127 170.922 595.135 171.357C595.808 171.661 596.423 172.08 596.952 172.596C597.051 172.715 597.188 172.796 597.34 172.824C597.538 172.833 597.69 172.663 597.827 172.52C598.395 171.97 599.15 171.658 599.94 171.647C600.73 171.636 601.494 171.926 602.077 172.459C602.898 173.269 603.186 174.479 603.89 175.393C604.697 176.297 605.587 177.123 606.55 177.859C607.686 178.829 608.449 180.164 608.709 181.634C608.99 183.186 608.877 184.783 608.38 186.28Z" fill="#151348"/>
<path d="M598.27 187.11C598.485 186.507 599.064 185.992 600.103 186.541C600.776 186.897 600.591 187.886 600.399 188.476C600.305 188.809 600.143 189.117 599.921 189.382C599.699 189.646 599.424 189.86 599.113 190.01C598.961 190.068 598.799 190.094 598.636 190.086C598.473 190.079 598.314 190.038 598.167 189.966C598.021 189.894 597.891 189.793 597.786 189.669C597.68 189.545 597.601 189.401 597.553 189.245" fill="#F9C5C8"/>
<path d="M527.04 71.86C527.04 71.86 462.692 184.66 462.331 185.45H490.765L555.474 71.86H527.04Z" fill="url(#paint0_linear_983_133)"/>
<path d="M570.42 71.86C570.42 71.86 506.072 184.66 505.711 185.45H514.707L579.416 71.86H570.42Z" fill="url(#paint1_linear_983_133)"/>
<path d="M534.62 175.39L523.125 179.158L543.217 240.455L554.712 236.687L534.62 175.39Z" fill="#536B54"/>
<path d="M498.9 85.85C489.373 88.972 480.986 94.85 474.8 102.739C468.613 110.628 464.905 120.174 464.144 130.171C463.383 140.168 465.604 150.165 470.525 158.9C475.446 167.635 482.847 174.714 491.791 179.242C500.736 183.771 510.822 185.545 520.775 184.341C530.728 183.137 540.101 179.009 547.707 172.479C555.314 165.948 560.813 157.308 563.51 147.652C566.206 137.996 565.979 127.757 562.857 118.23C558.669 105.455 549.579 94.867 537.585 88.794C525.59 82.722 511.675 81.662 498.9 85.85ZM528.229 175.331C520.058 178.009 511.276 178.204 502.995 175.891C494.713 173.579 487.303 168.862 481.702 162.338C476.101 155.814 472.56 147.776 471.528 139.239C470.495 130.703 472.017 122.052 475.901 114.381C479.785 106.709 485.856 100.362 493.348 96.141C500.839 91.921 509.414 90.016 517.988 90.669C526.561 91.321 534.749 94.502 541.515 99.807C548.282 105.113 553.322 112.307 556.001 120.477C557.779 125.903 558.471 131.625 558.038 137.318C557.604 143.011 556.054 148.562 553.475 153.656C550.896 158.75 547.34 163.285 543.008 167.004C538.676 170.723 533.654 173.553 528.229 175.331Z" fill="#7F9F80"/>
<path d="M563.81 283.86C562.689 284.227 561.507 284.37 560.331 284.281C559.155 284.191 558.008 283.871 556.956 283.338C555.904 282.806 554.967 282.071 554.199 281.176C553.43 280.281 552.846 279.244 552.478 278.123L527.048 200.534L544.116 194.94L569.547 272.529C569.915 273.649 570.058 274.831 569.968 276.007C569.878 277.183 569.558 278.33 569.025 279.382C568.493 280.435 567.758 281.372 566.863 282.14C565.968 282.908 564.931 283.493 563.81 283.86Z" fill="#7F9F80"/>
<path d="M544.84 230.19L541.524 228.174C541.352 227.304 541.108 226.45 540.795 225.62C540.485 225.049 538.923 223.107 538.556 223.365C538.188 223.622 539.051 224.887 538.836 225.189C538.464 225.712 537.545 225.644 536.625 225.231C536.215 225.047 534.039 223.619 533.722 223.864C533.405 224.108 533.635 225.84 534.496 226.865C535.263 227.905 536.298 228.717 537.49 229.215C538.31 229.413 539.144 229.551 539.984 229.627L543.206 233.068" fill="#F9C5C8"/>
<path d="M603.77 207.99C597.625 204.031 591.699 205.421 585.198 213.807C580.818 219.458 573.037 237.749 567.98 238.216C562.922 238.682 542.013 228.425 542.013 228.425L540.556 230.359C540.556 230.359 557.278 253.635 574.801 253.665C583.278 253.679 601.661 235.91 605.795 229.455C611 221.325 609.136 211.448 603.77 207.99Z" fill="#E3FF95"/>
<path d="M613.78 160.27C613.78 156.906 615.116 153.68 617.495 151.301C619.873 148.922 623.099 147.586 626.463 147.586H648.42C650.088 147.582 651.742 147.906 653.284 148.541C654.827 149.177 656.23 150.11 657.411 151.289C658.593 152.467 659.53 153.867 660.17 155.408C660.81 156.949 661.139 158.601 661.139 160.27C661.139 161.938 660.81 163.591 660.17 165.132C659.53 166.673 658.593 168.073 657.411 169.251C656.23 170.429 654.827 171.363 653.284 171.998C651.742 172.633 650.088 172.958 648.42 172.953H626.463C625.263 172.951 624.069 172.779 622.917 172.441L618.142 175.724L619.526 170.881C617.761 169.73 616.311 168.156 615.308 166.304C614.304 164.451 613.779 162.377 613.78 160.27Z" fill="#E8DFCA"/>
<path d="M648.63 161.25C648.63 161.657 648.751 162.054 648.977 162.393C649.203 162.731 649.524 162.995 649.9 163.151C650.276 163.306 650.69 163.347 651.089 163.268C651.488 163.188 651.855 162.992 652.142 162.705C652.43 162.417 652.626 162.05 652.705 161.651C652.785 161.252 652.744 160.838 652.588 160.463C652.433 160.087 652.169 159.765 651.831 159.539C651.492 159.313 651.095 159.192 650.688 159.192C650.418 159.192 650.15 159.246 649.9 159.349C649.651 159.452 649.424 159.604 649.233 159.795C649.042 159.986 648.89 160.213 648.787 160.462C648.683 160.712 648.63 160.98 648.63 161.25Z" fill="white"/>
<path d="M641.85 163.31C642.987 163.31 643.908 162.389 643.908 161.253C643.908 160.116 642.987 159.195 641.85 159.195C640.714 159.195 639.793 160.116 639.793 161.253C639.793 162.389 640.714 163.31 641.85 163.31Z" fill="white"/>
<path d="M633.02 163.31C634.156 163.31 635.077 162.389 635.077 161.253C635.077 160.116 634.156 159.195 633.02 159.195C631.883 159.195 630.962 160.116 630.962 161.253C630.962 162.389 631.883 163.31 633.02 163.31Z" fill="white"/>
<path d="M624.19 163.31C625.326 163.31 626.247 162.389 626.247 161.253C626.247 160.116 625.326 159.195 624.19 159.195C623.053 159.195 622.132 160.116 622.132 161.253C622.132 162.389 623.053 163.31 624.19 163.31Z" fill="white"/>
<path d="M111.3 191.19L109.968 191.038L109.159 198.14L110.491 198.292L111.3 191.19Z" fill="#4348A3"/>
<path d="M111.76 180.55C109.29 180.268 107.002 182.539 106.651 185.621C106.3 188.703 108.017 191.43 110.487 191.712C112.958 191.994 115.245 189.723 115.596 186.641C115.948 183.559 114.23 180.831 111.76 180.55ZM110.578 190.918C108.459 190.676 106.986 188.337 107.288 185.694C107.59 183.05 109.551 181.103 111.67 181.344C113.788 181.586 115.261 183.924 114.96 186.568C114.659 189.212 112.696 191.159 110.577 190.918H110.578Z" fill="#352E73"/>
<path d="M109.23 203.46C108.967 203.43 108.728 203.297 108.563 203.09C108.399 202.884 108.324 202.621 108.354 202.358L109.378 193.368L111.356 193.594L110.331 202.584C110.301 202.846 110.168 203.086 109.962 203.25C109.755 203.414 109.492 203.49 109.23 203.46Z" fill="#352E73"/>
<path d="M110.23 208.08L109.848 203.89C109.3 203.03 108.798 202.142 108.344 201.229C107.62 199.219 108.572 196.763 109.017 196.516C109.159 196.989 109.07 198.002 109.848 197.776C110.627 197.55 111.159 195.298 111.159 195.298C111.159 195.298 111.635 195.255 112.042 196.103C112.195 196.439 112.31 196.791 112.382 197.153C112.88 197.537 113.294 198.019 113.598 198.57C114.067 199.6 114.196 200.752 113.968 201.861C113.832 202.241 113.062 203.162 113.062 203.469C113.062 203.777 114.704 210.005 114.704 210.005" fill="#F9C5C8"/>
<path d="M76.31 195.95C67.193 194.018 34.6369 212.904 32.8849 227.435C31.6509 237.673 49.261 266.334 49.261 266.334C49.261 266.334 53.073 268.342 53.073 266.334C53.073 264.326 51.834 230.317 51.834 230.317C51.834 230.317 75.367 226.219 77.001 220.773C78.635 215.327 92.765 199.436 76.31 195.95Z" fill="#ECEAB8"/>
<path d="M102.45 179.68C102.45 179.68 101.103 191.751 98.4089 191.96C95.7149 192.169 89.4829 190.817 88.1799 187.85C87.1919 185.224 86.4079 182.526 85.8369 179.78C85.8369 179.78 92.1229 172.863 94.1429 171.516C96.1639 170.168 103.119 175.313 102.45 179.68Z" fill="#F9C5C8"/>
<path d="M89.1098 182.86L80.4248 194.427C80.4248 194.427 86.9308 201.891 89.1098 203.974C91.2878 206.057 92.3778 200.661 92.3778 200.661L91.6498 196.962L95.9448 186.794" fill="#F9C5C8"/>
<path d="M106.85 174.44C106.328 172.698 104.487 171.739 102.772 171.133C100.853 170.455 98.8698 169.974 96.8528 169.696C95.4668 169.446 94.0448 169.471 92.6678 169.768C91.9808 169.922 91.3358 170.227 90.7808 170.659C90.2248 171.092 89.7718 171.642 89.4538 172.27C89.0048 172.13 88.5238 172.126 88.0728 172.258C87.6208 172.39 87.2188 172.652 86.9158 173.012C85.8068 174.155 85.1228 175.643 84.9768 177.229C84.7308 179.418 84.9848 181.634 85.7198 183.71C86.2858 185.314 87.3868 188.181 89.4148 188.314C89.6428 188.341 89.8728 188.282 90.0598 188.147C90.2508 187.952 90.3698 187.697 90.3958 187.425C90.6428 186.187 90.7188 184.921 90.6238 183.662C90.5408 182.572 90.0828 181.336 90.2968 180.251C90.3398 179.951 90.4678 179.671 90.6648 179.442C90.8618 179.213 91.1208 179.045 91.4098 178.957C91.8128 178.919 92.2208 178.951 92.6128 179.053C93.8058 179.221 95.0888 178.077 96.3468 177.983C98.4258 177.828 100.534 178.683 102.638 178.727C104.973 178.774 107.678 177.207 106.85 174.44Z" fill="#151348"/>
<path d="M91.3298 182.13C91.1828 181.904 90.9568 181.74 90.6968 181.668C90.4368 181.596 90.1588 181.622 89.9168 181.741C89.6788 181.869 89.4708 182.047 89.3078 182.262C89.1438 182.476 89.0278 182.724 88.9668 182.987C88.8548 183.394 88.8288 183.819 88.8888 184.236C88.9498 184.654 89.0968 185.054 89.3198 185.412C89.4578 185.655 89.6468 185.865 89.8758 186.026C90.1038 186.187 90.3648 186.296 90.6398 186.344C90.9168 186.38 91.1968 186.308 91.4228 186.145C91.6488 185.981 91.8038 185.737 91.8568 185.463" fill="#F9C5C8"/>
<path d="M52.8399 386.46C52.8399 386.46 63.6209 389.623 63.6119 392.005C63.6059 393.371 47.7729 393.012 46.8179 392.088C45.2909 390.609 48.0049 386.132 48.0049 386.132L52.8399 386.46Z" fill="#0A2236"/>
<path d="M52.8399 379.8V386.66C52.6619 387.036 52.3799 387.352 52.0259 387.571C51.6719 387.79 51.2629 387.901 50.8469 387.892C50.3379 387.901 49.8329 387.795 49.3699 387.582C48.9069 387.368 48.4989 387.053 48.1749 386.66L48.0049 378.075" fill="#F9C5C8"/>
<path d="M43.9199 267.22C41.3529 272.168 39.5889 277.493 38.6919 282.994C37.6029 291.136 38.9999 301.365 38.9999 301.365C38.9999 301.365 46.4189 334.235 46.2259 337.162C45.1199 353.896 47.7139 384.233 47.7139 384.233L53.3129 384.865C53.3129 384.865 68.4269 354.554 71.2669 326.855C71.7309 322.336 76.0359 271.285 75.4909 268.896" fill="#272829"/>
<path d="M100.44 386.46C100.44 386.46 111.221 389.623 111.212 392.005C111.206 393.371 95.372 393.012 94.418 392.088C92.891 390.609 95.605 386.132 95.605 386.132L100.44 386.46Z" fill="#0A2236"/>
<path d="M100.44 379.8V386.66C100.262 387.036 99.98 387.352 99.626 387.571C99.272 387.79 98.863 387.901 98.447 387.892C97.937 387.901 97.433 387.795 96.97 387.582C96.507 387.368 96.099 387.053 95.775 386.66L95.605 378.075" fill="#F9C5C8"/>
<path d="M98.9099 253.99C98.9099 253.99 109.959 298.543 110.075 325.334C110.192 352.124 100.918 384.125 100.918 384.125H95.5659C95.5659 384.125 87.2939 352.797 85.8389 331.284C81.9189 323.454 67.8619 298.829 67.8619 298.829C60.8499 294.5 56.2439 283.817 58.5109 272.624" fill="#272829"/>
<path d="M72.1799 307.26L69.2649 302.111C67.8839 300.01 66.22 298.109 64.32 296.462C61.765 294.083 59.8319 291.114 58.6889 287.815C57.5459 284.517 57.228 280.988 57.764 277.538L58.5429 277.708C58.0359 281.023 58.3459 284.412 59.4479 287.579C60.5499 290.746 62.41 293.596 64.865 295.88C66.825 297.581 68.5389 299.545 69.9579 301.718L72.875 306.867L72.1799 307.26Z" fill="#454589"/>
<path d="M80.94 193.66C71.835 197.338 63.887 203.399 57.931 211.208C46.506 225.913 36.816 272.056 40.612 275.499C44.408 278.943 52.074 283.4 67.324 283.945C82.574 284.489 103.748 280.808 106.048 275.843C108.349 270.878 98.86 223.129 97.926 217.001C96.716 209.843 94.733 202.838 92.012 196.108C90.79 196.557 89.48 196.717 88.185 196.576C85.618 196.037 83.166 195.049 80.94 193.66Z" fill="#FBFADA"/>
<path d="M75.49 200.66C78.974 199.132 82.789 198.513 86.577 198.861C93.112 199.382 105.829 222.399 108.987 220.726C110.076 220.15 109.85 204.666 109.85 204.666L113.572 204.451C113.572 204.451 125.817 235.131 112.311 239.961C105.61 242.358 80.936 219.018 80.936 219.018" fill="#FBFADA"/>
</g>
<defs>
<linearGradient id="paint0_linear_983_133" x1="508.91" y1="185.45" x2="508.91" y2="71.86" gradientUnits="userSpaceOnUse">
<stop stop-color="white" stop-opacity="0.2"/>
<stop offset="0.273" stop-color="white" stop-opacity="0.2085"/>
<stop offset="0.4033" stop-color="white" stop-opacity="0.238"/>
<stop offset="0.5034" stop-color="white" stop-opacity="0.2889"/>
<stop offset="0.5881" stop-color="white" stop-opacity="0.3612"/>
<stop offset="0.663" stop-color="white" stop-opacity="0.4552"/>
<stop offset="0.7299" stop-color="white" stop-opacity="0.5688"/>
<stop offset="0.7903" stop-color="white" stop-opacity="0.7"/>
</linearGradient>
<linearGradient id="paint1_linear_983_133" x1="53541" y1="43515" x2="53541" y2="30612" gradientUnits="userSpaceOnUse">
<stop stop-color="white" stop-opacity="0.2"/>
<stop offset="0.273" stop-color="white" stop-opacity="0.2085"/>
<stop offset="0.4033" stop-color="white" stop-opacity="0.238"/>
<stop offset="0.5034" stop-color="white" stop-opacity="0.2889"/>
<stop offset="0.5881" stop-color="white" stop-opacity="0.3612"/>
<stop offset="0.663" stop-color="white" stop-opacity="0.4552"/>
<stop offset="0.7299" stop-color="white" stop-opacity="0.5688"/>
<stop offset="0.7903" stop-color="white" stop-opacity="0.7"/>
</linearGradient>
</defs>
</svg>
