<?xml version="1.0" encoding="UTF-8"?>
<svg width="663.28" height="444.71" data-name="Layer 1" version="1.1" viewBox="0 0 663.28 444.71" xmlns="http://www.w3.org/2000/svg" xmlns:cc="http://creativecommons.org/ns#" xmlns:dc="http://purl.org/dc/elements/1.1/" xmlns:rdf="http://www.w3.org/1999/02/22-rdf-syntax-ns#">
 <metadata>
  <rdf:RDF>
   <cc:Work rdf:about="">
    <dc:format>image/svg+xml</dc:format>
    <dc:type rdf:resource="http://purl.org/dc/dcmitype/StillImage"/>
    <dc:title>rev-2</dc:title>
   </cc:Work>
  </rdf:RDF>
 </metadata>
 <defs>
  <style>.cls-1{fill:none;}.cls-2{fill:#dadbdc;}.cls-3,.cls-34{fill:#f4bdd2;}.cls-4{fill:#e6e7e8;}.cls-5{fill:#f03c69;}.cls-6{fill:#0a2236;}.cls-7{fill:#000f19;}.cls-8{fill:#f9c5c8;}.cls-9{fill:#e4878e;}.cls-10{fill:#e2e4e6;}.cls-11{fill:#b2b2b2;}.cls-12{fill:#fbfbfb;}.cls-13{fill:#e48788;}.cls-14,.cls-26,.cls-31{fill:#fff;}.cls-15{fill:#a7a9ac;}.cls-16{fill:#425564;}.cls-17{fill:#2d4253;}.cls-18{fill:#b0e0e8;}.cls-19{fill:#cffbff;}.cls-20{fill:#ff5a89;}.cls-21{fill:#a1e0bd;}.cls-22{clip-path:url(#clip-path);}.cls-23{fill:#999b9d;}.cls-24{clip-path:url(#clip-path-2);}.cls-25{opacity:0.5;}.cls-26{stroke:#888cf0;stroke-miterlimit:10;stroke-width:0.8792px;}.cls-27,.cls-32{fill:#f79cba;}.cls-28{clip-path:url(#clip-path-3);}.cls-29{clip-path:url(#clip-path-4);}.cls-30{clip-path:url(#clip-path-5);}.cls-31,.cls-32,.cls-34{fill-rule:evenodd;}.cls-33{clip-path:url(#clip-path-6);}.cls-35{fill:#f1f2f2;}.cls-36{clip-path:url(#clip-path-7);}</style>
  <clipPath id="clip-path">
   <rect class="cls-1" x="1078.6" y="500.5" width="405.15" height="111.5"/>
  </clipPath>
  <clipPath id="clip-path-2">
   <rect class="cls-1" x="182.62" y="229" width="92.32" height="52.94"/>
  </clipPath>
  <clipPath id="clip-path-3">
   <rect class="cls-1" x="289.74" y="229" width="92.33" height="52.94"/>
  </clipPath>
  <clipPath id="clip-path-4">
   <rect class="cls-1" x="182.62" y="336.23" width="92.32" height="52.94"/>
  </clipPath>
  <clipPath id="clip-path-5">
   <rect class="cls-1" x="289.74" y="336.23" width="92.33" height="52.94"/>
  </clipPath>
  <clipPath id="clip-path-6">
   <path class="cls-1" d="m742.29 317.86a1.7772 1.7772 0 0 0-1.86-1.69l-1.9 0.09a1.7564 1.7564 0 0 1-1.76-1.21 18.206 18.206 0 0 0-1.92-4.09 1.7487 1.7487 0 0 1 0.19-2.13l1.27-1.4a1.7818 1.7818 0 0 0-0.11-2.51l-2.69-2.44a1.7728 1.7728 0 0 0-2.51 0.11l-1.28 1.4a1.7568 1.7568 0 0 1-2.1 0.4 17.881 17.881 0 0 0-4.26-1.53 1.771 1.771 0 0 1-1.36-1.65l-0.09-1.89a1.7772 1.7772 0 0 0-1.86-1.69l-3.63 0.17a1.7772 1.7772 0 0 0-1.69 1.86l0.08 1.89a1.7641 1.7641 0 0 1-1.2 1.77 18.004 18.004 0 0 0-4.09 1.92 1.763 1.763 0 0 1-2.13-0.19l-1.4-1.27a1.7848 1.7848 0 0 0-2.52 0.11l-2.44 2.69a1.7737 1.7737 0 0 0 0.12 2.51l1.4 1.28a1.7711 1.7711 0 0 1 0.4 2.1 18.351 18.351 0 0 0-1.54 4.26 1.76 1.76 0 0 1-1.64 1.36l-1.89 0.09a1.7922 1.7922 0 0 0-1.7 1.86l0.18 3.63a1.7712 1.7712 0 0 0 1.86 1.69l1.89-0.09a1.7483 1.7483 0 0 1 1.76 1.21 18.685 18.685 0 0 0 1.93 4.09 1.7777 1.7777 0 0 1-0.19 2.13l-1.28 1.4a1.7858 1.7858 0 0 0 0.12 2.52l2.68 2.44a1.7854 1.7854 0 0 0 2.52-0.12l1.28-1.4a1.7711 1.7711 0 0 1 2.1-0.4 17.806 17.806 0 0 0 4.25 1.53 1.79 1.79 0 0 1 1.37 1.65l0.09 1.89a1.786 1.786 0 0 0 1.86 1.7l3.62-0.18a1.7727 1.7727 0 0 0 1.7-1.86l-0.09-1.89a1.7686 1.7686 0 0 1 1.21-1.77 18.206 18.206 0 0 0 4.09-1.92 1.763 1.763 0 0 1 2.13 0.19l1.4 1.28a1.7737 1.7737 0 0 0 2.51-0.12l2.44-2.69a1.7822 1.7822 0 0 0-0.11-2.51l-1.41-1.27a1.7857 1.7857 0 0 1-0.39-2.11 17.806 17.806 0 0 0 1.53-4.25 1.7671 1.7671 0 0 1 1.64-1.37l1.9-0.09a1.7772 1.7772 0 0 0 1.69-1.86zm-24.17 12.69a9.854 9.854 0 1 1 10.83-11.91 9.84 9.84 0 0 1-10.83 11.91z"/>
  </clipPath>
  <clipPath id="clip-path-7">
   <path class="cls-1" d="m788.79 361.48-2.6-0.93a2.5755 2.5755 0 0 1-1.71-2.61 26.754 26.754 0 0 0-0.32-6.58 2.5443 2.5443 0 0 1 1.44-2.76l2.49-1.18a2.6012 2.6012 0 0 0 1.24-3.46l-2.27-4.78a2.5744 2.5744 0 0 0-3.45-1.23l-2.49 1.18a2.5889 2.5889 0 0 1-3.06-0.64 26.4 26.4 0 0 0-4.88-4.42 2.5906 2.5906 0 0 1-0.93-2.98l0.93-2.6a2.5878 2.5878 0 0 0-1.57-3.31l-4.98-1.78a2.6026 2.6026 0 0 0-3.32 1.57l-0.93 2.6a2.5753 2.5753 0 0 1-2.6 1.71 26.274 26.274 0 0 0-6.58 0.32 2.57 2.57 0 0 1-2.76-1.44l-1.19-2.5a2.5984 2.5984 0 0 0-3.45-1.24l-4.78 2.27a2.5774 2.5774 0 0 0-1.23 3.45l1.17 2.5a2.5714 2.5714 0 0 1-0.63 3.05 27.486 27.486 0 0 0-4.43 4.88 2.5764 2.5764 0 0 1-2.97 0.94l-2.6-0.93a2.5745 2.5745 0 0 0-3.31 1.56l-1.78 4.99a2.5835 2.5835 0 0 0 1.57 3.31l2.6 0.93a2.555 2.555 0 0 1 1.7 2.6 26.331 26.331 0 0 0 0.33 6.59 2.5767 2.5767 0 0 1-1.44 2.76l-2.5 1.18a2.58 2.58 0 0 0-1.49 2.37h22.43a14.39 14.39 0 1 1 18.68 0h22.5l0.74-2.08a2.5878 2.5878 0 0 0-1.57-3.31z"/>
  </clipPath>
 </defs>
 <title>rev-2</title>
 <path class="cls-2" d="m40.069 480.11s59.42-30.063 145.9-2.8295c-44.034 7.0741-137.05 4.5979-145.9 2.8295z"/>
 <path class="cls-3" d="m37.115 440.95s85.819-20.514 134.4 36.439c-57.257 5.1125-108.12-13.388-134.4-36.439z"/>
 <path class="cls-3" d="m177.45 487.29s-139.74-122.68-102.3-230.75c83.694 48.961 102.3 230.75 102.3 230.75z"/>
 <path class="cls-2" d="m197.7 483.59s-106.21-1.6315-186.77-144.37c73.597 19.005 160.22 76.33 186.77 144.37z"/>
 <path class="cls-3" d="m449.58 481.03s59.42-30.064 145.9-2.83c-44.034 7.0741-137.05 4.5983-145.9 2.83z"/>
 <path class="cls-2" d="m462.59 478.42s68.931-55.083 137.13-24.215c-49.639 28.992-103.54 33.893-137.13 24.215z"/>
 <path class="cls-3" d="m473.55 482.93s70.499-101.32 179.92-99.705c-49.271 63.165-134.7 94.392-179.92 99.705z"/>
 <path class="cls-2" d="m456.22 482.93s11.489-174.04 217.83-203.16c-12.691 53.253-80.042 140.52-217.83 203.16z"/>
 <path class="cls-4" d="m256.79 444.71a2.1223 2.1223 0 0 1-2.1222-2.1221v-2.7071a2.1222 2.1222 0 1 1 4.2444 0v2.7071a2.1223 2.1223 0 0 1-2.1222 2.1221zm0-11.196a2.1223 2.1223 0 0 1-2.1222-2.1222v-6.3664a2.1222 2.1222 0 0 1 4.2444 0v6.3664a2.1223 2.1223 0 0 1-2.1222 2.1222zm0-14.855a2.1224 2.1224 0 0 1-2.1222-2.1222v-6.3663a2.1222 2.1222 0 0 1 4.2444 0v6.3663a2.1224 2.1224 0 0 1-2.1222 2.1222zm0-14.855a2.1223 2.1223 0 0 1-2.1222-2.1222v-6.3663a2.1222 2.1222 0 1 1 4.2444 0v6.3663a2.1223 2.1223 0 0 1-2.1222 2.1222zm0-14.855a2.1223 2.1223 0 0 1-2.1222-2.1222v-6.366a2.1222 2.1222 0 1 1 4.2444 0v6.3664a2.1223 2.1223 0 0 1-2.1222 2.1218zm0-14.855a2.1224 2.1224 0 0 1-2.1222-2.1222v-3.1311c0-1.0331-0.0309-2.0786-0.0911-3.1069a2.1217 2.1217 0 1 1 4.236-0.2508c0.0663 1.1118 0.0995 2.2412 0.0995 3.3577v3.1314a2.1224 2.1224 0 0 1-2.1222 2.1219zm-1.2538-14.761a2.123 2.123 0 0 1-2.0712-1.6688 51.898 51.898 0 0 0-1.657-5.8808 2.1222 2.1222 0 1 1 4.01-1.3907 56.19 56.19 0 0 1 1.7936 6.3639 2.125 2.125 0 0 1-2.0755 2.5764zm-5.1208-13.882a2.1215 2.1215 0 0 1-1.8734-1.1222 51.893 51.893 0 0 0-3.1937-5.207 2.1223 2.1223 0 0 1 3.4818-2.4277 56.249 56.249 0 0 1 3.4545 5.6338 2.1227 2.1227 0 0 1-1.8692 3.1231zm-8.702-11.975a2.1168 2.1168 0 0 1-1.5314-0.6527 52.274 52.274 0 0 0-4.4837-4.1558 2.1222 2.1222 0 0 1 2.6983-3.2763 56.576 56.576 0 0 1 4.8483 4.4933 2.1221 2.1221 0 0 1-1.5315 3.5915zm-11.615-9.188a2.1144 2.1144 0 0 1-1.0756-0.2942 52.152 52.152 0 0 0-5.4389-2.7885 2.1222 2.1222 0 0 1 1.71-3.8847 56.467 56.467 0 0 1 5.8845 3.0165 2.1227 2.1227 0 0 1-1.08 3.9509zm-13.667-5.6959a2.1372 2.1372 0 0 1-0.54-0.07 51.931 51.931 0 0 0-5.9912-1.1987 2.1223 2.1223 0 0 1 0.5865-4.2039 56.371 56.371 0 0 1 6.4824 1.2973 2.1225 2.1225 0 0 1-0.5378 4.1753zm-14.7-1.77h-6.3665a2.1222 2.1222 0 0 1 0-4.2443h6.3657a2.1222 2.1222 0 0 1 0 4.2443zm-14.855 0h-6.3662a2.1222 2.1222 0 1 1 0-4.2443h6.3662a2.1222 2.1222 0 1 1 0 4.2443zm-14.855 0h-6.3665a2.1222 2.1222 0 0 1 0-4.2443h6.3665a2.1222 2.1222 0 0 1 0 4.2443zm-14.855 0h-6.3665a2.1222 2.1222 0 0 1 0-4.2443h6.3665a2.1222 2.1222 0 0 1 0 4.2443zm-14.855 0h-6.3664a2.1222 2.1222 0 0 1 0-4.2443h6.3664a2.1222 2.1222 0 0 1 0 4.2443zm-14.855 0h-6.3663a2.1222 2.1222 0 0 1 0-4.2443h6.3663a2.1222 2.1222 0 1 1 0 4.2443zm-14.855 0h-6.3665a2.1222 2.1222 0 0 1 0-4.2443h6.3665a2.1222 2.1222 0 0 1 0 4.2443zm-14.855 0h-6.3666a2.1222 2.1222 0 0 1 0-4.2443h6.3663a2.1222 2.1222 0 1 1 0 4.2443zm-14.855 0h-6.3665a2.1222 2.1222 0 0 1 0-4.2443h6.3665a2.1222 2.1222 0 0 1 0 4.2443zm-14.855 0h-6.367a2.1222 2.1222 0 1 1 0-4.2443h6.3665a2.1222 2.1222 0 0 1 0 4.2443zm-14.772-0.9239a2.151 2.151 0 0 1-0.5522-0.0729 29.12 29.12 0 0 1-6.3579-2.546 2.1223 2.1223 0 0 1 2.0307-3.7273 24.79 24.79 0 0 0 5.43 2.1741 2.1225 2.1225 0 0 1-0.55 4.1721zm-12.595-7.5107a2.1185 2.1185 0 0 1-1.54-0.6611 29.372 29.372 0 0 1-4.1014-5.4827 2.122 2.122 0 1 1 3.6725-2.1271 25.138 25.138 0 0 0 3.5073 4.6877 2.1219 2.1219 0 0 1-1.5388 3.5832zm-6.8439-12.973a2.1231 2.1231 0 0 1-2.0735-1.6807 29.407 29.407 0 0 1-0.6392-6.1037v-0.6604a2.1221 2.1221 0 1 1 4.2441 0v0.6611a25.111 25.111 0 0 0 0.5461 5.22 2.125 2.125 0 0 1-2.0775 2.5645zm-0.5907-14.812a2.122 2.122 0 0 1-2.122-2.1222v-6.3663a2.1221 2.1221 0 1 1 4.2441 0v6.3663a2.1222 2.1222 0 0 1-2.1226 2.1225zm0-14.855a2.1221 2.1221 0 0 1-2.122-2.1222v-6.3659a2.1221 2.1221 0 0 1 4.2441 0v6.3664a2.1223 2.1223 0 0 1-2.1226 2.122zm0-14.855a2.1222 2.1222 0 0 1-2.122-2.1222v-6.366a2.1221 2.1221 0 1 1 4.2441 0v6.3663a2.1223 2.1223 0 0 1-2.1226 2.1222zm0-14.855a2.1222 2.1222 0 0 1-2.122-2.1222v-6.3661a2.1221 2.1221 0 1 1 4.2441 0v6.3663a2.1223 2.1223 0 0 1-2.1226 2.1223zm0-14.855a2.1221 2.1221 0 0 1-2.122-2.1222v-6.3664a2.1221 2.1221 0 1 1 4.2441 0v6.3664a2.1223 2.1223 0 0 1-2.1226 2.1225zm0-14.855a2.1222 2.1222 0 0 1-2.122-2.1222v-6.3664a2.1221 2.1221 0 1 1 4.2441 0v6.3663a2.1223 2.1223 0 0 1-2.1226 2.1226zm0-14.855a2.1222 2.1222 0 0 1-2.122-2.1222v-6.3663a2.1221 2.1221 0 1 1 4.2441 0v6.3663a2.1223 2.1223 0 0 1-2.1226 2.1225zm0-14.855a2.1219 2.1219 0 0 1-2.122-2.122v-6.3664a2.1221 2.1221 0 1 1 4.2441 0v6.3664a2.1221 2.1221 0 0 1-2.1226 2.1223zm0-14.855a2.1222 2.1222 0 0 1-2.122-2.1222v-6.3665a2.1221 2.1221 0 0 1 4.2441 0v6.3665a2.1223 2.1223 0 0 1-2.1226 2.1225zm0-14.855a2.1221 2.1221 0 0 1-2.122-2.1221v-6.3663a2.1221 2.1221 0 1 1 4.2441 0v6.3663a2.1222 2.1222 0 0 1-2.1226 2.1224zm0-14.855a2.1219 2.1219 0 0 1-2.122-2.122v-6.3661a2.1221 2.1221 0 1 1 4.2441 0v6.3664a2.1221 2.1221 0 0 1-2.1226 2.122zm0-14.855a2.1222 2.1222 0 0 1-2.122-2.1222v-6.3662a2.1221 2.1221 0 0 1 4.2441 0v6.3665a2.1223 2.1223 0 0 1-2.1226 2.1225zm0-14.855a2.1221 2.1221 0 0 1-2.122-2.1221v-6.3663a2.1221 2.1221 0 1 1 4.2441 0v6.3663a2.1222 2.1222 0 0 1-2.1226 2.1224zm0-14.855a2.122 2.122 0 0 1-2.122-2.1221v-6.3663a2.1221 2.1221 0 1 1 4.2441 0v6.3663a2.1221 2.1221 0 0 1-2.1226 2.1226zm0-14.855a2.1222 2.1222 0 0 1-2.122-2.1222v-6.3665a2.1221 2.1221 0 0 1 4.2441 0v6.3665a2.1223 2.1223 0 0 1-2.1226 2.1225zm0-14.855a2.1221 2.1221 0 0 1-2.122-2.1221v-6.3663a2.1221 2.1221 0 1 1 4.2441 0v6.3663a2.1222 2.1222 0 0 1-2.1226 2.1223zm0.5068-14.813a2.1229 2.1229 0 0 1-2.0652-2.6206 20.016 20.016 0 0 1 2.8526-6.4808 2.1224 2.1224 0 0 1 3.5231 2.3677 15.753 15.753 0 0 0-2.25 5.1089 2.1234 2.1234 0 0 1-2.061 1.6251zm8.733-11.498a2.1224 2.1224 0 0 1-1.0391-3.9737 19.976 19.976 0 0 1 6.69-2.3176 2.122 2.122 0 0 1 0.659 4.1926 15.762 15.762 0 0 0-5.2754 1.8272 2.1074 2.1074 0 0 1-1.035 0.2722zm184.23-2.2926h-6.367a2.1222 2.1222 0 0 1 0-4.2443h6.3665a2.1222 2.1222 0 1 1 0 4.2443zm-14.855 0h-6.3671a2.1222 2.1222 0 1 1 0-4.2443h6.3663a2.1222 2.1222 0 0 1 0 4.2443zm-14.855 0h-6.3663a2.1222 2.1222 0 1 1 0-4.2443h6.3663a2.1222 2.1222 0 0 1 0 4.2443zm-14.855 0h-6.3674a2.1222 2.1222 0 0 1 0-4.2443h6.3665a2.1222 2.1222 0 1 1 0 4.2443zm-14.855 0h-6.3663a2.1222 2.1222 0 1 1 0-4.2443h6.3663a2.1222 2.1222 0 0 1 0 4.2443zm-14.855 0h-6.3663a2.1222 2.1222 0 1 1 0-4.2443h6.3663a2.1222 2.1222 0 0 1 0 4.2443zm-14.855 0h-6.3665a2.1222 2.1222 0 0 1 0-4.2443h6.3665a2.1222 2.1222 0 1 1 0 4.2443zm-14.855 0h-6.3663a2.1222 2.1222 0 1 1 0-4.2443h6.3663a2.1222 2.1222 0 0 1 0 4.2443zm-14.855 0h-6.3663a2.1222 2.1222 0 1 1 0-4.2443h6.3663a2.1222 2.1222 0 0 1 0 4.2443zm-14.855 0h-6.3665a2.1222 2.1222 0 0 1 0-4.2443h6.3665a2.1222 2.1222 0 0 1 0 4.2443zm-14.855 0h-6.3665a2.1222 2.1222 0 0 1 0-4.2443h6.3665a2.1222 2.1222 0 0 1 0 4.2443zm-14.855 0h-6.3663a2.1222 2.1222 0 1 1 0-4.2443h6.3663a2.1222 2.1222 0 0 1 0 4.2443z"/>
 <path class="cls-5" d="m249.96 389.24-3.23-12.996a59.782 59.782 0 0 1 3.858-39.733l21.952-46.97 21.016 6.6-19.454 87.02-1.0421 5.2107z"/>
 <path class="cls-6" d="m349.02 324.12c-27.662-24.235-36.819-37.063-39.779-45.36a20.791 20.791 0 0 1-0.69-2.2706c-1.7507-6.9605 0.8276-10.547-2.1433-16.287a13.064 13.064 0 0 0-4.2125-4.4565c-11.65-8.2762-37.445-11.162-13.964-41.742 9.9527-12.977 13.486-50.443 48.501-40.692 6.0268-2.048 34.018-6.3665 40.076 26.208 6.8758 36.988-4.3715 27.842 16.807 34.75 14.43 4.7111 8.6689 18.982 10.059 38.899s45.382 11.162 47.239 44.045c1.8465 32.882-45.848 56.002-101.89 6.9067z"/>
 <path class="cls-7" d="m397.18 308.72c-14.638 9.7063-4.94-42.866-37.765-23.406-28.936-12.486-55.332-49.05-55.332-49.05s32.489-6.8947 54.114-21.75c19.19 1.3667-27.099 53.624 38.983 94.206z"/>
 <path class="cls-8" d="m305.54 237.1c-0.0532 0.0214-0.1168 0.0425-0.17 0.0638-3.13 1.0928-7.0668-3.5228-8.8811-7.8414-1.8568-4.3926-0.7956-9.0295 2.3449-10.356a4.943 4.943 0 0 1 3.3424-0.1273h0.0212a9.663 9.663 0 0 1 5.6872 5.6767c1.857 4.3929 0.796 11.258-2.3446 12.584z"/>
 <path class="cls-8" d="m368.85 229.32c-1.4112 3.3531-4.0955 6.8757-6.6846 7.7776-0.0212 0.0107-0.0424 0.0107-0.0637 0.0214a3.159 3.159 0 0 1-2.2919-0.0214c-3.1513-1.3262-4.2018-8.1912-2.3555-12.584 1.4006-3.3423 4.0957-5.5812 6.6846-5.8677a2.86 2.86 0 0 1 0.4245-0.0319 3.8754 3.8754 0 0 1 0.7 0.0319h0.0212a4.233 4.233 0 0 1 1.22 0.3183c3.1414 1.3264 4.2023 5.9633 2.3454 10.356z"/>
 <path class="cls-9" d="m302.97 227.2a4.3363 4.3363 0 0 0-0.6766-2.025 3.2264 3.2264 0 0 0-1.8454-1.4614 2.4307 2.4307 0 0 0-0.6935-0.0729 2.7348 2.7348 0 0 0-0.6668 0.1544 2.4946 2.4946 0 0 0-1.035 0.7217 1.837 1.837 0 0 0-0.4235 1.1955 1.7247 1.7247 0 0 0 0.3975 1.0515 1.8222 1.8222 0 0 1 0.7839-1.46 2.2759 2.2759 0 0 1 0.688-0.2564 1.16 1.16 0 0 1 0.6061 0.0124 3.7585 3.7585 0 0 1 1.3609 0.8226c0.4799 0.3954 0.9489 0.8555 1.5044 1.3176z"/>
 <path class="cls-9" d="m362.24 227.2a4.3363 4.3363 0 0 1 0.6766-2.025 3.2262 3.2262 0 0 1 1.8456-1.4614 2.43 2.43 0 0 1 0.6935-0.0729 2.7321 2.7321 0 0 1 0.6666 0.1544 2.4934 2.4934 0 0 1 1.035 0.7217 1.837 1.837 0 0 1 0.4235 1.1955 1.7241 1.7241 0 0 1-0.3975 1.0515 1.8212 1.8212 0 0 0-0.7839-1.46 2.2749 2.2749 0 0 0-0.688-0.2564 1.16 1.16 0 0 0-0.606 0.0124 3.7572 3.7572 0 0 0-1.361 0.8226c-0.4803 0.3954-0.9493 0.8555-1.5044 1.3176z"/>
 <path class="cls-9" d="m307.89 224.52c1.8568 4.3929 0.7958 11.258-2.3448 12.584-0.0532 0.0214-0.1168 0.0425-0.17 0.0638-1.39-5.3584-2.9073-12.16-3.1513-17.295-0.01-0.3183-0.032-0.6683-0.0425-1.0292h0.0212a9.663 9.663 0 0 1 5.6874 5.6767z"/>
 <path class="cls-9" d="m365.28 218.65c-0.0105 0.4351-0.0212 0.8382-0.0423 1.22-0.0532 1.1991-0.18 2.483-0.3609 3.82-0.0636 0.5092-0.1379 1.0291-0.2334 1.5492v0.01a121.28 121.28 0 0 1-2.5466 11.873 3.159 3.159 0 0 1-2.2919-0.0214c-3.1513-1.3262-4.2018-8.1912-2.3555-12.584 1.4006-3.3423 4.0957-5.5812 6.6846-5.8677z"/>
 <path class="cls-8" d="m386.38 310.2a0.29 0.29 0 0 1-0.2759 0.35h-106.85a0.2866 0.2866 0 0 1-0.2865-0.35c0.382-2.1221 0.6578-18.367 10.133-25.328a19.693 19.693 0 0 1 6.0268-2.96l23.354-7.3a3.7237 3.7237 0 0 0 0.7-0.2866 4.6666 4.6666 0 0 0 2.1963-3.47 99.9 99.9 0 0 0 0.69-11.746c0.01-0.4667 0.021-0.9337 0.021-1.3795a58.286 58.286 0 0 0 10.59 3.3424 58.812 58.812 0 0 0 10.568-3.3317v0.0213a103.97 103.97 0 0 0 0.7108 13.094 5.5684 5.5684 0 0 0 0.7219 1.9734 2.53 2.53 0 0 0 0.2225 0.3608 3.6679 3.6679 0 0 0 1.9631 1.4219l23.29 7.2788a20.975 20.975 0 0 1 6.9077 3.597c8.796 7.0031 8.9446 22.654 9.3159 24.712z"/>
 <path class="cls-8" d="m332.67 181.15c-31.524-1.2359-31.98 28.836-31.51 38.723 0.3414 7.1774 3.1613 17.611 4.6813 22.791a17.752 17.752 0 0 0 4.7223 7.8837c8.2291 7.8516 22.106 10.52 22.106 10.52s13.877-2.6682 22.106-10.52a17.754 17.754 0 0 0 4.7221-7.8837c1.52-5.18 4.34-15.614 4.6815-22.791 0.4705-9.8867 0.0137-39.959-31.51-38.723z"/>
 <path class="cls-6" d="m375.51 199.38-7.8576 17.946-3.4423 1.3333-1.2266-1.7086s-8.457-0.2449-7.7553-13.702c0.5906-11.324-4.4968-11.108-5.7406-9.4686-1.0837-1.195-11.481-15.18-16.976-8.7949-5.7942 6.7321-0.1874 35.336-23.372 37.392-23.177 2.0564-8.9693-17.758-8.9693-17.758l9.9069-23.372 18.133-6.7322 27.666 2.8069z"/>
 <path class="cls-5" d="m387.86 384.38h-3e-3a16.911 16.911 0 0 1-16.76-14.659l-4.9994-37.219-3.0223 51.878h-61.118l-3.022-51.878-5.0932 37.917a16.105 16.105 0 0 1-15.961 13.961 16.104 16.104 0 0 1-15.984-18.064l8.5677-69.879a23.17 23.17 0 0 1 23.233-20.44h79.258a23.17 23.17 0 0 1 23.233 20.44l8.457 68.974a16.91 16.91 0 0 1-16.785 18.968z"/>
 <path class="cls-8" d="m273.8 394.17h-26.277v-3.2108a12.103 12.103 0 0 1 12.103-12.103h2.0714a12.103 12.103 0 0 1 12.103 12.103v3.2108z"/>
 <path class="cls-10" d="m274.94 394.71h-22.656a1.173 1.173 0 0 1-1.1718-1.3087c0-0.0172 9e-3 -0.0342 9e-3 -0.0514a12.63 12.63 0 0 1 4.1824-7.7571 12.622 12.622 0 0 1 19.124 2.9934 12.331 12.331 0 0 1 1.6681 4.7637c0 0.0172 8e-3 0.0342 8e-3 0.0514a1.1666 1.1666 0 0 1-1.1632 1.3087z"/>
 <path class="cls-11" d="m274.94 394.71h-22.656a1.173 1.173 0 0 1-1.1718-1.3087c0-0.0172 9e-3 -0.0342 9e-3 -0.0514h24.974c0 0.0172 8e-3 0.0342 8e-3 0.0514a1.1666 1.1666 0 0 1-1.1632 1.3087z"/>
 <path class="cls-12" d="m274.42 388.58c-0.2462 0.1643-0.4869 0.3227-0.7155 0.475-4.7044 3.103-7.731 4.986-10.095 4.986-2.3169 0-5.2907-1.7423-9.9127-4.6105-0.3227-0.1994-0.6689-0.4164-1.0266-0.6393a12.472 12.472 0 0 1 2.6278-3.2026c0.1876 0.1173 0.3754 0.2346 0.5689 0.3519 2.5573 1.5895 6.4286 3.9944 7.7426 3.9944 1.3021 0 5.232-2.5925 7.8364-4.3112 0.1-0.0645 0.1935-0.129 0.2933-0.1935a12.669 12.669 0 0 1 2.6806 3.1498z"/>
 <path class="cls-8" d="m256.79 388.97a2.4316 2.4316 0 0 1-2.4317-2.4317v-5.0172a2.4317 2.4317 0 1 1 4.8633 0v5.0172a2.4315 2.4315 0 0 1-2.4316 2.4317z"/>
 <path class="cls-13" d="m258.95 387.64a2.43 2.43 0 0 1-4.5942-1.1035v-5.0188a2.41 2.41 0 0 1 1.326-2.1646 2.42 2.42 0 0 0-0.2652 1.1035v5.0082a2.4385 2.4385 0 0 0 2.43 2.44 2.3878 2.3878 0 0 0 1.1034-0.2648z"/>
 <path class="cls-8" d="m261.87 388.97a2.4318 2.4318 0 0 1-2.4319-2.4317v-5.0172a2.4318 2.4318 0 1 1 4.8635 0v5.0172a2.4317 2.4317 0 0 1-2.4316 2.4317z"/>
 <path class="cls-13" d="m264.03 387.64a2.43 2.43 0 0 1-4.5945-1.1035v-5.0188a2.41 2.41 0 0 1 1.3264-2.1646 2.4187 2.4187 0 0 0-0.2652 1.1035v5.0082a2.4384 2.4384 0 0 0 2.43 2.44 2.3878 2.3878 0 0 0 1.1033-0.2648z"/>
 <path class="cls-8" d="m266.86 388.97a2.4318 2.4318 0 0 1-2.4317-2.4317v-5.0172a2.4317 2.4317 0 1 1 4.8633 0v5.0172a2.4316 2.4316 0 0 1-2.4316 2.4317z"/>
 <path class="cls-13" d="m269.03 387.64a2.43 2.43 0 0 1-4.5943-1.1035v-5.0188a2.41 2.41 0 0 1 1.3263-2.1646 2.4175 2.4175 0 0 0-0.2653 1.1035v5.0082a2.4385 2.4385 0 0 0 2.43 2.44 2.3872 2.3872 0 0 0 1.1033-0.2648z"/>
 <path class="cls-8" d="m267.4 391.81a2.4316 2.4316 0 0 0 2.4316 2.4316h5.0174a2.4317 2.4317 0 0 0 0-4.8633h-5.0174a2.4316 2.4316 0 0 0-2.4316 2.4317z"/>
 <path class="cls-13" d="m268.72 389.64a2.43 2.43 0 0 0 1.1035 4.5943h5.019a2.41 2.41 0 0 0 2.1643-1.3262 2.4184 2.4184 0 0 1-1.1032 0.2652h-5.0083a2.4384 2.4384 0 0 1-2.44-2.43 2.3853 2.3853 0 0 1 0.2647-1.1033z"/>
 <path class="cls-8" d="m251.35 392.95a2.2016 2.2016 0 0 1-2.2014-2.2015v-4.5424a2.2014 2.2014 0 0 1 4.4028 0v4.5424a2.2015 2.2015 0 0 1-2.2014 2.2015z"/>
 <path class="cls-13" d="m253.31 391.75a2.2 2.2 0 0 1-4.16-0.9991v-4.5437a2.1816 2.1816 0 0 1 1.2008-1.96 2.191 2.191 0 0 0-0.24 0.9989v4.5341a2.2077 2.2077 0 0 0 2.2 2.2094 2.1611 2.1611 0 0 0 0.9992-0.2396z"/>
 <path class="cls-3" d="m381.13 316h-93.736a7.7672 7.7672 0 0 0-7.7582 7.7581v66.344h109.25v-66.344a7.7674 7.7674 0 0 0-7.7589-7.7581z"/>
 <path class="cls-14" d="m342.67 352.16a8.4134 8.4134 0 1 1-8.4133-8.4134 8.4132 8.4132 0 0 1 8.4133 8.4134z"/>
 <path class="cls-15" d="m386.99 396.01h-105.45a3.9055 3.9055 0 0 1-3.9056-3.9057v-1.9527a1.953 1.953 0 0 1 1.9529-1.9529h109.36a1.9528 1.9528 0 0 1 1.9527 1.9529v1.9527a3.9052 3.9052 0 0 1-3.9053 3.9057z"/>
 <path class="cls-13" d="m344.68 272.83c-15.587-1.1671-20.999-9.9951-22.611-13.72 0.01-0.4667 0.021-0.9337 0.021-1.3795a58.286 58.286 0 0 0 10.59 3.3424 58.812 58.812 0 0 0 10.568-3.3317v0.0213a103.97 103.97 0 0 0 0.7108 13.094 5.5684 5.5684 0 0 0 0.7214 1.9739z"/>
 <path class="cls-4" d="m534.1 415.37h-6.3661a2.1222 2.1222 0 1 1 0-4.2443h6.3661a2.1222 2.1222 0 1 1 0 4.2443zm-14.855 0h-6.3665a2.1222 2.1222 0 1 1 0-4.2443h6.3665a2.1222 2.1222 0 0 1 0 4.2443zm-14.855 0h-6.3662a2.1222 2.1222 0 1 1 0-4.2443h6.3662a2.1222 2.1222 0 1 1 0 4.2443zm-14.855 0h-6.3663a2.1222 2.1222 0 0 1 0-4.2443h6.3663a2.1222 2.1222 0 1 1 0 4.2443zm-14.855 0h-6.3666a2.1222 2.1222 0 1 1 0-4.2443h6.3666a2.1222 2.1222 0 0 1 0 4.2443zm-14.855 0h-6.3664a2.1222 2.1222 0 0 1 0-4.2443h6.3664a2.1222 2.1222 0 1 1 0 4.2443zm-14.855 0h-6.3661a2.1222 2.1222 0 1 1 0-4.2443h6.3661a2.1222 2.1222 0 1 1 0 4.2443zm-14.855 0h-6.3663a2.1222 2.1222 0 1 1 0-4.2443h6.3663a2.1222 2.1222 0 1 1 0 4.2443zm-14.855 0h-6.3664a2.1222 2.1222 0 0 1 0-4.2443h6.3667a2.1222 2.1222 0 1 1 0 4.2443zm-14.855 0h-6.3663a2.1222 2.1222 0 0 1 0-4.2443h6.3663a2.1222 2.1222 0 1 1 0 4.2443zm-14.855 0h-6.3663a2.1222 2.1222 0 1 1 0-4.2443h6.3664a2.1222 2.1222 0 1 1 0 4.2443zm-14.855 0h-6.3664a2.1222 2.1222 0 1 1 0-4.2443h6.3664a2.1222 2.1222 0 1 1 0 4.2443zm-14.855 0h-6.3661a2.1222 2.1222 0 1 1 0-4.2443h6.3659a2.1222 2.1222 0 1 1 0 4.2443zm-14.855 0h-6.3663a2.1222 2.1222 0 1 1 0-4.2443h6.3663a2.1222 2.1222 0 1 1 0 4.2443zm-14.855 0h-6.3664a2.1222 2.1222 0 1 1 0-4.2443h6.3664a2.1222 2.1222 0 0 1 0 4.2443zm-14.855 0h-0.2291a2.1222 2.1222 0 0 1 0-4.2443h0.2291a2.1222 2.1222 0 1 1 0 4.2443zm231.31-0.0963a2.1221 2.1221 0 0 1-0.1275-4.24 49.502 49.502 0 0 0 6.0514-0.7461 2.122 2.122 0 1 1 0.7793 4.1718 53.482 53.482 0 0 1-6.5715 0.81c-0.0447 3e-3 -0.0881 4e-3 -0.1317 4e-3zm14.487-3.0237a2.1229 2.1229 0 0 1-0.7317-4.1157 48.882 48.882 0 0 0 5.58-2.4527 2.1225 2.1225 0 0 1 1.948 3.7717 53.506 53.506 0 0 1-6.0649 2.6662 2.1345 2.1345 0 0 1-0.7316 0.1305zm13.006-7.0586a2.1221 2.1221 0 0 1-1.2736-3.8214 49.55 49.55 0 0 0 4.65-3.9469 2.1216 2.1216 0 0 1 2.9407 3.0588 53.821 53.821 0 0 1-5.0473 4.2868 2.115 2.115 0 0 1-1.2698 0.4224zm10.449-10.477a2.1228 2.1228 0 0 1-1.6994-3.39 49.515 49.515 0 0 0 3.3325-5.1063 2.1215 2.1215 0 1 1 3.6908 2.093 53.297 53.297 0 0 1-3.62 5.5489 2.1185 2.1185 0 0 1-1.7039 0.8544zm7.0348-13.024a2.125 2.125 0 0 1-1.9936-2.85 48.87 48.87 0 0 0 1.7241-5.8513 2.1223 2.1223 0 0 1 4.1386 0.943 53.3 53.3 0 0 1-1.8755 6.3611 2.1226 2.1226 0 0 1-1.9937 1.3972zm2.9935-14.498q-0.0622 0-0.1244-3e-3a2.1235 2.1235 0 0 1-1.9967-2.2411c0.0571-0.9711 0.085-1.95 0.085-2.9118 0-1.0581-0.0341-2.1314-0.1026-3.1916a2.1224 2.1224 0 0 1 4.2361-0.2714c0.0734 1.15 0.1107 2.3148 0.1107 3.463 0 1.0424-0.0311 2.1044-0.0911 3.1562a2.1227 2.1227 0 0 1-2.117 1.9998zm-1.261-14.744a2.1222 2.1222 0 0 1-2.064-1.6392 48.971 48.971 0 0 0-1.7576-5.8359 2.122 2.122 0 0 1 3.9793-1.4755 53.098 53.098 0 0 1 1.91 6.3447 2.1236 2.1236 0 0 1-2.0681 2.6059zm-5.4255-13.763a2.1219 2.1219 0 0 1-1.8424-1.0658 49.149 49.149 0 0 0-3.3584-5.0862 2.1224 2.1224 0 0 1 3.3906-2.5537 53.698 53.698 0 0 1 3.6484 5.5262 2.123 2.123 0 0 1-1.8382 3.1795zm-9.1455-11.634a2.114 2.114 0 0 1-1.4621-0.5844 49.883 49.883 0 0 0-4.6711-3.9235 2.1222 2.1222 0 0 1 2.5242-3.4123 54.113 54.113 0 0 1 5.0711 4.26 2.1221 2.1221 0 0 1-1.4621 3.66zm-12.083-8.5527a2.108 2.108 0 0 1-0.9616-0.2321 48.986 48.986 0 0 0-5.5944-2.4231 2.1218 2.1218 0 1 1 1.4382-3.9925 52.964 52.964 0 0 1 6.0835 2.6345 2.1223 2.1223 0 0 1-0.9657 4.0132zm-14.021-4.7292a2.1063 2.1063 0 0 1-0.38-0.0347 49.449 49.449 0 0 0-6.0545-0.7119 2.1222 2.1222 0 1 1 0.2342-4.2379 53.622 53.622 0 0 1 6.5767 0.7739 2.1223 2.1223 0 0 1-0.3762 4.2106zm-14.803-0.8228h-4.781a2.1221 2.1221 0 0 1-2.1222-2.122v-1.5859a2.1224 2.1224 0 0 1 4.1759-0.5362h2.7273a2.1221 2.1221 0 0 1 0 4.2441zm-4.781-10.074a2.1223 2.1223 0 0 1-2.1222-2.1222v-6.3663a2.1222 2.1222 0 0 1 4.2443 0v6.3663a2.1223 2.1223 0 0 1-2.1221 2.1218zm0-14.855a2.1221 2.1221 0 0 1-2.1222-2.1219v-6.3665a2.1222 2.1222 0 1 1 4.2443 0v6.3665a2.1221 2.1221 0 0 1-2.1221 2.1219zm0-14.855a2.1223 2.1223 0 0 1-2.1222-2.1222v-6.3663a2.1222 2.1222 0 0 1 4.2443 0v6.3663a2.1223 2.1223 0 0 1-2.1221 2.1222zm0-14.855a2.1223 2.1223 0 0 1-2.1222-2.1222v-6.3663a2.1222 2.1222 0 0 1 4.2443 0v6.3663a2.1223 2.1223 0 0 1-2.1221 2.1222zm0-14.855a2.1221 2.1221 0 0 1-2.1222-2.1219v-6.3665a2.1222 2.1222 0 1 1 4.2443 0v6.3665a2.1221 2.1221 0 0 1-2.1221 2.1219zm0-14.855a2.1223 2.1223 0 0 1-2.1222-2.1222v-6.3664a2.1222 2.1222 0 0 1 4.2443 0v6.3664a2.1223 2.1223 0 0 1-2.1221 2.1222zm0-14.855a2.1223 2.1223 0 0 1-2.1222-2.1222v-6.3663a2.1222 2.1222 0 0 1 4.2443 0v6.3663a2.1223 2.1223 0 0 1-2.1221 2.1222zm0-14.855a2.1221 2.1221 0 0 1-2.1222-2.1221v-2.0957a2.1222 2.1222 0 0 1 2.1222-2.122h4.27a2.1221 2.1221 0 1 1 0 4.2442h-2.148a2.122 2.122 0 0 1-2.122 2.0956zm75.046-2.0956h-2.8672a2.1221 2.1221 0 0 1 0-4.2442h0.745v-1.3764a2.1222 2.1222 0 0 1 4.2443 0v3.4986a2.1223 2.1223 0 0 1-2.1222 2.122zm-11.356 0h-6.3663a2.1221 2.1221 0 1 1 0-4.2442h6.3663a2.1221 2.1221 0 1 1 0 4.2442zm-14.856 0h-6.3652a2.1221 2.1221 0 1 1 0-4.2442h6.3652a2.1221 2.1221 0 0 1 0 4.2442zm-14.854 0h-6.3675a2.1221 2.1221 0 1 1 0-4.2442h6.3675a2.1221 2.1221 0 1 1 0 4.2442zm-14.856 0h-6.3663a2.1221 2.1221 0 1 1 0-4.2442h6.3663a2.1221 2.1221 0 1 1 0 4.2442zm55.921-11.987a2.1225 2.1225 0 0 1-2.1222-2.1222v-6.3663a2.1222 2.1222 0 0 1 4.2443 0v6.3663a2.1223 2.1223 0 0 1-2.1221 2.1222zm0-14.855a2.1222 2.1222 0 0 1-2.1222-2.1219v-6.3665a2.1222 2.1222 0 1 1 4.2443 0v6.3665a2.1221 2.1221 0 0 1-2.1221 2.1219zm0-14.855a2.1224 2.1224 0 0 1-2.1222-2.1222v-6.3664a2.1222 2.1222 0 0 1 4.2443 0v6.3664a2.1223 2.1223 0 0 1-2.1221 2.1222z"/>
 <rect class="cls-16" x="136.51" y="412.66" width="371.29" height="71.64"/>
 <path class="cls-17" d="m530.31 397.88v11.961a2.1831 2.1831 0 0 1-0.0141 0.31 2.833 2.833 0 0 1-2.8036 2.5076h-411.66a2.823 2.823 0 0 1-2.8036-2.5076 2.2463 2.2463 0 0 1-0.0137-0.31v-11.961a2.453 2.453 0 0 1 0.0137-0.324 2.8328 2.8328 0 0 1 2.8036-2.4937h411.66a2.8431 2.8431 0 0 1 2.8036 2.4937 2.3839 2.3839 0 0 1 0.0142 0.324z"/>
 <path class="cls-18" d="m190.59 347.75c0 0.1641-9e-3 0.32-0.0167 0.4841l-1.9686 27.468h-12.964l-1.969-27.468a8.4679 8.4679 0 0 1 6.81-8.7787 9.0477 9.0477 0 0 1 1.6408-0.156 8.4685 8.4685 0 0 1 8.4671 8.4506z"/>
 <path class="cls-19" d="m187.31 347.75c0 0.1641-8e-3 0.32-0.0163 0.4841l-1.9689 27.468h-9.6816l-1.969-27.468a6.9946 6.9946 0 1 1 13.636-0.4841z"/>
 <path class="cls-5" d="m197.01 367.49-0.1724 2.1084-1.8377 22.505a3.2872 3.2872 0 0 1-3.2736 3.011h-19.207a3.2872 3.2872 0 0 1-3.2735-3.011l-1.8378-22.505-0.1723-2.1084z"/>
 <path class="cls-20" d="m188.81 367.49-0.1722 2.1084-1.8379 22.505a3.287 3.287 0 0 1-3.2734 3.011h-11.002a3.2872 3.2872 0 0 1-3.2735-3.011l-1.8378-22.505-0.1723-2.1084z"/>
 <path class="cls-17" d="m166.37 367.49h31.513a0.82 0.82 0 0 1 0.82 0.82v0.4676a0.82 0.82 0 0 1-0.82 0.82h-31.514a0.82 0.82 0 0 1-0.82-0.82v-0.4675a0.8206 0.8206 0 0 1 0.8202-0.8201z"/>
 <path class="cls-21" d="m182.13 354.45a1.4088 1.4088 0 0 1-0.4389-2.7475l6.6809-2.1875a1.4088 1.4088 0 0 1 0.8778 2.6773l-6.6809 2.1875a1.3982 1.3982 0 0 1-0.4389 0.0702z"/>
 <path class="cls-21" d="m186.44 361.56a1.3992 1.3992 0 0 1-0.7059-0.19l-3.412-1.9811a1.4093 1.4093 0 0 1 1.4144-2.438l3.4121 1.9812a1.409 1.409 0 0 1-0.7086 2.6278z"/>
 <path class="cls-21" d="m185.47 346.65a1.4086 1.4086 0 0 1-0.8146-2.559c0.3951-0.3316 2.4228-2.4448 4.1812-4.3255a1.41 1.41 0 0 1 2.0582 1.9263c-4.0876 4.3694-4.5126 4.6378-4.6722 4.74a1.4 1.4 0 0 1-0.7526 0.2182z"/>
 <path class="cls-21" d="m178.79 344.4a1.4058 1.4058 0 0 1-1.223-0.707l-1.915-3.3364a1.4088 1.4088 0 0 1 2.4432-1.4034l1.9151 3.3364a1.4086 1.4086 0 0 1-1.22 2.11z"/>
 <path class="cls-21" d="m172.57 347.2a1.409 1.409 0 0 1-0.1759-2.8067l4.3076-0.5476a1.409 1.409 0 0 1 0.355 2.7956l-4.3076 0.5476a1.581 1.581 0 0 1-0.1791 0.0111z"/>
 <path class="cls-21" d="m175.85 354.99a1.3241 1.3241 0 0 1-0.2327-0.0194l-3.2826-0.5475a1.4086 1.4086 0 1 1 0.4623-2.7791l3.2828 0.5476a1.4088 1.4088 0 0 1-0.23 2.7984z"/>
 <path class="cls-21" d="m171.82 362.45a1.4087 1.4087 0 0 1-0.597-2.6854l4.0337-1.8809a1.4089 1.4089 0 0 1 1.1915 2.5535l-4.0338 1.8809a1.4083 1.4083 0 0 1-0.5944 0.1319z"/>
 <path class="cls-21" d="m171.82 366.14a1.409 1.409 0 0 1-0.187-2.8052l4.0338-0.5461a1.409 1.409 0 1 1 0.377 2.7927l-4.0338 0.5463a1.4918 1.4918 0 0 1-0.19 0.0123z"/>
 <path class="cls-21" d="m184.74 367.5a1.409 1.409 0 0 1-0.2765-2.79l4.0738-0.82a1.409 1.409 0 0 1 0.5556 2.7627l-4.0737 0.82a1.381 1.381 0 0 1-0.2792 0.0273z"/>
 <path class="cls-21" d="m193.63 360.57a1.4 1.4 0 0 1-0.5735-0.1223l-4.8167-2.1533a1.409 1.409 0 0 1 1.15-2.5726l4.8166 2.153a1.4089 1.4089 0 0 1-0.5765 2.6952z"/>
 <path class="cls-21" d="m188.81 356.43a1.409 1.409 0 0 1-0.7841-2.581l2.9718-1.9839a1.41 1.41 0 0 1 1.5656 2.3444l-2.9718 1.9838a1.4126 1.4126 0 0 1-0.7815 0.2367z"/>
 <path class="cls-21" d="m189.87 348.29a1.4087 1.4087 0 0 1-0.7-2.6317l1.9152-1.0939a1.4087 1.4087 0 0 1 1.3978 2.4462l-1.9151 1.0938a1.3958 1.3958 0 0 1-0.6979 0.1856z"/>
 <path class="cls-21" d="m181.53 344.4a1.4079 1.4079 0 0 1-1.4087-1.4087v-6.8364a1.4089 1.4089 0 0 1 2.8178 0v6.8364a1.408 1.408 0 0 1-1.4091 1.4087z"/>
 <path class="cls-21" d="m183.93 342.41a1.4088 1.4088 0 0 1-1.2-2.1449l1.9672-3.2124a1.4086 1.4086 0 0 1 2.4021 1.4721l-1.9674 3.2125a1.4073 1.4073 0 0 1-1.2019 0.6727z"/>
 <path class="cls-21" d="m174.72 358.91a1.405 1.405 0 0 1-0.3274-0.0385l-6.6671-1.5876a1.4086 1.4086 0 1 1 0.6522-2.7406l6.6671 1.5876a1.4087 1.4087 0 0 1-0.3248 2.7791z"/>
 <path class="cls-21" d="m174.72 352.26a1.4224 1.4224 0 0 1-0.556-0.1142l-4.6156-1.9825a1.4089 1.4089 0 1 1 1.1115-2.5893l4.6157 1.9825a1.4088 1.4088 0 0 1-0.5556 2.7035z"/>
 <path class="cls-21" d="m175.85 344.4a1.3985 1.3985 0 0 1-0.6343-0.1513l-4.4617-2.2561a1.4091 1.4091 0 0 1 1.2713-2.5152l4.4617 2.2565a1.4087 1.4087 0 0 1-0.637 2.6661z"/>
 <path class="cls-21" d="m195.13 363.75h-7.4636a1.4088 1.4088 0 1 1 0-2.8176h7.4636a1.4088 1.4088 0 1 1 0 2.8176z"/>
 <path class="cls-21" d="m180.49 365.86a1.4088 1.4088 0 0 1-1.1214-2.26l1.0376-1.3662a1.4091 1.4091 0 1 1 2.2452 1.7033l-1.0373 1.3661a1.4074 1.4074 0 0 1-1.1241 0.5568z"/>
 <path class="cls-21" d="m180.49 359.98a1.4024 1.4024 0 0 1-0.9576-0.3756l-1.6964-1.5725a1.4088 1.4088 0 1 1 1.9153-2.0664l1.6963 1.5725a1.4087 1.4087 0 0 1-0.9576 2.442z"/>
 <path class="cls-21" d="m180.02 351.27a1.4073 1.4073 0 0 1-1.3016-0.8709l-1.23-2.9746a1.4082 1.4082 0 0 1 2.6029-1.0759l1.23 2.9745a1.41 1.41 0 0 1-1.3015 1.9469z"/>
 <path class="cls-21" d="m181.52 349.78a1.4089 1.4089 0 0 1-0.271-2.7914l3.3928-0.6675a1.4093 1.4093 0 0 1 0.5447 2.7654l-3.3927 0.6673a1.4383 1.4383 0 0 1-0.2738 0.0262z"/>
 <path class="cls-4" d="m498.15 68.049h-3.1833a2.1221 2.1221 0 0 1 0-4.2441h3.1833a2.1221 2.1221 0 0 1 0 4.2441z"/>
 <path class="cls-4" d="m448.81 276.94a2.1222 2.1222 0 0 1-2.1224-2.1221v-6.4031a2.1222 2.1222 0 1 1 4.2444 0v6.4031a2.1221 2.1221 0 0 1-2.122 2.1221zm0-14.941a2.1224 2.1224 0 0 1-2.1224-2.1222v-6.4032a2.1222 2.1222 0 0 1 4.2444 0v6.4032a2.1223 2.1223 0 0 1-2.122 2.1222zm0-14.941a2.1224 2.1224 0 0 1-2.1224-2.1222v-6.4031a2.1222 2.1222 0 1 1 4.2444 0v6.4031a2.1224 2.1224 0 0 1-2.122 2.1222zm0-14.941a2.1224 2.1224 0 0 1-2.1224-2.1221v-6.4031a2.1222 2.1222 0 1 1 4.2444 0v6.4031a2.1223 2.1223 0 0 1-2.122 2.1221zm0-14.941a2.1222 2.1222 0 0 1-2.1224-2.1221v-6.4032a2.1222 2.1222 0 1 1 4.2444 0v6.4031a2.1221 2.1221 0 0 1-2.122 2.1222zm0-14.941a2.1224 2.1224 0 0 1-2.1224-2.1222v-6.4033a2.1222 2.1222 0 0 1 4.2444 0v6.4033a2.1224 2.1224 0 0 1-2.122 2.1222zm0-14.941a2.1224 2.1224 0 0 1-2.1224-2.1222v-6.4031a2.1222 2.1222 0 1 1 4.2444 0v6.4031a2.1224 2.1224 0 0 1-2.122 2.1222zm0-14.941a2.1224 2.1224 0 0 1-2.1224-2.1221v-6.4031a2.1222 2.1222 0 1 1 4.2444 0v6.4031a2.1223 2.1223 0 0 1-2.122 2.1221zm0-14.941a2.1222 2.1222 0 0 1-2.1224-2.1221v-3.4339a26.678 26.678 0 0 0-0.14-2.745 2.1219 2.1219 0 0 1 4.2215-0.4351 30.867 30.867 0 0 1 0.1627 3.1821v3.4322a2.1221 2.1221 0 0 1-2.1218 2.1218zm-2.2715-14.63a2.1227 2.1227 0 0 1-1.9543-1.2927 26.415 26.415 0 0 0-2.9076-5.1467 2.1225 2.1225 0 0 1 3.44-2.487 30.764 30.764 0 0 1 3.3739 5.9737 2.1231 2.1231 0 0 1-1.9523 2.9527zm-9.09-11.641a2.1108 2.1108 0 0 1-1.28-0.431 26.498 26.498 0 0 0-5.0834-3.0248 2.122 2.122 0 0 1 1.7491-3.8669 30.736 30.736 0 0 1 5.898 3.51 2.122 2.122 0 0 1-1.2839 3.8131zm-13.67-5.5726a2.0627 2.0627 0 0 1-0.2662-0.0167 27.038 27.038 0 0 0-3.3355-0.2072h-2.7947a2.1221 2.1221 0 1 1 0-4.2441h2.7947a31.146 31.146 0 0 1 3.8618 0.24 2.122 2.122 0 0 1-0.26 4.2276zm-14.934-0.2239h-6.4036a2.1221 2.1221 0 1 1 0-4.2441h6.4036a2.1221 2.1221 0 1 1 0 4.2441zm-14.941 0h-6.4036a2.1221 2.1221 0 1 1 0-4.2441h6.4036a2.1221 2.1221 0 1 1 0 4.2441zm-14.941 0h-6.404a2.1221 2.1221 0 0 1 0-4.2441h6.4038a2.1221 2.1221 0 1 1 0 4.2441zm-14.941 0h-6.4026a2.1221 2.1221 0 1 1 0-4.2441h6.4026a2.1221 2.1221 0 1 1 0 4.2441zm-14.941 0h-6.4021a2.1221 2.1221 0 1 1 0-4.2441h6.4026a2.1221 2.1221 0 1 1 0 4.2441zm-14.896-0.5989a2.1323 2.1323 0 0 1-0.4334-0.0445 30.537 30.537 0 0 1-6.5228-2.1423 2.1222 2.1222 0 1 1 1.77-3.8578 26.25 26.25 0 0 0 5.6153 1.8438 2.1226 2.1226 0 0 1-0.4288 4.2008zm-13.188-6.6466a2.1137 2.1137 0 0 1-1.41-0.5373 30.9 30.9 0 0 1-4.5852-5.1032 2.1221 2.1221 0 0 1 3.4526-2.4682 26.703 26.703 0 0 0 3.9552 4.4017 2.1219 2.1219 0 0 1-1.4123 3.707zm-8.1321-12.328a2.1227 2.1227 0 0 1-2.0133-1.4517 30.623 30.623 0 0 1-1.4258-6.7172 2.1218 2.1218 0 1 1 4.2237-0.41 26.407 26.407 0 0 0 1.2287 5.7856 2.1233 2.1233 0 0 1-2.0133 2.7936zm-0.9037-14.744a2.124 2.124 0 0 1-2.0826-2.54 30.596 30.596 0 0 1 2.0974-6.5369 2.1215 2.1215 0 1 1 3.8689 1.7418 26.406 26.406 0 0 0-1.805 5.63 2.1227 2.1227 0 0 1-2.0787 1.7052zm6.5529-13.233a2.1218 2.1218 0 0 1-1.5934-3.522 30.839 30.839 0 0 1 5.07-4.6209 2.1221 2.1221 0 1 1 2.4928 3.4349 26.631 26.631 0 0 0-4.3737 3.9858 2.119 2.119 0 0 1-1.5957 0.7223zm12.272-8.2191a2.1226 2.1226 0 0 1-0.6848-4.1314 30.72 30.72 0 0 1 6.7061-1.4729 2.1223 2.1223 0 1 1 0.4415 4.2215 26.462 26.462 0 0 0-5.7778 1.2687 2.1221 2.1221 0 0 1-0.685 0.1142zm155.64-1.528h-6.4036a2.1221 2.1221 0 1 1 0-4.2441h6.404a2.1221 2.1221 0 1 1 0 4.2441zm-14.941 0h-6.4026a2.1221 2.1221 0 1 1 0-4.2441h6.4026a2.1221 2.1221 0 1 1 0 4.2441zm-14.941 0h-6.4024a2.1221 2.1221 0 1 1 0-4.2441h6.4024a2.1221 2.1221 0 1 1 0 4.2441zm-14.941 0h-6.4028a2.1221 2.1221 0 0 1 0-4.2441h6.4028a2.1221 2.1221 0 0 1 0 4.2441zm-14.941 0h-6.4025a2.1221 2.1221 0 1 1 0-4.2441h6.4025a2.1221 2.1221 0 1 1 0 4.2441zm-14.941 0h-6.4026a2.1221 2.1221 0 1 1 0-4.2441h6.4026a2.1221 2.1221 0 1 1 0 4.2441zm-14.941 0h-6.4028a2.1221 2.1221 0 1 1 0-4.2441h6.4028a2.1221 2.1221 0 0 1 0 4.2441zm-14.941 0h-6.4028a2.1221 2.1221 0 0 1 0-4.2441h6.4028a2.1221 2.1221 0 0 1 0 4.2441zm-14.941 0h-6.4027a2.1221 2.1221 0 1 1 0-4.2441h6.4025a2.1221 2.1221 0 1 1 0 4.2441zm-14.941 0h-6.4026a2.1221 2.1221 0 1 1 0-4.2441h6.4026a2.1221 2.1221 0 1 1 0 4.2441z"/>
 <path class="cls-4" d="m448.81 288.75a2.1224 2.1224 0 0 1-2.1224-2.1222v-3.1832a2.1222 2.1222 0 0 1 4.2444 0v3.1832a2.1224 2.1224 0 0 1-2.122 2.1222z"/>
 <rect class="cls-2" x="484.01" y="138.49" width="166.59" height="112.43" rx="6.0154"/>
 <path class="cls-5" d="m482.68 2.7936h71.439a6.0154 6.0154 0 0 1 6.0154 6.0154v100.09a6.0154 6.0154 0 0 1-6.0154 6.0154h-71.439a6.0154 6.0154 0 0 1-6.0154-6.0154v-100.09a6.0156 6.0156 0 0 1 6.0155-6.0156z"/>
 <path class="cls-5" d="m663.28 131.39v100.39a6.0133 6.0133 0 0 1-6.02 6.02h-154.55a6.02 6.02 0 0 1-6.02-6.02v-100.39a6.02 6.02 0 0 1 6.02-6.02h154.55a6.0133 6.0133 0 0 1 6.02 6.02z"/>
 <rect class="cls-2" y="79.846" width="228.81" height="83.443" rx="6.0154"/>
 <path class="cls-5" d="m16.629 69.432h216.79a6.01 6.01 0 0 1 6.01 6.01v71.42a6.01 6.01 0 0 1-6.01 6.01h-216.79a6.01 6.01 0 0 1-6.01-6.01v-71.42a6.01 6.01 0 0 1 6.01-6.01z"/>
 <rect class="cls-2" y="187.08" width="228.81" height="83.443" rx="6.0154"/>
 <path class="cls-5" d="m16.632 176.66h216.78a6.0156 6.0156 0 0 1 6.0156 6.0156v71.412a6.0154 6.0154 0 0 1-6.0154 6.0154h-216.78a6.0156 6.0156 0 0 1-6.0156-6.0156v-71.412a6.0154 6.0154 0 0 1 6.0155-6.0155z"/>
 <circle class="cls-17" cx="260.66" cy="27.057" r="27.057"/>
 <path class="cls-14" d="m258.02 41.559a3.1858 3.1858 0 0 1-2.3739-1.062l-8.26-9.2433a3.1835 3.1835 0 0 1 4.7479-4.2423l5.2546 5.881 10.113-18.503a3.1834 3.1834 0 0 1 5.5872 3.0526l-12.275 22.46a3.18 3.18 0 0 1-2.7936 1.6568z"/>
 <circle class="cls-17" transform="rotate(-22.5)" cx="529.76" cy="283.55" r="27.057"/>
 <path class="cls-14" d="m595.29 73.736a3.1862 3.1862 0 0 1-2.3739-1.0622l-8.2606-9.2433a3.1835 3.1835 0 0 1 4.7479-4.2422l5.2556 5.8814 10.111-18.504a3.1833 3.1833 0 0 1 5.587 3.0526l-12.274 22.461a3.1826 3.1826 0 0 1-2.7936 1.6569z"/>
 <circle class="cls-17" cx="607.57" cy="288.8" r="27.057"/>
 <path class="cls-14" d="m604.92 303.31a3.1867 3.1867 0 0 1-2.3739-1.0622l-8.26-9.2433a3.1834 3.1834 0 0 1 4.7477-4.2422l5.2556 5.8814 10.111-18.504a3.1833 3.1833 0 1 1 5.5871 3.0526l-12.274 22.461a3.1826 3.1826 0 0 1-2.7936 1.6569z"/>
 <g class="cls-22" transform="translate(-163.36 -129.07)" clip-path="url(#clip-path)">
  <path class="cls-23" d="m994.79 763.04c-9.8541-7.9657-22.176-18.8-30.063-31.982-8.5491-14.289-10.67-29.577-5.9724-43.045 5.4059-15.498 20.533-29.742 41.504-39.076 18.53-8.248 39.015-12.054 58.391-14.94a766.41 766.41 0 0 1 146.51-7.6206l0.8442 0.0375c7.6069 0.3382 15.474 0.6905 22.191-1.2635 6.1215-1.7792 9.8631-5.8051 9.6522-7.6874-0.1767-1.58-3.2823-4.3782-8.654-5.5221-6.0568-1.2916-13.026-0.5925-19.77 0.0782l-89.218 8.9073c-0.1951 0.02-0.3938 0.0388-0.5877 0.0574-20.461 1.95-32.76-1.7366-37.599-11.265-3.7671-7.4182-1.0641-16.792 6.7259-23.326 5.824-4.8867 13.204-7.605 20.31-9.8146 46.17-14.361 95.764-13.08 143.73-11.84 41.323 1.0654 84.053 2.1723 123.98-6.8464l3.0107 13.332c-41.585 9.39-85.18 8.2663-127.34 7.1762-46.852-1.2115-95.298-2.4641-139.31 11.228-5.47 1.7011-11.599 3.8913-15.585 7.2353-2.6394 2.213-4.0991 5.142-3.3242 6.6676 1.4614 2.8772 8.7135 5.4144 24.644 3.7971l0.2-0.02 89.018-8.8867c7.4215-0.7435 15.834-1.5814 23.976 0.1537 10.855 2.3132 18.465 9.1292 19.388 17.368 1.1885 10.608-8.8682 19.263-19.417 22.332-8.8872 2.5817-17.9 2.1817-26.619 1.7926l-0.8389-0.038a753.11 753.11 0 0 0-143.89 7.4865c-18.419 2.742-37.811 6.3248-54.846 13.908-17.539 7.8075-29.989 19.14-34.158 31.091-3.3405 9.5783-1.6373 20.775 4.7957 31.528 6.7819 11.334 17.953 21.115 26.928 28.371z"/>
 </g>
 <g class="cls-24" transform="translate(-163.36 -129.07)" clip-path="url(#clip-path-2)">
  <g class="cls-25">
   <rect class="cls-26" x="182.62" y="229" width="92.329" height="62.588"/>
   <rect class="cls-27" x="185.32" y="233.94" width="4.7816" height="2.0692"/>
   <rect class="cls-27" x="185.32" y="237.91" width="4.7816" height="2.0691"/>
   <rect class="cls-27" x="185.32" y="241.88" width="4.7816" height="2.0692"/>
   <rect class="cls-27" x="185.32" y="245.85" width="4.7816" height="2.0692"/>
   <rect class="cls-27" x="185.32" y="249.82" width="4.7816" height="2.0691"/>
   <rect class="cls-27" x="185.32" y="253.78" width="4.7816" height="2.0692"/>
   <rect class="cls-27" x="185.32" y="257.75" width="4.7816" height="2.0692"/>
   <rect class="cls-27" x="185.32" y="261.72" width="4.7816" height="2.0692"/>
   <rect class="cls-27" x="185.32" y="265.69" width="4.7816" height="2.0692"/>
   <rect class="cls-27" x="185.32" y="269.65" width="4.7816" height="2.0691"/>
   <rect class="cls-27" x="185.32" y="273.62" width="4.7816" height="2.0692"/>
   <rect class="cls-27" x="185.32" y="277.59" width="4.7816" height="2.0692"/>
   <rect class="cls-27" x="185.32" y="281.56" width="4.7816" height="2.0691"/>
   <rect class="cls-27" x="185.32" y="285.53" width="4.7816" height="2.0692"/>
   <rect class="cls-3" x="201.28" y="233.94" width="8.3677" height="2.0692"/>
   <rect class="cls-27" x="211.87" y="233.94" width="39.362" height="2.0692"/>
   <rect class="cls-3" x="198.34" y="237.91" width="10.161" height="2.0691"/>
   <rect class="cls-27" x="210.98" y="237.91" width="43.973" height="2.0691"/>
   <rect class="cls-3" x="208.54" y="241.88" width="14.345" height="2.0692"/>
   <rect class="cls-27" x="224.94" y="241.88" width="34.837" height="2.0692"/>
   <rect class="cls-3" x="216.01" y="245.85" width="13.747" height="2.0692"/>
   <rect class="cls-27" x="232.41" y="245.85" width="34.88" height="2.0692"/>
   <rect class="cls-3" x="202.42" y="249.82" width="9.8619" height="2.0691"/>
   <rect class="cls-27" x="214.71" y="249.82" width="39.939" height="2.0691"/>
   <rect class="cls-3" x="198.21" y="253.78" width="8.3677" height="2.0692"/>
   <rect class="cls-27" x="208.8" y="253.78" width="42.436" height="2.0692"/>
   <rect class="cls-3" x="217.61" y="257.75" width="12.253" height="2.0692"/>
   <rect class="cls-27" x="232.64" y="257.75" width="32.596" height="2.0692"/>
   <rect class="cls-3" x="203.08" y="261.72" width="14.345" height="2.0692"/>
   <rect class="cls-27" x="219.81" y="261.72" width="38.252" height="2.0692"/>
   <rect class="cls-3" x="209.74" y="265.69" width="26.298" height="2.0692"/>
   <rect class="cls-27" x="238.43" y="265.69" width="32.105" height="2.0692"/>
   <rect class="cls-3" x="208.22" y="269.65" width="19.425" height="2.0691"/>
   <rect class="cls-27" x="230.93" y="269.65" width="31.912" height="2.0691"/>
   <rect class="cls-3" x="203.08" y="273.62" width="19.126" height="2.0692"/>
   <rect class="cls-27" x="224.59" y="273.62" width="34.837" height="2.0692"/>
   <rect class="cls-3" x="202.31" y="277.59" width="13.149" height="2.0692"/>
   <rect class="cls-27" x="218.36" y="277.59" width="35.947" height="2.0692"/>
   <rect class="cls-3" x="198.51" y="281.56" width="12.552" height="2.0691"/>
   <rect class="cls-27" x="213.2" y="281.56" width="48.627" height="2.0691"/>
   <rect class="cls-3" x="219.47" y="285.53" width="14.345" height="2.0692"/>
   <rect class="cls-27" x="236.55" y="285.53" width="34.154" height="2.0692"/>
   <rect class="cls-27" x="182.62" y="229.2" width="92.329" height="2.4954"/>
  </g>
 </g>
 <g class="cls-28" transform="translate(-163.36 -129.07)" clip-path="url(#clip-path-3)">
  <g class="cls-25">
   <rect class="cls-26" x="289.74" y="229" width="92.329" height="62.588"/>
   <rect class="cls-27" x="292.44" y="233.94" width="4.7816" height="2.0692"/>
   <rect class="cls-27" x="292.44" y="237.91" width="4.7816" height="2.0691"/>
   <rect class="cls-27" x="292.44" y="241.88" width="4.7816" height="2.0692"/>
   <rect class="cls-27" x="292.44" y="245.85" width="4.7816" height="2.0692"/>
   <rect class="cls-27" x="292.44" y="249.82" width="4.7816" height="2.0691"/>
   <rect class="cls-27" x="292.44" y="253.78" width="4.7816" height="2.0692"/>
   <rect class="cls-27" x="292.44" y="257.75" width="4.7816" height="2.0692"/>
   <rect class="cls-27" x="292.44" y="261.72" width="4.7816" height="2.0692"/>
   <rect class="cls-27" x="292.44" y="265.69" width="4.7816" height="2.0692"/>
   <rect class="cls-27" x="292.44" y="269.65" width="4.7816" height="2.0691"/>
   <rect class="cls-27" x="292.44" y="273.62" width="4.7816" height="2.0692"/>
   <rect class="cls-27" x="292.44" y="277.59" width="4.7816" height="2.0692"/>
   <rect class="cls-27" x="292.44" y="281.56" width="4.7816" height="2.0691"/>
   <rect class="cls-27" x="292.44" y="285.53" width="4.7816" height="2.0692"/>
   <rect class="cls-3" x="308.41" y="233.94" width="8.3677" height="2.0692"/>
   <rect class="cls-27" x="318.99" y="233.94" width="39.362" height="2.0692"/>
   <rect class="cls-3" x="305.46" y="237.91" width="10.161" height="2.0691"/>
   <rect class="cls-27" x="318.1" y="237.91" width="43.973" height="2.0691"/>
   <rect class="cls-3" x="315.66" y="241.88" width="14.345" height="2.0692"/>
   <rect class="cls-27" x="332.06" y="241.88" width="34.837" height="2.0692"/>
   <rect class="cls-3" x="323.14" y="245.85" width="13.747" height="2.0692"/>
   <rect class="cls-27" x="339.53" y="245.85" width="34.88" height="2.0692"/>
   <rect class="cls-3" x="309.54" y="249.82" width="9.8619" height="2.0691"/>
   <rect class="cls-27" x="321.83" y="249.82" width="39.939" height="2.0691"/>
   <rect class="cls-3" x="305.33" y="253.78" width="8.3677" height="2.0692"/>
   <rect class="cls-27" x="315.92" y="253.78" width="42.436" height="2.0692"/>
   <rect class="cls-3" x="324.74" y="257.75" width="12.253" height="2.0692"/>
   <rect class="cls-27" x="339.76" y="257.75" width="32.596" height="2.0692"/>
   <rect class="cls-3" x="310.2" y="261.72" width="14.345" height="2.0692"/>
   <rect class="cls-27" x="326.93" y="261.72" width="38.252" height="2.0692"/>
   <rect class="cls-3" x="316.86" y="265.69" width="26.298" height="2.0692"/>
   <rect class="cls-27" x="345.55" y="265.69" width="32.105" height="2.0692"/>
   <rect class="cls-3" x="315.34" y="269.65" width="19.425" height="2.0691"/>
   <rect class="cls-27" x="338.06" y="269.65" width="31.912" height="2.0691"/>
   <rect class="cls-3" x="310.2" y="273.62" width="19.126" height="2.0692"/>
   <rect class="cls-27" x="331.72" y="273.62" width="34.837" height="2.0692"/>
   <rect class="cls-3" x="309.43" y="277.59" width="13.149" height="2.0692"/>
   <rect class="cls-27" x="325.48" y="277.59" width="35.947" height="2.0692"/>
   <rect class="cls-3" x="305.63" y="281.56" width="12.552" height="2.0691"/>
   <rect class="cls-27" x="320.32" y="281.56" width="48.627" height="2.0691"/>
   <rect class="cls-3" x="326.59" y="285.53" width="14.345" height="2.0692"/>
   <rect class="cls-27" x="343.67" y="285.53" width="34.154" height="2.0692"/>
   <rect class="cls-27" x="289.74" y="229.2" width="92.329" height="2.4954"/>
  </g>
 </g>
 <rect class="cls-14" x="74.468" y="76.881" width="101.11" height="68.54"/>
 <g class="cls-25" transform="translate(-163.36 -129.07)">
  <rect class="cls-26" x="237.83" y="205.95" width="101.11" height="68.54"/>
  <rect class="cls-27" x="240.79" y="211.36" width="5.2363" height="2.266"/>
  <rect class="cls-27" x="240.79" y="215.71" width="5.2363" height="2.2659"/>
  <rect class="cls-27" x="240.79" y="220.05" width="5.2363" height="2.266"/>
  <rect class="cls-27" x="240.79" y="224.4" width="5.2363" height="2.266"/>
  <rect class="cls-27" x="240.79" y="228.74" width="5.2363" height="2.2659"/>
  <rect class="cls-27" x="240.79" y="233.09" width="5.2363" height="2.266"/>
  <rect class="cls-27" x="240.79" y="237.43" width="5.2363" height="2.266"/>
  <rect class="cls-27" x="240.79" y="241.78" width="5.2363" height="2.266"/>
  <rect class="cls-27" x="240.79" y="246.13" width="5.2363" height="2.266"/>
  <rect class="cls-27" x="240.79" y="250.47" width="5.2363" height="2.2659"/>
  <rect class="cls-27" x="240.79" y="254.82" width="5.2363" height="2.266"/>
  <rect class="cls-27" x="240.79" y="259.16" width="5.2363" height="2.266"/>
  <rect class="cls-27" x="240.79" y="263.51" width="5.2363" height="2.2659"/>
  <rect class="cls-27" x="240.79" y="267.85" width="5.2363" height="2.266"/>
  <rect class="cls-3" x="258.27" y="211.36" width="9.1635" height="2.266"/>
  <rect class="cls-27" x="269.87" y="211.36" width="43.106" height="2.266"/>
  <rect class="cls-3" x="255.05" y="215.71" width="11.127" height="2.2659"/>
  <rect class="cls-27" x="268.89" y="215.71" width="48.155" height="2.2659"/>
  <rect class="cls-3" x="266.22" y="220.05" width="15.709" height="2.266"/>
  <rect class="cls-27" x="284.17" y="220.05" width="38.15" height="2.266"/>
  <rect class="cls-3" x="274.4" y="224.4" width="15.054" height="2.266"/>
  <rect class="cls-27" x="292.36" y="224.4" width="38.197" height="2.266"/>
  <rect class="cls-3" x="259.51" y="228.74" width="10.8" height="2.2659"/>
  <rect class="cls-27" x="272.98" y="228.74" width="43.737" height="2.2659"/>
  <rect class="cls-3" x="254.91" y="233.09" width="9.1635" height="2.266"/>
  <rect class="cls-27" x="266.5" y="233.09" width="46.472" height="2.266"/>
  <rect class="cls-3" x="276.16" y="237.43" width="13.418" height="2.266"/>
  <rect class="cls-27" x="292.61" y="237.43" width="35.696" height="2.266"/>
  <rect class="cls-3" x="260.24" y="241.78" width="15.709" height="2.266"/>
  <rect class="cls-27" x="278.56" y="241.78" width="41.89" height="2.266"/>
  <rect class="cls-3" x="267.53" y="246.13" width="28.8" height="2.266"/>
  <rect class="cls-27" x="298.95" y="246.13" width="35.158" height="2.266"/>
  <rect class="cls-3" x="265.87" y="250.47" width="21.272" height="2.2659"/>
  <rect class="cls-27" x="290.74" y="250.47" width="34.947" height="2.2659"/>
  <rect class="cls-3" x="260.24" y="254.82" width="20.945" height="2.266"/>
  <rect class="cls-27" x="283.8" y="254.82" width="38.15" height="2.266"/>
  <rect class="cls-3" x="259.4" y="259.16" width="14.4" height="2.266"/>
  <rect class="cls-27" x="276.98" y="259.16" width="39.366" height="2.266"/>
  <rect class="cls-3" x="255.24" y="263.51" width="13.745" height="2.2659"/>
  <rect class="cls-27" x="271.32" y="263.51" width="53.251" height="2.2659"/>
  <rect class="cls-3" x="278.19" y="267.85" width="15.709" height="2.266"/>
  <rect class="cls-27" x="296.89" y="267.85" width="37.402" height="2.266"/>
  <rect class="cls-27" x="237.83" y="206.17" width="101.11" height="2.7327"/>
 </g>
 <g class="cls-29" transform="translate(-163.36 -129.07)" clip-path="url(#clip-path-4)">
  <g class="cls-25">
   <rect class="cls-26" x="182.62" y="336.23" width="92.329" height="62.588"/>
   <rect class="cls-27" x="185.32" y="341.18" width="4.7816" height="2.0692"/>
   <rect class="cls-27" x="185.32" y="345.14" width="4.7816" height="2.0691"/>
   <rect class="cls-27" x="185.32" y="349.11" width="4.7816" height="2.0692"/>
   <rect class="cls-27" x="185.32" y="353.08" width="4.7816" height="2.0692"/>
   <rect class="cls-27" x="185.32" y="357.05" width="4.7816" height="2.0691"/>
   <rect class="cls-27" x="185.32" y="361.02" width="4.7816" height="2.0692"/>
   <rect class="cls-27" x="185.32" y="364.98" width="4.7816" height="2.0692"/>
   <rect class="cls-27" x="185.32" y="368.95" width="4.7816" height="2.0692"/>
   <rect class="cls-27" x="185.32" y="372.92" width="4.7816" height="2.0692"/>
   <rect class="cls-27" x="185.32" y="376.89" width="4.7816" height="2.0691"/>
   <rect class="cls-27" x="185.32" y="380.85" width="4.7816" height="2.0692"/>
   <rect class="cls-27" x="185.32" y="384.82" width="4.7816" height="2.0692"/>
   <rect class="cls-27" x="185.32" y="388.79" width="4.7816" height="2.0691"/>
   <rect class="cls-27" x="185.32" y="392.76" width="4.7816" height="2.0692"/>
   <rect class="cls-3" x="201.28" y="341.18" width="8.3677" height="2.0692"/>
   <rect class="cls-27" x="211.87" y="341.18" width="39.362" height="2.0692"/>
   <rect class="cls-3" x="198.34" y="345.14" width="10.161" height="2.0691"/>
   <rect class="cls-27" x="210.98" y="345.14" width="43.973" height="2.0691"/>
   <rect class="cls-3" x="208.54" y="349.11" width="14.345" height="2.0692"/>
   <rect class="cls-27" x="224.94" y="349.11" width="34.837" height="2.0692"/>
   <rect class="cls-3" x="216.01" y="353.08" width="13.747" height="2.0692"/>
   <rect class="cls-27" x="232.41" y="353.08" width="34.88" height="2.0692"/>
   <rect class="cls-3" x="202.42" y="357.05" width="9.8619" height="2.0691"/>
   <rect class="cls-27" x="214.71" y="357.05" width="39.939" height="2.0691"/>
   <rect class="cls-3" x="198.21" y="361.02" width="8.3677" height="2.0692"/>
   <rect class="cls-27" x="208.8" y="361.02" width="42.436" height="2.0692"/>
   <rect class="cls-3" x="217.61" y="364.98" width="12.253" height="2.0692"/>
   <rect class="cls-27" x="232.64" y="364.98" width="32.596" height="2.0692"/>
   <rect class="cls-3" x="203.08" y="368.95" width="14.345" height="2.0692"/>
   <rect class="cls-27" x="219.81" y="368.95" width="38.252" height="2.0692"/>
   <rect class="cls-3" x="209.74" y="372.92" width="26.298" height="2.0692"/>
   <rect class="cls-27" x="238.43" y="372.92" width="32.105" height="2.0692"/>
   <rect class="cls-3" x="208.22" y="376.89" width="19.425" height="2.0691"/>
   <rect class="cls-27" x="230.93" y="376.89" width="31.912" height="2.0691"/>
   <rect class="cls-3" x="203.08" y="380.85" width="19.126" height="2.0692"/>
   <rect class="cls-27" x="224.59" y="380.85" width="34.837" height="2.0692"/>
   <rect class="cls-3" x="202.31" y="384.82" width="13.149" height="2.0692"/>
   <rect class="cls-27" x="218.36" y="384.82" width="35.947" height="2.0692"/>
   <rect class="cls-3" x="198.51" y="388.79" width="12.552" height="2.0691"/>
   <rect class="cls-27" x="213.2" y="388.79" width="48.627" height="2.0691"/>
   <rect class="cls-3" x="219.47" y="392.76" width="14.345" height="2.0692"/>
   <rect class="cls-27" x="236.55" y="392.76" width="34.154" height="2.0692"/>
   <rect class="cls-27" x="182.62" y="336.44" width="92.329" height="2.4954"/>
  </g>
 </g>
 <g class="cls-30" transform="translate(-163.36 -129.07)" clip-path="url(#clip-path-5)">
  <g class="cls-25">
   <rect class="cls-26" x="289.74" y="336.23" width="92.329" height="62.588"/>
   <rect class="cls-27" x="292.44" y="341.18" width="4.7816" height="2.0692"/>
   <rect class="cls-27" x="292.44" y="345.14" width="4.7816" height="2.0691"/>
   <rect class="cls-27" x="292.44" y="349.11" width="4.7816" height="2.0692"/>
   <rect class="cls-27" x="292.44" y="353.08" width="4.7816" height="2.0692"/>
   <rect class="cls-27" x="292.44" y="357.05" width="4.7816" height="2.0691"/>
   <rect class="cls-27" x="292.44" y="361.02" width="4.7816" height="2.0692"/>
   <rect class="cls-27" x="292.44" y="364.98" width="4.7816" height="2.0692"/>
   <rect class="cls-27" x="292.44" y="368.95" width="4.7816" height="2.0692"/>
   <rect class="cls-27" x="292.44" y="372.92" width="4.7816" height="2.0692"/>
   <rect class="cls-27" x="292.44" y="376.89" width="4.7816" height="2.0691"/>
   <rect class="cls-27" x="292.44" y="380.85" width="4.7816" height="2.0692"/>
   <rect class="cls-27" x="292.44" y="384.82" width="4.7816" height="2.0692"/>
   <rect class="cls-27" x="292.44" y="388.79" width="4.7816" height="2.0691"/>
   <rect class="cls-27" x="292.44" y="392.76" width="4.7816" height="2.0692"/>
   <rect class="cls-3" x="308.41" y="341.18" width="8.3677" height="2.0692"/>
   <rect class="cls-27" x="318.99" y="341.18" width="39.362" height="2.0692"/>
   <rect class="cls-3" x="305.46" y="345.14" width="10.161" height="2.0691"/>
   <rect class="cls-27" x="318.1" y="345.14" width="43.973" height="2.0691"/>
   <rect class="cls-3" x="315.66" y="349.11" width="14.345" height="2.0692"/>
   <rect class="cls-27" x="332.06" y="349.11" width="34.837" height="2.0692"/>
   <rect class="cls-3" x="323.14" y="353.08" width="13.747" height="2.0692"/>
   <rect class="cls-27" x="339.53" y="353.08" width="34.88" height="2.0692"/>
   <rect class="cls-3" x="309.54" y="357.05" width="9.8619" height="2.0691"/>
   <rect class="cls-27" x="321.83" y="357.05" width="39.939" height="2.0691"/>
   <rect class="cls-3" x="305.33" y="361.02" width="8.3677" height="2.0692"/>
   <rect class="cls-27" x="315.92" y="361.02" width="42.436" height="2.0692"/>
   <rect class="cls-3" x="324.74" y="364.98" width="12.253" height="2.0692"/>
   <rect class="cls-27" x="339.76" y="364.98" width="32.596" height="2.0692"/>
   <rect class="cls-3" x="310.2" y="368.95" width="14.345" height="2.0692"/>
   <rect class="cls-27" x="326.93" y="368.95" width="38.252" height="2.0692"/>
   <rect class="cls-3" x="316.86" y="372.92" width="26.298" height="2.0692"/>
   <rect class="cls-27" x="345.55" y="372.92" width="32.105" height="2.0692"/>
   <rect class="cls-3" x="315.34" y="376.89" width="19.425" height="2.0691"/>
   <rect class="cls-27" x="338.06" y="376.89" width="31.912" height="2.0691"/>
   <rect class="cls-3" x="310.2" y="380.85" width="19.126" height="2.0692"/>
   <rect class="cls-27" x="331.72" y="380.85" width="34.837" height="2.0692"/>
   <rect class="cls-3" x="309.43" y="384.82" width="13.149" height="2.0692"/>
   <rect class="cls-27" x="325.48" y="384.82" width="35.947" height="2.0692"/>
   <rect class="cls-3" x="305.63" y="388.79" width="12.552" height="2.0691"/>
   <rect class="cls-27" x="320.32" y="388.79" width="48.627" height="2.0691"/>
   <rect class="cls-3" x="326.59" y="392.76" width="14.345" height="2.0692"/>
   <rect class="cls-27" x="343.67" y="392.76" width="34.154" height="2.0692"/>
   <rect class="cls-27" x="289.74" y="336.44" width="92.329" height="2.4954"/>
  </g>
 </g>
 <rect class="cls-14" x="74.468" y="184.11" width="101.11" height="68.54"/>
 <g class="cls-25" transform="translate(-163.36 -129.07)">
  <rect class="cls-26" x="237.83" y="313.18" width="101.11" height="68.54"/>
  <rect class="cls-27" x="240.79" y="318.6" width="5.2363" height="2.266"/>
  <rect class="cls-27" x="240.79" y="322.94" width="5.2363" height="2.2659"/>
  <rect class="cls-27" x="240.79" y="327.29" width="5.2363" height="2.266"/>
  <rect class="cls-27" x="240.79" y="331.63" width="5.2363" height="2.266"/>
  <rect class="cls-27" x="240.79" y="335.98" width="5.2363" height="2.2659"/>
  <rect class="cls-27" x="240.79" y="340.32" width="5.2363" height="2.266"/>
  <rect class="cls-27" x="240.79" y="344.67" width="5.2363" height="2.266"/>
  <rect class="cls-27" x="240.79" y="349.01" width="5.2363" height="2.266"/>
  <rect class="cls-27" x="240.79" y="353.36" width="5.2363" height="2.266"/>
  <rect class="cls-27" x="240.79" y="357.7" width="5.2363" height="2.2659"/>
  <rect class="cls-27" x="240.79" y="362.05" width="5.2363" height="2.266"/>
  <rect class="cls-27" x="240.79" y="366.39" width="5.2363" height="2.266"/>
  <rect class="cls-27" x="240.79" y="370.74" width="5.2363" height="2.2659"/>
  <rect class="cls-27" x="240.79" y="375.08" width="5.2363" height="2.266"/>
  <rect class="cls-3" x="258.27" y="318.6" width="9.1635" height="2.266"/>
  <rect class="cls-27" x="269.87" y="318.6" width="43.106" height="2.266"/>
  <rect class="cls-3" x="255.05" y="322.94" width="11.127" height="2.2659"/>
  <rect class="cls-27" x="268.89" y="322.94" width="48.155" height="2.2659"/>
  <rect class="cls-3" x="266.22" y="327.29" width="15.709" height="2.266"/>
  <rect class="cls-27" x="284.17" y="327.29" width="38.15" height="2.266"/>
  <rect class="cls-3" x="274.4" y="331.63" width="15.054" height="2.266"/>
  <rect class="cls-27" x="292.36" y="331.63" width="38.197" height="2.266"/>
  <rect class="cls-3" x="259.51" y="335.98" width="10.8" height="2.2659"/>
  <rect class="cls-27" x="272.98" y="335.98" width="43.737" height="2.2659"/>
  <rect class="cls-3" x="254.91" y="340.32" width="9.1635" height="2.266"/>
  <rect class="cls-27" x="266.5" y="340.32" width="46.472" height="2.266"/>
  <rect class="cls-3" x="276.16" y="344.67" width="13.418" height="2.266"/>
  <rect class="cls-27" x="292.61" y="344.67" width="35.696" height="2.266"/>
  <rect class="cls-3" x="260.24" y="349.01" width="15.709" height="2.266"/>
  <rect class="cls-27" x="278.56" y="349.01" width="41.89" height="2.266"/>
  <rect class="cls-3" x="267.53" y="353.36" width="28.8" height="2.266"/>
  <rect class="cls-27" x="298.95" y="353.36" width="35.158" height="2.266"/>
  <rect class="cls-3" x="265.87" y="357.7" width="21.272" height="2.2659"/>
  <rect class="cls-27" x="290.74" y="357.7" width="34.947" height="2.2659"/>
  <rect class="cls-3" x="260.24" y="362.05" width="20.945" height="2.266"/>
  <rect class="cls-27" x="283.8" y="362.05" width="38.15" height="2.266"/>
  <rect class="cls-3" x="259.4" y="366.39" width="14.4" height="2.266"/>
  <rect class="cls-27" x="276.98" y="366.39" width="39.366" height="2.266"/>
  <rect class="cls-3" x="255.24" y="370.74" width="13.745" height="2.2659"/>
  <rect class="cls-27" x="271.32" y="370.74" width="53.251" height="2.2659"/>
  <rect class="cls-3" x="278.19" y="375.08" width="15.709" height="2.266"/>
  <rect class="cls-27" x="296.89" y="375.08" width="37.402" height="2.266"/>
  <rect class="cls-27" x="237.83" y="313.4" width="101.11" height="2.7327"/>
 </g>
 <path class="cls-27" d="m276.4 167.81a0.4964 0.4964 0 0 0 0-0.9922 0.4964 0.4964 0 0 0 0 0.9922z"/>
 <path class="cls-31" d="m503.24 24.47v-1.777l4.4114-1.7412-4.4114-1.7236v-1.7643l6.3238 2.7392v1.5111zm-5.6321 1.1982 2.2924-9.5311h1.3264l-2.3051 9.5311zm-2.0154-1.2107-6.3237-2.748v-1.5216l6.3237-2.7369v1.79l-4.411 1.687 4.411 1.7517z"/>
 <path class="cls-32" d="m503.42 32.445h7.9151a0.8525 0.8525 0 0 1 0 1.705h-7.9151a0.8525 0.8525 0 0 1 0-1.705"/>
 <path class="cls-32" d="m510.34 38.151h9.0387a0.8526 0.8526 0 0 1 0 1.7051h-9.0388a0.8526 0.8526 0 0 1 0-1.7051"/>
 <path class="cls-32" d="m523.95 38.151h11.233a0.8526 0.8526 0 1 1 0 1.7051h-11.233a0.8526 0.8526 0 0 1 0-1.7051"/>
 <path class="cls-32" d="m489.63 44.152h21.63a0.8525 0.8525 0 1 1 0 1.705h-21.63a0.8525 0.8525 0 1 1 0-1.705"/>
 <path class="cls-32" d="m515.67 44.152h10.365a0.8525 0.8525 0 0 1 0 1.705h-10.365a0.8525 0.8525 0 1 1 0-1.705"/>
 <path class="cls-32" d="m530.16 44.152h17.021a0.8525 0.8525 0 1 1 0 1.705h-17.021a0.8525 0.8525 0 1 1 0-1.705"/>
 <path class="cls-32" d="m503.42 51.016h7.9151a0.8525 0.8525 0 0 1 0 1.705h-7.9151a0.8525 0.8525 0 0 1 0-1.705"/>
 <path class="cls-32" d="m510.34 56.722h9.0387a0.8525 0.8525 0 1 1 0 1.705h-9.0388a0.8525 0.8525 0 0 1 0-1.705"/>
 <path class="cls-32" d="m523.95 56.722h11.233a0.8525 0.8525 0 1 1 0 1.705h-11.233a0.8525 0.8525 0 0 1 0-1.705"/>
 <path class="cls-32" d="m489.63 62.723h21.63a0.8525 0.8525 0 1 1 0 1.705h-21.63a0.8525 0.8525 0 1 1 0-1.705"/>
 <path class="cls-32" d="m515.67 62.723h10.365a0.8525 0.8525 0 0 1 0 1.705h-10.365a0.8525 0.8525 0 1 1 0-1.705"/>
 <path class="cls-32" d="m530.16 62.723h17.021a0.8525 0.8525 0 1 1 0 1.705h-17.021a0.8525 0.8525 0 1 1 0-1.705"/>
 <path class="cls-32" d="m503.42 69.587h7.9151a0.8525 0.8525 0 0 1 0 1.7049h-7.9151a0.8525 0.8525 0 0 1 0-1.7049"/>
 <path class="cls-32" d="m510.34 75.293h9.0387a0.8525 0.8525 0 1 1 0 1.705h-9.0388a0.8525 0.8525 0 0 1 0-1.705"/>
 <path class="cls-32" d="m523.95 75.293h11.233a0.8525 0.8525 0 1 1 0 1.705h-11.233a0.8525 0.8525 0 0 1 0-1.705"/>
 <path class="cls-32" d="m489.63 81.293h21.63a0.8525 0.8525 0 1 1 0 1.705h-21.63a0.8525 0.8525 0 1 1 0-1.705"/>
 <path class="cls-32" d="m515.67 81.293h10.365a0.8525 0.8525 0 0 1 0 1.705h-10.365a0.8525 0.8525 0 1 1 0-1.705"/>
 <path class="cls-32" d="m530.16 81.293h17.021a0.8525 0.8525 0 1 1 0 1.705h-17.021a0.8525 0.8525 0 1 1 0-1.705"/>
 <path class="cls-32" d="m503.42 88.157h7.9151a0.8525 0.8525 0 0 1 0 1.705h-7.9151a0.8525 0.8525 0 0 1 0-1.705"/>
 <path class="cls-32" d="m510.34 93.864h9.0387a0.8525 0.8525 0 1 1 0 1.705h-9.0388a0.8525 0.8525 0 0 1 0-1.705"/>
 <path class="cls-32" d="m523.95 93.864h11.233a0.8525 0.8525 0 1 1 0 1.705h-11.233a0.8525 0.8525 0 0 1 0-1.705"/>
 <path class="cls-32" d="m489.63 99.864h21.63a0.8525 0.8525 0 1 1 0 1.705h-21.63a0.8525 0.8525 0 1 1 0-1.705"/>
 <path class="cls-32" d="m515.67 99.864h10.365a0.8525 0.8525 0 0 1 0 1.705h-10.365a0.8525 0.8525 0 1 1 0-1.705"/>
 <path class="cls-32" d="m530.16 99.864h17.021a0.8525 0.8525 0 1 1 0 1.705h-17.021a0.8525 0.8525 0 1 1 0-1.705"/>
 <g class="cls-33" transform="translate(-163.36 -129.07)" clip-path="url(#clip-path-6)">
  <path class="cls-32" d="m697.88 318.18 1.8927-0.089a1.7642 1.7642 0 0 0 1.6411-1.3674 18.27 18.27 0 0 1 1.5335-4.2549 1.7657 1.7657 0 0 0-0.3943-2.1012l-1.4-1.278a1.78 1.78 0 0 1-0.1227-2.5136l2.4436-2.6846a1.7816 1.7816 0 0 1 2.5153-0.1178l1.4024 1.2749a1.7656 1.7656 0 0 0 2.1294 0.194 18.228 18.228 0 0 1 4.0915-1.9266 1.7593 1.7593 0 0 0 1.2038-1.7643l-0.0877-1.8922a1.78 1.78 0 0 1 1.6935-1.8621l3.626-0.1707a1.78 1.78 0 0 1 1.8621 1.6933l0.0894 1.8926a1.7662 1.7662 0 0 0 1.3661 1.6431 18.27 18.27 0 0 1 4.2536 1.53 1.7646 1.7646 0 0 0 2.1037-0.3932l1.275-1.4022a1.7762 1.7762 0 0 1 2.5129-0.1169l2.6863 2.4413a1.7808 1.7808 0 0 1 0.1175 2.5149l-1.2752 1.4018a1.7629 1.7629 0 0 0-0.1917 2.1293 18.45 18.45 0 0 1 1.9267 4.0917 1.7618 1.7618 0 0 0 1.7619 1.2065l1.8923-0.09a1.78 1.78 0 0 1 1.8621 1.6939l0.171 3.6254a1.7811 1.7811 0 0 1-1.6941 1.8624l-1.8916 0.0895a1.7664 1.7664 0 0 0-1.6434 1.3676 18.182 18.182 0 0 1-1.53 4.2519 1.7662 1.7662 0 0 0 0.3908 2.1039l1.4038 1.275a1.78 1.78 0 0 1 0.118 2.5144l-2.44 2.684a1.7832 1.7832 0 0 1-2.5171 0.1186l-1.3994-1.276a1.7654 1.7654 0 0 0-2.1316-0.1915 18.217 18.217 0 0 1-4.09 1.9245 1.7646 1.7646 0 0 0-1.208 1.7647l0.09 1.8917a1.7777 1.7777 0 0 1-1.6937 1.8622l-3.6257 0.1726a1.7848 1.7848 0 0 1-1.8626-1.6956l-0.0874-1.8919a1.768 1.768 0 0 0-1.37-1.6432 18.297 18.297 0 0 1-4.2509-1.53 1.7657 1.7657 0 0 0-2.1027 0.3924l-1.2744 1.4017a1.7823 1.7823 0 0 1-2.5168 0.12l-2.6841-2.444a1.7782 1.7782 0 0 1-0.1184-2.5145l1.276-1.4024a1.767 1.767 0 0 0 0.1937-2.13 18.007 18.007 0 0 1-1.927-4.09 1.7613 1.7613 0 0 0-1.7625-1.2052l-1.8945 0.0883a1.7782 1.7782 0 0 1-1.8615-1.6934l-0.1708-3.626a1.7769 1.7769 0 0 1 1.6937-1.86m11.82 4.7093a9.8556 9.8556 0 1 0 10.833-11.905 9.8435 9.8435 0 0 0-10.832 11.905z"/>
  <path class="cls-31" d="m730.1 313.93a12.563 12.563 0 1 1-7.9012-5.4829 12.524 12.524 0 0 1 7.9012 5.4829m-7.7278-6.2793a13.379 13.379 0 1 0 8.4135 5.8374 13.341 13.341 0 0 0-8.4135-5.8374z"/>
  <path class="cls-14" d="m714.32 334.82a14.926 14.926 0 0 0 7.9818 0.7038q0.1622-0.03 0.3237-0.064l7e-3 0.492-0.2422 0.0464a15.408 15.408 0 0 1-8.1491-0.6924zm0.5892-28.293a14.94 14.94 0 0 0-7.1517 5.03l-0.3525-0.3326a15.419 15.419 0 0 1 7.3617-5.1586zm16.443 4.9518a15.037 15.037 0 0 0-3.2632-3.0523q-0.4016-0.2766-0.821-0.5269l0.25-0.4128q0.4317 0.2575 0.8453 0.5425a15.527 15.527 0 0 1 3.3377 3.1126z"/>
 </g>
 <path class="cls-34" d="m583.6 164c3.0489 3.8115 6.2112 8.9631 7.36 12.683a1.1865 1.1865 0 0 0 0.6436 0.71l9.9556-0.266a1.3948 1.3948 0 0 0 0.8642-0.9133c0.9037-3.5969 7.8715-14.816 7.7813-14.783a15.847 15.847 0 0 0 2.0089-8.1735 16.203 16.203 0 0 0-32.393 0.8653 15.841 15.841 0 0 0 2.4215 8.0214c0.4813 0.6265 0.8278 1.2317 1.3581 1.8556"/>
 <path class="cls-31" d="m593.07 162.24c-0.2909-2.4325-2.0057-2.4367-2.18-0.6875a2.7473 2.7473 0 0 0 0.1591 1.1522c0.1429 0.4144 0.946 0.6993 2.0561 0.864zm6.3467-0.17c0.1605-2.445 1.8723-2.54 2.14-0.8031a2.7535 2.7535 0 0 1-0.0978 1.16c-0.12 0.4206-0.9072 0.7482-2.0065 0.9726zm-2.8989 2.95-0.1978 4e-3 -0.1979 6e-3v-4e-3a17.931 17.931 0 0 1-1.8734-0.0837l0.0106 0.3982 0.32 11.975-1.1055 0.03-0.32-11.975-0.0154-0.58c-1.5843-0.2872-2.8048-0.8355-3.09-1.6644a4.0624 4.0624 0 0 1-0.2247-1.7111 3.0459 3.0459 0 0 1 0.499-1.417 2.5763 2.5763 0 0 1 0.9792-0.865c1.709-0.4581 2.935 1.3357 2.8731 3.0571l0.04 1.4983c0.654 0.0473 1.36 0.0632 2.0705 0.05 0.71-0.0245 1.4146-0.0785 2.0651-0.1608l-0.04-1.4978c-0.1537-1.7155 0.9746-3.572 2.7058-3.2065a2.5808 2.5808 0 0 1 1.024 0.8118 3.0482 3.0482 0 0 1 0.574 1.3882 4.0683 4.0683 0 0 1-0.1329 1.72c-0.24 0.8434-1.43 1.4563-2.9968 1.8272l0.0157 0.58 0.32 11.975-1.1055 0.0294-0.32-11.975-0.01-0.3984a17.953 17.953 0 0 1-1.8664 0.1837z"/>
 <path class="cls-32" d="m592.57 177.35 7.7842-0.2081a1.9981 1.9981 0 0 1 2.0453 1.9388 2.014 2.014 0 0 1-1.9389 2.0453l-0.2892 8e-3a0.2331 0.2331 0 0 0 0.0119 0.4519c0.6769-0.0181 1.0423 0.5271 1.0461 1.2031v5e-4a1.2438 1.2438 0 0 1-1.1975 1.2632l-0.6736 0.0181a0.2333 0.2333 0 0 0 0.0118 0.4522 1.3685 1.3685 0 0 1 0.7682 1.1441 1.1814 1.1814 0 0 1-1.1461 1.2095l-4.5425 0.121a1.1814 1.1814 0 0 1-1.2092-1.1463 1.1821 1.1821 0 0 1 0.9872-1.1939 0.2369 0.2369 0 0 0-0.02-0.449l-0.944 0.0252a1.2344 1.2344 0 0 1-1.2633-1.1975 1.2339 1.2339 0 0 1 1.1977-1.2628 0.2372 0.2372 0 0 0-0.0121-0.4522l-0.51 0.0135a1.9983 1.9983 0 0 1-2.0454-1.9388 1.998 1.998 0 0 1 1.9391-2.045"/>
 <path class="cls-35" d="m600.39 141.33a1.5817 1.5817 0 0 0-1.2362 2.9118 12.191 12.191 0 0 1 5.0278 4.2427 13.117 13.117 0 0 1 2.4113 6.347 1.5836 1.5836 0 1 0 3.1576-0.2471 16.339 16.339 0 0 0-2.981-7.9241 15.375 15.375 0 0 0-6.38-5.33"/>
 <path class="cls-34" d="m609.54 130.85a0.9112 0.9112 0 0 1 0.3322 1.2411l-1.9847 3.4377a0.9108 0.9108 0 0 1-1.2413 0.3325 0.9108 0.9108 0 0 1-0.3324-1.2409l1.9848-3.4382a0.9119 0.9119 0 0 1 1.2413-0.3325m-27.045 0a0.9116 0.9116 0 0 1 1.241 0.3325l1.985 3.4382a0.911 0.911 0 0 1-0.3326 1.2409 0.911 0.911 0 0 1-1.2415-0.3325l-1.9847-3.4377a0.9115 0.9115 0 0 1 0.3329-1.2411zm-9.8993 9.899a0.9115 0.9115 0 0 1 1.2409-0.3325l3.4379 1.9846a0.9118 0.9118 0 0 1 0.3327 1.2415 0.9113 0.9113 0 0 1-1.2413 0.3326l-3.4379-1.9848a0.9116 0.9116 0 0 1-0.3322-1.2411zm46.843 0a0.9111 0.9111 0 0 1-0.3324 1.241l-3.438 1.9848a0.9109 0.9109 0 0 1-1.241-0.3326 0.9121 0.9121 0 0 1 0.3328-1.2415l3.4379-1.9846a0.9118 0.9118 0 0 1 1.2408 0.3332zm3.6236 13.523a0.9118 0.9118 0 0 1-0.9088 0.9088h-3.97a0.9115 0.9115 0 0 1-0.9086-0.9088 0.9116 0.9116 0 0 1 0.9086-0.9089h3.97a0.9119 0.9119 0 0 1 0.9089 0.9092zm-48.304 0a0.9114 0.9114 0 0 1-0.9086 0.9088h-3.97a0.9113 0.9113 0 0 1-0.9084-0.9088 0.9114 0.9114 0 0 1 0.9084-0.9089h3.97a0.9114 0.9114 0 0 1 0.9087 0.9092zm21.258-27.045a0.9112 0.9112 0 0 1 0.9085 0.9083v3.97a0.9112 0.9112 0 0 1-0.9085 0.9083 0.911 0.911 0 0 1-0.9086-0.9083v-3.9699a0.911 0.911 0 0 1 0.9087-0.9081z"/>
 <g class="cls-36" transform="translate(-163.36 -129.07)" clip-path="url(#clip-path-7)">
  <path class="cls-32" d="m730.33 340.58 2.6 0.93a2.5724 2.5724 0 0 0 2.97-0.9326 26.638 26.638 0 0 1 4.4274-4.8832 2.5731 2.5731 0 0 0 0.6346-3.05l-1.1771-2.4985a2.5938 2.5938 0 0 1 1.2293-3.4556l4.7827-2.2624a2.5958 2.5958 0 0 1 3.4547 1.2375l1.1822 2.4968a2.5737 2.5737 0 0 0 2.7621 1.4426 26.543 26.543 0 0 1 6.5827-0.3264 2.5637 2.5637 0 0 0 2.6011-1.7093l0.9317-2.599a2.5941 2.5941 0 0 1 3.3157-1.5693l4.9812 1.7817a2.5933 2.5933 0 0 1 1.57 3.3147l-0.9294 2.6a2.5734 2.5734 0 0 0 0.9291 2.9721 26.632 26.632 0 0 1 4.883 4.4228 2.5718 2.5718 0 0 0 3.053 0.6377l2.4967-1.1817a2.5881 2.5881 0 0 1 3.4512 1.2357l2.2653 4.7809a2.5947 2.5947 0 0 1-1.2368 3.4543l-2.4964 1.1815a2.5675 2.5675 0 0 0-1.44 2.7625 26.9 26.9 0 0 1 0.3261 6.5834 2.5662 2.5662 0 0 0 1.7047 2.6038l2.6005 0.9286a2.5933 2.5933 0 0 1 1.5693 3.3154l-1.781 4.9806a2.596 2.596 0 0 1-3.3163 1.57l-2.5987-0.9295a2.5766 2.5766 0 0 0-2.9741 0.9315 26.472 26.472 0 0 1-4.4208 4.8808 2.5744 2.5744 0 0 0-0.6408 3.0529l1.1844 2.4965a2.5935 2.5935 0 0 1-1.2362 3.4541l-4.7776 2.2637a2.5991 2.5991 0 0 1-3.4579-1.2373l-1.178-2.4959a2.5719 2.5719 0 0 0-2.7664-1.4411 26.562 26.562 0 0 1-6.5788 0.3245 2.5721 2.5721 0 0 0-2.607 1.708l-0.9293 2.5989a2.5908 2.5908 0 0 1-3.3152 1.57l-4.9825-1.7786a2.6028 2.6028 0 0 1-1.5691-3.3194l0.9323-2.5983a2.5768 2.5768 0 0 0-0.9341-2.9741 26.659 26.659 0 0 1-4.88-4.4207 2.5721 2.5721 0 0 0-3.0509-0.6376l-2.4958 1.1822a2.5977 2.5977 0 0 1-3.4581-1.2349l-2.2611-4.783a2.5914 2.5914 0 0 1 1.2358-3.4543l2.4976-1.1818a2.5746 2.5746 0 0 0 1.4426-2.7623 26.26 26.26 0 0 1-0.327-6.5818 2.5664 2.5664 0 0 0-1.7064-2.6021l-2.6023-0.9323a2.591 2.591 0 0 1-1.5691-3.3149l1.7818-4.9813a2.5887 2.5887 0 0 1 3.3145-1.5664m13.316 12.904a14.364 14.364 0 1 0 21.204-10.032 14.346 14.346 0 0 0-21.203 10.032z"/>
  <path class="cls-31" d="m773.14 346.08a18.032 18.032 0 1 1-11.34-7.8688 17.976 17.976 0 0 1 11.34 7.8688m-11.091-9.0123a19.202 19.202 0 1 0 12.075 8.3779 19.147 19.147 0 0 0-12.075-8.3779z"/>
  <path class="cls-14" d="m750.48 376.07a21.423 21.423 0 0 0 11.456 1.01c0.1559-0.0286 0.3107-0.06 0.465-0.0916l0.01 0.7055-0.3474 0.0672a22.115 22.115 0 0 1-11.696-0.9938zm0.846-40.607a21.437 21.437 0 0 0-10.265 7.2187l-0.5058-0.4774a22.129 22.129 0 0 1 10.566-7.4039zm23.599 7.1067a21.602 21.602 0 0 0-4.6836-4.3812q-0.5764-0.3966-1.1782-0.7557l0.3584-0.5929q0.6189 0.37 1.2135 0.779a22.301 22.301 0 0 1 4.79 4.4672z"/>
 </g>
</svg>
