<svg width="60" height="84" viewBox="0 0 60 84" fill="none" xmlns="http://www.w3.org/2000/svg">
<path d="M59 55.8459C59 70.2586 46.9699 82.1375 31.6838 82.9551L49.2063 54.5466L49.2101 54.5407L49.3096 54.3843C49.5749 53.9839 49.8266 53.5743 50.0639 53.1564L55.9221 43.6589C57.8923 47.3252 59 51.4644 59 55.8459ZM18.5001 67.0409L27.9535 82.9336C12.8403 81.9492 1 70.1445 1 55.8459C1 51.4644 2.10773 47.3252 4.07793 43.6589L18.5001 67.0409ZM46.2274 28.2565C42.2038 24.4132 36.6368 22.0091 30.4779 21.9255C23.3352 21.8286 16.8871 24.8771 12.6691 29.7324L30.2727 1.88961L34.4812 8.73036L34.4864 8.73886L46.2274 28.2565Z" fill="#F0EBE3" stroke="#F0EBE3" stroke-width="2"/>
</svg>
