<svg width="484" height="333" viewBox="0 0 484 333" fill="none" xmlns="http://www.w3.org/2000/svg">
<path d="M357.667 135.894C357.667 138.452 355.559 140.616 352.971 140.616H222.727C220.14 140.616 218.031 138.55 218.031 135.894C218.031 133.336 220.14 131.172 222.727 131.172H352.971C355.559 131.172 357.667 133.336 357.667 135.894Z" fill="url(#paint0_linear_999_786)"/>
<path d="M290.389 140.616H285.309H227.615V147.206V149.37C227.615 153.305 230.778 156.551 234.611 156.551H263.938C270.646 156.551 276.109 162.158 276.109 169.044V272.823C276.109 283.545 267.675 292.3 257.133 292.3H253.587C243.332 292.3 234.995 300.858 234.995 311.383V316.4V319.941V323.482C234.995 324.761 236.049 325.843 237.295 325.843H247.358C248.604 325.843 249.658 324.761 249.658 323.482V316.498C249.658 316.301 249.562 316.105 249.562 315.908V311.481C249.562 309.317 251.383 307.448 253.491 307.448H285.118H290.197H321.824C323.932 307.448 325.753 309.317 325.753 311.481V315.908C325.753 316.105 325.657 316.301 325.657 316.498V323.482C325.657 324.761 326.711 325.843 327.957 325.843H338.02C339.266 325.843 340.32 324.761 340.32 323.482V319.941V316.4V311.383C340.32 300.858 331.983 292.3 321.728 292.3H318.182C307.736 292.3 299.206 283.643 299.206 272.823V169.044C299.206 162.158 304.669 156.551 311.377 156.551H340.704C344.537 156.551 347.7 153.305 347.7 149.37V147.206V140.616H290.389Z" fill="url(#paint1_linear_999_786)"/>
<path d="M290.389 140.616H285.309H227.615V147.206V149.37C227.615 153.305 230.778 156.551 234.611 156.551H263.938C270.646 156.551 276.109 162.158 276.109 169.044V272.823C276.109 283.545 267.675 292.3 257.133 292.3H253.587C243.332 292.3 234.995 300.858 234.995 311.383V316.4V319.941V323.482C234.995 324.761 236.049 325.843 237.295 325.843H247.358C248.604 325.843 249.658 324.761 249.658 323.482V316.498C249.658 316.301 249.562 316.105 249.562 315.908V311.481C249.562 309.317 251.383 307.448 253.491 307.448H285.118H290.197H321.824C323.932 307.448 325.753 309.317 325.753 311.481V315.908C325.753 316.105 325.657 316.301 325.657 316.498V323.482C325.657 324.761 326.711 325.843 327.957 325.843H338.02C339.266 325.843 340.32 324.761 340.32 323.482V319.941V316.4V311.383C340.32 300.858 331.983 292.3 321.728 292.3H318.182C307.736 292.3 299.206 283.643 299.206 272.823V169.044C299.206 162.158 304.669 156.551 311.377 156.551H340.704C344.537 156.551 347.7 153.305 347.7 149.37V147.206V140.616H290.389Z" fill="url(#paint2_linear_999_786)"/>
<path d="M290.389 140.616H285.309H227.615V147.206V149.37C227.615 153.305 230.778 156.551 234.611 156.551H263.938C270.646 156.551 276.109 162.158 276.109 169.044V272.823C276.109 283.545 267.675 292.3 257.133 292.3H253.587C243.332 292.3 234.995 300.858 234.995 311.383V316.4V319.941V323.482C234.995 324.761 236.049 325.843 237.295 325.843H247.358C248.604 325.843 249.658 324.761 249.658 323.482V316.498C249.658 316.301 249.562 316.105 249.562 315.908V311.481C249.562 309.317 251.383 307.448 253.491 307.448H285.118H290.197H321.824C323.932 307.448 325.753 309.317 325.753 311.481V315.908C325.753 316.105 325.657 316.301 325.657 316.498V323.482C325.657 324.761 326.711 325.843 327.957 325.843H338.02C339.266 325.843 340.32 324.761 340.32 323.482V319.941V316.4V311.383C340.32 300.858 331.983 292.3 321.728 292.3H318.182C307.736 292.3 299.206 283.643 299.206 272.823V169.044C299.206 162.158 304.669 156.551 311.377 156.551H340.704C344.537 156.551 347.7 153.305 347.7 149.37V147.206V140.616H290.389Z" fill="#202820"/>
<path d="M291.251 279.217C291.251 281.873 289.718 284.037 287.801 284.037C285.884 284.037 284.351 281.873 284.351 279.217V170.225C284.351 167.569 285.884 165.405 287.801 165.405C289.718 165.405 291.251 167.569 291.251 170.225V279.217Z" fill="#F5F5F5"/>
<path d="M290.964 39.0013C290.964 39.0013 290.772 34.378 289.239 30.5416C287.705 26.6069 279.751 21.0982 276.396 24.1476C273.042 27.1971 273.713 31.722 276.684 35.1649C279.559 38.6078 283.584 38.8045 284.255 40.9686C284.926 43.0344 291.251 41.6572 290.964 39.0013Z" fill="#F2AEB2"/>
<path d="M384.597 67.8232C384.597 67.8232 358.338 85.136 318.948 97.9239C318.948 97.9239 312.623 100.383 314.54 107.367C316.553 114.745 322.974 112.777 322.974 112.777C323.165 112.777 323.261 112.679 323.453 112.679C361.213 103.433 389.485 86.2181 392.264 78.447C395.044 70.5775 389.964 65.4623 384.597 67.8232Z" fill="#FFA76C"/>
<path d="M328.82 102.055C304.285 67.8233 290.772 38.903 290.772 38.903L283.297 37.9193C283.297 37.9193 294.318 74.5123 316.744 111.105C316.744 111.105 319.619 115.335 326.041 111.204C332.078 107.269 329.107 102.449 329.107 102.449C329.012 102.351 328.916 102.252 328.82 102.055Z" fill="#F2AEB2"/>
<path d="M380.381 66.151C360.446 76.2829 347.604 84.3491 347.604 84.3491C346.741 84.7426 356.9 105.105 356.9 105.105C372.043 100.777 379.806 97.137 389.964 88.3822C401.177 78.6437 398.686 56.9043 380.381 66.151Z" fill="url(#paint3_linear_999_786)"/>
<path d="M128.806 60.7407L103.026 126.254C101.972 128.91 103.217 131.074 105.709 131.074H250.712H255.025C257.612 131.074 260.487 128.91 261.542 126.254L287.322 60.6423H128.806V60.7407Z" fill="url(#paint4_linear_999_786)"/>
<path d="M128.806 60.7407L103.026 126.254C101.972 128.91 103.217 131.074 105.709 131.074H250.712H255.025C257.612 131.074 260.487 128.91 261.542 126.254L287.322 60.6423H128.806V60.7407Z" fill="url(#paint5_linear_999_786)"/>
<path d="M128.806 60.7407L103.026 126.254C101.972 128.91 103.217 131.074 105.709 131.074H250.712H255.025C257.612 131.074 260.487 128.91 261.542 126.254L287.322 60.6423H128.806V60.7407Z" fill="url(#paint6_linear_999_786)"/>
<path d="M128.806 60.7407L103.026 126.254C101.972 128.91 103.217 131.074 105.709 131.074H250.712H255.025C257.612 131.074 260.487 128.91 261.542 126.254L287.322 60.6423H128.806V60.7407Z" fill="url(#paint7_linear_999_786)"/>
<path d="M128.806 60.7407L103.026 126.254C101.972 128.91 103.217 131.074 105.709 131.074H250.712H255.025C257.612 131.074 260.487 128.91 261.542 126.254L287.322 60.6423H128.806V60.7407Z" fill="url(#paint8_linear_999_786)"/>
<path d="M128.806 60.7407L103.026 126.254C101.972 128.91 103.217 131.074 105.709 131.074H250.712H255.025C257.612 131.074 260.487 128.91 261.542 126.254L287.322 60.6423H128.806V60.7407Z" fill="url(#paint9_linear_999_786)"/>
<path d="M128.806 60.7407L103.026 126.254C101.972 128.91 103.217 131.074 105.709 131.074H250.712H255.025C257.612 131.074 260.487 128.91 261.542 126.254L287.322 60.6423H128.806V60.7407Z" fill="#7F8184"/>
<path d="M110.98 131.172C108.393 131.172 107.243 129.008 108.297 126.352L134.077 60.8391H128.806L103.026 126.352C101.972 129.008 103.217 131.172 105.709 131.172H250.712H255.025H110.98Z" fill="#696D70"/>
<path d="M277.163 23.7542C276.109 21.0983 273.138 18.9342 270.646 18.9342H114.526C111.939 18.9342 110.789 21.0983 111.843 23.7542L152.095 126.352C153.149 129.008 156.12 131.172 158.612 131.172H314.732C317.319 131.172 318.469 129.008 317.415 126.352L277.163 23.7542Z" fill="#7F8184"/>
<path d="M156.407 126.352L116.06 23.8526C115.005 21.1967 116.251 19.0326 118.743 19.0326H114.335C111.747 19.0326 110.597 21.1967 111.651 23.8526L152.095 126.352C153.149 129.008 156.12 131.172 158.612 131.172H163.02C160.433 131.172 157.462 129.008 156.407 126.352Z" fill="#414E3F"/>
<path d="M273.234 29.9514C272.275 27.5906 269.688 25.7216 267.484 25.7216H155.641C153.436 25.7216 152.286 27.6889 153.245 29.9514L188.801 120.253C189.759 122.614 192.347 124.483 194.551 124.483H306.394C308.598 124.483 309.748 122.516 308.79 120.253L273.234 29.9514Z" fill="white"/>
<path d="M180.367 111.302C177.492 104.023 169.537 98.1206 162.541 98.1206C155.545 98.1206 152.286 104.023 155.162 111.302C158.037 118.581 165.991 124.483 172.987 124.483C179.888 124.483 183.242 118.581 180.367 111.302Z" fill="#414E3F"/>
<g opacity="0.75">
<g opacity="0.75">
<path opacity="0.75" d="M166.854 75.9877C167.141 76.6763 166.854 77.1681 166.183 77.1681H142.511C141.84 77.1681 141.169 76.5779 140.882 75.9877L140.786 75.6926C140.498 75.004 140.786 74.5122 141.457 74.5122H165.129C165.8 74.5122 166.47 75.1024 166.758 75.6926L166.854 75.9877Z" fill="#414E3F"/>
</g>
<g opacity="0.75">
<path opacity="0.75" d="M164.745 70.7742C165.033 71.4628 164.745 71.9546 164.074 71.9546H140.403C139.732 71.9546 139.061 71.3644 138.773 70.7742L138.677 70.4791C138.39 69.7905 138.677 69.2987 139.348 69.2987H163.02C163.691 69.2987 164.362 69.8889 164.649 70.4791L164.745 70.7742Z" fill="#414E3F"/>
</g>
<g opacity="0.75">
<path opacity="0.75" d="M162.733 65.4623C163.02 66.1509 162.733 66.6428 162.062 66.6428H138.39C137.719 66.6428 137.048 66.0526 136.761 65.4623L136.665 65.1672C136.377 64.4787 136.665 63.9868 137.336 63.9868H161.008C161.679 63.9868 162.349 64.577 162.637 65.1672L162.733 65.4623Z" fill="#414E3F"/>
</g>
<g opacity="0.75">
<path opacity="0.75" d="M168.962 81.2996C169.25 81.9882 168.962 82.48 168.291 82.48H144.619C143.948 82.48 143.278 81.8898 142.99 81.2996L142.894 81.0045C142.607 80.3159 142.894 79.8241 143.565 79.8241H167.237C167.908 79.8241 168.579 80.4143 168.866 81.0045L168.962 81.2996Z" fill="#414E3F"/>
</g>
<g opacity="0.75">
<path opacity="0.75" d="M171.071 86.6115C171.358 87.3001 171.071 87.7919 170.4 87.7919H146.728C146.057 87.7919 145.386 87.2017 145.099 86.6115L145.003 86.3164C144.715 85.6278 145.003 85.136 145.674 85.136H169.346C170.016 85.136 170.687 85.7262 170.975 86.3164L171.071 86.6115Z" fill="#414E3F"/>
</g>
<g opacity="0.75">
<path opacity="0.75" d="M173.083 91.9234C173.371 92.612 173.083 93.1038 172.412 93.1038H148.74C148.07 93.1038 147.399 92.5136 147.111 91.9234L147.015 91.6283C146.728 90.9397 147.015 90.4479 147.686 90.4479H171.358C172.029 90.4479 172.7 91.0381 172.987 91.6283L173.083 91.9234Z" fill="#414E3F"/>
</g>
</g>
<path d="M128.902 30.4432C129.19 31.0334 128.902 31.6237 128.231 31.6237H124.781C124.206 31.6237 123.439 31.1318 123.248 30.4432L121.81 26.902C121.522 26.3118 121.81 25.7216 122.481 25.7216H125.931C126.506 25.7216 127.273 26.2134 127.464 26.902L128.902 30.4432Z" fill="#F5F5F5"/>
<path d="M135.611 30.4432C135.898 31.0334 135.611 31.6237 134.94 31.6237H131.49C130.915 31.6237 130.148 31.1318 129.956 30.4432L128.519 26.902C128.231 26.3118 128.519 25.7216 129.19 25.7216H132.64C133.215 25.7216 133.981 26.2134 134.173 26.902L135.611 30.4432Z" fill="#F5F5F5"/>
<path d="M142.223 30.4432C142.511 31.0334 142.223 31.6237 141.553 31.6237H138.102C137.527 31.6237 136.761 31.1318 136.569 30.4432L135.131 26.902C134.844 26.3118 135.131 25.7216 135.802 25.7216H139.252C139.828 25.7216 140.594 26.2134 140.786 26.902L142.223 30.4432Z" fill="#F5F5F5"/>
<path d="M148.932 30.4432C149.22 31.0334 148.932 31.6237 148.261 31.6237H144.811C144.236 31.6237 143.469 31.1318 143.278 30.4432L141.84 26.902C141.553 26.3118 141.84 25.7216 142.511 25.7216H145.961C146.536 25.7216 147.303 26.2134 147.495 26.902L148.932 30.4432Z" fill="#F5F5F5"/>
<path d="M131.777 37.5258C132.065 38.116 131.777 38.7062 131.106 38.7062H127.656C127.081 38.7062 126.314 38.2143 126.123 37.5258L124.685 33.9845C124.398 33.3943 124.685 32.8041 125.356 32.8041H128.806C129.381 32.8041 130.148 33.2959 130.34 33.9845L131.777 37.5258Z" fill="#F5F5F5"/>
<path d="M138.39 37.5258C138.677 38.116 138.39 38.7062 137.719 38.7062H134.269C133.694 38.7062 132.927 38.2143 132.736 37.5258L131.298 33.9845C131.01 33.3943 131.298 32.8041 131.969 32.8041H135.419C135.994 32.8041 136.761 33.2959 136.952 33.9845L138.39 37.5258Z" fill="#F5F5F5"/>
<path d="M145.099 37.5258C145.386 38.116 145.099 38.7062 144.428 38.7062H140.978C140.403 38.7062 139.636 38.2143 139.444 37.5258L138.007 33.9845C137.719 33.3943 138.007 32.8041 138.677 32.8041H142.128C142.703 32.8041 143.469 33.2959 143.661 33.9845L145.099 37.5258Z" fill="#F5F5F5"/>
<path d="M151.711 37.5258C151.999 38.116 151.711 38.7062 151.041 38.7062H147.59C147.015 38.7062 146.249 38.2143 146.057 37.5258L144.619 33.9845C144.332 33.3943 144.619 32.8041 145.29 32.8041H148.74C149.315 32.8041 150.082 33.2959 150.274 33.9845L151.711 37.5258Z" fill="#F5F5F5"/>
<path d="M134.556 44.7067C134.844 45.2969 134.556 45.8871 133.886 45.8871H130.435C129.86 45.8871 129.094 45.3952 128.902 44.7067L127.464 41.1654C127.177 40.5752 127.464 39.985 128.135 39.985H131.585C132.16 39.985 132.927 40.4768 133.119 41.1654L134.556 44.7067Z" fill="#F5F5F5"/>
<path d="M141.265 44.7067C141.553 45.2969 141.265 45.8871 140.594 45.8871H137.144C136.569 45.8871 135.802 45.3952 135.611 44.7067L134.173 41.1654C133.886 40.5752 134.173 39.985 134.844 39.985H138.294C138.869 39.985 139.636 40.4768 139.828 41.1654L141.265 44.7067Z" fill="#F5F5F5"/>
<path d="M147.878 44.7067C148.165 45.2969 147.878 45.8871 147.207 45.8871H143.757C143.182 45.8871 142.415 45.3952 142.223 44.7067L140.786 41.1654C140.498 40.5752 140.786 39.985 141.457 39.985H144.907C145.482 39.985 146.249 40.4768 146.44 41.1654L147.878 44.7067Z" fill="#F5F5F5"/>
<path d="M154.587 44.7067C154.874 45.2969 154.587 45.8871 153.916 45.8871H150.465C149.89 45.8871 149.124 45.3952 148.932 44.7067L147.495 41.1654C147.207 40.5752 147.494 39.985 148.165 39.985H151.616C152.191 39.985 152.957 40.4768 153.149 41.1654L154.587 44.7067Z" fill="#F5F5F5"/>
<path d="M137.432 51.8876C137.719 52.4778 137.432 53.068 136.761 53.068H133.31C132.735 53.068 131.969 52.5762 131.777 51.8876L130.34 48.3463C130.052 47.7561 130.34 47.1659 131.01 47.1659H134.461C135.036 47.1659 135.802 47.6577 135.994 48.3463L137.432 51.8876Z" fill="#F5F5F5"/>
<path d="M144.044 51.8876C144.332 52.4778 144.044 53.068 143.374 53.068H139.923C139.348 53.068 138.582 52.5762 138.39 51.8876L136.952 48.3463C136.665 47.7561 136.952 47.1659 137.623 47.1659H141.073C141.648 47.1659 142.415 47.6577 142.607 48.3463L144.044 51.8876Z" fill="#F5F5F5"/>
<path d="M150.753 51.8876C151.041 52.4778 150.753 53.068 150.082 53.068H146.632C146.057 53.068 145.29 52.5762 145.099 51.8876L143.661 48.3463C143.373 47.7561 143.661 47.1659 144.332 47.1659H147.782C148.357 47.1659 149.124 47.6577 149.315 48.3463L150.753 51.8876Z" fill="#F5F5F5"/>
<path d="M157.366 51.8876C157.653 52.4778 157.366 53.068 156.695 53.068H153.245C152.67 53.068 151.903 52.5762 151.711 51.8876L150.274 48.3463C149.986 47.7561 150.274 47.1659 150.945 47.1659H154.395C154.97 47.1659 155.737 47.6577 155.928 48.3463L157.366 51.8876Z" fill="#F5F5F5"/>
<path d="M140.211 59.0685C140.498 59.6587 140.211 60.2489 139.54 60.2489H136.09C135.515 60.2489 134.748 59.7571 134.556 59.0685L133.119 55.5272C132.831 54.937 133.119 54.3468 133.79 54.3468H137.24C137.815 54.3468 138.582 54.8386 138.773 55.5272L140.211 59.0685Z" fill="#F5F5F5"/>
<path d="M146.824 59.0685C147.111 59.6587 146.824 60.2489 146.153 60.2489H142.703C142.128 60.2489 141.361 59.7571 141.169 59.0685L139.732 55.5272C139.444 54.937 139.732 54.3468 140.403 54.3468H143.853C144.428 54.3468 145.194 54.8386 145.386 55.5272L146.824 59.0685Z" fill="#F5F5F5"/>
<path d="M153.532 59.0685C153.82 59.6587 153.532 60.2489 152.861 60.2489H149.411C148.836 60.2489 148.07 59.7571 147.878 59.0685L146.44 55.5272C146.153 54.937 146.44 54.3468 147.111 54.3468H150.561C151.136 54.3468 151.903 54.8386 152.095 55.5272L153.532 59.0685Z" fill="#F5F5F5"/>
<path d="M160.145 59.0685C160.433 59.6587 160.145 60.2489 159.474 60.2489H156.024C155.449 60.2489 154.682 59.7571 154.491 59.0685L153.053 55.5272C152.766 54.937 153.053 54.3468 153.724 54.3468H157.174C157.749 54.3468 158.516 54.8386 158.708 55.5272L160.145 59.0685Z" fill="#F5F5F5"/>
<path d="M255.312 63.9869C258.091 63.3967 261.925 64.4787 265.183 66.9379L294.222 88.4806C294.606 88.7757 295.085 88.9724 295.564 88.9724C295.852 88.9724 296.139 88.8741 296.427 88.7757L293.935 82.3818L267.963 63.1016C263.554 59.8554 258.571 58.4783 254.354 59.3636C251.575 59.9538 249.466 61.5277 248.124 63.7901L238.828 80.4144L201.26 52.5762C196.851 49.33 191.772 47.9528 187.651 48.8382C184.871 49.4284 182.763 51.0023 181.421 53.2647L170.304 73.1351L172.317 78.1519C172.796 77.9552 173.179 77.6601 173.467 77.1682L185.542 55.6256C186.213 54.5435 187.267 53.7566 188.705 53.4615C191.484 52.8713 195.318 53.9533 198.576 56.4125L238.253 85.8246L289.43 123.795C289.718 123.992 290.005 124.188 290.197 124.483H295.947C295.947 123.893 295.756 123.303 295.277 122.811C294.127 121.631 293.168 120.647 292.114 119.958L242.662 83.2671L252.245 66.2493C252.82 65.0689 253.875 64.282 255.312 63.9869Z" fill="#B6C5B4"/>
<path d="M357.667 135.894C357.667 138.452 355.559 140.616 352.971 140.616H10.1588C7.5712 140.616 5.46277 138.55 5.46277 135.894C5.46277 133.336 7.5712 131.172 10.1588 131.172H352.971C355.559 131.172 357.667 133.336 357.667 135.894Z" fill="#999B9D"/>
<path d="M239.211 90.2512L234.899 93.4974V88.0871L246.591 63.2L250.999 65.4624L239.211 90.2512Z" fill="black"/>
<path d="M323.932 309.809C327.286 313.35 329.011 326.138 324.603 326.04C321.44 325.942 316.169 325.646 311.569 325.45C306.873 325.253 307.16 315.908 310.515 311.678C316.073 304.399 321.153 306.858 323.932 309.809Z" fill="#0A2236"/>
<path d="M314.636 312.269C313.677 310.891 290.197 253.149 270.934 213.408C267.484 206.424 266.142 194.718 276.205 189.997C285.597 185.669 292.881 195.309 294.318 200.522C300.068 221.966 321.536 299.284 322.399 310.006L322.303 308.629C322.59 309.711 322.686 311.973 320.386 312.465C315.69 313.547 314.636 312.269 314.636 312.269Z" fill="#F9C5C8"/>
<path d="M396.29 164.224C372.426 162.257 347.508 162.552 299.781 180.455C292.114 183.406 284.543 185.767 275.821 189.505C275.821 189.505 259.433 196.686 272.563 218.72C274.288 222.458 291.06 258.166 291.06 258.166C291.06 258.166 293.36 262.002 299.589 260.527C305.819 259.051 308.79 253.149 308.79 253.149L301.219 222.163C301.314 222.065 301.506 221.966 301.602 221.868C324.411 220.589 345.975 215.671 359.488 212.228C400.507 201.801 399.836 183.701 396.29 164.224Z" fill="#2D4253"/>
<path d="M269.4 310.793C269.4 310.793 271.509 323.286 268.634 324.761C265.183 326.532 234.036 326.04 232.503 323.187C230.778 320.04 232.215 317.679 253.3 310.104C261.829 307.153 267.388 304.694 269.4 310.793Z" fill="#0A2236"/>
<path d="M258.954 310.104C258.475 308.53 247.453 256.887 241.128 213.408C239.978 205.637 243.045 194.128 254.162 193.44C264.417 192.751 267.963 204.457 267.388 209.867C265.375 232 266.909 295.447 267.196 309.022C267.196 310.203 267.1 311.383 267.1 312.563C267.004 314.924 257.133 315.81 253.683 316.302C244.195 317.679 236.049 319.941 235.761 319.056C235.474 317.58 258.954 310.104 258.954 310.104Z" fill="#F9C5C8"/>
<path d="M363.513 166.29C339.841 162.454 317.128 171.602 268.346 185.865C260.487 188.128 260.583 188.423 251.67 191.472C251.67 191.472 236.624 197.374 240.553 216.064C242.087 228.36 251.095 275.184 251.095 275.184C251.095 275.184 251.862 277.446 257.9 277.84C263.938 278.331 267.388 275.184 267.388 275.184C267.388 275.184 267.771 235.836 268.059 227.18C300.835 220.688 344.154 210.752 352.3 209.277C372.426 205.441 374.439 168.061 363.513 166.29Z" fill="#425564"/>
<path d="M346.262 80.8078C350.383 109.925 339.266 141.206 334.187 167.372C337.829 177.897 347.221 177.701 361.596 180.652C371.659 182.619 399.452 183.308 400.315 179.078C413.541 107.269 399.548 66.7412 391.306 63.3966C386.993 61.7244 384.022 59.4619 379.231 58.1831C371.276 56.019 363.321 56.7076 354.888 60.7407C349.808 63.1015 344.441 68.315 346.262 80.8078Z" fill="#FBFADA"/>
<path d="M302.177 225.803L301.314 222.261C301.41 222.163 301.602 222.065 301.698 221.966C324.507 220.688 346.071 215.769 359.584 212.326C388.527 204.85 396.673 193.636 397.631 180.848C399.165 180.357 400.123 179.766 400.315 179.078C408.461 134.714 406.257 102.252 401.465 83.1687C393.798 83.2671 387.664 83.3654 384.981 83.3654C374.822 83.3654 371.659 83.5622 362.555 108.154C353.45 132.845 349.329 166.192 353.45 185.275C357.571 204.555 339.17 203.08 316.744 203.08C294.318 203.08 290.293 206.326 289.047 215.572C287.801 225.016 295.564 226.098 302.177 225.803Z" fill="#272829"/>
<path d="M254.354 80.316C254.354 80.316 252.341 76.1845 249.37 73.3319C246.495 70.3808 237.007 68.7085 235.09 72.9384C233.174 77.1682 235.665 80.9062 239.691 82.8736C243.716 84.8409 247.453 83.3654 248.891 84.9393C250.424 86.6116 255.695 82.6768 254.354 80.316Z" fill="#F9C5C8"/>
<path d="M351.342 67.4298C351.342 67.4298 334.187 94.1859 303.327 122.319C303.327 122.319 298.439 127.238 302.944 132.746C307.736 138.648 312.815 134.222 312.815 134.222C312.911 134.123 313.102 134.025 313.198 133.927C344.058 109.63 363.034 82.0866 362.459 73.9221C361.98 65.7575 355.367 63.1999 351.342 67.4298Z" fill="#F9C5C8"/>
<path d="M313.965 122.123C277.93 101.17 254.162 80.316 254.162 80.316L246.974 82.5785C246.974 82.5785 271.509 111.4 306.585 135.402C306.585 135.402 310.898 138.058 315.115 131.664C319.044 125.565 314.444 122.319 314.444 122.319C314.252 122.319 314.157 122.221 313.965 122.123Z" fill="#F9C5C8"/>
<path d="M346.837 67.8233C332.653 85.3328 324.124 98.1207 324.124 98.1207C323.453 98.8093 340.895 113.171 340.895 113.171C353.067 102.842 358.625 96.3501 364.472 84.054C370.797 70.5776 359.871 51.5925 346.837 67.8233Z" fill="#FBFADA"/>
<path d="M398.781 312.957L369.263 305.186C367.922 304.891 365.813 304.891 364.567 305.186L335.049 312.957C333.708 313.252 332.653 314.728 332.653 316.105V316.597C332.653 317.974 333.708 319.056 335.049 319.056H355.367H379.518H398.686C400.027 319.056 401.082 317.974 401.082 316.597V316.105C401.082 314.728 400.027 313.252 398.781 312.957Z" fill="#425564"/>
<path d="M373.672 310.006C373.672 313.941 370.605 317.187 366.867 317.187C363.13 317.187 360.063 313.941 360.063 310.006V267.511C360.063 263.576 363.13 260.33 366.867 260.33C370.605 260.33 373.672 263.576 373.672 267.511V310.006Z" fill="#8FACEA"/>
<path d="M373.672 310.006C373.672 313.941 370.605 317.187 366.867 317.187C363.13 317.187 360.063 313.941 360.063 310.006V267.511C360.063 263.576 363.13 260.33 366.867 260.33C370.605 260.33 373.672 263.576 373.672 267.511V310.006Z" fill="#2D4253"/>
<path d="M370.701 310.596C370.701 308.432 368.976 306.661 366.867 306.661C364.759 306.661 363.034 308.432 363.034 310.596C363.034 312.76 364.759 314.531 366.867 314.531C368.976 314.531 370.701 312.76 370.701 310.596Z" fill="url(#paint10_linear_999_786)"/>
<path d="M341.566 318.367C341.566 314.334 338.404 310.99 334.379 310.99C330.449 310.99 327.191 314.236 327.191 318.367C327.191 322.4 330.353 325.745 334.379 325.745C338.404 325.647 341.566 322.4 341.566 318.367Z" fill="#8FACEA"/>
<path d="M341.566 318.367C341.566 314.334 338.404 310.99 334.379 310.99C330.449 310.99 327.191 314.236 327.191 318.367C327.191 322.4 330.353 325.745 334.379 325.745C338.404 325.647 341.566 322.4 341.566 318.367Z" fill="url(#paint11_linear_999_786)"/>
<path d="M341.566 318.367C341.566 314.334 338.404 310.99 334.379 310.99C330.449 310.99 327.191 314.236 327.191 318.367C327.191 322.4 330.353 325.745 334.379 325.745C338.404 325.647 341.566 322.4 341.566 318.367Z" fill="#566D7F"/>
<path d="M337.541 318.367C337.541 316.597 336.199 315.219 334.474 315.219C332.749 315.219 331.407 316.597 331.407 318.367C331.407 320.138 332.749 321.515 334.474 321.515C336.104 321.417 337.541 320.04 337.541 318.367Z" fill="#F5F5F5"/>
<path d="M406.353 318.367C406.353 314.334 403.19 310.99 399.165 310.99C395.236 310.99 391.977 314.236 391.977 318.367C391.977 322.4 395.14 325.745 399.165 325.745C403.19 325.647 406.353 322.4 406.353 318.367Z" fill="#8FACEA"/>
<path d="M406.353 318.367C406.353 314.334 403.19 310.99 399.165 310.99C395.236 310.99 391.977 314.236 391.977 318.367C391.977 322.4 395.14 325.745 399.165 325.745C403.19 325.647 406.353 322.4 406.353 318.367Z" fill="url(#paint12_linear_999_786)"/>
<path d="M406.353 318.367C406.353 314.334 403.19 310.99 399.165 310.99C395.236 310.99 391.977 314.236 391.977 318.367C391.977 322.4 395.14 325.745 399.165 325.745C403.19 325.647 406.353 322.4 406.353 318.367Z" fill="#566D7F"/>
<path d="M402.232 318.367C402.232 316.597 400.89 315.219 399.165 315.219C397.44 315.219 396.098 316.597 396.098 318.367C396.098 320.138 397.44 321.515 399.165 321.515C400.89 321.417 402.232 320.04 402.232 318.367Z" fill="#F5F5F5"/>
<path d="M368.784 320.138C368.784 320.433 368.497 320.728 368.209 320.728H365.43C365.142 320.728 364.855 320.433 364.855 320.138V306.465C364.855 306.17 365.142 305.875 365.43 305.875H368.209C368.497 305.875 368.784 306.17 368.784 306.465V320.138Z" fill="#566D7F"/>
<path d="M368.209 325.253C368.209 325.548 367.922 325.843 367.634 325.843H366.005C365.717 325.843 365.43 325.548 365.43 325.253V311.58C365.43 311.285 365.717 310.99 366.005 310.99H367.634C367.922 310.99 368.209 311.285 368.209 311.58V325.253Z" fill="#2D4253"/>
<path d="M355.367 223.934V268.986C355.367 270.265 356.421 271.347 357.667 271.347H375.972C377.218 271.347 378.272 270.265 378.272 268.986V223.934H355.367Z" fill="#8FACEA"/>
<path d="M355.367 223.934V268.986C355.367 270.265 356.421 271.347 357.667 271.347H375.972C377.218 271.347 378.272 270.265 378.272 268.986V223.934H355.367Z" fill="#2A2B2C"/>
<path d="M449.767 86.7099C448.521 86.0213 447.084 85.7262 445.742 85.8246H382.585C382.202 85.8246 381.818 85.8246 381.531 85.8246C379.326 86.0213 377.122 87.3001 375.972 89.4642C375.205 90.8414 357.667 123.106 357.667 155.371C357.667 179.373 360.255 187.537 362.555 194.718C363.321 196.981 363.896 199.047 364.472 201.506C365.717 207.408 365.047 208.883 365.047 208.883C365.047 208.883 364.088 209.572 360.638 209.572H357.38H354.696C356.709 212.326 358.625 216.753 358.434 224.032H360.638H424.945C432.037 224.032 437.117 222.065 440.279 218.032C444.784 212.326 443.825 204.555 442.484 198.456C441.813 195.309 440.95 192.751 440.183 190.292C438.075 183.799 435.967 177.11 435.967 155.469C435.967 127.041 452.259 96.9402 452.451 96.6451C454.272 93.0055 453.122 88.6773 449.767 86.7099Z" fill="#6E9BED"/>
<path d="M449.767 86.7099C448.521 86.0213 447.084 85.7262 445.742 85.8246H382.585C382.202 85.8246 381.818 85.8246 381.531 85.8246C379.326 86.0213 377.122 87.3001 375.972 89.4642C375.205 90.8414 357.667 123.106 357.667 155.371C357.667 179.373 360.255 187.537 362.555 194.718C363.321 196.981 363.896 199.047 364.472 201.506C365.717 207.408 365.047 208.883 365.047 208.883C365.047 208.883 364.088 209.572 360.638 209.572H357.38H354.696C356.709 212.326 358.625 216.753 358.434 224.032H360.638H424.945C432.037 224.032 437.117 222.065 440.279 218.032C444.784 212.326 443.825 204.555 442.484 198.456C441.813 195.309 440.95 192.751 440.183 190.292C438.075 183.799 435.967 177.11 435.967 155.469C435.967 127.041 452.259 96.9402 452.451 96.6451C454.272 93.0055 453.122 88.6773 449.767 86.7099Z" fill="#717172"/>
<path d="M360.542 223.934H301.027C297.193 223.934 294.031 220.687 294.031 216.753C294.031 212.818 297.193 209.572 301.027 209.572H360.542C363.992 209.572 364.951 208.883 364.951 208.883C364.951 208.883 365.622 207.408 364.376 201.506C363.897 199.046 363.226 197.079 362.459 194.718C360.159 187.537 357.571 179.373 357.571 155.371C357.571 123.106 375.11 90.8413 375.876 89.4642C377.793 86.0213 382.106 84.7425 385.46 86.7099C388.814 88.6772 390.06 93.1038 388.143 96.5467C387.952 96.8418 371.659 126.943 371.659 155.371C371.659 177.012 373.768 183.701 375.876 190.193C376.643 192.653 377.505 195.21 378.176 198.358C379.518 204.457 380.381 212.228 375.972 217.933C372.714 221.966 367.73 223.934 360.542 223.934Z" fill="#34393D"/>
<path d="M384.023 65.3641C384.023 65.3641 372.139 64.9706 367.826 52.2811C366.772 49.2317 362.076 48.8382 358.625 47.1659C350.575 43.1328 346.071 35.6568 344.25 26.5086C342.237 25.1314 339.362 23.5575 339.362 18.344C339.362 6.44144 344.154 2.21161 352.588 0.539347C368.88 -2.70681 390.923 8.90065 392.169 29.9515C393.319 51.0023 391.115 52.2811 391.115 52.2811C391.115 52.2811 415.361 40.9687 440.184 57.1011C459.926 69.9874 450.055 91.0382 450.055 91.0382C450.055 91.0382 492.032 122.123 481.298 170.815C470.564 219.507 414.978 217.245 396.865 152.617C385.46 112.679 420.92 94.4811 384.023 65.3641Z" fill="url(#paint13_linear_999_786)"/>
<path d="M384.023 65.3641C384.023 65.3641 372.139 64.9706 367.826 52.2811C366.772 49.2317 362.076 48.8382 358.625 47.1659C350.575 43.1328 346.071 35.6568 344.25 26.5086C342.237 25.1314 339.362 23.5575 339.362 18.344C339.362 6.44144 344.154 2.21161 352.588 0.539347C368.88 -2.70681 390.923 8.90065 392.169 29.9515C393.319 51.0023 391.115 52.2811 391.115 52.2811C391.115 52.2811 415.361 40.9687 440.184 57.1011C459.926 69.9874 450.055 91.0382 450.055 91.0382C450.055 91.0382 492.032 122.123 481.298 170.815C470.564 219.507 414.978 217.245 396.865 152.617C385.46 112.679 420.92 94.4811 384.023 65.3641Z" fill="#272829"/>
<path d="M391.114 50.412C391.114 50.412 391.306 53.7565 388.718 58.0848C386.131 62.5113 384.022 63.3966 384.022 63.3966C384.022 63.3966 383.447 65.364 383.927 66.7412C384.406 68.1183 386.131 69.6922 386.131 69.6922C386.131 69.6922 389.868 70.1841 393.414 63.9869C396.96 57.7896 396.673 52.5761 396.673 52.5761C396.673 52.5761 396.29 50.7071 394.277 50.0185C392.36 49.4283 391.114 50.412 391.114 50.412Z" fill="#758647"/>
<path d="M344.25 23.6559C344.25 23.6559 343.195 47.9529 348.85 52.6745C354.408 57.2979 361.213 53.068 361.213 53.068C361.213 53.068 363.513 55.5272 363.034 57.1995C367.155 61.5277 369.838 60.9375 373.001 60.544C371.372 57.0027 371.084 47.8545 358.625 46.0839C356.996 45.8871 354.984 44.1165 354.025 41.5589C354.313 39.0013 358.625 36.9356 356.517 34.0829C354.792 32.509 351.342 35.2633 351.342 35.2633C351.342 35.2633 346.646 22.7706 344.25 23.6559Z" fill="#F9C5C8"/>
<path opacity="0.5" d="M234.899 91.2349V93.4973L236.624 92.2185L234.899 91.2349Z" fill="url(#paint14_linear_999_786)"/>
<path d="M145.099 135.894C145.099 138.452 142.99 140.616 140.403 140.616H10.1588C7.5712 140.616 5.46277 138.55 5.46277 135.894C5.46277 133.336 7.5712 131.172 10.1588 131.172H140.403C142.99 131.172 145.099 133.336 145.099 135.894Z" fill="#747678"/>
<path d="M77.8204 140.616H72.741H15.0466V147.206V149.37C15.0466 153.305 18.2092 156.551 22.0427 156.551H51.465C58.1736 156.551 63.6364 162.158 63.6364 169.044V272.823C63.6364 283.545 55.2027 292.3 44.6605 292.3H41.1145C30.8598 292.3 22.5219 300.858 22.5219 311.383V316.4V319.941V323.482C22.5219 324.761 23.5761 325.843 24.822 325.843H34.885C36.1309 325.843 37.1851 324.761 37.1851 323.482V316.498C37.1851 316.301 37.0893 316.105 37.0893 315.908V311.481C37.0893 309.317 38.9102 307.448 41.0186 307.448H72.6452H77.7245H109.351C111.459 307.448 113.28 309.317 113.28 311.481V315.908C113.28 316.105 113.185 316.301 113.185 316.498V323.482C113.185 324.761 114.239 325.843 115.485 325.843H125.548C126.794 325.843 127.848 324.761 127.848 323.482V319.941V316.4V311.383C127.848 300.858 119.51 292.3 109.255 292.3H105.709C95.2629 292.3 86.7333 283.643 86.7333 272.823V169.044C86.7333 162.158 92.1961 156.551 98.9047 156.551H128.231C132.065 156.551 135.227 153.305 135.227 149.37V147.206V140.616H77.8204Z" fill="url(#paint15_linear_999_786)"/>
<path d="M77.8204 140.616H72.741H15.0466V147.206V149.37C15.0466 153.305 18.2092 156.551 22.0427 156.551H51.465C58.1736 156.551 63.6364 162.158 63.6364 169.044V272.823C63.6364 283.545 55.2027 292.3 44.6605 292.3H41.1145C30.8598 292.3 22.5219 300.858 22.5219 311.383V316.4V319.941V323.482C22.5219 324.761 23.5761 325.843 24.822 325.843H34.885C36.1309 325.843 37.1851 324.761 37.1851 323.482V316.498C37.1851 316.301 37.0893 316.105 37.0893 315.908V311.481C37.0893 309.317 38.9102 307.448 41.0186 307.448H72.6452H77.7245H109.351C111.459 307.448 113.28 309.317 113.28 311.481V315.908C113.28 316.105 113.185 316.301 113.185 316.498V323.482C113.185 324.761 114.239 325.843 115.485 325.843H125.548C126.794 325.843 127.848 324.761 127.848 323.482V319.941V316.4V311.383C127.848 300.858 119.51 292.3 109.255 292.3H105.709C95.2629 292.3 86.7333 283.643 86.7333 272.823V169.044C86.7333 162.158 92.1961 156.551 98.9047 156.551H128.231C132.065 156.551 135.227 153.305 135.227 149.37V147.206V140.616H77.8204Z" fill="url(#paint16_linear_999_786)"/>
<path d="M77.8204 140.616H72.741H15.0466V147.206V149.37C15.0466 153.305 18.2092 156.551 22.0427 156.551H51.465C58.1736 156.551 63.6364 162.158 63.6364 169.044V272.823C63.6364 283.545 55.2027 292.3 44.6605 292.3H41.1145C30.8598 292.3 22.5219 300.858 22.5219 311.383V316.4V319.941V323.482C22.5219 324.761 23.5761 325.843 24.822 325.843H34.885C36.1309 325.843 37.1851 324.761 37.1851 323.482V316.498C37.1851 316.301 37.0893 316.105 37.0893 315.908V311.481C37.0893 309.317 38.9102 307.448 41.0186 307.448H72.6452H77.7245H109.351C111.459 307.448 113.28 309.317 113.28 311.481V315.908C113.28 316.105 113.185 316.301 113.185 316.498V323.482C113.185 324.761 114.239 325.843 115.485 325.843H125.548C126.794 325.843 127.848 324.761 127.848 323.482V319.941V316.4V311.383C127.848 300.858 119.51 292.3 109.255 292.3H105.709C95.2629 292.3 86.7333 283.643 86.7333 272.823V169.044C86.7333 162.158 92.1961 156.551 98.9047 156.551H128.231C132.065 156.551 135.227 153.305 135.227 149.37V147.206V140.616H77.8204Z" fill="#202820"/>
<path d="M78.6829 279.217C78.6829 281.873 77.1495 284.037 75.2328 284.037C73.316 284.037 71.7826 281.873 71.7826 279.217V170.225C71.7826 167.569 73.316 165.405 75.2328 165.405C77.1495 165.405 78.6829 167.569 78.6829 170.225V279.217Z" fill="#F5F5F5"/>
<path d="M121.139 105.99H116.06V105.203C116.06 104.121 115.197 103.236 114.143 103.236H93.7295C92.6753 103.236 91.8127 104.121 91.8127 105.203V129.894C91.8127 130.976 92.6753 131.861 93.7295 131.861H114.143C115.197 131.861 116.06 130.976 116.06 129.894V129.107H121.139C123.918 129.107 126.123 126.844 126.123 123.992V111.204C126.123 108.253 123.823 105.99 121.139 105.99ZM122.193 123.893C122.193 124.483 121.714 124.975 121.139 124.975H116.06V110.023H121.139C121.714 110.023 122.193 110.515 122.193 111.105V123.893Z" fill="#E8DFCA"/>
<path d="M32.2015 332.336C49.9862 332.336 64.4031 330.53 64.4031 328.302C64.4031 326.075 49.9862 324.269 32.2015 324.269C14.4172 324.269 0 326.075 0 328.302C0 330.53 14.4172 332.336 32.2015 332.336Z" fill="#A2A1C0"/>
<path d="M47.4398 326.63C42.1687 328.499 37.9519 329.385 18.1135 327.712C-11.8838 311.875 4.60034 266.232 4.60034 266.232C4.69617 265.74 4.98368 265.248 5.2712 264.757C5.65455 264.166 6.03791 263.675 6.61293 263.281C10.0631 260.92 19.0719 259.838 29.4223 260.92C38.0478 261.707 45.4272 263.773 49.3565 266.134C50.6024 267.019 51.5608 267.904 52.3275 268.888C52.615 269.38 52.9025 269.773 53.0942 270.265C69.0991 296.825 50.9858 320.335 47.4398 326.63Z" fill="#E0F89F"/>
<path d="M53.4776 316.203C50.9858 321.023 48.5898 324.663 47.4398 326.63C42.1687 328.499 37.8561 329.385 18.1135 327.712C-11.8838 311.875 4.60034 266.232 4.60034 266.232C4.69617 265.74 4.98368 265.248 5.2712 264.757C5.65455 264.166 6.03791 263.675 6.61293 263.281C7.18796 262.888 7.95466 262.494 8.8172 262.199C9.39223 276.659 14.7591 290.923 24.1513 301.841C30.7641 309.416 39.5812 315.515 49.4524 316.302C50.8899 316.302 52.1358 316.302 53.4776 316.203Z" fill="#BCDA9F"/>
<path d="M52.5192 269.872C52.1359 273.61 41.3062 275.675 28.1764 274.397C15.0466 273.118 4.79193 269.085 5.07945 265.347C5.07945 265.15 5.17529 264.953 5.17529 264.757C5.36696 264.166 5.84615 263.675 6.51702 263.281C9.96718 260.92 18.9759 259.838 29.3264 260.92C37.9518 261.707 45.3314 263.773 49.2607 266.134C50.7941 267.019 51.7525 268.003 52.2317 268.888C52.5192 269.183 52.615 269.577 52.5192 269.872Z" fill="#817FFA"/>
<path d="M52.5191 269.872C52.3275 271.741 49.4523 273.216 44.948 274.003C40.5394 274.79 34.6933 274.987 28.1763 274.298C25.0137 274.003 22.0427 273.511 19.3592 272.921C10.7338 271.052 4.79188 268.101 5.07939 265.248C5.07939 265.052 5.17523 264.855 5.27107 264.658C5.46275 264.068 5.94193 263.576 6.6128 263.183C7.66702 262.494 9.29626 261.805 11.3089 261.412C15.8132 260.428 22.2344 260.133 29.4222 260.822C34.6933 261.314 39.4852 262.297 43.3187 263.478C45.8105 264.265 47.8231 265.15 49.3565 266.035C50.8899 266.921 51.8483 267.904 52.3275 268.79C52.5192 269.183 52.5191 269.577 52.5191 269.872Z" fill="#9FAE77"/>
<path d="M32.2016 274.692C31.5308 274.692 30.9557 274.593 30.2849 274.593C28.9431 270.659 27.4097 266.134 26.5472 260.822C26.5472 260.724 26.5472 260.723 26.5472 260.625C27.218 260.625 27.7931 260.723 28.4639 260.723C29.3265 265.839 30.7641 270.167 32.1058 274.102L32.2016 274.298C32.2016 274.495 32.2016 274.593 32.2016 274.692Z" fill="#ABB2D8"/>
<path d="M86.4458 195.407C79.6413 223.245 41.7854 230.131 43.4146 263.576C43.5104 264.658 43.5104 265.642 43.7021 266.724C43.7021 267.019 43.798 267.314 43.798 267.609L45.0439 274.003C40.6354 274.79 34.7893 274.987 28.2723 274.298C25.1097 274.003 22.1387 273.511 19.4552 272.921C16.8676 269.38 14.0883 265.445 11.4049 261.314C1.72522 246.46 -5.75014 228.655 9.29641 212.72C31.3391 189.406 45.4272 179.373 14.7592 139.829C-15.9089 100.186 13.1299 86.9067 25.0138 93.2023C36.8019 99.4979 52.9984 108.154 52.615 88.0871C52.2317 68.02 80.408 64.9706 86.7333 79.4307C93.0586 93.8909 96.3171 106.482 74.2744 145.829C52.1359 185.373 93.5378 166.487 86.4458 195.407Z" fill="#186139"/>
<path d="M33.6392 282.758C33.4475 282.758 33.2559 282.66 33.0642 282.561C26.5472 277.643 23.7679 268.101 26.7389 260.428C27.6014 258.067 28.9432 256.002 30.1891 254.034C31.2433 252.264 32.3933 250.493 33.16 248.624C36.131 241.542 34.4059 232.492 29.039 227.081C28.6556 226.688 28.6556 226.098 29.039 225.704C29.4224 225.311 29.9974 225.311 30.3807 225.704C36.3227 231.705 38.2394 241.443 34.8851 249.313C34.0226 251.28 32.8725 253.149 31.7225 255.018C30.4766 257.084 29.2307 258.953 28.464 261.117C25.8764 268.101 28.2723 276.659 34.2142 281.086C34.5976 281.381 34.6934 281.971 34.4059 282.364C34.2143 282.561 33.9267 282.758 33.6392 282.758Z" fill="white"/>
<path d="M40.827 227.967C40.7311 227.967 40.6353 227.967 40.5394 227.967C40.0603 227.868 39.7727 227.278 39.8686 226.786C41.6895 220.097 47.2481 215.376 51.9442 212.031C52.7109 211.441 53.4776 210.949 54.2443 210.359C58.4611 207.408 62.8697 204.26 65.7448 200.03C68.9075 195.21 69.77 187.833 65.5531 183.799C65.1698 183.406 65.1698 182.816 65.5531 182.422C65.9365 182.029 66.5115 182.029 66.8949 182.422C71.7826 187.144 70.9201 195.604 67.3741 201.112C64.3072 205.736 59.8029 208.883 55.3943 211.933C54.6276 212.523 53.8609 213.015 53.0942 213.605C48.6857 216.851 43.3187 221.278 41.6895 227.377C41.5937 227.672 41.2103 227.967 40.827 227.967Z" fill="white"/>
<path d="M31.7224 148.092C31.4349 148.092 31.1474 147.993 30.9557 147.698L16.8676 128.812C14.6633 125.86 12.0757 122.418 10.9256 118.483C9.58388 114.056 10.4464 109.335 13.1299 106.58C15.6217 104.023 19.7427 103.039 23.8637 104.023C27.5056 104.908 30.7641 106.974 33.6392 108.843C34.0225 109.138 34.2142 109.728 33.9267 110.122C33.6392 110.515 33.0642 110.712 32.6808 110.417C29.8057 108.548 26.7389 106.679 23.4804 105.892C20.7011 105.203 16.8676 105.498 14.4716 107.957C12.2673 110.22 11.5965 114.155 12.7465 117.893C13.8007 121.532 16.1009 124.582 18.401 127.631L32.4891 146.518C32.7766 146.911 32.6808 147.502 32.2975 147.797C32.1058 147.993 31.9141 148.092 31.7224 148.092Z" fill="white"/>
<path d="M68.1408 130.582C67.8533 130.582 67.5658 130.484 67.3741 130.189C63.4447 124.385 62.678 116.319 65.3615 109.826C66.4157 107.367 67.8533 105.105 69.2908 102.842C69.6742 102.252 70.0575 101.76 70.345 101.17C71.8785 98.7108 73.6035 95.7598 74.0827 92.612C74.5619 89.3658 73.5077 86.2181 71.4951 84.5458C70.345 83.6605 68.7158 83.1686 67.1824 83.4637C65.9365 83.6605 64.8823 84.2507 64.3073 85.2344C63.3489 86.7099 63.3489 88.5789 63.3489 90.6446C63.3489 91.2348 63.3489 91.7267 63.3489 92.3169C63.253 95.3663 61.8155 98.7108 58.9403 99.2027C58.4612 99.301 57.982 98.9076 57.8861 98.4157C57.7903 97.9239 58.1736 97.432 58.6528 97.3337C60.4737 97.0386 61.4321 94.481 61.528 92.2185C61.528 91.7267 61.528 91.1365 61.528 90.6446C61.528 88.4805 61.528 86.1197 62.7739 84.2507C63.7322 82.8735 65.1698 81.9882 66.9907 81.6931C69.0033 81.398 71.1118 81.9882 72.6452 83.1686C75.2328 85.3327 76.4787 89.0707 75.9037 93.0055C75.4245 96.5467 73.6035 99.6945 71.8785 102.35C71.4951 102.941 71.1118 103.531 70.7284 104.023C69.3867 106.088 67.9491 108.351 66.9907 110.613C64.4989 116.614 65.2656 123.893 68.8117 129.205C69.0992 129.598 69.0033 130.189 68.62 130.484C68.5241 130.582 68.3325 130.582 68.1408 130.582Z" fill="white"/>
<defs>
<linearGradient id="paint0_linear_999_786" x1="287.876" y1="89.7721" x2="287.876" y2="211.574" gradientUnits="userSpaceOnUse">
<stop stop-color="#43CAFF"/>
<stop offset="0.1856" stop-color="#6BD5FF"/>
<stop offset="0.5807" stop-color="#BAECFF"/>
<stop offset="0.8618" stop-color="#ECFAFF"/>
<stop offset="1" stop-color="white"/>
</linearGradient>
<linearGradient id="paint1_linear_999_786" x1="287.876" y1="-677.181" x2="287.876" y2="1727.77" gradientUnits="userSpaceOnUse">
<stop stop-color="#43CAFF"/>
<stop offset="0.1856" stop-color="#6BD5FF"/>
<stop offset="0.5807" stop-color="#BAECFF"/>
<stop offset="0.8618" stop-color="#ECFAFF"/>
<stop offset="1" stop-color="white"/>
</linearGradient>
<linearGradient id="paint2_linear_999_786" x1="287.876" y1="137.425" x2="287.876" y2="234.15" gradientUnits="userSpaceOnUse">
<stop stop-color="#43CAFF"/>
<stop offset="0.1856" stop-color="#6BD5FF"/>
<stop offset="0.5807" stop-color="#BAECFF"/>
<stop offset="0.8618" stop-color="#ECFAFF"/>
<stop offset="1" stop-color="white"/>
</linearGradient>
<linearGradient id="paint3_linear_999_786" x1="386.225" y1="77.5627" x2="349.349" y2="96.7244" gradientUnits="userSpaceOnUse">
<stop stop-color="#3E3C9B"/>
<stop offset="0.2028" stop-color="#363487"/>
<stop offset="0.7361" stop-color="#232255"/>
<stop offset="1" stop-color="#1B1B42"/>
</linearGradient>
<linearGradient id="paint4_linear_999_786" x1="201.97" y1="69.7463" x2="171.768" y2="170.183" gradientUnits="userSpaceOnUse">
<stop stop-color="#43CAFF"/>
<stop offset="0.3782" stop-color="#35CAFF"/>
<stop offset="1" stop-color="#22CBFF"/>
</linearGradient>
<linearGradient id="paint5_linear_999_786" x1="195.009" y1="34.5108" x2="195.009" y2="135.339" gradientUnits="userSpaceOnUse">
<stop stop-color="#43CAFF"/>
<stop offset="0.1856" stop-color="#6BD5FF"/>
<stop offset="0.5807" stop-color="#BAECFF"/>
<stop offset="0.8618" stop-color="#ECFAFF"/>
<stop offset="1" stop-color="white"/>
</linearGradient>
<linearGradient id="paint6_linear_999_786" x1="195.009" y1="34.5108" x2="195.009" y2="135.339" gradientUnits="userSpaceOnUse">
<stop stop-color="#43CAFF"/>
<stop offset="0.1856" stop-color="#6BD5FF"/>
<stop offset="0.5807" stop-color="#BAECFF"/>
<stop offset="0.8618" stop-color="#ECFAFF"/>
<stop offset="1" stop-color="white"/>
</linearGradient>
<linearGradient id="paint7_linear_999_786" x1="201.97" y1="69.7463" x2="171.768" y2="170.183" gradientUnits="userSpaceOnUse">
<stop stop-color="#43CAFF"/>
<stop offset="0.3782" stop-color="#35CAFF"/>
<stop offset="1" stop-color="#22CBFF"/>
</linearGradient>
<linearGradient id="paint8_linear_999_786" x1="195.009" y1="34.5108" x2="195.009" y2="135.339" gradientUnits="userSpaceOnUse">
<stop stop-color="#43CAFF"/>
<stop offset="0.1856" stop-color="#6BD5FF"/>
<stop offset="0.5807" stop-color="#BAECFF"/>
<stop offset="0.8618" stop-color="#ECFAFF"/>
<stop offset="1" stop-color="white"/>
</linearGradient>
<linearGradient id="paint9_linear_999_786" x1="195.009" y1="84.5685" x2="195.009" y2="240.571" gradientUnits="userSpaceOnUse">
<stop stop-color="#43CAFF"/>
<stop offset="0.1856" stop-color="#6BD5FF"/>
<stop offset="0.5807" stop-color="#BAECFF"/>
<stop offset="0.8618" stop-color="#ECFAFF"/>
<stop offset="1" stop-color="white"/>
</linearGradient>
<linearGradient id="paint10_linear_999_786" x1="366.827" y1="298.651" x2="366.827" y2="338.411" gradientUnits="userSpaceOnUse">
<stop stop-color="white"/>
<stop offset="0.347" stop-color="#D4DFF7"/>
<stop offset="0.7837" stop-color="#A2BAEE"/>
<stop offset="1" stop-color="#8FACEA"/>
</linearGradient>
<linearGradient id="paint11_linear_999_786" x1="334.447" y1="308.119" x2="334.447" y2="327.05" gradientUnits="userSpaceOnUse">
<stop stop-color="white"/>
<stop offset="0.347" stop-color="#D4DFF7"/>
<stop offset="0.7837" stop-color="#A2BAEE"/>
<stop offset="1" stop-color="#8FACEA"/>
</linearGradient>
<linearGradient id="paint12_linear_999_786" x1="399.207" y1="308.119" x2="399.207" y2="327.05" gradientUnits="userSpaceOnUse">
<stop stop-color="white"/>
<stop offset="0.347" stop-color="#D4DFF7"/>
<stop offset="0.7837" stop-color="#A2BAEE"/>
<stop offset="1" stop-color="#8FACEA"/>
</linearGradient>
<linearGradient id="paint13_linear_999_786" x1="-66.9466" y1="-3740.46" x2="-31.5546" y2="-3471.64" gradientUnits="userSpaceOnUse">
<stop stop-color="#508FEA"/>
<stop offset="0.6341" stop-color="#7AA6F6"/>
<stop offset="1" stop-color="#8DB0FC"/>
</linearGradient>
<linearGradient id="paint14_linear_999_786" x1="235.654" y1="89.1347" x2="235.888" y2="97.1907" gradientUnits="userSpaceOnUse">
<stop stop-color="#2095F9"/>
<stop offset="0.1145" stop-color="#1C8BF8"/>
<stop offset="0.6989" stop-color="#0959F6"/>
<stop offset="0.988" stop-color="#0246F5"/>
</linearGradient>
<linearGradient id="paint15_linear_999_786" x1="75.3085" y1="-677.181" x2="75.3085" y2="1727.77" gradientUnits="userSpaceOnUse">
<stop stop-color="#43CAFF"/>
<stop offset="0.1856" stop-color="#6BD5FF"/>
<stop offset="0.5807" stop-color="#BAECFF"/>
<stop offset="0.8618" stop-color="#ECFAFF"/>
<stop offset="1" stop-color="white"/>
</linearGradient>
<linearGradient id="paint16_linear_999_786" x1="75.3085" y1="137.425" x2="75.3085" y2="234.15" gradientUnits="userSpaceOnUse">
<stop stop-color="#43CAFF"/>
<stop offset="0.1856" stop-color="#6BD5FF"/>
<stop offset="0.5807" stop-color="#BAECFF"/>
<stop offset="0.8618" stop-color="#ECFAFF"/>
<stop offset="1" stop-color="white"/>
</linearGradient>
</defs>
</svg>
