<svg width="955" height="484" viewBox="0 0 955 484" fill="none" xmlns="http://www.w3.org/2000/svg">
<g clip-path="url(#clip0)">
<path d="M12.352 324.91C27.205 314.725 26.773 308.23 22.503 292.036C20.7123 285.245 21.6673 280.285 24.7451 273.502C31.1841 259.311 44.0601 247.47 58.9931 242.824C86.7171 234.199 116.565 243.416 143.784 253.522C171.003 263.628 199.546 274.889 228.202 270.218C265.64 264.115 292.983 232.89 318.469 204.796C343.955 176.702 375.529 147.853 413.439 149.133C441.577 150.083 466.329 167.828 486.482 187.487C506.635 207.146 524.512 229.705 548.376 244.644C562.986 253.79 579.362 259.747 596.434 262.125C613.505 264.504 630.886 263.249 647.439 258.444C663.992 253.639 679.344 245.392 692.488 234.243C705.633 223.093 716.275 209.293 723.716 193.746C733.502 173.3 737.662 150.07 750.66 131.5C763.658 112.93 790.96 100.862 809.09 114.468C826.319 127.399 823.991 154.807 812.77 173.196C801.549 191.585 783.857 205.312 772.494 223.613C761.131 241.914 758.353 269.179 775.278 282.506C791.101 294.965 814.196 288.403 832.555 280.124C850.914 271.845 871.746 262.214 890.257 270.149C908.905 278.142 916.559 302.956 909.091 321.82C901.623 340.684 882.295 353.06 862.293 356.458C842.291 359.856 821.72 355.47 802.593 348.703C790.403 344.39 775.743 339.43 765.575 347.419C756.071 354.887 756.956 370.829 765.207 379.661C773.458 388.493 786.6 391.145 798.638 390.056C810.676 388.967 822.156 384.69 833.858 381.662C848.33 377.918 864.414 376.249 877.636 383.225C890.858 390.201 898.721 408.589 890.151 420.836C882.337 432.003 866.352 432.694 852.729 432.272C820.891 431.283 789.122 427.613 757.269 427.613H74.389C70.6634 420.247 74.5797 411.115 78.5581 403.883C82.5365 396.651 87.2661 388.946 86.0448 380.782C84.6787 371.652 75.9548 365.104 66.9548 363.047C57.9548 360.99 48.5828 362.405 39.3928 363.29C30.2028 364.174 20.4988 364.426 12.2278 360.325C3.9566 356.224 -2.1832 346.455 0.743796 337.699C2.6027 332.137 7.5177 328.224 12.3548 324.908L12.352 324.91Z" fill="#DADBDC"/>
<path d="M415.15 425.625C586.861 425.625 726.06 422.668 726.06 419.02C726.06 415.372 586.861 412.415 415.15 412.415C243.439 412.415 104.24 415.372 104.24 419.02C104.24 422.668 243.439 425.625 415.15 425.625Z" fill="#151348"/>
<path opacity="0.4" d="M33.339 360.23C20.133 360.871 -0.419998 347.327 2.343 331.616C3.9297 322.615 16.802 312.404 24.486 308.844C43.27 300.141 64.386 302.605 84.148 298.193C98.019 295.096 119.325 285.915 125.506 272.419C127.749 267.294 128.444 261.625 127.505 256.11C126.566 250.595 124.035 245.475 120.222 241.381C116.43 237.445 111.562 234.696 107.636 230.894C89.4279 213.267 100.617 179.889 127.721 181.886C132.37 182.3 136.806 184.021 140.518 186.85C144.23 189.678 147.067 193.5 148.699 197.872C151.289 205.147 150.277 213.25 152.305 220.701C157.174 238.595 181.277 246.623 197.604 241.117C217.498 234.408 227.29 215.04 229.243 195.31C231.369 173.832 211.372 163.475 200.101 147.62C188.163 130.825 187.477 106.337 199.761 89.794C212.045 73.251 236.961 67.025 254.898 77.166C278.548 90.537 282.273 122.086 289.6 148.248C297.491 176.423 313.995 203.875 340.313 216.662C366.631 229.449 403.383 222.497 417.181 196.695C425.227 181.65 424.483 163.56 422.573 146.606C420.662 129.652 417.824 112.225 422.291 95.759C426.759 79.293 441.089 63.986 458.128 64.868C488.688 66.4491 496.297 111.485 523.685 125.134C540.056 133.293 559.934 128.254 576.409 120.307C592.884 112.361 608.353 101.549 626.262 97.8303C644.171 94.1113 666.115 100.273 672.804 117.297C681.144 138.522 662.134 159.813 656.137 181.815C646.806 216.053 673.048 253.075 706.939 263.598C740.83 274.121 778.451 262.748 807.489 242.348C818.856 234.363 829.373 224.981 841.85 218.872C854.327 212.763 869.659 210.347 881.931 216.857C898.909 225.864 903.783 249.981 895.298 267.226C886.813 284.471 868.254 294.981 849.379 298.599C830.504 302.217 811.055 299.952 791.971 297.677L525.431 265.898C492.785 262.005 459.807 258.109 427.115 261.591C394.423 265.072 361.565 276.629 338.2 299.759C320.936 316.85 306.105 341.41 281.855 342.857C257.018 344.34 238.862 320.364 216.1 310.315C186.364 297.186 151.748 309.103 123.037 324.344C94.3263 339.584 65.8053 358.654 33.3383 360.23L33.339 360.23Z" fill="#DADBDC"/>
<path d="M697.47 400.04H324.64C322.418 400.04 320.286 399.157 318.715 397.586C317.143 396.014 316.26 393.883 316.26 391.661V140.181C316.26 137.958 317.143 135.827 318.715 134.255C320.286 132.684 322.417 131.801 324.64 131.801H697.47C699.692 131.801 701.824 132.684 703.395 134.256C704.966 135.827 705.849 137.958 705.849 140.181V391.661C705.849 393.883 704.966 396.014 703.395 397.586C701.824 399.157 699.692 400.04 697.47 400.04L697.47 400.04Z" fill="#000F19"/>
<path d="M690.94 400.04H305.61C303.351 400.04 301.186 399.143 299.589 397.546C297.992 395.949 297.094 393.783 297.094 391.524V140.314C297.094 138.056 297.992 135.89 299.589 134.293C301.186 132.696 303.351 131.799 305.61 131.799H690.94C693.198 131.799 695.364 132.696 696.961 134.293C698.558 135.89 699.455 138.056 699.455 140.314V391.524C699.455 392.643 699.235 393.75 698.807 394.783C698.379 395.816 697.752 396.755 696.961 397.546C696.17 398.337 695.231 398.964 694.198 399.392C693.165 399.82 692.058 400.04 690.939 400.04L690.94 400.04Z" fill="#0A2236"/>
<path d="M682.43 153.09V378.75C682.43 379.879 681.981 380.962 681.183 381.761C680.384 382.559 679.301 383.008 678.172 383.008H318.382C317.253 383.008 316.17 382.56 315.371 381.761C314.573 380.963 314.124 379.88 314.124 378.75V153.09C314.124 152.531 314.234 151.978 314.448 151.461C314.662 150.944 314.976 150.475 315.371 150.08C315.767 149.684 316.236 149.371 316.753 149.157C317.269 148.943 317.823 148.833 318.382 148.833H678.172C679.301 148.833 680.384 149.281 681.183 150.08C681.982 150.878 682.43 151.961 682.43 153.091L682.43 153.09Z" fill="#F9F9F9"/>
<path d="M682.43 153.09V170.121H314.13V153.09C314.13 152.531 314.24 151.977 314.454 151.461C314.668 150.944 314.982 150.475 315.377 150.079C315.772 149.684 316.242 149.37 316.758 149.156C317.275 148.942 317.829 148.832 318.388 148.832H678.178C678.737 148.832 679.291 148.942 679.807 149.156C680.324 149.37 680.793 149.684 681.189 150.079C681.584 150.474 681.898 150.944 682.112 151.46C682.326 151.977 682.436 152.531 682.436 153.09H682.43Z" fill="#F4BDD2"/>
<path d="M603.66 389.4V400.045H635.593V389.4C635.593 388.282 635.373 387.174 634.945 386.141C634.518 385.108 633.89 384.169 633.1 383.378C632.309 382.587 631.37 381.96 630.337 381.532C629.303 381.104 628.196 380.884 627.077 380.884H612.175C611.057 380.884 609.95 381.104 608.916 381.532C607.883 381.96 606.944 382.587 606.153 383.378C605.363 384.169 604.735 385.108 604.307 386.141C603.88 387.174 603.66 388.282 603.66 389.4H603.66Z" fill="#BF214E"/>
<path opacity="0.95" d="M335.42 389.4V400.045H373.74V389.4C373.74 388.282 373.52 387.174 373.092 386.141C372.665 385.107 372.037 384.169 371.246 383.378C370.456 382.587 369.517 381.96 368.483 381.532C367.45 381.104 366.343 380.884 365.224 380.884H343.935C342.817 380.884 341.709 381.104 340.676 381.532C339.643 381.96 338.704 382.587 337.913 383.378C337.122 384.169 336.495 385.107 336.067 386.141C335.639 387.174 335.419 388.282 335.419 389.4H335.42Z" fill="#8883F4"/>
<path d="M335.42 389.4V400.045H367.354V389.4C367.354 388.282 367.134 387.174 366.706 386.141C366.279 385.108 365.651 384.169 364.861 383.378C364.07 382.587 363.131 381.96 362.098 381.532C361.064 381.104 359.957 380.884 358.839 380.884H343.937C342.818 380.884 341.711 381.104 340.677 381.532C339.644 381.96 338.705 382.587 337.914 383.378C337.123 384.169 336.496 385.107 336.068 386.141C335.641 387.174 335.42 388.282 335.421 389.4H335.42Z" fill="#BF214E"/>
<path d="M129.59 416.39C134.978 421.779 107.736 418.062 613.24 419.2C615.781 419.2 618.218 418.191 620.014 416.394C621.811 414.598 622.82 412.161 622.82 409.62C622.82 407.079 621.811 404.643 620.014 402.846C618.218 401.049 615.781 400.04 613.24 400.04H136.36C134.467 400.043 132.618 400.607 131.045 401.66C129.472 402.713 128.246 404.208 127.522 405.957C126.798 407.706 126.608 409.63 126.976 411.487C127.344 413.344 128.254 415.05 129.59 416.39H129.59Z" fill="#EF7B9C"/>
<path d="M440.41 416.4C445.785 421.775 435.976 418.098 696.26 419.21C698.801 419.21 701.237 418.201 703.034 416.404C704.831 414.607 705.84 412.171 705.84 409.63C705.84 407.089 704.831 404.653 703.034 402.856C701.237 401.059 698.801 400.05 696.26 400.05H447.18C445.287 400.053 443.438 400.617 441.865 401.67C440.292 402.723 439.066 404.218 438.342 405.967C437.618 407.716 437.428 409.64 437.796 411.497C438.164 413.354 439.074 415.06 440.41 416.4H440.41Z" fill="#F03C69"/>
<path d="M327.7 406.77H258.2C257.071 406.77 255.988 406.321 255.189 405.523C254.391 404.724 253.942 403.641 253.942 402.512V400.39H331.958V402.512C331.958 403.071 331.848 403.625 331.634 404.141C331.42 404.658 331.106 405.127 330.711 405.523C330.316 405.918 329.846 406.232 329.33 406.446C328.813 406.66 328.259 406.77 327.7 406.77H327.7Z" fill="#F9F9F9"/>
<path d="M659.49 413.49H679.977C680.996 413.49 681.973 413.085 682.693 412.365C683.414 411.644 683.818 410.667 683.818 409.648C683.818 408.63 683.413 407.653 682.693 406.932C681.973 406.212 680.996 405.807 679.977 405.807H659.49C658.471 405.807 657.494 406.212 656.774 406.932C656.053 407.653 655.648 408.63 655.648 409.648C655.648 410.667 656.053 411.644 656.774 412.365C657.494 413.085 658.471 413.49 659.49 413.49V413.49Z" fill="#BF214E"/>
<path d="M609.55 413.49H637.72V405.807H609.55V413.49Z" fill="#BF214E"/>
<path d="M573.7 413.49H601.87V405.807H573.7V413.49Z" fill="#BF214E"/>
<path d="M486.63 409.65C486.63 408.631 486.225 407.654 485.505 406.934C484.784 406.213 483.807 405.809 482.788 405.809C481.77 405.809 480.793 406.214 480.072 406.934C479.352 407.654 478.947 408.631 478.947 409.65C478.947 414.761 486.63 414.765 486.63 409.65Z" fill="#BF214E"/>
<path d="M501.99 409.65C501.99 408.631 501.585 407.654 500.865 406.934C500.144 406.214 499.168 405.809 498.149 405.809C497.13 405.809 496.153 406.214 495.433 406.934C494.712 407.654 494.307 408.631 494.307 409.65C494.307 414.761 501.99 414.765 501.99 409.65V409.65Z" fill="#BF214E"/>
<path d="M245.43 399.816C276.224 399.816 301.187 398.658 301.187 397.23C301.187 395.802 276.224 394.644 245.43 394.644C214.636 394.644 189.673 395.802 189.673 397.23C189.673 398.658 214.636 399.816 245.43 399.816Z" fill="#151348"/>
<path d="M227.9 302.98C229.355 297.719 228.634 292.111 229.382 286.703C230.23 279.977 233.623 273.832 238.863 269.531C241.49 267.434 244.578 265.991 247.872 265.323C251.167 264.654 254.573 264.778 257.81 265.685C264.214 267.66 269.42 273.46 270.149 280.121C270.805 286.121 268.065 291.888 266.171 297.619C266.086 297.879 266.002 298.139 265.922 298.4C264.718 302.31 263.936 306.652 265.018 310.682C266.086 314.66 269.449 318.009 272.874 320.138C274.42 321.099 276.05 321.718 277.597 322.661C279.799 324.045 282.292 324.898 284.879 325.154C287.944 325.163 290.964 324.417 293.673 322.983C296.383 321.661 299.968 320.828 302.15 322.908C303.659 324.346 303.88 326.723 303.372 328.744C302.715 330.722 301.891 332.641 300.907 334.478C299.921 336.336 299.627 338.484 300.077 340.539C301.113 343.956 305.003 343.662 307.821 344.417C310.411 345.111 313.245 346.247 314.264 348.728C315.326 351.313 313.958 354.22 312.452 356.575C310.946 358.931 309.191 361.445 309.457 364.228C309.692 366.695 311.485 368.74 312.094 371.142C312.417 372.501 312.36 373.924 311.927 375.252C311.495 376.581 310.704 377.764 309.642 378.672C300.155 386.55 295.981 369.507 288.886 367.488C285.849 366.623 282.558 367.934 280.113 369.932C277.668 371.93 275.84 374.562 273.747 376.926C270.539 380.77 266.312 383.632 261.551 385.183C256.772 386.567 251.284 385.992 247.338 382.961C243.392 379.93 241.42 374.265 243.329 369.671C245.012 365.621 249.393 362.373 248.846 358.022C248.372 354.255 244.076 351.951 240.294 352.28C236.512 352.61 233.191 354.822 230.067 356.98C226.553 359.409 222.979 361.894 218.895 363.143C214.811 364.393 210.051 364.221 206.65 361.637C203.249 359.053 201.911 353.684 204.545 350.321C206.526 347.791 209.945 347.027 212.9 345.761C215.854 344.496 218.875 341.81 218.251 338.658C217.265 333.682 209.307 334.161 206.378 330.019C202.335 324.302 210.21 318.515 214.267 315.698C220.225 311.559 225.731 310.828 227.901 302.98L227.9 302.98Z" fill="#151348"/>
<path d="M268.99 320.18C266.261 319.327 263.472 318.681 260.646 318.247C257.186 322.911 252.576 327.457 247.712 327.56C240.993 327.701 236.397 320.623 234.09 315.916C225.46 318.132 214.168 321.771 207.428 333.994C200.433 346.681 201.406 371.571 223.386 369.071C223.561 370.744 223.835 372.406 224.206 374.048C237.515 377.517 257.889 378.463 264.701 374.048C265.222 371.826 265.601 369.572 265.834 367.302C267.551 367.606 269.293 367.742 271.037 367.707C273.806 367.668 276.503 366.817 278.793 365.26C281.083 363.702 282.865 361.506 283.919 358.945C288.516 347.743 290.804 327.982 268.991 320.181L268.99 320.18Z" fill="#F03C69"/>
<path d="M260.65 318.25C257.19 322.914 252.58 327.46 247.716 327.563C240.997 327.704 236.401 320.626 234.094 315.919C234.993 315.687 235.865 315.471 236.699 315.263C240.491 314.315 242.458 312.576 243.497 310.651C244.22 309.188 244.62 307.587 244.671 305.956C244.739 304.994 244.751 304.115 244.836 303.404C247.022 303.087 249.253 303.371 251.29 304.226C251.112 304.904 250.966 305.549 250.851 306.16C250.602 307.391 250.491 308.646 250.519 309.902C250.738 315.884 255.304 317.217 260.65 318.25V318.25Z" fill="#F9C5C8"/>
<path d="M272.54 331.85H222.209C221.105 331.851 220.046 332.291 219.265 333.072C218.484 333.852 218.045 334.911 218.043 336.016V371.638H276.705V336.016C276.704 334.911 276.265 333.852 275.484 333.071C274.703 332.29 273.644 331.851 272.539 331.85H272.54Z" fill="#F4BDD2"/>
<path d="M251.89 351.27C251.89 352.163 251.625 353.037 251.129 353.78C250.632 354.523 249.927 355.102 249.101 355.444C248.276 355.786 247.367 355.875 246.491 355.701C245.615 355.526 244.81 355.096 244.178 354.464C243.546 353.833 243.116 353.028 242.942 352.151C242.767 351.275 242.857 350.367 243.199 349.541C243.541 348.716 244.12 348.01 244.863 347.514C245.606 347.017 246.479 346.752 247.373 346.753C247.966 346.753 248.553 346.869 249.101 347.096C249.649 347.323 250.147 347.656 250.567 348.076C250.986 348.495 251.319 348.993 251.546 349.541C251.773 350.089 251.89 350.677 251.89 351.27V351.27Z" fill="white"/>
<path d="M275.68 374.82H219.058C218.783 374.82 218.51 374.766 218.255 374.66C218.001 374.555 217.77 374.401 217.575 374.206C217.38 374.011 217.226 373.78 217.12 373.525C217.015 373.271 216.961 372.998 216.961 372.723V371.674C216.961 371.537 216.988 371.4 217.041 371.273C217.093 371.146 217.171 371.03 217.268 370.933C217.365 370.836 217.481 370.758 217.608 370.706C217.735 370.653 217.872 370.626 218.01 370.626H276.728C276.865 370.626 277.002 370.653 277.129 370.706C277.256 370.758 277.372 370.836 277.469 370.933C277.566 371.03 277.644 371.146 277.696 371.273C277.749 371.4 277.776 371.537 277.776 371.674V372.723C277.776 372.998 277.722 373.271 277.616 373.525C277.511 373.78 277.357 374.011 277.162 374.206C276.967 374.401 276.736 374.555 276.482 374.66C276.227 374.766 275.954 374.82 275.679 374.82H275.68Z" fill="#A7A9AC"/>
<path d="M291.41 385.48C290.572 386.231 289.674 386.976 288.713 387.717C266.197 403.339 229.413 394.105 222.738 389.473C219.971 388.243 220.537 383.611 221.395 381.808C224.684 381.716 232.273 382.62 249.059 373.836C254.689 370.851 260.148 367.556 265.411 363.965C293.958 344.728 301.261 360.012 301.588 366.38C301.843 371.207 299.438 378.335 291.41 385.48L291.41 385.48Z" fill="#2D4253"/>
<path d="M288.84 387.29C289.66 389.766 285.221 393.465 278.923 395.552C272.626 397.639 266.855 397.323 266.035 394.847C265.215 392.371 269.655 388.672 275.952 386.585C282.249 384.499 288.02 384.814 288.84 387.29Z" fill="#0A2236"/>
<path d="M282.23 389.48C282.746 391.038 279.953 393.365 275.991 394.678C272.029 395.991 268.399 395.792 267.882 394.235C267.366 392.677 270.159 390.35 274.121 389.037C278.083 387.723 281.713 387.922 282.23 389.48V389.48Z" fill="#F9C5C8"/>
<path d="M202.09 392.6C201.502 390.059 206.266 386.787 212.729 385.292C219.192 383.797 224.909 384.646 225.496 387.187C226.083 389.729 221.32 393.001 214.857 394.495C208.394 395.99 202.677 395.141 202.09 392.6Z" fill="#0A2236"/>
<path d="M208.87 391.03C208.5 389.431 211.497 387.373 215.564 386.432C219.63 385.492 223.227 386.026 223.596 387.625C223.966 389.223 220.969 391.282 216.903 392.222C212.836 393.163 209.24 392.629 208.87 391.03Z" fill="#F9C5C8"/>
<path d="M194.57 364.13C195.676 357.847 204.788 343.567 230.776 366.148C256.764 388.73 268.117 388.603 272.28 389.234C272.911 391.127 272.911 395.794 270.009 396.677C262.819 400.462 225.183 405.129 204.746 386.88C195.591 377.823 193.645 369.387 194.57 364.13L194.57 364.13Z" fill="#425564"/>
<path d="M251.29 304.23C251.112 304.909 250.966 305.553 250.851 306.164C249.366 306.607 247.796 306.691 246.272 306.409C245.726 306.307 245.19 306.157 244.671 305.961C244.739 304.998 244.751 304.119 244.836 303.409C247.022 303.091 249.253 303.375 251.29 304.23V304.23Z" fill="#E48788"/>
<path d="M261.014 292.083C262.528 284.02 258.542 276.505 252.11 275.297C245.678 274.09 239.237 279.647 237.723 287.709C236.209 295.772 240.195 303.287 246.627 304.495C253.058 305.703 259.5 300.146 261.014 292.083Z" fill="#F9C5C8"/>
<path d="M263.2 290.76C263.002 291.028 262.733 291.235 262.423 291.358C262.113 291.482 261.775 291.516 261.447 291.457C261.119 291.399 260.813 291.25 260.565 291.027C260.317 290.804 260.136 290.517 260.043 290.197C259.95 289.877 259.947 289.537 260.036 289.216C260.126 288.895 260.303 288.605 260.548 288.379C260.793 288.153 261.096 288 261.424 287.937C261.751 287.874 262.089 287.904 262.401 288.023C262.862 288.287 263.203 288.72 263.352 289.231C263.501 289.741 263.447 290.289 263.2 290.76Z" fill="#F9C5C8"/>
<path d="M239.64 287.61C239.745 288.131 239.643 288.673 239.357 289.121C239.071 289.569 238.622 289.889 238.105 290.013C237.156 290.089 236.304 289.139 236.203 287.889C236.098 287.367 236.2 286.826 236.486 286.378C236.772 285.93 237.221 285.61 237.738 285.486C238.687 285.409 239.539 286.36 239.64 287.61Z" fill="#F9C5C8"/>
<path d="M264.52 286.37C261.983 288.634 256.799 286.964 252.942 282.641C249.085 278.318 248.014 272.978 250.551 270.714C253.088 268.45 258.272 270.12 262.129 274.443C265.986 278.766 267.057 284.106 264.52 286.37L264.52 286.37Z" fill="#151348"/>
<path d="M254.81 274.27C256.149 277.395 252.917 281.779 247.592 284.061C242.266 286.343 236.863 285.659 235.524 282.533C234.185 279.408 237.416 275.025 242.742 272.743C248.068 270.461 253.471 271.145 254.81 274.27H254.81Z" fill="#151348"/>
<path d="M51.944 410.539C64.4649 410.539 74.615 409.29 74.615 407.75C74.615 406.21 64.4649 404.961 51.944 404.961C39.4232 404.961 29.273 406.21 29.273 407.75C29.273 409.29 39.4232 410.539 51.944 410.539Z" fill="#151348"/>
<path d="M62.693 406.6C58.963 407.879 55.9772 408.519 42.013 407.347C20.906 396.473 32.5262 365.133 32.5262 365.133C32.6221 364.778 32.7737 364.441 32.9754 364.133C33.2377 363.739 33.5604 363.388 33.9316 363.094C36.3637 361.485 42.6958 360.758 49.9996 361.442C56.0519 362.008 61.2676 363.404 64.0676 365.022C64.8663 365.528 65.565 366.177 66.1286 366.936L66.1306 366.939C66.3417 367.237 66.5121 367.561 66.6375 367.904C77.9375 386.133 65.1456 402.23 62.6926 406.6L62.693 406.6Z" fill="#FF5A89"/>
<path d="M66.929 399.44C65.2071 402.761 63.4529 405.246 62.6956 406.599C58.9606 407.881 55.9765 408.515 42.0146 407.344C20.9056 396.469 32.5252 365.133 32.5252 365.133C32.621 364.776 32.774 364.437 32.9782 364.129C33.2387 363.736 33.5598 363.386 33.9297 363.094C34.4214 362.783 34.9498 362.535 35.5027 362.356C35.9095 372.387 39.7304 381.979 46.3327 389.543C50.9609 394.74 57.1947 398.916 64.1337 399.44C65.0643 399.511 65.9989 399.511 66.9295 399.44H66.929Z" fill="#F03C69"/>
<path d="M66.254 367.66C66.0125 370.231 58.3452 371.614 49.128 370.751C39.9097 369.887 32.633 367.102 32.874 364.532C32.8869 364.395 32.9209 364.26 32.9747 364.132C33.1839 363.699 33.5166 363.337 33.9309 363.093C36.363 361.484 42.6951 360.757 49.9989 361.441C56.0512 362.007 61.2669 363.403 64.0669 365.021C64.9323 365.435 65.6512 366.103 66.1279 366.935L66.1299 366.938C66.2308 367.165 66.2731 367.413 66.2531 367.66L66.254 367.66Z" fill="#817FFA"/>
<path d="M66.255 367.66C66.132 368.968 64.0996 369.964 60.9279 370.521C57.0204 371.099 53.0552 371.177 49.1279 370.754C47.0451 370.563 44.9748 370.254 42.9268 369.828C36.8616 368.566 32.6928 366.489 32.8738 364.534C32.8861 364.395 32.9211 364.259 32.9774 364.132C33.1847 363.7 33.5159 363.34 33.9289 363.096C34.9555 362.496 36.0793 362.08 37.2495 361.866C41.4568 361.104 45.7531 360.962 50.0015 361.446C53.3252 361.729 56.6124 362.343 59.8144 363.278C61.2927 363.7 62.7191 364.286 64.0673 365.025C64.9339 365.437 65.6542 366.103 66.1321 366.935V366.942C66.2321 367.168 66.2742 367.415 66.2546 367.66L66.255 367.66Z" fill="#EF7B9C"/>
<path d="M51.944 370.94C51.504 370.927 51.0506 370.895 50.591 370.869C49.4264 367.809 48.5509 364.647 47.9759 361.425C47.9695 361.379 47.9629 361.334 47.9565 361.282C48.3965 361.308 48.8365 361.341 49.2835 361.379C49.8548 364.505 50.7151 367.572 51.8535 370.539L51.9054 370.694C51.9344 370.773 51.9475 370.856 51.944 370.94V370.94Z" fill="#ABB2D8"/>
<path d="M90.141 316.52C85.3767 335.596 58.714 340.321 59.815 363.275C59.854 363.987 59.9122 364.712 60.0028 365.463C60.0222 365.67 60.0546 365.884 60.0806 366.097L60.9286 370.518C57.0211 371.096 53.0559 371.175 49.1286 370.751C47.0458 370.56 44.9755 370.251 42.9275 369.826C41.115 367.366 39.1213 364.686 37.2505 361.864C30.441 351.643 25.1465 339.474 35.7748 328.515C51.2908 312.527 61.2008 305.646 39.6133 278.465C18.0253 251.278 38.4933 242.164 46.8113 246.482C55.1226 250.799 66.5213 256.716 66.2623 242.967C65.9969 229.212 85.8243 227.134 90.3033 237.051C94.7826 246.961 97.0223 255.596 81.5064 282.621C65.9964 309.647 95.0994 296.694 90.141 316.521V316.52Z" fill="#A1E0BD"/>
<path d="M52.945 376.45C52.8082 376.45 52.675 376.407 52.5644 376.326C50.294 374.601 48.6355 372.195 47.8317 369.459C47.0279 366.723 47.121 363.802 48.0975 361.123C48.7556 359.576 49.5661 358.099 50.517 356.712C51.3154 355.532 52.0208 354.291 52.627 353.002C53.6432 350.53 53.9128 347.815 53.4024 345.192C52.8921 342.569 51.6241 340.153 49.7553 338.244C49.6327 338.123 49.5629 337.959 49.5611 337.788C49.5593 337.616 49.6258 337.451 49.7458 337.328C49.8659 337.206 50.0297 337.136 50.2013 337.134C50.373 337.132 50.5383 337.198 50.6611 337.318C52.7353 339.401 54.1427 342.054 54.7041 344.939C55.2655 347.824 54.9554 350.811 53.8135 353.52C53.1811 354.872 52.4437 356.173 51.608 357.41C50.7031 358.723 49.9316 360.124 49.3048 361.591C48.4254 364.003 48.3415 366.633 49.0652 369.096C49.789 371.56 51.2825 373.726 53.3269 375.279C53.4374 375.36 53.5196 375.473 53.5617 375.603C53.6038 375.733 53.6036 375.873 53.5612 376.003C53.5188 376.133 53.4364 376.246 53.3257 376.327C53.215 376.407 53.0817 376.45 52.945 376.45V376.45Z" fill="white"/>
<path d="M58.006 338.85C57.9482 338.85 57.8907 338.842 57.8348 338.827C57.6693 338.782 57.5285 338.673 57.4435 338.524C57.3585 338.374 57.3362 338.198 57.3815 338.032C58.6315 333.466 62.5855 330.215 65.8904 327.892C66.4352 327.51 66.9874 327.131 67.5404 326.752C70.5239 324.708 73.6091 322.593 75.6181 319.641C77.8687 316.333 78.4373 311.254 75.4929 308.479C75.3685 308.361 75.2959 308.199 75.2911 308.027C75.2863 307.856 75.3496 307.69 75.4671 307.565C75.5847 307.44 75.7469 307.368 75.9182 307.362C76.0895 307.357 76.2559 307.42 76.3809 307.537C79.828 310.786 79.2442 316.614 76.6882 320.37C74.5421 323.524 71.3547 325.709 68.2724 327.821C67.7234 328.197 67.1752 328.573 66.6347 328.953C63.507 331.151 59.7711 334.208 58.6297 338.374C58.5923 338.511 58.511 338.632 58.3983 338.718C58.2856 338.804 58.1478 338.851 58.006 338.851V338.85Z" fill="white"/>
<path d="M51.57 284.04C51.4706 284.04 51.3725 284.017 51.2834 283.973C51.1943 283.929 51.1165 283.865 51.0562 283.786L41.1185 270.822C39.3205 268.736 37.9112 266.344 36.9577 263.76C36.0288 260.691 36.6439 257.495 38.5244 255.62C39.5413 254.723 40.7651 254.092 42.0859 253.785C43.4066 253.477 44.7831 253.503 46.0917 253.858C48.557 254.562 50.8878 255.671 52.9882 257.141C53.0605 257.186 53.1233 257.244 53.173 257.313C53.2226 257.382 53.2581 257.461 53.2775 257.544C53.2968 257.627 53.2996 257.712 53.2857 257.796C53.2719 257.88 53.2415 257.961 53.1965 258.033C53.1515 258.105 53.0927 258.168 53.0234 258.217C52.9542 258.267 52.8758 258.302 52.7929 258.321C52.71 258.341 52.6241 258.343 52.5401 258.329C52.4562 258.315 52.3758 258.284 52.3037 258.239C50.3264 256.846 48.1306 255.792 45.8066 255.121C43.8566 254.681 41.1589 254.821 39.4386 256.536C37.8921 258.079 37.4046 260.767 38.1967 263.385C39.1049 265.82 40.4424 268.072 42.1457 270.035L52.0834 282.999C52.1568 283.095 52.202 283.209 52.2138 283.329C52.2256 283.45 52.2036 283.571 52.1502 283.679C52.0968 283.787 52.0141 283.879 51.9116 283.942C51.8091 284.006 51.6907 284.04 51.57 284.04V284.04Z" fill="white"/>
<path d="M77.244 272.07C77.1388 272.07 77.0351 272.045 76.942 271.996C76.8488 271.947 76.7691 271.876 76.7097 271.789C75.3474 269.75 74.5059 267.409 74.2587 264.97C74.0115 262.531 74.3662 260.069 75.2918 257.799C76.0599 256.127 76.9868 254.533 78.0598 253.039C78.3181 252.654 78.5764 252.27 78.8288 251.883C80.1063 250.12 80.9956 248.107 81.438 245.976C81.6313 244.973 81.566 243.937 81.2481 242.966C80.9303 241.994 80.3705 241.12 79.6214 240.425C79.1962 240.102 78.7106 239.867 78.1932 239.735C77.6758 239.603 77.1372 239.576 76.6091 239.655C76.2006 239.703 75.8066 239.835 75.4522 240.044C75.0977 240.252 74.7908 240.532 74.5509 240.866C73.9694 242.003 73.7357 243.286 73.8789 244.555C73.8795 244.931 73.8795 245.306 73.8666 245.673C73.7901 247.799 72.7966 250.093 70.7496 250.424C70.6657 250.438 70.5799 250.435 70.4971 250.415C70.4144 250.396 70.3363 250.36 70.2674 250.31C70.1984 250.26 70.14 250.198 70.0953 250.125C70.0506 250.053 70.0207 249.972 70.0071 249.889C69.9935 249.805 69.9966 249.719 70.0162 249.636C70.0357 249.553 70.0714 249.475 70.1212 249.406C70.1709 249.337 70.2337 249.279 70.3061 249.234C70.3784 249.19 70.4589 249.16 70.5428 249.146C71.8583 248.933 72.5173 247.172 72.5728 245.627C72.5854 245.275 72.5851 244.916 72.5844 244.556C72.4251 243.028 72.7371 241.487 73.4786 240.141C73.8179 239.658 74.2545 239.252 74.7604 238.948C75.2662 238.643 75.8301 238.448 76.4158 238.375C77.1207 238.267 77.8402 238.304 78.5306 238.483C79.221 238.661 79.8678 238.979 80.4317 239.415C81.3637 240.247 82.0643 241.306 82.4652 242.489C82.866 243.672 82.9534 244.938 82.7188 246.165C82.2532 248.483 81.2965 250.673 79.913 252.59C79.6573 252.981 79.3959 253.37 79.1349 253.76C78.1096 255.186 77.2223 256.707 76.4849 258.302C75.641 260.371 75.3176 262.616 75.543 264.84C75.7684 267.064 76.5356 269.198 77.7776 271.057C77.8442 271.154 77.8831 271.267 77.8899 271.385C77.8968 271.503 77.8714 271.62 77.8165 271.724C77.7616 271.828 77.6794 271.916 77.5785 271.977C77.4777 272.038 77.3621 272.07 77.2443 272.07L77.244 272.07Z" fill="white"/>
<path d="M730.48 421.101C738.97 421.101 745.853 420.255 745.853 419.21C745.853 418.165 738.97 417.319 730.48 417.319C721.99 417.319 715.107 418.165 715.107 419.21C715.107 420.255 721.99 421.101 730.48 421.101Z" fill="#151348"/>
<path d="M741.7 411.68C740.654 413.777 739.491 415.813 738.218 417.779C735.686 418.645 733.662 419.078 724.19 418.285C709.882 410.912 717.761 389.662 717.761 389.662C717.822 389.42 717.925 389.191 718.066 388.985C718.241 388.716 718.46 388.477 718.713 388.278C719.937 387.626 721.287 387.246 722.671 387.162C722.743 390.661 723.519 394.111 724.952 397.305C726.548 400.762 728.87 403.836 731.76 406.317C734.65 408.797 738.04 410.627 741.7 411.681L741.7 411.68Z" fill="#F03C69"/>
<path d="M740.63 391.38C740.466 393.123 735.267 394.061 729.018 393.476C722.769 392.89 717.833 391.002 717.996 389.259C718.005 389.166 718.028 389.074 718.064 388.988C718.206 388.694 718.432 388.449 718.713 388.283C720.362 387.193 724.656 386.699 729.609 387.163C733.713 387.547 737.249 388.493 739.148 389.591C739.735 389.872 740.222 390.324 740.546 390.889L740.547 390.891C740.615 391.044 740.644 391.212 740.63 391.38L740.63 391.38Z" fill="#817FFA"/>
<path d="M740.64 391.38C740.552 392.269 739.177 392.942 737.025 393.322C736.463 393.422 735.849 393.498 735.194 393.55C735.179 393.555 735.163 393.557 735.147 393.556C733.107 393.707 731.058 393.682 729.022 393.48C728.572 393.439 728.127 393.387 727.688 393.334C726.682 393.205 725.717 393.042 724.816 392.849C723.939 392.667 723.12 392.457 722.371 392.229C719.633 391.398 717.902 390.304 718.001 389.263C718.01 389.168 718.033 389.075 718.071 388.988C718.213 388.696 718.436 388.453 718.714 388.286C719.41 387.877 720.173 387.594 720.967 387.449C721.942 387.244 722.931 387.113 723.927 387.057C725.163 386.979 726.403 386.971 727.641 387.034C728.285 387.063 728.94 387.104 729.613 387.169C730.948 387.289 732.276 387.482 733.59 387.748C734.494 387.921 735.389 388.142 736.27 388.409C737.272 388.695 738.24 389.093 739.154 389.596C739.333 389.698 739.507 389.809 739.674 389.93C740.045 390.167 740.348 390.498 740.552 390.889V390.895C740.621 391.047 740.651 391.214 740.64 391.38V391.38Z" fill="#EF7B9C"/>
<path d="M757.42 371.29C755.794 378.286 750.652 384.165 744.375 387.675C742.901 388.5 741.245 389.155 739.672 389.927C738.657 390.402 737.691 390.974 736.788 391.635C736.062 392.098 735.49 392.766 735.144 393.554C733.104 393.705 731.055 393.679 729.019 393.478C727.606 393.348 726.202 393.137 724.813 392.846C723.936 392.665 723.117 392.454 722.368 392.226C722.385 391.137 722.588 390.059 722.97 389.038C723.234 388.352 723.552 387.689 723.924 387.055C725.109 385.177 726.491 383.432 728.048 381.849C724.351 383.013 720.484 384.189 716.652 383.592C712.814 383.001 709.047 380.053 708.889 376.174C708.725 372.302 711.961 369.254 714.798 366.622C717.641 363.983 720.578 360.444 719.635 356.683C718.53 352.284 712.902 350.845 708.392 351.365C703.883 351.886 699.226 353.5 694.937 352.009C693.473 351.5 692.151 350.649 691.081 349.528C690.01 348.406 689.223 347.046 688.782 345.559C688.342 344.073 688.262 342.503 688.549 340.98C688.836 339.456 689.482 338.023 690.433 336.799C693.013 333.47 697.71 331.82 699.196 327.872C700.84 323.496 697.506 318.711 693.545 316.219C689.579 313.727 684.864 312.522 681.161 309.655C679.21 308.145 677.613 306.225 676.483 304.032C675.353 301.838 674.718 299.423 674.621 296.957C674.525 294.492 674.97 292.035 675.925 289.759C676.88 287.484 678.322 285.445 680.149 283.787C681.804 282.176 683.929 281.133 686.216 280.81C687.356 280.668 688.514 280.837 689.567 281.299C690.619 281.761 691.527 282.5 692.194 283.436C694.47 287.005 691.843 292.158 694.007 295.797C696.014 299.161 701.051 299.237 704.531 297.441C708.006 295.639 710.639 292.545 713.956 290.468C717.51 288.243 721.713 287.285 725.88 287.748C730.048 288.211 733.938 290.069 736.917 293.02C739.897 295.971 741.792 299.842 742.295 304.006C742.798 308.169 741.88 312.38 739.69 315.956C737.683 319.226 734.688 321.841 732.892 325.228C731.281 328.472 730.818 332.166 731.579 335.706C732.34 339.247 734.28 342.425 737.081 344.72C741.205 347.926 746.715 348.885 750.916 351.986C756.695 356.262 759.041 364.288 757.421 371.29L757.42 371.29Z" fill="#A1E0BD"/>
<g filter="url(#filter0_d)">
<path d="M763.99 357.06C763.546 360.88 761.96 364.46 760.48 368.005C758.994 371.55 757.578 375.23 757.503 379.073C757.438 382.331 758.175 386.11 755.883 388.421C754.21 390.1 751.489 390.246 749.22 389.579C746.95 388.906 744.95 387.567 742.796 386.578C740.65 385.59 738.146 384.958 735.935 385.783C734.962 386.167 734.14 386.854 733.589 387.743C733.21 388.278 732.983 388.906 732.932 389.561C732.882 390.215 733.01 390.87 733.302 391.457C733.84 392.232 734.475 392.934 735.192 393.546C735.177 393.551 735.161 393.553 735.145 393.552C733.105 393.703 731.056 393.677 729.02 393.476C728.57 393.435 728.125 393.382 727.686 393.33C727.26 391.253 727.244 389.113 727.639 387.03C727.93 385.223 728.411 383.453 729.073 381.747C730.723 377.611 733.138 373.522 732.881 369.076C732.624 364.66 729.786 360.892 727.967 356.862C725.324 350.962 724.813 344.326 726.522 338.09C727.61 334.159 729.781 330.275 733.396 328.379C737.011 326.478 742.206 327.326 744.13 330.93C745.224 332.983 745.124 335.504 746.171 337.587C747.476 340.173 750.278 341.612 752.986 342.63C755.695 343.648 758.59 344.478 760.714 346.444C763.539 349.052 764.428 353.241 763.99 357.061L763.99 357.06Z" fill="#C6ECD7"/>
</g>
<path d="M734.68 380.18C734.558 380.18 734.439 380.142 734.34 380.072C734.241 380.001 734.166 379.901 734.126 379.786C734.087 379.671 734.084 379.547 734.118 379.43C734.153 379.313 734.223 379.21 734.319 379.135C736.873 377.043 738.762 374.254 739.757 371.106C740.751 367.959 740.808 364.59 739.92 361.411C739.343 359.684 738.627 358.007 737.779 356.395C736.94 354.791 736.223 353.127 735.634 351.416C734.494 347.815 734.763 343.132 737.936 340.788C738.06 340.696 738.216 340.658 738.369 340.681C738.522 340.705 738.66 340.788 738.752 340.912C738.844 341.037 738.883 341.192 738.86 341.345C738.838 341.498 738.755 341.636 738.631 341.729C735.922 343.73 735.734 347.858 736.749 351.062C737.322 352.717 738.017 354.327 738.829 355.879C739.706 357.547 740.445 359.283 741.04 361.071C742.023 364.475 741.978 368.093 740.91 371.47C739.843 374.848 737.8 377.835 735.04 380.055C734.937 380.136 734.811 380.18 734.68 380.18V380.18Z" fill="white"/>
<path d="M746.07 374.02C745.953 374.02 745.838 373.985 745.741 373.919C745.644 373.853 745.569 373.759 745.526 373.65C744.73 371.635 744.352 369.479 744.416 367.313C744.48 365.147 744.985 363.017 745.9 361.053C746.815 359.089 748.12 357.331 749.737 355.888C751.353 354.445 753.246 353.347 755.301 352.66C755.448 352.613 755.607 352.626 755.744 352.696C755.881 352.765 755.985 352.886 756.034 353.032C756.082 353.178 756.071 353.337 756.004 353.475C755.936 353.613 755.817 353.718 755.671 353.769C753.767 354.406 752.013 355.424 750.515 356.761C749.017 358.098 747.808 359.727 746.96 361.547C746.113 363.367 745.645 365.341 745.585 367.348C745.525 369.355 745.875 371.353 746.613 373.22C746.648 373.309 746.661 373.405 746.651 373.499C746.64 373.594 746.607 373.685 746.553 373.764C746.5 373.843 746.427 373.907 746.343 373.952C746.259 373.997 746.165 374.02 746.07 374.02H746.07Z" fill="white"/>
<path d="M699.42 306.91C697.166 306.946 694.941 306.391 692.968 305.299C690.995 304.208 689.343 302.619 688.175 300.69C687.008 298.761 686.366 296.56 686.314 294.306C686.262 292.052 686.802 289.824 687.879 287.843C687.915 287.775 687.965 287.715 688.025 287.667C688.084 287.618 688.153 287.582 688.227 287.56C688.3 287.538 688.378 287.53 688.454 287.538C688.531 287.546 688.605 287.569 688.673 287.606C688.74 287.643 688.8 287.692 688.849 287.752C688.897 287.812 688.933 287.881 688.955 287.954C688.977 288.028 688.984 288.106 688.975 288.182C688.967 288.259 688.944 288.333 688.907 288.4C687.817 290.412 687.338 292.697 687.527 294.977C687.716 297.257 688.566 299.432 689.972 301.236C691.379 303.04 693.281 304.395 695.445 305.135C697.61 305.875 699.943 305.967 702.16 305.401C702.234 305.382 702.312 305.378 702.388 305.389C702.464 305.4 702.537 305.426 702.603 305.465C702.669 305.504 702.727 305.556 702.773 305.618C702.819 305.679 702.853 305.749 702.872 305.823C702.891 305.898 702.895 305.975 702.884 306.051C702.873 306.127 702.847 306.2 702.808 306.267C702.769 306.333 702.717 306.39 702.655 306.436C702.594 306.482 702.524 306.516 702.45 306.535C701.459 306.786 700.442 306.912 699.42 306.91L699.42 306.91Z" fill="white"/>
<path d="M726.42 326.43C726.293 326.43 726.17 326.389 726.069 326.313C725.968 326.237 725.894 326.13 725.858 326.008C724.629 321.782 727.037 317.458 728.955 314.574C729.198 314.209 729.447 313.843 729.695 313.474C731.618 310.633 733.606 307.696 733.821 304.386C733.925 302.784 733.601 301.182 732.882 299.746C732.163 298.31 731.075 297.091 729.729 296.215C728.384 295.338 726.829 294.835 725.225 294.757C723.621 294.68 722.025 295.03 720.601 295.773C720.533 295.809 720.459 295.831 720.382 295.838C720.305 295.845 720.228 295.837 720.154 295.814C720.081 295.791 720.012 295.753 719.953 295.704C719.894 295.655 719.845 295.594 719.81 295.526C719.774 295.457 719.752 295.383 719.746 295.306C719.739 295.229 719.748 295.152 719.771 295.078C719.794 295.005 719.832 294.937 719.881 294.878C719.931 294.819 719.992 294.77 720.06 294.735C721.668 293.897 723.471 293.501 725.282 293.589C727.093 293.677 728.849 294.245 730.368 295.235C731.887 296.225 733.116 297.601 733.928 299.222C734.74 300.844 735.106 302.652 734.989 304.462C734.753 308.088 732.675 311.16 730.664 314.13C730.417 314.495 730.171 314.859 729.93 315.222C728.141 317.912 725.889 321.923 726.982 325.681C727.007 325.768 727.011 325.86 726.995 325.949C726.979 326.038 726.942 326.122 726.887 326.195C726.833 326.268 726.762 326.327 726.681 326.367C726.6 326.408 726.511 326.429 726.42 326.429L726.42 326.43Z" fill="white"/>
<path d="M723.38 379.41H723.379C721.766 379.489 720.149 379.321 718.587 378.912C717.747 378.691 716.968 378.283 716.309 377.717C715.65 377.152 715.127 376.445 714.781 375.649C714.438 374.788 714.422 373.831 714.736 372.959C715.05 372.087 715.671 371.359 716.484 370.914C716.625 370.85 716.786 370.845 716.931 370.899C717.076 370.953 717.193 371.063 717.257 371.204C717.322 371.345 717.328 371.505 717.274 371.651C717.22 371.796 717.111 371.914 716.97 371.979C716.429 372.3 716.02 372.805 715.819 373.402C715.618 373.999 715.638 374.648 715.874 375.232C716.162 375.859 716.586 376.415 717.116 376.858C717.646 377.302 718.267 377.622 718.936 377.795C720.387 378.164 721.885 378.314 723.381 378.24C723.536 378.24 723.684 378.302 723.794 378.412C723.904 378.521 723.966 378.67 723.966 378.825C723.966 378.98 723.904 379.129 723.794 379.239C723.684 379.349 723.536 379.41 723.381 379.41L723.38 379.41Z" fill="white"/>
<path d="M741.7 411.68C738.04 410.626 734.65 408.797 731.76 406.316C728.87 403.835 726.548 400.762 724.952 397.304C724.248 395.76 723.707 394.148 723.336 392.492C723.806 392.62 724.3 392.73 724.812 392.84C725.708 393.035 726.678 393.2 727.684 393.328C728.123 393.376 728.563 393.431 729.014 393.474C731.052 393.673 733.103 393.697 735.144 393.547C735.159 393.548 735.173 393.546 735.187 393.541C735.846 393.492 736.456 393.413 737.017 393.315C739.17 392.937 740.548 392.26 740.634 391.37C740.644 391.205 740.615 391.039 740.548 390.888C740.692 391.089 740.807 391.308 740.89 391.541C745.762 399.39 744.03 406.66 741.7 411.68V411.68Z" fill="#FF5A89"/>
<path d="M726.28 193.11C724.905 194.869 718.929 193.35 712.939 189.702C706.964 186.056 703.229 181.671 704.605 179.899C704.956 179.576 705.38 179.343 705.84 179.219C706.3 179.094 706.783 179.083 707.249 179.184C707.249 179.184 707.494 178.192 707.777 178.18C709.301 178.117 710.475 181.436 712.206 182.494C716.053 184.832 719.891 186.298 722.503 186.58C725.658 189.269 727.251 191.842 726.28 193.11H726.28Z" fill="#0A2236"/>
<path d="M659.08 0.0463757C669.52 0.836376 678.396 10.8054 677.974 21.2674C677.765 26.4429 675.602 31.4184 675.62 36.5974C675.647 44.1219 680.181 50.7604 684.023 57.2304C687.864 63.7004 691.248 71.4264 688.811 78.5454C685.795 87.3572 675.486 91.0364 666.351 92.8564C657.216 94.6764 646.951 96.3775 641.431 103.879C639.25 106.844 638.085 110.419 636.306 113.641C634.474 117.012 631.929 119.943 628.847 122.229C625.765 124.515 622.222 126.101 618.464 126.876C614.69 127.581 610.798 127.301 607.163 126.064C603.529 124.827 600.275 122.673 597.716 119.811C592.762 113.979 591.588 105.051 595.323 98.3735C597.614 94.2787 601.656 90.6757 601.479 85.9875C601.312 81.5827 597.394 78.2798 593.484 76.2437C589.575 74.2076 585.171 72.6974 582.342 69.3165C581.084 67.8119 580.219 66.0181 579.826 64.0964C579.432 62.1747 579.523 60.1853 580.089 58.3073C580.655 56.4292 581.679 54.7214 583.069 53.3373C584.46 51.9533 586.172 50.9366 588.052 50.3785C593.01 48.9071 598.362 50.8185 602.79 53.49C607.218 56.1615 611.196 59.62 615.93 61.7014C620.665 63.7828 626.624 64.2181 630.665 60.9905C635.244 57.3332 635.679 50.4805 634.452 44.7505C632.176 34.1265 628.446 24.5475 635.13 14.5615C640.182 7.01418 649.622 -0.670524 659.079 0.0454757L659.08 0.0463757Z" fill="#151348"/>
<path d="M706.74 104.05C706.74 104.05 710.77 103.468 710.387 102.166C709.833 100.198 706.228 103.183 702.8 102.705C702.544 102.338 684.373 96.6343 671.332 83.651C662.335 82.569 661.879 93.844 666.15 95.894C673.609 99.7507 693.216 104.359 701.322 106.844C704.089 110.05 714.423 109.994 714.756 107.86C715.227 104.946 706.74 104.05 706.74 104.05L706.74 104.05Z" fill="url(#paint0_linear)"/>
<path d="M756.32 195.23C755.823 197.294 750.235 198.122 743.841 197.073C737.447 196.025 732.665 193.508 733.162 191.443C733.323 190.77 734.022 190.218 735.123 189.843C737.393 189.037 741.329 188.894 745.641 189.589C746.111 189.666 746.568 189.743 747.011 189.832C752.706 191.002 756.777 193.309 756.32 195.23H756.32Z" fill="#0A2236"/>
<path d="M747.01 189.83C746.84 189.796 746.659 189.768 746.486 189.737C746.493 189.725 746.502 189.716 746.509 189.703C746.401 189.698 746.309 189.693 746.205 189.687C746.015 189.655 745.834 189.619 745.639 189.587C743.898 189.303 742.138 189.157 740.374 189.15L740.359 189.148C739.841 188.972 739.365 188.693 738.958 188.328C738.552 187.962 738.224 187.518 737.994 187.022L735.281 179.495L730.463 181.765L734.844 189.164C734.986 189.531 734.969 190.052 735.133 190.434C735.563 191.616 738.304 192.892 741.824 193.451C745.854 194.103 749.36 193.573 749.669 192.27C749.858 191.463 748.797 190.57 747.01 189.83V189.83Z" fill="#F9C5C8"/>
<path d="M708.54 178.25L709.434 170.917L713.42 173.309L712.125 180.462C714.135 183.792 723.554 188.092 723.115 190.014C719.132 190.361 714.043 186.982 709.752 183.831C706.222 181.239 707.239 179.502 708.54 178.25V178.25Z" fill="#F9C5C8"/>
<path d="M665.16 56.093C653.038 54.6309 653.79 55.2322 651.426 55.451C651.982 52.4761 652.27 49.4574 652.287 46.431C653.802 46.8608 655.391 46.9587 656.947 46.718C657.221 46.677 657.494 46.6223 657.767 46.5539C658.121 48.629 658.981 50.585 660.27 52.2488C661.56 53.9126 663.239 55.2329 665.161 56.093H665.16Z" fill="#F9C5C8"/>
<path d="M658.6 49.4241C658.368 49.4788 658.136 49.5198 657.903 49.5609C655.981 49.8535 654.016 49.6368 652.205 48.9323C652.259 48.0985 652.286 47.2648 652.286 46.4312C653.801 46.8609 655.39 46.9588 656.946 46.7182C657.22 46.6772 657.493 46.6225 657.766 46.5541C657.916 47.5434 658.196 48.5085 658.6 49.4241V49.4241Z" fill="#E48788"/>
<path d="M663 105.93C663 105.93 716.926 104.945 723.164 114.301C729.402 123.658 713.972 177.663 713.972 177.663C711.605 176.718 709.302 175.622 707.078 174.379C707.899 165.679 702.318 148.115 709.376 124.971C699.691 125.956 645.851 125.956 645.851 125.956L663 105.93Z" fill="#2D4253"/>
<path d="M652.34 134.69C652.636 134.746 652.918 134.788 653.228 134.816C661.08 135.649 677.912 135.155 689.105 134.69C695.477 134.422 700.017 134.168 700.017 134.168C700.017 134.168 700.228 135.127 700.693 136.805C701.144 138.412 701.821 140.667 702.752 143.36C708.225 159.114 717.61 175.932 731.623 184.975C731.919 185.172 732.215 185.355 732.511 185.538H737.599C737.532 185.353 719.807 117.586 708.067 116.434C689.458 114.61 663.643 112.728 645.01 113.15C643.723 115.832 642.998 118.748 642.881 121.721C642.641 127.571 644.925 133.492 652.34 134.691V134.69Z" fill="#425564"/>
<path d="M680.4 70.866C679.148 76.973 672.439 81.32 672.549 87.552C672.605 90.7234 674.496 93.5756 676.67 95.8859C678.843 98.1962 681.377 100.187 683.234 102.759C685.091 105.33 686.203 108.741 685.054 111.698C683.64 115.338 679.458 116.982 675.651 117.853C670.381 119.058 664.975 119.564 659.573 119.359C655.3 119.196 650.901 118.536 647.275 116.268C643.65 114 640.971 109.81 641.544 105.573C642.148 101.104 646.014 97.749 647.312 93.4307C648.405 89.7924 647.563 85.8615 646.365 82.2567C644.403 76.3567 641.372 70.2947 643.4 64.0797C644.236 61.2608 645.748 58.6883 647.803 56.5852C649.858 54.4821 652.394 52.9119 655.193 52.0105C657.992 51.1092 660.969 50.904 663.865 51.4127C666.761 51.9213 669.489 53.1286 671.813 54.9297C676.534 58.3902 681.676 64.64 680.399 70.8657L680.4 70.866Z" fill="#F03C69"/>
<path d="M717.72 110.36C717.453 110.36 717.191 110.293 716.957 110.165C716.723 110.038 716.524 109.853 716.379 109.63C716.234 109.406 716.147 109.149 716.126 108.883C716.105 108.618 716.151 108.351 716.26 108.107L732.628 71.3982C732.777 71.0632 733.037 70.7897 733.364 70.6233C733.69 70.4569 734.064 70.4078 734.423 70.4842C734.782 70.5606 735.103 70.7578 735.334 71.0429C735.564 71.328 735.69 71.6836 735.69 72.0503C735.69 72.2749 735.643 72.4972 735.551 72.7021L719.183 109.411C719.057 109.694 718.852 109.934 718.592 110.102C718.332 110.27 718.03 110.36 717.72 110.36H717.72Z" fill="#151348"/>
<path d="M722.02 111.16C721.972 111.16 721.923 111.158 721.872 111.153L672.572 106.624C672.175 106.587 671.806 106.404 671.537 106.11C671.268 105.815 671.119 105.431 671.119 105.032C671.118 104.983 671.121 104.934 671.126 104.884C671.143 104.675 671.203 104.47 671.3 104.284C671.398 104.097 671.531 103.932 671.693 103.797C671.855 103.662 672.042 103.561 672.243 103.499C672.444 103.437 672.656 103.416 672.866 103.437L722.165 107.966C722.562 108.002 722.931 108.186 723.199 108.48C723.468 108.775 723.618 109.159 723.618 109.557C723.618 109.607 723.616 109.656 723.611 109.706C723.575 110.103 723.391 110.472 723.097 110.741C722.802 111.01 722.418 111.159 722.019 111.16L722.02 111.16Z" fill="#151348"/>
<path d="M692.75 104.51C692.75 104.51 696.618 103.239 696.016 102.023C695.127 100.178 692.107 103.745 688.636 103.868C688.622 103.853 688.604 103.843 688.585 103.838C688.565 103.833 688.545 103.834 688.526 103.84C688.436 103.857 688.344 103.866 688.253 103.868C687.036 104.002 685.806 103.951 684.604 103.717C675.802 102.323 661.111 94.7656 661.111 94.7656C660.975 94.7246 663.735 75.1546 660.851 65.7516C658.541 58.2077 649.918 58.4267 647.937 75.9476C647.527 79.5964 647.636 89.7646 649.003 94.1096C649.897 97.0415 651.541 99.689 653.773 101.79C659.622 107.148 672.906 107.011 683.771 107.79C685.356 107.913 686.463 108.023 687.898 108.2C691.178 110.879 701.346 109.034 701.305 106.875C701.265 103.922 692.751 104.51 692.751 104.51L692.75 104.51Z" fill="#F9C5C8"/>
<path d="M641.08 31.449C642.663 41.649 650.223 48.944 657.966 47.742C665.708 46.54 670.701 37.297 669.118 27.096C667.535 16.895 659.974 9.601 652.232 10.802C644.49 12.0038 639.497 21.248 641.081 31.448L641.08 31.449Z" fill="#F9C5C8"/>
<path d="M646.68 77.814C646.68 77.814 652.26 82.7681 665.3 78.554C663.592 66.311 663.25 60.332 655.449 60.047C649.185 59.9901 646.622 78.155 646.622 78.155L646.68 77.814Z" fill="#F03C69"/>
<path d="M658.89 18.893C654.806 24.98 646.983 28.3606 644.486 35.252C644.143 36.4526 643.73 37.6321 643.249 38.7844C643.003 39.3601 642.626 39.8702 642.147 40.274C641.669 40.6779 641.103 40.9642 640.494 41.1102C638.764 41.3812 637.15 39.888 636.67 38.2037C636.326 36.4785 636.429 34.6939 636.969 33.0196C637.787 29.6083 638.758 26.2383 639.881 22.9096C641.561 17.9316 643.699 12.8906 647.598 9.3686C650.638 6.6227 656.78 3.9407 660.746 6.3666C664.727 8.8021 660.727 16.1537 658.89 18.8926V18.893Z" fill="#151348"/>
<path d="M1040.94 554.65C1032.28 558.657 1022.73 561.745 1012.5 561.409C997.362 560.913 980.66 550.482 978.909 533.885C977.808 523.447 982.888 514.201 987.37 506.045C991.704 498.157 995.445 491.346 993.91 484.704C992.222 477.411 983.808 472.875 976.745 472.311C967.742 471.591 958.41 475.263 950.564 478.959C946.19 481.004 941.765 483.266 937.485 485.452C929.448 489.746 921.176 493.583 912.707 496.944C896.269 503.122 881.317 504.454 868.265 500.905C851.379 496.313 838.647 482.89 836.585 467.502L849.024 465.833C850.404 476.119 859.671 485.561 871.559 488.793C882.014 491.637 894.371 490.426 908.291 485.196C916.319 482.002 924.16 478.355 931.777 474.275C936.152 472.04 940.677 469.729 945.247 467.59C954.544 463.211 965.826 458.844 977.747 459.799C991.715 460.916 1003.39 469.995 1006.14 481.875C1008.76 493.188 1003.24 503.23 998.369 512.089C994.427 519.264 990.703 526.043 991.39 532.565C992.409 542.229 1003.35 548.549 1012.91 548.863C1024.46 549.24 1035.94 543.476 1045.8 538.041C1074.24 522.358 1100.8 503.499 1124.98 481.827L1133.36 491.171C1108.47 513.478 1081.13 532.889 1051.86 549.032C1048.4 550.939 1044.76 552.883 1040.94 554.647L1040.94 554.65Z" fill="#999B9D"/>
<path d="M870.632 488.53C868.641 492.49 865.925 496.041 862.624 498.998C848.575 493.231 838.366 481.136 836.535 467.497L848.971 465.829C850.324 475.86 859.167 485.085 870.633 488.529L870.632 488.53Z" fill="#808285"/>
<path d="M821.422 417.92C818.629 420.139 815.797 422.569 812.958 425.208L788.222 403.195C782.801 398.249 790.281 390.064 795.695 395.003L821.422 417.92Z" fill="#808285"/>
<path d="M784.182 460.66L757.499 436.87C756.416 435.881 755.769 434.504 755.699 433.039C755.629 431.575 756.141 430.142 757.125 429.054L757.14 429.037C758.133 427.959 759.513 427.317 760.978 427.253C762.443 427.189 763.874 427.708 764.957 428.695L790.213 451.183C787.948 454.408 785.922 457.573 784.182 460.66L784.182 460.66Z" fill="#808285"/>
<path d="M778.982 448.97L779.01 448.938C780.037 447.333 781.094 445.755 782.24 444.142L781.048 443.089L779.727 441.867C779.675 441.989 779.097 442.707 778.114 444.072C777.024 445.622 775.392 447.977 773.48 451.091L773.453 451.122L774.833 452.341C774.829 452.345 774.827 452.35 774.825 452.355C774.823 452.361 774.822 452.366 774.822 452.372C774.822 452.377 774.824 452.382 774.826 452.387C774.829 452.392 774.832 452.397 774.836 452.4L776.185 453.591L776.213 453.56C777.066 452.024 778.01 450.513 778.982 448.97H778.982ZM813.032 410.53L811.679 409.28C808.188 411.78 804.705 414.903 802.986 416.344L804.432 417.677L804.966 418.148L804.994 418.117C805.555 417.607 806.117 417.098 806.709 416.617C806.678 416.589 806.678 416.589 806.737 416.585C808.951 414.52 811.207 412.66 813.439 410.89L813.032 410.53Z" fill="url(#paint1_linear)"/>
<path d="M860.372 479.51L860.693 478.956C866.192 468.681 866.982 455.645 859.898 442.802C859.667 442.431 859.464 442.029 859.261 441.626C858.828 440.853 858.303 440.055 857.78 439.257L857.807 439.226C859.95 434.586 862.682 427.507 863.131 421.372C863.306 419.453 863.165 417.519 862.716 415.645C862.306 414.116 861.481 412.731 860.332 411.643C860.112 411.369 859.868 411.116 859.603 410.887L859.571 410.86C858.082 409.321 854.836 406.232 851.793 403.545C850.088 401.993 848.295 400.541 846.423 399.195C846.021 398.849 845.536 398.614 845.016 398.511C843.981 398.127 842.899 397.885 841.799 397.792C841.028 397.733 840.256 397.722 839.484 397.758C839.07 397.784 838.688 397.837 838.275 397.863C832.032 398.548 824.62 402.389 817.429 407.373C815.893 408.417 814.447 409.485 813.088 410.519L813.061 410.55C810.907 412.166 808.817 413.838 806.79 415.566L806.762 415.597C805.976 416.298 805.217 416.968 804.458 417.638L804.43 417.669C800.092 421.47 795.958 425.498 792.046 429.736C789.352 432.661 786.814 435.725 784.395 438.781C783.983 439.311 783.544 439.872 783.128 440.342C782.443 441.245 781.731 442.178 781.104 443.077L781.077 443.109C780.364 444.043 779.71 444.973 779.057 445.903C778.894 446.151 778.732 446.398 778.569 446.645C777.205 448.568 775.961 450.484 774.831 452.333C774.827 452.337 774.824 452.342 774.822 452.347C774.821 452.352 774.82 452.358 774.82 452.364C774.82 452.369 774.822 452.374 774.824 452.379C774.826 452.384 774.83 452.389 774.834 452.392C772.926 455.434 771.191 458.58 769.638 461.818C768.76 463.619 767.984 465.47 767.314 467.359C766.88 468.483 766.529 469.513 766.237 470.539C765.712 472.17 765.32 473.84 765.065 475.534C765.005 475.983 764.944 476.431 764.882 476.88C764.863 476.906 764.854 476.938 764.858 476.97C764.825 477.388 764.788 477.746 764.778 478.072C764.668 479.029 764.638 479.993 764.691 480.954C764.705 481.19 764.716 481.367 764.727 481.545C764.779 481.807 764.806 482.073 764.806 482.34L764.901 482.423C764.962 482.798 765.044 483.169 765.148 483.535C765.191 483.708 765.222 483.885 765.24 484.063L765.271 484.091C765.322 484.252 765.392 484.406 765.478 484.552C766.283 486.369 767.534 487.954 769.115 489.159C769.997 489.993 771.032 490.908 772.318 492.043C772.605 492.352 772.95 492.656 773.295 492.961C773.402 493.051 773.516 493.134 773.636 493.207L773.824 493.373C775.653 494.652 781.583 498.939 781.646 498.994C782.594 499.689 783.688 500.159 784.845 500.367C787.936 500.975 791.979 500.19 796.555 498.423C796.701 498.384 796.843 498.287 796.989 498.248C797.422 498.073 797.883 497.866 798.318 497.691C799.3 497.274 800.306 496.766 801.312 496.259C801.34 496.228 801.399 496.224 801.427 496.193C801.573 496.082 801.739 496.001 801.916 495.955C802.003 495.92 802.062 495.916 802.09 495.885C802.807 495.514 803.522 495.084 804.268 494.682C804.841 494.35 805.472 494.014 806.072 493.65C806.1 493.619 806.187 493.584 806.214 493.553C806.799 493.902 807.349 494.164 807.93 494.454C808.596 494.86 809.292 495.213 810.013 495.511C811.05 495.98 812.115 496.418 813.117 496.8C813.909 497.11 814.718 497.377 815.539 497.598C815.896 497.767 816.272 497.893 816.659 497.973C818.322 498.423 820.017 498.744 821.73 498.933C823.07 499.171 824.426 499.304 825.787 499.333C825.846 499.329 825.905 499.325 825.964 499.322C826.428 499.353 826.894 499.353 827.358 499.324C829.198 499.33 831.034 499.156 832.841 498.806C832.9 498.803 832.9 498.803 832.959 498.799C833.761 498.702 834.554 498.544 835.331 498.325C835.897 498.233 836.454 498.089 836.994 497.895C839.98 497.077 842.845 495.872 845.519 494.311C845.689 494.258 845.845 494.167 845.976 494.045C846.177 493.944 846.406 493.811 846.608 493.71L846.663 493.647L846.695 493.675L846.722 493.643C847.579 493.116 848.408 492.62 849.202 492.036C849.372 491.907 849.514 491.809 849.684 491.68C850.052 491.39 850.478 491.097 850.846 490.807C850.905 490.803 850.96 490.741 851.016 490.678L851.071 490.616C852.659 489.323 854.137 487.902 855.491 486.367L855.519 486.336C857.371 484.237 858.998 481.949 860.372 479.51L860.372 479.51Z" fill="#C5C6C7"/>
<path d="M797.012 486.34C810.6 437.784 848.73 429.624 848.898 429.47C855.944 434.971 860.699 442.556 863.319 451.455C873.326 493.244 823.577 514.609 797.011 486.34H797.012Z" fill="#C5C6C7"/>
<path d="M863.142 421.37C852.458 403.534 833.217 422.119 827.002 425.954C819.769 430.404 814.262 429.219 810.517 425.615C807.513 422.763 806.289 418.261 806.772 415.493C815.517 408.051 834.323 394.318 845.029 398.508C849.045 399.9 859.864 410.53 860.623 411.404C862.635 413.72 863.436 417.271 863.141 421.37L863.142 421.37Z" fill="#F4BDD2"/>
<path d="M855.662 486.28C836.954 492.788 823.607 485.221 815.48 477.306C812.243 474.188 810.296 469.967 810.027 465.48C809.757 460.994 811.183 456.57 814.023 453.087C826.321 437.914 837.783 433.849 844.638 430.775C820.256 434.445 801.894 463.111 801.799 463.259C790.952 460.581 798 451.141 798 451.141L797.984 451.125C794.733 449.328 787.38 444.058 784.406 438.767C761.396 467.254 764.902 482.109 764.819 482.351L764.886 482.413C765.86 488.021 769.174 488.473 780.684 499.687L780.693 499.677C786.536 504.701 800.285 497.752 806.962 493.968C823.159 503.009 843.56 500.385 855.681 486.304L855.662 486.28Z" fill="#B5B7B8"/>
<g filter="url(#filter1_d)">
<path d="M432.9 297.22H324.54V372.715H432.9V297.22Z" fill="#BBB6BF"/>
</g>
<path d="M-50.969 634.19C-60.8231 626.224 -73.145 615.39 -81.032 602.208C-89.5811 587.919 -91.702 572.631 -87.0044 559.163C-81.5985 543.665 -66.4714 529.421 -45.5004 520.087C-26.9704 511.839 -6.4854 508.033 12.8906 505.147C61.3712 497.928 110.433 495.376 159.401 497.526L160.245 497.564C167.852 497.902 175.719 498.254 182.436 496.3C188.557 494.521 192.299 490.495 192.088 488.613C191.911 487.033 188.806 484.235 183.434 483.091C177.377 481.799 170.408 482.498 163.664 483.169L74.446 492.076C74.2509 492.096 74.0522 492.115 73.8583 492.134C53.3973 494.084 41.0983 490.397 36.2593 480.869C32.4922 473.451 35.1952 464.077 42.9852 457.543C48.8092 452.656 56.1892 449.938 63.2952 447.728C109.465 433.367 159.059 434.648 207.025 435.888C248.348 436.954 291.078 438.06 331.005 429.042L334.016 442.374C292.431 451.764 248.836 450.64 206.676 449.55C159.824 448.338 111.378 447.086 67.3659 460.778C61.8959 462.479 55.7669 464.669 51.7809 468.013C49.1415 470.226 47.6818 473.155 48.4567 474.681C49.9181 477.558 57.1702 480.095 73.1007 478.478L73.3012 478.458L162.319 469.571C169.741 468.828 178.153 467.99 186.295 469.725C197.15 472.038 204.76 478.854 205.683 487.093C206.872 497.701 196.815 506.356 186.266 509.425C177.379 512.007 168.366 511.607 159.647 511.218L158.808 511.18C110.716 509.071 62.5321 511.577 14.9183 518.666C-3.50071 521.408 -22.8927 524.991 -39.9277 532.574C-57.4667 540.381 -69.9167 551.714 -74.0857 563.665C-77.4257 573.243 -75.723 584.44 -69.29 595.193C-62.5081 606.527 -51.337 616.308 -42.362 623.564L-50.969 634.19Z" fill="#999B9D"/>
<path d="M332.382 442.72C319.932 445.408 307.325 447.306 294.636 448.405C293.125 444.053 292.48 439.448 292.736 434.848C305.184 433.805 317.551 431.951 329.758 429.299C330.442 433.768 331.33 438.278 332.382 442.72V442.72Z" fill="#C5C6C7"/>
<path d="M332.382 442.72C319.932 445.408 307.325 447.306 294.636 448.405C293.125 444.053 292.48 439.448 292.736 434.848C305.184 433.805 317.551 431.951 329.758 429.299C330.442 433.768 331.33 438.278 332.382 442.72V442.72Z" fill="#808285"/>
<path d="M402.572 471.1C400.783 479.17 397.583 484.462 393.175 485.546L393.18 485.569C392.955 485.613 374.727 489.235 375.881 489.005C370.003 490.173 363.241 483.732 357.264 472.595C339.21 438.667 336.029 378.195 353.19 374.785C353.19 374.785 365.291 371.848 369.863 371.473L369.868 371.495C391.32 367.233 410.451 442.554 402.573 471.099L402.572 471.1Z" fill="#C5C6C7"/>
<path d="M357.412 472.57C330.282 480.165 304.369 458.526 306.859 432.667C308.595 414.036 324.18 399.25 342.412 397.063C340.206 418.75 346.18 451.421 357.413 472.57H357.412Z" fill="#C5C6C7"/>
<path d="M386.682 384.14L386.454 384.51C386.454 384.51 366.354 348.402 359.009 398.071C357.631 415.581 343.353 425.455 342.388 413.717L342.162 413.789C341.01 415.686 339.48 437.836 306.854 432.665C308.59 414.034 324.175 399.248 342.407 397.061C343.657 384.465 347.43 375.932 353.291 374.767C353.291 374.767 365.358 371.837 369.917 371.464L369.921 371.486C370.033 371.464 370.117 371.424 370.207 371.406C375.377 370.379 381.262 375.28 386.683 384.14L386.682 384.14Z" fill="#F4BDD2"/>
<path d="M377.112 413.99C372.873 414.832 369.881 399.789 374.123 398.946C378.362 398.104 381.354 413.147 377.112 413.99Z" fill="#B5B7B8"/>
<path d="M387.712 450.55C389.687 460.49 383.295 461.884 381.297 451.824C379.322 441.884 385.714 440.49 387.712 450.55Z" fill="#B5B7B8"/>
<path d="M392.342 395.24C398.334 416.081 403.499 441.872 400.15 463.454C391.979 513.117 360.942 449.334 360.897 402.053C359.089 417.708 360.997 433.879 365.131 449.086C362.438 453.396 355.18 456.488 350.219 452.817C333.011 470.419 310.812 455.609 307.356 442.967L307.414 443.257C311.869 465.685 335.674 478.654 357.414 472.567C363.38 483.706 370.128 490.15 375.99 488.985C375.99 488.985 384.339 487.345 390.706 486.067C407.185 485.874 411.734 439.768 392.341 395.24L392.342 395.24Z" fill="#B5B7B8"/>
<path d="M432.9 179.49H324.54V287.85H432.9V179.49Z" fill="#9EAFCC"/>
<path d="M671.12 179.49H443.94V287.93H671.12V179.49Z" fill="#9EAFCC"/>
<path d="M515.108 297.22H443.94V372.784H515.108V297.22Z" fill="#BBB6BF"/>
<path d="M601.134 297.22H525.57V372.784H601.134V297.22Z" fill="#BBB6BF"/>
<path d="M671.124 297.22H611.59V372.784H671.124V297.22Z" fill="#BBB6BF"/>
</g>
<defs>
<filter id="filter0_d" x="721.53" y="327.394" width="46.5653" height="74.255" filterUnits="userSpaceOnUse" color-interpolation-filters="sRGB">
<feFlood flood-opacity="0" result="BackgroundImageFix"/>
<feColorMatrix in="SourceAlpha" type="matrix" values="0 0 0 0 0 0 0 0 0 0 0 0 0 0 0 0 0 0 127 0"/>
<feOffset dy="4"/>
<feGaussianBlur stdDeviation="2"/>
<feColorMatrix type="matrix" values="0 0 0 0 0 0 0 0 0 0 0 0 0 0 0 0 0 0 0.25 0"/>
<feBlend mode="normal" in2="BackgroundImageFix" result="effect1_dropShadow"/>
<feBlend mode="normal" in="SourceGraphic" in2="effect1_dropShadow" result="shape"/>
</filter>
<filter id="filter1_d" x="320.54" y="297.22" width="116.36" height="83.495" filterUnits="userSpaceOnUse" color-interpolation-filters="sRGB">
<feFlood flood-opacity="0" result="BackgroundImageFix"/>
<feColorMatrix in="SourceAlpha" type="matrix" values="0 0 0 0 0 0 0 0 0 0 0 0 0 0 0 0 0 0 127 0"/>
<feOffset dy="4"/>
<feGaussianBlur stdDeviation="2"/>
<feColorMatrix type="matrix" values="0 0 0 0 0 0 0 0 0 0 0 0 0 0 0 0 0 0 0.25 0"/>
<feBlend mode="normal" in2="BackgroundImageFix" result="effect1_dropShadow"/>
<feBlend mode="normal" in="SourceGraphic" in2="effect1_dropShadow" result="shape"/>
</filter>
<linearGradient id="paint0_linear" x1="525.671" y1="67.6692" x2="715.931" y2="101.128" gradientUnits="userSpaceOnUse">
<stop stop-color="#E39972"/>
<stop offset="0.5808" stop-color="#E49A74"/>
<stop offset="0.79" stop-color="#EA9C7B"/>
<stop offset="0.9386" stop-color="#F3A186"/>
<stop offset="1" stop-color="#F9A48E"/>
</linearGradient>
<linearGradient id="paint1_linear" x1="773.452" y1="431.43" x2="813.442" y2="431.43" gradientUnits="userSpaceOnUse">
<stop stop-color="#AAABAD"/>
<stop offset="0.2345" stop-color="#B0B2B3"/>
<stop offset="0.8625" stop-color="#C6C8C9"/>
<stop offset="1" stop-color="#CCCDCE"/>
</linearGradient>
<clipPath id="clip0">
<rect width="954.24" height="483.15" fill="white"/>
</clipPath>
</defs>
</svg>
