<?xml version="1.0" encoding="UTF-8"?>
<svg width="694.12" height="441.73" version="1.1" viewBox="0 0 694.12 441.73" xmlns="http://www.w3.org/2000/svg" xmlns:cc="http://creativecommons.org/ns#" xmlns:dc="http://purl.org/dc/elements/1.1/" xmlns:rdf="http://www.w3.org/1999/02/22-rdf-syntax-ns#">
 <metadata>
  <rdf:RDF>
   <cc:Work rdf:about="">
    <dc:format>image/svg+xml</dc:format>
    <dc:type rdf:resource="http://purl.org/dc/dcmitype/StillImage"/>
    <dc:title>rev-2</dc:title>
   </cc:Work>
  </rdf:RDF>
 </metadata>
 <defs>
  <style>.cls-1{fill:none;}.cls-2{isolation:isolate;}.cls-3,.cls-4{fill:#dadbdc;}.cls-3{opacity:0.4;}.cls-5{fill:#c5c6c7;}.cls-6{fill:#bcbec0;opacity:0.75;}.cls-7{fill:#bbb6bf;}.cls-8{fill:#0a2236;}.cls-9{fill:#fff;}.cls-10{fill:#425564;}.cls-11{fill:#2d4253;}.cls-12{fill:#f9c5c8;}.cls-13{fill:#060649;}.cls-14{fill:#e55182;}.cls-15,.cls-23{fill:#ff5f8d;}.cls-16{fill:#1a1a1a;}.cls-17{fill:#5d83ce;}.cls-18{fill:#3e5daa;}.cls-19{fill:#9eafcc;}.cls-20{fill:#f03c69;}.cls-21{fill:#f93878;}.cls-22{fill:#d84505;}.cls-23{opacity:0.5;mix-blend-mode:multiply;}.cls-24{fill:#05052d;}.cls-25{fill:#7b90c6;}.cls-26{fill:#4a6493;}.cls-27{fill:#647caf;}.cls-28{clip-path:url(#clip-path);}.cls-29{clip-path:url(#clip-path-2);}.cls-30{fill:#efb98f;}.cls-31{fill:#0b375a;}.cls-32{fill:#09314c;}</style>
  <clipPath id="clip-path">
   <path class="cls-1" d="m386.05 430-2.4355-1.3247a16.375 16.375 0 0 1-1.3625-3.3872l2.4351 1.3247a16.366 16.366 0 0 0 1.3629 3.3872z"/>
  </clipPath>
  <clipPath id="clip-path-2">
   <path class="cls-1" d="m384.71 416.42-2.4353-1.3249a21.756 21.756 0 0 1 1.3759-3.7722l2.4355 1.3247a21.75 21.75 0 0 0-1.3761 3.7724z"/>
  </clipPath>
 </defs>
 <title>rev-2</title>
 <g class="cls-2" transform="translate(-147.94 -144.78)">
  <g data-name="Layer 1">
   <path class="cls-3" d="m156.83 568.51 680.39 0.6618c-4.8731-28.383-50.374-13.439-62.785-35.589-4.5568-8.1321-3.0168-18.364 0.39-27.041s8.5249-16.677 11.097-25.636c13.803-48.078-44.117-72.83-82.485-72.062-8.4619 0.1692-16.936 1.2981-25.364 0.5291s-17.098-3.7422-22.504-10.252c-19.093-22.993 26.897-48.959 35.832-66.405 17.53-34.23-7.0466-66.558-40.703-75.69-19.113-5.1859-75.397-1.8989-81.027-28.385-1.5759-7.4143 2.7465-14.823 7.8941-20.389 12.053-13.033 24.187-25.514 12.088-43.183-10.173-14.857-29.477-18.38-46.269-19.512-104.64-7.054-218.03 34.662-286.27 115.8-18.735 22.289-4.3144 42.631 16.364 57.314 39.728 28.211 45.285 62.467-2.7224 83.451q-22.967 10.039-45.934 20.078c-22.59 9.8743-49.193 26.223-46.484 50.727 1.7121 15.485 15.371 27.562 17.48 42.998 3.1372 22.952-19.273 40.431-38.99 52.592z"/>
   <path class="cls-4" d="m378.18 311.3a29.858 29.858 0 0 0-58.671-7.8307 20.372 20.372 0 0 0-19.949 0.7369 21.182 21.182 0 0 0-39.892 7.5332c-0.2387-0.0133-0.475-0.0359-0.7169-0.0359a12.704 12.704 0 0 0-12.7 12.508h146.36a14.524 14.524 0 0 0-14.431-12.912z"/>
   <path class="cls-4" d="m755.3 379.64a18.596 18.596 0 0 0-5.8389 0.946 27.099 27.099 0 0 0-42.659-1.9976 19.448 19.448 0 0 0-12.979-1.1029 28.997 28.997 0 0 0-33.06-12.734 34.777 34.777 0 0 0-60.048 14.222 16.571 16.571 0 0 0-20.473 15.615h193.33a18.648 18.648 0 0 0-18.275-14.949z"/>
   <path class="cls-4" d="m655.09 290.72a9.0992 9.0992 0 0 0-2.7288 0.417 13.844 13.844 0 0 0-12.666-9.3682 23.734 23.734 0 0 0-45.033-1.3025 16.47 16.47 0 0 0-15.682 15.796h84.491a9.107 9.107 0 0 0-8.3807-5.5425z"/>
   <path class="cls-5" d="m829.67 554.39h-669.33c-6.8457 0-12.395 7.1914-12.395 16.063s5.5493 16.063 12.395 16.063h669.33c6.8456 0 12.395-7.1915 12.395-16.063s-5.5493-16.063-12.395-16.063z"/>
   <polygon class="cls-6" points="289.79 503.88 301.02 503.88 312.26 503.88 310.72 482.2 301.02 482.2 291.32 482.2"/>
   <polygon class="cls-7" points="311.48 492.95 310.72 482.2 291.32 482.2 290.56 492.95"/>
   <path class="cls-8" d="m264.05 431.44h73.934a2.8153 2.8153 0 0 1 2.8153 2.8153v51.142a2.8151 2.8151 0 0 1-2.8151 2.8151h-73.935a2.8155 2.8155 0 0 1-2.8155-2.8155v-51.141a2.8155 2.8155 0 0 1 2.8155-2.8155z"/>
   <path class="cls-9" d="m261.24 485.39a2.8152 2.8152 0 0 0 2.8153 2.8151h73.934a2.8153 2.8153 0 0 0 2.8155-2.8151v-4.4509h-79.565z"/>
   <path class="cls-9" d="m264.62 434.13h72.798a0.7605 0.7605 0 0 1 0.7605 0.7605v42.122a0.7605 0.7605 0 0 1-0.7605 0.7605h-72.798a0.7607 0.7607 0 0 1-0.7607-0.7607v-42.121a0.7609 0.7609 0 0 1 0.7609-0.7612z"/>
   <path class="cls-4" d="m320.97 501.99h-39.903a1.571 1.571 0 0 0 0 3.142h39.903a1.571 1.571 0 0 0 0-3.142z"/>
   <rect class="cls-10" x="208.92" y="507.88" width="142.8" height="51.983"/>
   <rect class="cls-11" x="200.13" y="505.08" width="160.37" height="4.2524"/>
   <path class="cls-12" d="m282.93 564.66c-3.1668-3.0876-2.8009-4.1736-2.4447-5.5921s1.0665-3.4213 1.0665-3.4213l-5.6032-2.4139s-1.4978 3.9708-2.0168 5.131-2.5908 4.1314-2.56 5.7231 7.5426 4.3024 10.842 6.0567 5.6881 2.423 6.7035 2.2276-2.8202-4.6236-5.987-7.7111z"/>
   <path class="cls-13" d="m284.51 566.35c1.4446 1.9944-1.2068 1.5187-7.3251-2.1086-5.42-3.2129-3.7366-4.9071-3.7366-4.9071-1.2005 0.0934-3.2477 3.041-3.3441 5.0649s5.0312 3.419 7.1122 3.99 4.9741 2.9443 8.22 4.1267 6.7379 0.4078 6.7811-0.2917-7.7075-5.8742-7.7075-5.8742z"/>
   <path class="cls-8" d="m296.44 515.99c-8.5216-3.2245-29.94-7.6-31.322-7.6s-19.346 3.9152-19.346 3.9152 1.6121 10.364 9.673 13.819 32.473 0 32.704 2.7638-15.661 28.328-15.661 28.328l8.5213 2.7638s18.655-20.958 21.419-29.71 2.5335-11.055-5.988-14.279z"/>
   <path class="cls-12" d="m299.74 570.83c-3.45-2.7673-3.19-3.8835-2.9732-5.33s0.7311-3.5082 0.7311-3.5082l-5.81-1.8613s-1.1072 4.0969-1.5118 5.3016-2.18 4.3626-1.9955 5.9436 7.9228 3.554 11.376 4.9815 5.8955 1.8625 6.8876 1.57-3.2537-4.3297-6.7041-7.0972z"/>
   <path class="cls-10" d="m301.48 572.37c1.63 1.8456-1.0543 1.628-7.4943-1.3914-5.7047-2.6744-4.1932-4.5231-4.1932-4.5231-1.1859 0.209-2.9388 3.34-2.84 5.364s5.3381 2.9172 7.4645 3.2851 5.2353 2.45 8.58 3.3135 6.7455-0.2447 6.7212-0.9452-8.2382-5.1029-8.2382-5.1029z"/>
   <path class="cls-8" d="m275.48 506.32s-26.486 4.8365-26.946 5.9879-1.6123 5.0669 8.0607 10.134 37.08 0.4606 38.922 5.2971-5.7576 35.467-5.7576 35.467l7.8306 0.691s16.122-35.007 13.128-45.141-35.237-12.436-35.237-12.436z"/>
   <path class="cls-12" d="m295.32 498.93c-3.4418-1.5643-7.2745 0.0783-7.5092 0.1566l-0.7038 3.2069a30.823 30.823 0 0 0 4.4584 1.33c1.799 0.3128 2.9722-0.5474 3.911-0.6257s2.8939 1.486 4.4584 1.33-1.1734-3.8333-4.6148-5.3978z"/>
   <path class="cls-14" d="m272.56 491.12c-4.0153-4.8181-3.7475-17.132-5.3537-21.95s-4.55-5.3535-4.55-5.3535-5.3536 2.1415-5.8889 6.96 4.2829 23.288 9.6364 28.642 20.076 4.5508 20.879 4.5508 1.0707-5.6213 1.0707-5.6213-11.778-2.4094-15.794-7.2276z"/>
   <path class="cls-12" d="m277.03 439.11c-5.8588 5.4593-2.53 12.783-3.329 16.91s-2.6629 4.7933-2.6629 4.7933 5.9919 2.6632 6.3913 2.53 3.0626-4.3941 4.66-4.7936 2.1668 1.3427 4.2972 1.742 5.2885-4.6711 6.753-9.3313a23.69 23.69 0 0 0 0.9824-8.8406c-4.793-8.6541-11.233-8.4689-17.092-3.0098z"/>
   <path class="cls-15" d="m283.8 463.02c-6.4242-5.6211-24.626-1.3384-24.626-1.3384-6.692 5.6215-15.276 40.727-13.384 53.536 1.9631 13.296 32.657-6.96 34.531-8.2981s-6.6439-8.6887-5.6737-15.601c2.0161-14.366 15.578-22.677 9.1535-28.299z"/>
   <path class="cls-12" d="m313.52 497.59c-3.4416-1.5643-7.2743 0.0783-7.5088 0.1566l-0.704 3.2069a30.848 30.848 0 0 0 4.4582 1.33c1.799 0.3128 2.9726-0.5475 3.911-0.6257s2.8941 1.486 4.4584 1.33-1.1732-3.8333-4.6148-5.3978z"/>
   <path class="cls-15" d="m290.76 489.79c-4.0151-4.818-3.6979-18.993-5.3041-23.812s-4.6-3.4917-4.6-3.4917-5.3536 2.1415-5.8891 6.96 4.2829 23.288 9.6366 28.642 20.076 4.5506 20.879 4.5506 1.07-5.6213 1.07-5.6213-11.778-2.4096-15.792-7.2278z"/>
   <path class="cls-16" d="m287.38 431.86c-0.9912-0.2148-6.2582-3.595-11.318-0.2663s-4.9267 7.59-7.4567 9.5871-5.7254 3.1955-7.3233 5.7256-0.2664 5.8584-0.4 8.5216-7.9892 6.1249-6.1249 11.584 13.848 8.5219 16.777 4.5272 3.0627-9.0542 6.3913-10.12 7.3235-0.2663 8.9215-3.8615 1.4235-6.9252 4.0865-9.0557 7.2961-5.5634 6.63-8.2265-2.1949-6.6846-10.184-8.4157z"/>
   <path class="cls-17" d="m204.01 465.79c-1.1379 3.6983 11.948 38.404 13.655 41.249s39.728 1.988 39.826 0.569c0.5689-8.25-15.077-44.094-15.077-44.094-2.2759-2.5602-37.266-1.4223-38.404 2.2757z"/>
   <path class="cls-18" d="m200.03 465.79c-1.1378 3.6983 11.948 38.404 13.655 41.249s39.729 1.988 39.826 0.569c0.569-8.25-15.077-44.094-15.077-44.094-2.2758-2.5602-37.266-1.4223-38.404 2.2757z"/>
   <path class="cls-17" d="m295.16 522.99-56.878 0.25a3.8488 3.8488 0 0 0 0.0171 7.6975h56.878a3.8486 3.8486 0 0 0 3.8487-3.8486v-0.2506a3.8494 3.8494 0 0 0-3.8659-3.8483z"/>
   <path class="cls-18" d="m264.66 523.12-26.161 0.1157a4.0006 4.0006 0 0 0-4.0327 3.4587 3.85 3.85 0 0 0 3.83 4.24h26.381a3.907 3.907 0 0 0 3.9069-3.9067 3.9068 3.9068 0 0 0-3.9244-3.9077z"/>
   <rect class="cls-18" x="264.21" y="546.78" width="6.7609" height="13.7"/>
   <rect class="cls-17" x="258.68" y="534.92" width="17.81" height="13.7"/>
   <rect class="cls-19" x="263.06" y="555.75" width="9.0629" height="13.7"/>
   <path class="cls-17" d="m285.91 567.26-36.658 0.1616a2.4805 2.4805 0 0 0 0.0111 4.961h36.657a2.4806 2.4806 0 0 0 2.4807-2.4805v-0.1613a2.4806 2.4806 0 0 0-2.4916-2.4808z"/>
   <circle class="cls-18" cx="284.65" cy="575.39" r="3.3369"/>
   <path class="cls-18" d="m267.59 572.06a3.3369 3.3369 0 1 0 3.3369 3.3369 3.337 3.337 0 0 0-3.3369-3.3369z"/>
   <path class="cls-18" d="m250.52 572.06a3.3369 3.3369 0 1 0 3.3371 3.3369 3.3368 3.3368 0 0 0-3.3371-3.3369z"/>
   <path class="cls-19" d="m246.06 525.01-15.484-37.679a4.46 4.46 0 1 0-8.2255 3.4491l16.796 39.262a13.672 13.672 0 0 0 12.57 8.2945h27.676v-7.3966l-24.673-0.1006a9.4037 9.4037 0 0 1-8.6602-5.8294z"/>
   <polygon class="cls-6" points="698.62 503.88 709.86 503.88 721.09 503.88 719.56 482.2 709.86 482.2 700.16 482.2"/>
   <polygon class="cls-7" points="720.32 492.95 719.56 482.2 700.16 482.2 699.4 492.95"/>
   <path class="cls-8" d="m672.89 431.44h73.934a2.8153 2.8153 0 0 1 2.8153 2.8153v51.142a2.8151 2.8151 0 0 1-2.8151 2.8151h-73.934a2.8155 2.8155 0 0 1-2.8155-2.8155v-51.141a2.8155 2.8155 0 0 1 2.8155-2.8155z"/>
   <path class="cls-9" d="m670.07 485.39a2.8151 2.8151 0 0 0 2.8153 2.8151h73.934a2.8152 2.8152 0 0 0 2.8155-2.8151v-4.4509h-79.565z"/>
   <path class="cls-9" d="m673.46 434.13h72.798a0.7607 0.7607 0 0 1 0.7607 0.7607v42.121a0.7607 0.7607 0 0 1-0.7607 0.7607h-72.798a0.7605 0.7605 0 0 1-0.7605-0.7605v-42.121a0.7609 0.7609 0 0 1 0.7609-0.7612z"/>
   <rect class="cls-4" x="673.85" y="442.59" width="40.429" height="9.5734"/>
   <rect class="cls-4" x="673.85" y="453.94" width="40.429" height="9.5734"/>
   <rect class="cls-4" x="673.85" y="465.3" width="40.429" height="9.5732"/>
   <rect class="cls-4" x="717.37" y="442.81" width="27.94" height="32.059"/>
   <rect class="cls-20" x="673.89" y="435.67" width="71.814" height="5.4883"/>
   <path class="cls-4" d="m729.81 501.99h-39.903a1.571 1.571 0 1 0 0 3.142h39.903a1.571 1.571 0 0 0 0-3.142z"/>
   <rect class="cls-10" x="638.46" y="507.88" width="142.8" height="51.983"/>
   <rect class="cls-11" x="629.67" y="505.08" width="160.37" height="4.2524"/>
   <path class="cls-12" d="m600.22 499.91c-2.8346-1.5469-8.476-5.6575-8.8906-4.5844s5.0887 3.7486 4.3794 4.422-3.2189 0.7874-4.7617 0.19-4.1263-2.497-4.2829-1.4615 4 3.9039 3.7127 3.8194-3.08-2.2666-2.8206-1.1655 3.417 3.1705 3.417 3.1705-3.6027-2.0282-2.0391-0.057a6.4941 6.4941 0 0 0 3.2838 1.9215c-0.7352-0.1425-1.6361-0.2134-0.9551 0.4982 1.0625 1.11 4.6493 1.5977 6.9294 1.6438s5.9571-2.201 8.1666-1.8915-0.6518-5.6-0.6518-5.6a8.3235 8.3235 0 0 1-5.4871-0.9055z"/>
   <path class="cls-21" d="m640.6 475.29c-2.4947 1.1-3.1611 7.4127-3.9984 9.7166-1.2617 3.4717-2.7393 7.4814-5.4874 10.081-5.2267 4.9433-28.661 4.5348-28.661 4.5348l-0.1487 7.1664s19.913 3.4787 30.208 0.2746c5.5784-1.7362 9.9137-7.2252 13.069-11.845 2.6894-3.9383 8.8446-12.195 5.1539-16.732a17.521 17.521 0 0 0-3.1082-2.7738 4.163 4.163 0 0 0-1.2218-0.7233 6.8482 6.8482 0 0 0-2.65 0.1116c-0.8564 0.077-1.7225-0.0533-2.5776 0.0355a1.9106 1.9106 0 0 0-0.5774 0.1541z"/>
   <path class="cls-20" d="m517.58 441.56 15.153 54.258s36.236 11.767 40.848 39.222 36.236 33.993 36.236 33.993-3.9528-81.06-24.377-102.63-67.86-24.841-67.86-24.841z"/>
   <path class="cls-20" d="m380.18 569.04s31.624-6.5372 36.236-33.993 40.848-39.222 40.848-39.222l15.153-54.258s-47.436 3.2685-67.86 24.841-24.377 102.63-24.377 102.63z"/>
   <path class="cls-8" d="m461.8 544.7c13.671 7.7508 33.201 9.689 33.201 9.689s19.53-1.9378 33.201-9.6886c3.88-2.2 9.9616-15.961 14.675-36.26h-95.751c4.7135 20.299 10.795 34.06 14.675 36.26z"/>
   <path class="cls-9" d="m451.33 523.47c17.98 11.82 43.666 14.775 43.666 14.775s25.686-2.955 43.666-14.775 71.921-242.31-43.666-357.55c-115.59 115.24-61.647 345.73-43.666 357.55z"/>
   <path class="cls-4" d="m492.14 168.88c94.232 119.63 44.706 328.24 27.623 339.47-17.981 11.82-43.667 14.775-43.667 14.775a130.87 130.87 0 0 1-30.339-7.9169c2.0476 4.3509 3.9558 7.2046 5.5717 8.2666 17.98 11.82 43.666 14.775 43.666 14.775s25.686-2.955 43.666-14.775 71.921-242.31-43.666-357.55c-0.9737 0.9712-1.9052 1.9708-2.8552 2.9577z"/>
   <path class="cls-20" d="m495 578.73s56.001-65.371 0-130.74c-56.001 65.372 0 130.74 0 130.74z"/>
   <ellipse class="cls-15" cx="495" cy="340.22" rx="36.7" ry="36.415"/>
   <ellipse class="cls-9" cx="495" cy="340.22" rx="25.153" ry="24.958"/>
   <path class="cls-22" d="m495 305.26a4.5869 4.5869 0 1 0 4.6226 4.5867 4.6049 4.6049 0 0 0-4.6226-4.5867z"/>
   <path class="cls-22" d="m513.38 315.5a4.5615 4.5615 0 0 0 0 6.4866 4.6483 4.6483 0 0 0 6.5372 0 4.5615 4.5615 0 0 0 0-6.4866 4.6479 4.6479 0 0 0-6.5372 0z"/>
   <path class="cls-22" d="m525.61 335.63a4.5868 4.5868 0 1 0 4.6227 4.5867 4.6048 4.6048 0 0 0-4.6227-4.5867z"/>
   <path class="cls-22" d="m513.38 358.45a4.5614 4.5614 0 0 0 0 6.4865 4.6481 4.6481 0 0 0 6.5372 0 4.5614 4.5614 0 0 0 0-6.4865 4.6479 4.6479 0 0 0-6.5372 0z"/>
   <path class="cls-22" d="m495 366a4.5868 4.5868 0 1 0 4.6226 4.5868 4.6048 4.6048 0 0 0-4.6226-4.5868z"/>
   <path class="cls-22" d="m470.09 358.45a4.5614 4.5614 0 0 0 0 6.4865 4.6482 4.6482 0 0 0 6.5373 0 4.5615 4.5615 0 0 0 0-6.4865 4.648 4.648 0 0 0-6.5373 0z"/>
   <path class="cls-22" d="m464.39 335.63a4.5868 4.5868 0 1 0 4.6224 4.5867 4.6049 4.6049 0 0 0-4.6224-4.5867z"/>
   <path class="cls-22" d="m470.09 315.5a4.5615 4.5615 0 0 0 0 6.4866 4.6484 4.6484 0 0 0 6.5373 0 4.5617 4.5617 0 0 0 0-6.4866 4.648 4.648 0 0 0-6.5373 0z"/>
   <path class="cls-20" d="m438.97 261.82a198.77 198.77 0 0 0 112.07 0c-11.108-35.438-28.898-68.846-56.034-95.901-27.136 27.056-44.926 60.463-56.034 95.901z"/>
   <path class="cls-23" d="m492.14 168.87c22.392 28.426 36.664 61.869 45.185 96.502q7.032-1.54 13.707-3.5543c-11.108-35.438-28.898-68.846-56.034-95.901-0.9736 0.9707-1.9086 1.9675-2.8579 2.9542z"/>
   <path class="cls-20" d="m423.11 384.84c0.1852 9.1267 0.6249 18.047 1.2728 26.686 20.585 7.6708 44.757 12.09 70.616 12.09s50.03-4.4192 70.614-12.09c0.6481-8.6382 1.0877-17.559 1.2731-26.686-20.861 7.9715-45.487 12.593-71.888 12.593s-51.027-4.6221-71.888-12.594z"/>
   <path class="cls-23" d="m544.63 417.84a181.99 181.99 0 0 0 20.982-6.3206c0.6481-8.6382 1.0877-17.559 1.2731-26.686a180.2 180.2 0 0 1-19.803 6.201c-0.5938 9.2692-1.4299 18.233-2.4517 26.805z"/>
   <path class="cls-12" d="m623.28 561.34s2.742 4.2651 0.4059 7.5146-12.599 4.8776-11.482 6.604 20.672 1.2174 21.789-1.8291-2.894-13.305-2.894-13.305z"/>
   <path class="cls-12" d="m697.06 554.82c-1.8277 0-10.662 4.5694-10.662 4.5694s-0.8124 7.1084 3.1478 5.4838 9.0377 3.5541 8.0223 7.1082-2.698 4.2276-1.073 4.4308a6.7258 6.7258 0 0 0 6.5563-6.4617c0.1015-4.8743-4.1632-15.13-5.9912-15.13z"/>
   <path class="cls-11" d="m688.61 557.76c-0.6094 0-26.594 2.3464-26.594 2.3464s15.974-20.561 18.616-27.063 0.39-13.308 0.39-13.308l-8.9568 0.6785c-7.3429-0.8405-17.852-1.6493-17.852-1.6493s-39.91-12.156-42.875-2.4386c-2.6669 8.74 12.664 50.195 12.664 50.195s9.5427-0.2514 9.5427-1.8772-3.5116-30.842-3.5116-30.842 12.491 3.13 21.815 5.6563c-2.66 13.766-11.561 26.936-10.638 30.974 1.6255 7.1121 4.8787 8.0943 12.194 6.8751s36.891-9.7335 36.891-9.7335-1.0756-9.8128-1.6848-9.8128z"/>
   <path class="cls-12" d="m638.8 469.06c-0.0118-3.67 2.9616-6.3273 0.1337-12.519s-9.1667-11.749-21.818-4.6423c0 0-1.6695 6.85-0.3282 11.908s4.7425 11.676 7.5455 11.957 2.6573-1.95 4.8511-1.7312 4.5223 2.7908 5.4 2.6325 7.7517-3.6571 7.7517-3.6571a3.8569 3.8569 0 0 1-3.5355-3.9479z"/>
   <path class="cls-16" d="m641.42 457.53a10.998 10.998 0 0 0 0.2836-5.5008 4.9536 4.9536 0 0 0-4.4224-3.7324 4.7572 4.7572 0 0 1 2.5177-1.6148 8.0513 8.0513 0 0 0-3.4627-0.0244 3.34 3.34 0 0 0 0.7849-2.17 3.8376 3.8376 0 0 1-3.3212 1.8016c-2.0233-0.0589-3.82-0.6374-5.89-0.4275-3.6623 0.3714-7.73 0.9662-10.903 2.9592a12.412 12.412 0 0 0-4.052 4.2554 13.03 13.03 0 0 0-1.237 2.8419c-0.0856 0.2873-0.3611 2.5233-0.4837 2.5776q1.9159-0.8485 3.8634-1.6252a0.73 0.73 0 0 1 0.6085-0.0524c0.2437 0.1342 0.2493 0.4764 0.2224 0.7533q-0.2354 2.442-0.4709 4.8838a15.855 15.855 0 0 1 4.0543-4.3008 15.03 15.03 0 0 0 2.5018 5.6431 14.989 14.989 0 0 1 1.4885-5.4689 4.5461 4.5461 0 0 0 1.8639 0.786c0.3341 0.0456 1.0007-0.2793 1.2665-0.074 0.4514 0.3486 0.5652 2.3872 0.7784 2.9469a2.96 2.96 0 0 0 2.058 1.6911s0.1173-0.4336 0.4625-1.6605 4.0408-4.7908 5.4147-1.4627c1.0653 2.58-0.9918 4.0157-2.6179 5.4693 0.0495-0.0441 3.617 1.6231 4.0982 1.6982a30.32 30.32 0 0 0 5.4376 0.2556 6.0723 6.0723 0 0 1-1.9489-5.0018 26.35 26.35 0 0 1 1.105-5.4468z"/>
   <path class="cls-21" d="m631.16 478.04c-1.2357 1.9531 0.3675 5.8707 0.3675 5.8707l12.674-11.253s-3.8541-2.3544-5.3511-2.2494-6.4543 5.6788-7.6899 7.632z"/>
   <path class="cls-15" d="m638.4 473.82s-8.2193 5.4712-7.8587 11.885 10.228 17.89 13.87 25.564c3.38 7.1224 3.04 9.7 4.1395 12.17 0.4209 0.9461 13.87 7.9244 22.574 4.0511s10.762-8.4163 10.762-8.4163-11.01-25.25-19.468-35.086-15.422-15.806-24.019-10.167z"/>
   <path class="cls-24" d="m629.62 567.97a18.908 18.908 0 0 1-5.2629-0.2162s-4.8937 3.2412-8.2178 4.2135-5.632 1.62-6.0936 2.4849-0.7389 1.5125-0.7389 1.5125a12.422 12.422 0 0 0 5.3555 1.8366c3.4162 0.4323 10.526-0.7561 10.526-0.7561l0.0922 0.8643 9.9719-0.7565s0.2771-7.2383-1.2-10.48c-3e-4 4e-4 -0.8312 1.0808-4.4322 1.297z"/>
   <path class="cls-24" d="m704.09 561.78-4.2132-9.0259s-5.8342 1.1032-8.6433 3.51c0 0 2.8091 3.61 3.2412 5.8164a18.456 18.456 0 0 1 0.3242 4.112 5.0091 5.0091 0 0 1 1.4044 3.911c-0.1082 2.6075-2.0525 6.6189-2.0525 7.12s1.7283 1.5043 2.2687 1.5043 6.4823-2.9082 7.5626-6.92-1.08-9.0255-1.08-9.0255z"/>
   <path class="cls-12" d="m590.47 482.28c-1.491-2.8644-3.883-9.422-4.8256-8.7621s2.1354 5.9487 1.1711 6.1125-3.1115-1.1407-4.06-2.4962-2.0338-4.3733-2.7409-3.601 1.1444 5.4709 0.9533 5.2406-1.2937-3.5987-1.6922-2.54 1.07 4.5371 1.07 4.5371-1.8607-3.6921-1.6616-1.1842a6.4939 6.4939 0 0 0 1.6555 3.4258c-0.531-0.5283-1.2394-1.0892-1.0707-0.1188 0.2634 1.5142 2.9691 3.918 4.8367 5.2276s6.1724 1.4934 7.8342 2.9817 2.5806-5.0126 2.5806-5.0126a8.3244 8.3244 0 0 1-4.0504-3.8104z"/>
   <path class="cls-15" d="m638.17 476.79s-10.136 13.526-16.952 15.828-27.928-7.8749-27.928-7.8749l-3.134 6.4462s16.63 11.493 27.32 12.891 31.804-13.562 32.233-22.036-8.0104-8.2541-11.539-5.2546z"/>
   <path class="cls-12" d="m407.85 422.61a10.963 10.963 0 0 1-5.2716 1.9264 7.8058 7.8058 0 0 0 0.275-4.2609c-0.582-1.948-2.6508 3.0062-3.8573 4.8306a8.7052 8.7052 0 0 1-2.4489 2.566l0.4309 4.4208s9.3573-1.896 11.933-3.6659 2.5-6.5194 2.2472-8.1115-1.1312 0.5879-3.3082 2.2945z"/>
   <path class="cls-20" d="m371.91 428.87c-3.2106-3.8267-9.0879-23.06-14.279-25.704s-11.224-1.0343-11.417 5.9358c0 0 10.636 23.247 17.668 29.285s35.11-5.5827 35.11-5.5827l-1.8551-6.2107s-22.016 6.103-25.226 2.2765z"/>
   <path class="cls-25" d="m416.37 410.3a14.997 14.997 0 0 0-0.8316-1.7948l3.7627-4.5808-6.6624-6.2787-2.4354-1.3249-3.7627 4.5808c-0.2867-0.13-0.5811-0.244-0.8773-0.3537l0.01-5.0724-2.4357-1.3247-9.4573 1.3291-0.0106 5.7389q-0.16 0.0716-0.3177 0.1461c-0.4586 0.2162-0.9072 0.4549-1.3468 0.7109-0.0782 0.0455-0.1515 0.0985-0.2289 0.1449-0.2826 0.17-0.5633 0.344-0.8371 0.53l-1.9012-1.7887-2.4355-1.3248-6.7 8.1568 3.7475 3.5254q-0.4151 0.8755-0.7533 1.7949l-8e-3 0.0262c-0.2336 0.6379-0.44 1.2888-0.6143 1.9512l-5.3064 0.7456-0.0192 10.196 2.4355 1.3249 3.4119-0.48c0.0211 0.0539 0.0346 0.1128 0.0563 0.1663a15.747 15.747 0 0 0 0.7656 1.63l-3.7627 4.5809 6.6733 6.2773 2.4354 1.3247 3.7628-4.5807c0.2825 0.13 0.5837 0.2243 0.877 0.3338l-9e-3 5.0924 2.4352 1.3247 9.4574-1.3291 0.0108-5.7391a18.155 18.155 0 0 0 2.715-1.5466l1.9167 1.8031 2.4353 1.3247 6.6893-8.1553-3.7477-3.5254a21.025 21.025 0 0 0 1.3868-3.7733l5.3062-0.746 0.019-10.196-2.4353-1.3249zm-9.0441 7.357c-0.01 0.1083-0.0311 0.2144-0.0445 0.3224-0.0271 0.2185-0.052 0.4377-0.0921 0.6536-0.0231 0.1249-0.0576 0.2473-0.0852 0.3715-0.0427 0.1946-0.0822 0.39-0.1349 0.5815-0.0372 0.133-0.0847 0.2621-0.1262 0.3935-0.0557 0.1759-0.1075 0.3529-0.1715 0.5257a11.672 11.672 0 0 1-0.6069 1.3481c-0.0447 0.0862-0.0882 0.1733-0.1351 0.2582a11.79 11.79 0 0 1-0.649 1.0521c-0.029 0.042-0.0621 0.0805-0.0919 0.1219q-0.3 0.4185-0.6354 0.8066c-0.0763 0.0886-0.1546 0.175-0.2334 0.261q-0.3086 0.3376-0.6415 0.648c-0.0679 0.0631-0.1326 0.13-0.2019 0.1909a10.849 10.849 0 0 1-0.9567 0.757c-0.0626 0.0441-0.1279 0.0837-0.1914 0.1263a10.174 10.174 0 0 1-1.3309 0.7677c-0.03 0.0141-0.0614 0.0244-0.0913 0.0382a9.4662 9.4662 0 0 1-1.0545 0.4053c-0.1 0.0324-0.2012 0.0637-0.3027 0.0925a8.942 8.942 0 0 1-1.2012 0.2652 8.4122 8.4122 0 0 1-1.168 0.0735c-0.079 0-0.1578 1e-3 -0.2361-9e-4a7.828 7.828 0 0 1-1.0814-0.1033c-0.0628-0.01-0.1238-0.026-0.1863-0.0381-0.2313-0.0451-0.4535-0.1117-0.6768-0.1772-0.0784-0.0229-0.1507-0.0587-0.2285-0.0843a8.6562 8.6562 0 0 1-2.9778-6.79c0.01-5.37 4.0517-10.29 9.0264-10.989a7.914 7.914 0 0 1 3.4951 0.2687 8.6473 8.6473 0 0 1 3.06 6.8633q-2e-3 0.498-0.0484 0.99z"/>
   <g class="cls-2">
    <polygon class="cls-26" points="412.56 437.54 408.81 434.02 406.38 432.69 410.13 436.22"/>
    <polygon class="cls-27" points="422.22 411.15 419.78 409.82 414.47 410.57 416.91 411.89"/>
    <polygon class="cls-26" points="396.04 437.29 393.6 435.97 393.59 441.7 396.03 443.03"/>
    <path class="cls-1" d="m393.53 426.82 2.4353 1.3247a7.724 7.724 0 0 0 4.8135 0.8276l-2.4353-1.3247a7.724 7.724 0 0 1-4.8135-0.8276z"/>
    <path class="cls-1" d="m405.63 410.36-2.4354-1.3247a8.4252 8.4252 0 0 1 4.1787 7.63c-0.01 5.3579-4.0515 10.278-9.0263 10.977l2.4356 1.3244c4.9748-0.6992 9.0164-5.6194 9.0265-10.977a8.4256 8.4256 0 0 0-4.1791-7.6298z"/>
    <path class="cls-1" d="m403.12 399.89 2.4354 1.3247a13.416 13.416 0 0 1 3.314 1.012l-2.4355-1.3248a13.397 13.397 0 0 0-3.3139-1.0119z"/>
    <polygon class="cls-26" points="388.96 440.86 382.29 434.58 379.85 433.26 386.52 439.54"/>
    <g class="cls-2">
     <g class="cls-28" clip-path="url(#clip-path)">
      <path class="cls-26" d="m382.25 425.29a16.356 16.356 0 0 0 1.3625 3.387l2.4355 1.3249a16.354 16.354 0 0 1-1.3627-3.3872z"/>
     </g>
    </g>
    <path class="cls-1" d="m390.35 403.16 2.4355 1.3247a17.784 17.784 0 0 1 3.3192-1.9441l-2.4352-1.3248a17.79 17.79 0 0 0-3.3195 1.9442z"/>
    <polygon class="cls-26" points="396.11 396.81 393.68 395.48 393.67 401.22 396.1 402.54"/>
    <polygon class="cls-27" points="405.57 395.48 403.13 394.15 393.68 395.48 396.11 396.81"/>
    <g class="cls-2">
     <g class="cls-29" clip-path="url(#clip-path-2)">
      <path class="cls-26" d="m382.27 415.09 2.4353 1.3247q0.2655-1.0065 0.6226-1.9774l-2.4353-1.3247q-0.3562 0.969-0.6226 1.9774z"/>
      <path class="cls-26" d="m382.89 413.12 2.4353 1.3247q0.3375-0.9177 0.7535-1.7948l-2.4355-1.3248q-0.415 0.8755-0.7533 1.7949z"/>
     </g>
    </g>
    <polygon class="cls-27" points="384.71 416.42 382.27 415.09 376.96 415.84 379.4 417.16"/>
    <polygon class="cls-26" points="379.4 417.16 376.96 415.84 376.94 426.04 379.38 427.36"/>
    <polygon class="cls-26" points="386.08 412.65 382.33 409.12 379.9 407.8 383.65 411.32"/>
    <path class="cls-26" d="m405.63 410.36-2.4354-1.3248a8.4251 8.4251 0 0 1 4.1787 7.63 11.137 11.137 0 0 1-0.6921 3.8156 11.826 11.826 0 0 1-2.2263 3.7338 11.509 11.509 0 0 1-0.92 0.9289 10.938 10.938 0 0 1-1.09 0.8625 10.21 10.21 0 0 1-1.4642 0.8444 9.2054 9.2054 0 0 1-2.6339 0.7919 7.9844 7.9844 0 0 1-3.1142-0.1591 7.4289 7.4289 0 0 1-1.4245-0.5265q-0.139-0.0681-0.2748-0.1418l2.4353 1.3247q0.1357 0.074 0.2747 0.142a7.4353 7.4353 0 0 0 1.4248 0.5263 7.9833 7.9833 0 0 0 3.114 0.1593 9.205 9.205 0 0 0 2.6339-0.7919 10.165 10.165 0 0 0 1.4641-0.8446 10.876 10.876 0 0 0 1.09-0.8625 11.387 11.387 0 0 0 0.92-0.9287 11.819 11.819 0 0 0 2.2265-3.7338 11.148 11.148 0 0 0 0.6923-3.8157 8.4256 8.4256 0 0 0-4.1789-7.63z"/>
    <path class="cls-27" d="m406.44 400.9a13.308 13.308 0 0 0-2.1667-0.7665q-0.5655-0.1468-1.1472-0.2454l2.4354 1.3247q0.5813 0.0987 1.1473 0.2456a13.301 13.301 0 0 1 2.1667 0.7664l3.7628-4.5807-2.4355-1.3249z"/>
    <polygon class="cls-27" points="386.05 430 383.61 428.68 379.85 433.26 382.29 434.58"/>
    <path class="cls-27" d="m393.35 401.37a17.757 17.757 0 0 0-2.5284 1.4594q-0.2388 0.1655-0.4731 0.3387l2.4355 1.3248q0.2339-0.1732 0.4729-0.3386a17.756 17.756 0 0 1 2.5287-1.46q0.1581-0.0747 0.3178-0.1459l-2.4354-1.3244q-0.1596 0.0715-0.318 0.146z"/>
    <polygon class="cls-27" points="389.03 400.96 386.6 399.64 379.9 407.8 382.33 409.12"/>
    <path class="cls-25" d="m415.54 408.51 3.7627-4.5808-6.6623-6.2787-3.7628 4.5807a13.416 13.416 0 0 0-3.314-1.012l0.0109-5.7389-9.4575 1.3291-0.0107 5.7391a17.779 17.779 0 0 0-3.3194 1.9441l-3.7477-3.5255-6.7 8.1569 3.7477 3.5253a21.759 21.759 0 0 0-1.3761 3.7722l-5.3064 0.7457-0.019 10.196 5.3066-0.7459a16.354 16.354 0 0 0 1.3627 3.3872l-3.7627 4.5807 6.6732 6.2773 3.7628-4.5807a13.006 13.006 0 0 0 3.3139 1.0119l-0.0109 5.739 9.4574-1.3291 0.0108-5.7391a18.319 18.319 0 0 0 3.3193-1.944l3.7477 3.5252 6.6893-8.1553-3.7477-3.5252a21.032 21.032 0 0 0 1.3868-3.7735l5.3064-0.746 0.0188-10.196-5.3064 0.7456a15.785 15.785 0 0 0-1.3734-3.3857zm-14.755 20.464c-4.9748 0.6993-9-3.0873-8.99-8.4451 0.01-5.37 4.0517-10.29 9.0264-10.989s9 3.0873 8.99 8.4568c-0.0103 5.3578-4.0519 10.278-9.0264 10.977z"/>
   </g>
   <path class="cls-12" d="m352.61 387.36c-1.5 6.8972 2.9159 7.1185 3.6444 10.855s-3.63 6.6182-3.63 6.6182 7.3868 2.1086 8.2717 2.0845 2.6292-3.1321 4.7176-3.8184 2.3956 1.6143 5.064 0.7373 4.6391-8.3293 4.9225-13.759-2.7205-12.048-2.7205-12.048c-13.73-4.5606-18.769 2.4328-20.27 9.3301z"/>
   <path class="cls-16" d="m373.58 373.64a16.454 16.454 0 0 1-2.6622-0.2233 10.777 10.777 0 0 1-2.0263-1.224 6.0105 6.0105 0 0 0-4.579-0.4944 10.722 10.722 0 0 0-4.0886 2.3 7.2242 7.2242 0 0 0-5.5043 0.2911 4.04 4.04 0 0 0-2.0013 4.7733c-1.8947 0.3515-2.8656 2.35-2.97 4.1958a11.566 11.566 0 0 0 1.479 5.7309 1.6425 1.6425 0 0 1 0.1859 0.4345 2.1527 2.1527 0 0 1-0.2969 1.203 4.7713 4.7713 0 0 0-0.0125 3.1765 11.58 11.58 0 0 0 1.4888 2.8651 4.9084 4.9084 0 0 0 0.8492 1.0437c1.736 1.49 4.4544 0.3871 6.0189-0.771 0.1624-0.12 1.6742-1.4331 1.8331-1.3369-1.8736-1.1357-4.1623-2.1626-3.6472-5.0124 0.6642-3.6764 4.9747-0.8305 5.5576 0.345s0.7849 1.5919 0.7849 1.5919c1.96-0.9665 1.6822-2.95 1.63-4.8081a14.163 14.163 0 0 0 5.7307 0.71 6.0279 6.0279 0 0 0 2.6962-0.7553 2.8431 2.8431 0 0 0 1.4283-2.299 1.971 1.971 0 0 1 0.1332-1.1473c0.3376-0.4821 1.0906-0.3369 1.6181-0.5971 0.7461-0.3679 0.8228-1.3845 0.7833-2.2154a13.112 13.112 0 0 0-0.8716-4.7586 4.9561 4.9561 0 0 0-3.5573-3.018z"/>
   <path class="cls-12" d="m373.16 564.13c-0.4725-1.7717 1.4175-8.2681 1.4175-8.2681l-8.2681-0.8266s-3.0711 13.82-2.48 14.646 19.371 2.3623 19.252 0.59-9.4493-4.3698-9.9219-6.1415z"/>
   <path class="cls-11" d="m353.29 461.12c-2.46-1.968-25.092-6.3959-25.092-6.3959s-1.4758 10.824 1.9679 19.188 19.627 23.335 28.536 36.899c7.77 11.83 3.67 48.403 3.67 48.403 1.476 0.4918 12.566 1.2882 12.566 1.2882s5.4119-38.375 1.9679-51.167-21.156-46.247-23.616-48.215z"/>
   <path class="cls-12" d="m334.47 570.27c-0.309-1.8074 2.1658-8.1044 2.1658-8.1044l-8.1582-1.5775s-3.6256 13.495-3.1129 14.372 18.691 3.0287 18.735 1.2536-9.3213-4.1363-9.63-5.9438z"/>
   <path class="cls-11" d="m353.87 459.21-23.051-6.4687s-2.9247 4.1356-3.0648 14.513 13.168 33.602 12.486 44.416-16.142 52.805-16.142 52.805l12.911 3.0137s7.1694-19.263 12.254-29.597 11.107-38.383 9.2374-48.484-4.631-30.198-4.631-30.198z"/>
   <path class="cls-15" d="m357.27 403.06c-10.545-3.6261-16.127 4.9338-22.18 18.155s-10.438 44.009-10.438 44.009 3.4216 4.3522 13.581 6.02 21.709-1.4118 21.882-2.5677-0.2347-13.542 1.4058-22.986 6.0222-25.125 4.5969-32.229-8.8484-10.402-8.8484-10.402z"/>
   <path class="cls-10" d="m381.16 566.66c-3.1035-0.9077-7.6722-3.9338-7.6722-3.9338a17.646 17.646 0 0 1-4.9134 0.2018c-3.362-0.2018-4.1379-1.21-4.1379-1.21-1.379 3.0259-1.1206 9.784-1.1206 9.784l9.31 0.706 0.0862-0.8068s6.6378 1.1094 9.8274 0.706a11.597 11.597 0 0 0 5-1.7147s-0.2584-0.6052-0.69-1.4122-2.5864-1.4125-5.6895-2.3203z"/>
   <path class="cls-10" d="m342.5 573.18c-3.1033-0.9079-7.672-3.9338-7.672-3.9338a17.657 17.657 0 0 1-4.9136 0.2018c-3.3621-0.2018-4.1377-1.21-4.1377-1.21-1.3792 3.0259-1.1206 9.784-1.1206 9.784l9.31 0.706 0.0863-0.8069s6.6377 1.11 9.8272 0.7061a11.602 11.602 0 0 0 5-1.7147s-0.2586-0.6052-0.69-1.4121-2.5863-1.4126-5.6896-2.3204z"/>
   <path class="cls-12" d="m406.83 433.68a10.96 10.96 0 0 1-5.5085 1.0747 7.8064 7.8064 0 0 0 0.94-4.165c-0.2686-2.0152-3.09 2.5528-4.5679 4.165a8.7024 8.7024 0 0 1-2.8214 2.1494l-0.2687 4.4338s9.5388-0.403 12.36-1.7467 3.4931-6.0456 3.4931-7.6578-1.2081 0.4031-3.6266 1.7466z"/>
   <path class="cls-15" d="m370.35 434.21c-2.57-4.2834-5.354-24.201-10.066-27.627s-10.923-2.7843-12.207 4.069c0 0 6.853 24.629 12.85 31.696s35.551 0 35.551 0l-0.8565-6.4247s-22.702 2.5699-25.272-1.7133z"/>
   <path class="cls-30" d="m413.87 570.53c-0.8145-1.8222 2.2061-9.0252 2.2061-9.0252l-8.4206 0.5535c-1.5928 8.2105-3.1055 7.6257-1.9033 11.7s14.172 4.6958 16.586 3.8058-7.6537-5.2123-8.4683-7.0341z"/>
   <path class="cls-10" d="m419.7 454.35c-4.8286-0.2951-9.3834-0.5426-13.908-1.1965l-2.1489 0.4173c-0.7121 6.2187-1.1345 15.056 0.5637 23.401 3.06 15.041 7.1914 41.458 6.892 45.55s-4.916 42.437-4.916 42.437l12.082 3.4544s7.1948-32.919 8.2135-44.212c0.9018-9.993 0.3531-58.359 0.2147-69.369q-3.4961-0.2634-6.9921-0.4825z"/>
   <path class="cls-30" d="m457.17 540.68c-1.3357-1.3738 0.3819-8.8233 0.3819-8.8233l-7.7188-1.2119c1.1014 8.3129-1.6885 12.827 0.1328 16.596 0.9209 1.9058 16.766 1.7286 18.741-0.0769s-10.201-5.1104-11.537-6.484z"/>
   <path class="cls-10" d="m434.78 458.64s-30.539-10.445-28.556 1.7861c4.481 27.646 45.658 28.691 46.247 33.322s-4.1449 42.502-4.1449 42.502l10.697 1.8946s13.24-44.394 8.0288-55.986-32.272-23.519-32.272-23.519z"/>
   <path class="cls-12" d="m457.06 353.99c-0.3427-1.0036 0.47-3.4356 1.5647-4.6009s3.732-2.673 2.8649-3.3326-4.942 1.859-4.7621 1.6291 3.1454-1.7965 2.068-2.0947-4.0749 1.6693-4.0749 1.6693 3.1228-2.4089 0.7938-1.9021a5.5218 5.5218 0 0 0-2.9114 2.16c0.395-0.6255 0.7864-1.4432-0.0969-1.15-1.3782 0.4576-3.12 3.6114-3.9919 5.7473s-0.2053 6.7248-1.2862 8.6631 5.2364 2.1475 5.2364 2.1475a8.0776 8.0776 0 0 1 2.8074-4.7464c2.4135-1.9193 8.138-5.23 7.3309-6.152s-5.1997 2.9662-5.5427 1.9624z"/>
   <path class="cls-20" d="m439.69 382c-2.6023 7.6442-14.724 15.079-15.514 17.418s10.81 4.6324 12.156 4.21 10.246-10.444 12.663-16.861 4.5856-25.519 4.5856-25.519l-6.3461-2.0057s-4.9422 15.114-7.5444 22.758z"/>
   <path class="cls-12" d="m479.44 353.23a6.5742 6.5742 0 0 0-0.518-3.8164c-1.2339-2.2281-0.74 1.9281-0.74 1.9281s-0.7052-3.7562-1.6334-4.427 0.0241 2.7884-8e-3 3.0894c-0.0324 0.301-1.0962-4.6992-2.1248-4.9557s-0.2581 2.8974-0.3 4.5712-1.1253 3.975-2.0305 4.3759-1.2645-5.7833-2.429-5.8132 0.4828 6.8413 0.8257 10.092a8.4261 8.4261 0 0 1-1.2883 5.4805s4.41 4.9727 4.98 2.7877 4.1-4.7466 4.9447-6.896 1.7837-5.69 1.16-7.1154c-0.4005-0.9132-0.6851-0.0438-0.8381 0.6987z"/>
   <path class="cls-12" d="m437.25 367.88c-8.1209-7.1548-14.862-1.8236-17.172 3.0025s3.41 18.431 8.2216 20.412c0.18 0.0744 0.3726 0.1339 0.561 0.1981 1.29 3.6861-0.1887 5.1124-0.1455 5.2863 0.0467 0.1872 10.519 1.248 10.833 1.2913s-0.77-2.1193-0.8745-4.4971a4.97 4.97 0 0 1 0.2862-1.9974 11.3 11.3 0 0 0 4.3413-1.8326c2.3042-1.9523 1.4725-6.584-0.868-12.744a28.747 28.747 0 0 0-5.184-9.119z"/>
   <path class="cls-15" d="m443.22 398.46s-9.9462-7.5262-21.385-1.268-20.298 57.362-20.005 58.926 21.713 11.817 39.975 2.3832a57.24 57.24 0 0 1 4.0454-43.997c5.5055-10.189 20.196-18.539 29.254-48.521l-6.13-3.518s-7.6611 21.71-25.754 35.995z"/>
   <path class="cls-31" d="m439.98 363.86a21.123 21.123 0 0 0-1.5934-1.4166 20.876 20.876 0 0 0-7.0373-3.716 3.0548 3.0548 0 0 1-1.3637 3.4036 8.9331 8.9331 0 0 1-3.7453 1.1628l-4.7035 0.7246c-2.0421 0.3146-4.38 0.8323-5.3259 2.67a6.6352 6.6352 0 0 0-0.4048 3.4717 37.866 37.866 0 0 0-3.8309 0.0786 12.543 12.543 0 0 0 2.4015 1.456 4.0406 4.0406 0 0 0-1.3481 2.02q0.8046 0 1.61-9e-4a13.055 13.055 0 0 0 4.71 13.034 36.416 36.416 0 0 1 3.1351 2.3063 4.2508 4.2508 0 0 1 1.5237 3.4313 27.639 27.639 0 0 0 3.6026-1.6064 8.8539 8.8539 0 0 0 2.686-3.3665 3.0189 3.0189 0 0 0-0.1379-3.46 5.9913 5.9913 0 0 1-1.0551-4.2352c0.5151-2.5226 3.7681 0.8687 4.522 1.35 0.4234 0.27 0.06-3.6851-0.0711-4.1033-0.6831-2.1684 1.0471-2.0185 2.7344-2.7361a2.9687 2.9687 0 0 0 1.7083-3.1555 6.7968 6.7968 0 0 0 3.3552 0.9149 43.556 43.556 0 0 0-2.948-5.9576c0.8144 0.4067 3.6971 2.4471 4.0665 1.3458 0.3734-1.1143-1.8315-2.9673-2.4903-3.6152z"/>
   <path class="cls-32" d="m467.32 544.11c-2.4833-0.661-9.7136-3.8825-9.7136-3.8825a7.1376 7.1376 0 0 1-4.09 0.9913 6.7851 6.7851 0 0 1-4.1629-1.1567 30.174 30.174 0 0 0-0.5841 9.1692l7.9606 0.1652 0.0731-0.4129a21.292 21.292 0 0 0 8.691 0.0825c4.3087-0.9912 5.7694-2.6433 6.1346-3.304s-1.8257-0.9914-4.3087-1.6521z"/>
   <path class="cls-32" d="m423.34 573.85c-2.4227-0.9039-9.3762-4.8286-9.3762-4.8286a7.0376 7.0376 0 0 1-4.1508 0.583 6.9289 6.9289 0 0 1-4.0575-1.564 30.009 30.009 0 0 0-1.2913 9.0761l7.9177 0.9523 0.1045-0.4043a21.403 21.403 0 0 0 8.6514 0.9419c4.3692-0.5612 5.9518-2.0623 6.3668-2.6844s-1.7423-1.1681-4.1646-2.072z"/>
   <rect class="cls-26" x="439.29" y="547.7" width="33.848" height="31.028"/>
   <rect class="cls-25" x="439.29" y="547.7" width="26.12" height="31.028"/>
  </g>
 </g>
</svg>
