<svg width="50" height="50" viewBox="0 0 50 50" fill="none" xmlns="http://www.w3.org/2000/svg">
<g clip-path="url(#clip0_945_39)">
<path d="M40.0001 28.3333H28.3334V40M46.6668 28.3333H50.0001M40.0001 48.3333H26.6667M36.6667 38.3333H48.3334V50M10.0001 11.6666H13.3334M36.6667 11.6666H40.0001M10.0001 38.3333H13.3334M5.00008 1.66663H18.3334C19.2175 1.66663 20.0653 2.01782 20.6904 2.64294C21.3156 3.26806 21.6667 4.1159 21.6667 4.99996V18.3333C21.6667 19.2173 21.3156 20.0652 20.6904 20.6903C20.0653 21.3154 19.2175 21.6666 18.3334 21.6666H5.00008C4.11603 21.6666 3.26818 21.3154 2.64306 20.6903C2.01794 20.0652 1.66675 19.2173 1.66675 18.3333V4.99996C1.66675 4.1159 2.01794 3.26806 2.64306 2.64294C3.26818 2.01782 4.11603 1.66663 5.00008 1.66663ZM31.6667 1.66663H45.0001C45.8841 1.66663 46.732 2.01782 47.3571 2.64294C47.9822 3.26806 48.3334 4.1159 48.3334 4.99996V18.3333C48.3334 19.2173 47.9822 20.0652 47.3571 20.6903C46.732 21.3154 45.8841 21.6666 45.0001 21.6666H31.6667C30.7827 21.6666 29.9348 21.3154 29.3097 20.6903C28.6846 20.0652 28.3334 19.2173 28.3334 18.3333V4.99996C28.3334 4.1159 28.6846 3.26806 29.3097 2.64294C29.9348 2.01782 30.7827 1.66663 31.6667 1.66663ZM5.00008 28.3333H18.3334C19.2175 28.3333 20.0653 28.6845 20.6904 29.3096C21.3156 29.9347 21.6667 30.7826 21.6667 31.6666V45C21.6667 45.884 21.3156 46.7319 20.6904 47.357C20.0653 47.9821 19.2175 48.3333 18.3334 48.3333H5.00008C4.11603 48.3333 3.26818 47.9821 2.64306 47.357C2.01794 46.7319 1.66675 45.884 1.66675 45V31.6666C1.66675 30.7826 2.01794 29.9347 2.64306 29.3096C3.26818 28.6845 4.11603 28.3333 5.00008 28.3333Z" stroke="#272829" stroke-width="2"/>
</g>
<defs>
<clipPath id="clip0_945_39">
<rect width="50" height="50" fill="white"/>
</clipPath>
</defs>
</svg>
