<svg width="42" height="42" viewBox="0 0 49 50" fill="none"
  xmlns="http://www.w3.org/2000/svg">
  <path d="M17.6628 0H3.98837C2.93059 0 1.91613 0.428778 1.16817 1.19201C0.420202 1.95524 0 2.9904 0 4.06977V18.0233C0 18.5577 0.103162 19.0869 0.303596 19.5807C0.504031 20.0745 0.797813 20.5231 1.16817 20.901C1.53852 21.2789 1.9782 21.5787 2.46209 21.7832C2.94598 21.9878 3.46461 22.093 3.98837 22.093H17.6628C18.1866 22.093 18.7052 21.9878 19.1891 21.7832C19.673 21.5787 20.1126 21.2789 20.483 20.901C20.8534 20.5231 21.1471 20.0745 21.3476 19.5807C21.548 19.0869 21.6512 18.5577 21.6512 18.0233V4.06977C21.6512 3.53532 21.548 3.0061 21.3476 2.51234C21.1471 2.01857 20.8534 1.56992 20.483 1.19201C20.1126 0.814095 19.673 0.514317 19.1891 0.309792C18.7052 0.105267 18.1866 0 17.6628 0ZM18.2326 18.0233C18.2326 18.1775 18.1725 18.3253 18.0657 18.4344C17.9588 18.5434 17.8139 18.6047 17.6628 18.6047H3.98837C3.83726 18.6047 3.69234 18.5434 3.58549 18.4344C3.47863 18.3253 3.4186 18.1775 3.4186 18.0233V4.06977C3.4186 3.91557 3.47863 3.76769 3.58549 3.65866C3.69234 3.54963 3.83726 3.48837 3.98837 3.48837H17.6628C17.8139 3.48837 17.9588 3.54963 18.0657 3.65866C18.1725 3.76769 18.2326 3.91557 18.2326 4.06977V18.0233ZM17.6628 27.907H3.98837C2.93059 27.907 1.91613 28.3358 1.16817 29.099C0.420202 29.8622 0 30.8974 0 31.9767V45.9302C0 47.0096 0.420202 48.0448 1.16817 48.808C1.91613 49.5712 2.93059 50 3.98837 50H17.6628C18.1866 50 18.7052 49.8947 19.1891 49.6902C19.673 49.4857 20.1126 49.1859 20.483 48.808C20.8534 48.4301 21.1471 47.9814 21.3476 47.4877C21.548 46.9939 21.6512 46.4647 21.6512 45.9302V31.9767C21.6512 31.4423 21.548 30.9131 21.3476 30.4193C21.1471 29.9255 20.8534 29.4769 20.483 29.099C20.1126 28.7211 19.673 28.4213 19.1891 28.2168C18.7052 28.0122 18.1866 27.907 17.6628 27.907ZM18.2326 45.9302C18.2326 46.0844 18.1725 46.2323 18.0657 46.3413C17.9588 46.4504 17.8139 46.5116 17.6628 46.5116H3.98837C3.83726 46.5116 3.69234 46.4504 3.58549 46.3413C3.47863 46.2323 3.4186 46.0844 3.4186 45.9302V31.9767C3.4186 31.8225 3.47863 31.6747 3.58549 31.5656C3.69234 31.4566 3.83726 31.3953 3.98837 31.3953H17.6628C17.8139 31.3953 17.9588 31.4566 18.0657 31.5656C18.1725 31.6747 18.2326 31.8225 18.2326 31.9767V45.9302ZM45.0116 0H31.3372C30.2794 0 29.265 0.428778 28.517 1.19201C27.769 1.95524 27.3488 2.9904 27.3488 4.06977V18.0233C27.3488 18.5577 27.452 19.0869 27.6524 19.5807C27.8529 20.0745 28.1467 20.5231 28.517 20.901C28.8874 21.2789 29.327 21.5787 29.8109 21.7832C30.2948 21.9878 30.8134 22.093 31.3372 22.093H45.0116C45.5354 22.093 46.054 21.9878 46.5379 21.7832C47.0218 21.5787 47.4615 21.2789 47.8318 20.901C48.2022 20.5231 48.496 20.0745 48.6964 19.5807C48.8968 19.0869 49 18.5577 49 18.0233V4.06977C49 2.9904 48.5798 1.95524 47.8318 1.19201C47.0839 0.428778 46.0694 0 45.0116 0ZM45.5814 18.0233C45.5814 18.1775 45.5214 18.3253 45.4145 18.4344C45.3077 18.5434 45.1627 18.6047 45.0116 18.6047H31.3372C31.1861 18.6047 31.0412 18.5434 30.9343 18.4344C30.8275 18.3253 30.7674 18.1775 30.7674 18.0233V4.06977C30.7674 3.91557 30.8275 3.76769 30.9343 3.65866C31.0412 3.54963 31.1861 3.48837 31.3372 3.48837H45.0116C45.1627 3.48837 45.3077 3.54963 45.4145 3.65866C45.5214 3.76769 45.5814 3.91557 45.5814 4.06977V18.0233ZM27.3488 38.9535V29.6512C27.3488 29.1886 27.5289 28.7449 27.8495 28.4178C28.17 28.0907 28.6048 27.907 29.0581 27.907C29.5115 27.907 29.9462 28.0907 30.2668 28.4178C30.5874 28.7449 30.7674 29.1886 30.7674 29.6512V38.9535C30.7674 39.4161 30.5874 39.8597 30.2668 40.1868C29.9462 40.5139 29.5115 40.6977 29.0581 40.6977C28.6048 40.6977 28.17 40.5139 27.8495 40.1868C27.5289 39.8597 27.3488 39.4161 27.3488 38.9535ZM49 34.3023C49 34.7649 48.8199 35.2086 48.4994 35.5357C48.1788 35.8628 47.744 36.0465 47.2907 36.0465H39.8837V48.2558C39.8837 48.7184 39.7036 49.162 39.3831 49.4891C39.0625 49.8162 38.6278 50 38.1744 50H29.0581C28.6048 50 28.17 49.8162 27.8495 49.4891C27.5289 49.162 27.3488 48.7184 27.3488 48.2558C27.3488 47.7932 27.5289 47.3496 27.8495 47.0225C28.17 46.6954 28.6048 46.5116 29.0581 46.5116H36.4651V29.6512C36.4651 29.1886 36.6452 28.7449 36.9658 28.4178C37.2863 28.0907 37.7211 27.907 38.1744 27.907C38.6278 27.907 39.0625 28.0907 39.3831 28.4178C39.7036 28.7449 39.8837 29.1886 39.8837 29.6512V32.5581H47.2907C47.744 32.5581 48.1788 32.7419 48.4994 33.069C48.8199 33.3961 49 33.8397 49 34.3023ZM49 43.6046V48.2558C49 48.7184 48.8199 49.162 48.4994 49.4891C48.1788 49.8162 47.744 50 47.2907 50C46.8374 50 46.4026 49.8162 46.082 49.4891C45.7615 49.162 45.5814 48.7184 45.5814 48.2558V43.6046C45.5814 43.1421 45.7615 42.6984 46.082 42.3713C46.4026 42.0442 46.8374 41.8605 47.2907 41.8605C47.744 41.8605 48.1788 42.0442 48.4994 42.3713C48.8199 42.6984 49 43.1421 49 43.6046Z" fill="#123735"/>
  <circle cx="11" cy="11" r="4" fill="#123735"/>
  <circle cx="39" cy="11" r="4" fill="#123735"/>
  <circle cx="11" cy="39" r="4" fill="#123735"/>
</svg>
