<svg width="680" height="119" viewBox="0 0 680 119" fill="none" xmlns="http://www.w3.org/2000/svg">
<path d="M1.71332 1.60083H24.3338L55.7016 95.0683L86.9072 1.60083H109.69L69.5702 117.385H41.6755L1.71332 1.60083Z" fill="#F5EFE6"/>
<path d="M198.676 1.60083H225.918L199.5 117.385H179.204L186.613 85.4595H140.891L110.671 117.385H85.2495L198.676 1.60083ZM190.753 67.6057L201.649 21.2872L157.732 67.6057H190.753Z" fill="#F5EFE6"/>
<path d="M241.931 1.60083H266.362L314.242 85.1439V1.60083H334.552V117.385H310.116L262.236 33.6939V117.385H241.931V1.60083Z" fill="#F5EFE6"/>
<path d="M381.766 1.60083H414.787C440.718 1.60083 461.843 17.4827 461.843 49.7428C461.843 82.6849 437.569 117.399 392.995 117.399H349.574L381.766 1.60083ZM395.454 98.3626C425.502 98.3626 440.195 73.3822 440.195 50.8841C440.195 30.8683 429.461 20.6098 413.282 20.6098H396.611L375.163 98.3626H395.454Z" fill="#F5EFE6"/>
<path d="M467.122 1.60083H542.902V20.6238H492.697L499.962 47.0935H555.603V66.1164H505.259L514.173 98.3626H569.815V117.385H499.318L467.122 1.60083Z" fill="#F5EFE6"/>
<path d="M584.846 1.60083H635.69C659.959 1.60083 674.98 14.671 674.98 36.1762C674.98 55.3661 662.941 67.9398 643.117 70.4174L678.282 117.385H653.189L618.353 70.4035H605.146V117.385H584.846V1.60083ZM635.532 51.8909C647.572 51.8909 654.356 45.9335 654.356 36.1762C654.356 26.4188 647.586 20.6238 635.532 20.6238H605.155V51.8909H635.532Z" fill="#F5EFE6"/>
</svg>
